<svg xmlns="http://www.w3.org/2000/svg" xmlns:xlink="http://www.w3.org/1999/xlink" x="0" y="0" viewBox="0 0 189.2 103.8" xml:space="preserve" style="enable-background:new 0 0 189.2 103.8"><style type="text/css">.easy-start-0{fill:#fff}.easy-start-1{fill:none;stroke:#377dff}.easy-start-2{fill:#19a0ff}.easy-start-4{fill:#377dff}</style><g id="easyStart_306_"><rect id="easyStart_684_" width="9.3" height="5.7" x="129.8" y="66.9" class="easy-start-0 fill-white"/><polyline id="easyStart_381_" stroke-miterlimit="10" stroke-width="1.5" points="129.8 72.5 129.8 66.9 135.4 66.9" class="easy-start-1 fill-none stroke-primary"/><path id="easyStart_682_" d="M141.9,102.7h-14.7V71.5c0-0.8,0.6-1.4,1.4-1.4h11.9c0.8,0,1.4,0.6,1.4,1.4L141.9,102.7 L141.9,102.7z" class="easy-start-0 fill-white"/><line id="easyStart_380_" x1="128.2" x2="135.4" y1="70.1" y2="70.1" stroke-miterlimit="10" stroke-width="1.5" class="easy-start-1 fill-none stroke-primary"/><line id="easyStart_686_" x1="134.6" x2="134.6" y1="61.3" y2="66.4" stroke-miterlimit="10" stroke-width="1.5" class="easy-start-1 fill-none stroke-primary"/><line id="easyStart_685_" x1="130.6" x2="130.6" y1="73.9" y2="100.8" stroke-miterlimit="10" stroke-width="1.5" class="easy-start-1 fill-none stroke-primary"/><line id="easyStart_687_" x1="134.5" x2="134.5" y1="73.9" y2="100.8" stroke-miterlimit="10" stroke-width="1.5" class="easy-start-1 fill-none stroke-primary"/><g id="easyStart_315_"><path id="easyStart_379_" d="M156.9,67.4v32.9c0,1.1-0.9,1.9-1.9,1.9h-15.5c-1.1,0-1.9-0.9-1.9-1.9V67.4 c0-1.1,0.9-1.9,1.9-1.9H155C156,65.4,156.9,66.3,156.9,67.4z" class="easy-start-2 fill-primary-lighter" opacity=".5"/><path id="easyStart_357_" stroke-miterlimit="10" stroke-width="1.5" d="M156.9,87.8v-17v-3.3c0-1.2-0.9-2.1-2.1-2.1h-15.1c-1.2,0-2.1,0.9-2.1,2.1v19.8v9.8v2.9 c0,1.2,0.9,2.1,2.1,2.1h9.6" class="easy-start-1 fill-none stroke-primary"/><path id="easyStart_356_" d="M153.6,83.9c-0.1,3.6-3,6.5-6.6,6.4s-6.5-3-6.4-6.6s3-6.4,6.6-6.4 C150.9,77.3,153.7,80.3,153.6,83.9z" class="easy-start-0 fill-white"/><path id="easyStart_350_" d="M148.7,73.6c0,1-0.8,1.7-1.8,1.7s-1.7-0.8-1.7-1.8s0.8-1.7,1.8-1.7 C148,71.8,148.7,72.6,148.7,73.6z" class="easy-start-0 fill-white"/><path id="easyStart_349_" d="M148.7,94.3c0,1-0.8,1.7-1.8,1.7s-1.7-0.8-1.7-1.8s0.8-1.7,1.8-1.7S148.7,93.3,148.7,94.3z" class="easy-start-0 fill-white"/><g id="easyStart_329_"><path id="easyStart_335_" stroke-miterlimit="10" stroke-width="1.5" d="M144.7,81.1v3.2c0,0.7,0.6,1.2,1.2,1.2l0,0c0.7,0,1.2-0.6,1.2-1.2V83c0-0.7,0.6-1.2,1.2-1.2 l0,0c0.7,0,1.2,0.6,1.2,1.2v3.3" class="easy-start-1 fill-none stroke-primary"/><line id="easyStart_332_" x1="142.6" x2="151.6" y1="83.7" y2="83.7" stroke-miterlimit="10" stroke-width="1.5" class="easy-start-1 fill-none stroke-primary"/></g><path id="easyStart_323_" stroke-miterlimit="10" stroke-width="1.5" d="M153.8,75.3V72c0-0.2-0.1-0.3-0.3-0.3c-1.7-0.1-3-1.5-3.2-3.2c0-0.2-0.1-0.3-0.3-0.3 c-1.1,0-4.7,0-5.7,0c-0.2,0-0.3,0.1-0.3,0.3c-0.1,1.7-1.5,3.1-3.2,3.2c-0.2,0-0.3,0.1-0.3,0.3v2.8" class="easy-start-1 fill-none stroke-primary"/><path id="easyStart_317_" stroke-miterlimit="10" stroke-width="1.5" d="M149.6,99.6c-1.1,0-5.3,0-6.4,0c-0.2,0-0.3-0.1-0.3-0.3c-0.1-1.7-1.5-3.1-3.2-3.2 c-0.2,0-0.3-0.1-0.3-0.3V93" class="easy-start-1 fill-none stroke-primary"/></g><path id="easyStart_313_" d="M150.9,103v-3.3c0-0.3,0.2-0.5,0.5-0.5h12.7c0.3,0,0.5,0.2,0.5,0.5v3.3H150.9z" class="easy-start-0 fill-white"/><path id="easyStart_312_" stroke-miterlimit="10" stroke-width="1.5" d="M150.9,103v-3.3c0-0.3,0.2-0.5,0.5-0.5h12.7c0.3,0,0.5,0.2,0.5,0.5v3.3" class="easy-start-1 fill-none stroke-primary"/><path id="easyStart_310_" d="M165,98.7h-13c-0.2,0-0.4-0.2-0.4-0.4v-3.6c0-0.2,0.2-0.4,0.4-0.4h13c0.2,0,0.4,0.2,0.4,0.4 v3.6C165.3,98.5,165.2,98.7,165,98.7z" class="easy-start-0 fill-white"/><path id="easyStart_309_" stroke-miterlimit="10" stroke-width="1.5" d="M165,98.7h-13c-0.2,0-0.4-0.2-0.4-0.4v-3.6c0-0.2,0.2-0.4,0.4-0.4h13c0.2,0,0.4,0.2,0.4,0.4 v3.6C165.3,98.5,165.2,98.7,165,98.7z" class="easy-start-1 fill-none stroke-primary"/><path id="easyStart_308_" d="M164.3,93.8h-12.9c-0.2,0-0.4-0.2-0.4-0.4v-3.6c0-0.2,0.2-0.4,0.4-0.4h12.9 c0.2,0,0.4,0.2,0.4,0.4v3.6C164.7,93.6,164.6,93.8,164.3,93.8z" class="easy-start-0 fill-white"/><path id="easyStart_307_" stroke-miterlimit="10" stroke-width="1.5" d="M164.3,93.8h-12.9c-0.2,0-0.4-0.2-0.4-0.4v-3.6c0-0.2,0.2-0.4,0.4-0.4h12.9 c0.2,0,0.4,0.2,0.4,0.4v3.6C164.7,93.6,164.6,93.8,164.3,93.8z" class="easy-start-1 fill-none stroke-primary"/></g><g id="easyStart_364_"><line id="easyStart_366_" x1="96.4" x2="100.7" y1="5.8" y2="5.8" stroke-linecap="round" stroke-miterlimit="10" stroke-width="1.5" class="easy-start-1 fill-none stroke-primary"/><line id="easyStart_365_" x1="98.5" x2="98.5" y1="7.9" y2="3.6" stroke-linecap="round" stroke-miterlimit="10" stroke-width="1.5" class="easy-start-1 fill-none stroke-primary"/></g><g id="easyStart_438_"><line id="easyStart_441_" x1="37.7" x2="42" y1="22.6" y2="22.6" stroke-linecap="round" stroke-miterlimit="10" stroke-width="1.5" class="easy-start-1 fill-none stroke-primary"/><line id="easyStart_439_" x1="39.8" x2="39.8" y1="24.8" y2="20.5" stroke-linecap="round" stroke-miterlimit="10" stroke-width="1.5" class="easy-start-1 fill-none stroke-primary"/></g><g id="easyStart_358_"><line id="easyStart_360_" x1="185.4" x2="188.4" y1="41.5" y2="38.5" stroke-linecap="round" stroke-miterlimit="10" stroke-width="1.5" class="easy-start-1 fill-none stroke-primary"/><line id="easyStart_359_" x1="188.4" x2="185.4" y1="41.5" y2="38.5" stroke-linecap="round" stroke-miterlimit="10" stroke-width="1.5" class="easy-start-1 fill-none stroke-primary"/></g><g id="easyStart_446_"><line id="easyStart_448_" x1="4.6" x2="7.6" y1="62.8" y2="59.8" stroke-linecap="round" stroke-miterlimit="10" stroke-width="1.5" class="easy-start-1 fill-none stroke-primary"/><line id="easyStart_447_" x1="7.6" x2="4.6" y1="62.8" y2="59.8" stroke-linecap="round" stroke-miterlimit="10" stroke-width="1.5" class="easy-start-1 fill-none stroke-primary"/></g><line id="easyStart_397_" x1="11.3" x2="28.7" y1="48" y2="48" stroke-miterlimit="10" stroke-width="1.5" class="easy-start-1 fill-none stroke-primary"/><line id="easyStart_398_" x1="69.7" x2="50" y1="5.8" y2="5.8" stroke-miterlimit="10" stroke-width="1.5" class="easy-start-1 fill-none stroke-primary"/><line id="easyStart_437_" x1="145.7" x2="183.5" y1="40" y2="40" stroke-miterlimit="10" stroke-width="1.5" class="easy-start-1 fill-none stroke-primary"/><line id="easyStart_396_" x1="33.8" x2="30.2" y1="48" y2="48" stroke-miterlimit="10" stroke-width="1.5" class="easy-start-1 fill-none stroke-primary"/><line id="easyStart_436_" x1="95.2" x2="112.6" y1="11.8" y2="11.8" stroke-miterlimit="10" stroke-width="1.5" class="easy-start-1 fill-none stroke-primary"/><line id="easyStart_267_" x1="117.6" x2="114.1" y1="11.8" y2="11.8" stroke-miterlimit="10" stroke-width="1.5" class="easy-start-1 fill-none stroke-primary"/><path id="easyStart_344_" d="M128.5,34.7c0,0.7-0.6,1.3-1.3,1.3c-0.7,0-1.3-0.6-1.3-1.3s0.6-1.3,1.3-1.3	C127.9,33.3,128.5,33.9,128.5,34.7z" class="easy-start-4 fill-primary"/><path id="easyStart_445_" d="M59.5,55.5c0,0.7-0.6,1.3-1.3,1.3s-1.3-0.6-1.3-1.3s0.6-1.3,1.3-1.3S59.5,54.8,59.5,55.5z" class="easy-start-4 fill-primary"/><path id="easyStart_442_" d="M148.4,20.6c0,0.4-0.3,0.8-0.8,0.8c-0.4,0-0.8-0.3-0.8-0.8s0.3-0.8,0.8-0.8	C148.1,19.8,148.4,20.1,148.4,20.6z" class="easy-start-4 fill-primary"/><path id="easyStart_444_" d="M56.7,1c0,0.6-0.5,1-1,1c-0.6,0-1-0.5-1-1c0-0.6,0.5-1,1-1S56.7,0.5,56.7,1z" class="easy-start-4 fill-primary"/><g id="easyStart_2_"><path id="easyStart_269_" d="M121.7,103H47c-4.2,0-7.5-3.4-7.5-7.5v-0.3c0-4.2,3.4-7.5,7.5-7.5h74.7c4.2,0,7.5,3.4,7.5,7.5 v0.3C129.3,99.6,125.9,103,121.7,103z" class="easy-start-0 fill-white"/><ellipse id="easyStart_299_" cx="58.2" cy="75.9" class="easy-start-0 fill-white" rx="11.7" ry="11.7"/><path id="easyStart_298_" d="M50,77.7c0,2.6-2.1,4.6-4.6,4.6c-2.6,0-4.6-2.1-4.6-4.6c0-2.6,2.1-4.6,4.6-4.6 C47.9,73,50,75.1,50,77.7z" class="easy-start-0 fill-white"/><path id="easyStart_42_" d="M47.7,83c0,3.8-3.1,6.9-6.9,6.9c-3.8,0-6.9-3.1-6.9-6.9s3.1-6.9,6.9-6.9 C44.7,76.1,47.7,79.2,47.7,83z" class="easy-start-0 fill-white"/><path id="easyStart_229_" d="M48.7,93.8c0,5.1-4.1,9.3-9.3,9.3c-5.1,0-9.3-4.1-9.3-9.3c0-5.1,4.1-9.3,9.3-9.3 S48.7,88.6,48.7,93.8z" class="easy-start-0 fill-white"/><path id="easyStart_278_" stroke-miterlimit="10" stroke-width="1.5" d="M39.5,103c-5.1,0-9.3-4.1-9.3-9.3c0-3.1,1.6-5.9,3.9-7.6" class="easy-start-1 fill-none stroke-primary"/><path id="easyStart_297_" d="M72.5,85.3c0,2.1-1.7,3.9-3.9,3.9c-2.1,0-3.9-1.7-3.9-3.9c0-2.1,1.7-3.9,3.9-3.9 S72.5,83.1,72.5,85.3z" class="easy-start-0 fill-white"/><ellipse id="easyStart_296_" cx="109.2" cy="75.4" class="easy-start-0 fill-white" rx="10.7" ry="10.7"/><path id="easyStart_435_" d="M121.8,81.4c-0.3,3.8-3.1,6.8-6.8,6.8c-3.8,0-6.8-3.1-6.8-6.8s3.1-6.8,6.8-6.8 C118.7,74.5,122.1,77.6,121.8,81.4z" class="easy-start-0 fill-white"/><path id="easyStart_284_" d="M114.9,86.1c-0.3,3.8-3.1,6.8-6.8,6.8s-6.8-3.1-6.8-6.8c0-3.8,3.1-6.8,6.8-6.8 S115.3,82.3,114.9,86.1z" class="easy-start-0 fill-white"/><path id="easyStart_285_" d="M67.9,86.2C67.2,90,62,93,54.8,93s-13-3.1-13-6.8c0-3.8,5.8-6.8,13-6.8 C62,79.3,68.5,82.4,67.9,86.2z" class="easy-start-0 fill-white"/><path id="easyStart_261_" d="M135.4,83c-0.5,5.5-4.5,10-10,10s-10-4.5-10-10s4.5-10,10-10C131,73,135.9,77.5,135.4,83z" class="easy-start-0 fill-white"/><path id="easyStart_262_" d="M132.7,93.4c-0.5,5.3-4.3,9.6-9.6,9.6c-5.3,0-9.6-4.3-9.6-9.6c0-5.3,4.3-9.6,9.6-9.6 C128.4,83.7,133.2,88.1,132.7,93.4z" class="easy-start-0 fill-white"/><path id="easyStart_292_" d="M106.4,82.5c0,3.5-2.8,6.3-6.3,6.3s-6.3-2.8-6.3-6.3s2.8-6.3,6.3-6.3S106.4,79,106.4,82.5z" class="easy-start-0 fill-white"/><path id="easyStart_290_" d="M98.3,88c0,2-1.6,3.7-3.7,3.7c-2,0-3.7-1.6-3.7-3.7c0-2,1.6-3.7,3.7-3.7 C96.7,84.3,98.3,86,98.3,88z" class="easy-start-0 fill-white"/><path id="easyStart_289_" stroke-miterlimit="10" stroke-width="1.5" d="M90.7,88.3c0-2,1.6-3.7,3.7-3.7" class="easy-start-1 fill-none stroke-primary"/><path id="easyStart_288_" d="M83.3,90.3c0,2.3-3.3,4.2-7.3,4.2s-7.3-1.9-7.3-4.2c0-2.3,3.3-4.2,7.3-4.2 C80,86.1,83.3,88,83.3,90.3z" class="easy-start-0 fill-white"/><path id="easyStart_434_" d="M125.6,73.3c0,2.7-4.6,10-4.6,6.6c0-2.7-4.9-2.2-4.9-4.9s2.2-4.9,4.9-4.9 C123.7,70.1,125.6,70.6,125.6,73.3z" class="easy-start-0 fill-white"/><path id="easyStart_287_" stroke-miterlimit="10" stroke-width="1.5" d="M119.1,70.5c0.6-0.3,1.3-0.4,2-0.4c2,0,3.7,1.2,4.5,2.9" class="easy-start-1 fill-none stroke-primary"/><path id="easyStart_282_" stroke-miterlimit="10" stroke-width="1.5" d="M101.7,83c-1.9-1.9-3.1-4.6-3.1-7.6s1.2-5.6,3.1-7.6c1.9-1.9,4.6-3.1,7.6-3.1s5.6,1.2,7.6,3.1 c1.9,1.9,3.1,4.6,3.1,7.6" class="easy-start-1 fill-none stroke-primary"/><g id="easyStart_281_"><rect id="easyStart_449_" width="12.4" height="5.2" x="76.7" y="45.6" class="easy-start-0 fill-white"/><rect id="easyStart_710_" width="12.4" height="5.2" x="76.7" y="45.6" stroke-miterlimit="10" stroke-width="1.5" class="easy-start-1 fill-none stroke-primary"/><path id="easyStart_516_" d="M64.2,46H76V20.4l-4.3,5.9C70.4,28,69,29.5,67.5,31c-2,2-3.2,4.7-3.2,7.6L64.2,46L64.2,46z" class="easy-start-2 fill-primary-lighter" opacity=".7"/><polygon id="easyStart_714_" points="71.8 25.1 71.8 45.6 75.6 45.6 75.6 20" class="easy-start-2 fill-primary-lighter" opacity=".7"/><path id="easyStart_513_" d="M101.9,46.5H90.1V20.9l4.3,5.9c1.3,1.7,2.7,3.2,4.2,4.7c2,2,3.2,4.7,3.2,7.6v7.4H101.9z" class="easy-start-2 fill-primary-lighter" opacity=".7"/><polygon id="easyStart_712_" points="93.8 24.7 93.8 45.2 90 45.2 90 19.6" class="easy-start-2 fill-primary-lighter" opacity=".7"/><path id="easyStart_549_" stroke-miterlimit="10" stroke-width="1.5" d="M63.8,45.6h11.8V20l-4.3,5.9c-1.3,1.7-2.7,3.2-4.2,4.7c-2,2-3.2,4.7-3.2,7.6L63.8,45.6 L63.8,45.6z" class="easy-start-1 fill-none stroke-primary"/><path id="easyStart_548_" stroke-miterlimit="10" stroke-width="1.5" d="M101.5,45.6H89.7V20l4.3,5.9c1.3,1.7,2.7,3.2,4.2,4.7c2,2,3.2,4.7,3.2,7.6v7.4H101.5z" class="easy-start-1 fill-none stroke-primary"/><path id="easyStart_511_" d="M90.8,48.2H74.6V14.6c0-3.9,1.8-7.6,4.9-10L81,3.5c1-0.8,2.5-0.8,3.5,0l1.6,1.2 c3,2.3,4.8,5.9,4.8,9.7L90.8,48.2L90.8,48.2z" class="easy-start-0 fill-white"/><path id="easyStart_715_" d="M83.1,4.6l1.4-1.1l0,0c-1-0.8-2.5-0.8-3.5,0l-1.4,1.1c-3.1,2.4-4.9,6.1-4.9,10v33.6h3.6V14.6 C78.2,10.7,80,7,83.1,4.6z" class="easy-start-2 fill-primary-lighter" opacity=".5"/><path id="easyStart_465_" stroke-miterlimit="10" stroke-width="1.5" d="M78.6,21.6c0-2.3,1.8-4.1,4.1-4.1c2.3,0,4.1,1.8,4.1,4.1" class="easy-start-1 fill-none stroke-primary"/><path id="easyStart_517_" stroke-miterlimit="10" stroke-width="1.5" d="M90.8,48.2H74.6V14.6c0-3.9,1.8-7.6,4.9-10L81,3.5c1-0.8,2.5-0.8,3.5,0l1.6,1.2 c3,2.3,4.8,5.9,4.8,9.7L90.8,48.2L90.8,48.2z" class="easy-start-1 fill-none stroke-primary"/><path id="easyStart_509_" d="M78.6,5.6l1.9-1.5c1.4-1.1,3.3-1.1,4.6,0l2.1,1.6L78.6,5.6z" class="easy-start-4 fill-primary"/></g><path id="easyStart_440_" stroke-miterlimit="10" stroke-width="1.5" d="M100.1,88.8c-3.5,0-6.3-2.8-6.3-6.3c0-2.9,2-5.4,4.7-6.1" class="easy-start-1 fill-none stroke-primary"/><path id="easyStart_279_" stroke-miterlimit="10" stroke-width="1.5" d="M46.4,75.9c0-6.5,5.3-11.7,11.7-11.7s11.7,5.3,11.7,11.7c0,4.4-2.4,8.2-5.9,10.2" class="easy-start-1 fill-none stroke-primary"/><path id="easyStart_383_" stroke-miterlimit="10" stroke-width="1.5" d="M43.2,73.6c0.7-0.3,1.4-0.5,2.2-0.5c0.5,0,0.9,0.1,1.4,0.2" class="easy-start-1 fill-none stroke-primary"/><path id="easyStart_277_" stroke-miterlimit="10" stroke-width="1.5" d="M68.7,81.4c2.1,0,3.9,1.7,3.9,3.9c0,2.1-1.7,3.9-3.9,3.9" class="easy-start-1 fill-none stroke-primary"/><path id="easyStart_276_" d="M98.3,94.3H70.6l8-9V51.9h8.6l-0.4,30.4c0,1.8,0.8,3.6,2.2,4.7L98.3,94.3z" class="easy-start-0 fill-white"/><path id="easyStart_514_" stroke-miterlimit="10" stroke-width="1.5" d="M87,51.9v31.7c0,1.8,1.5,3.3,3.3,3.4h0.9" class="easy-start-1 fill-none stroke-primary"/><path id="easyStart_512_" stroke-miterlimit="10" stroke-width="1.5" d="M72.5,86.2h3c1.7,0,3-1.4,3-3V51.9" class="easy-start-1 fill-none stroke-primary"/><path id="easyStart_275_" stroke-miterlimit="10" stroke-width="1.5" d="M74.8,100.6c0-0.6,0.1-1.3,0.3-1.9c0.2-0.6,0.6-1.1,1-1.6s1-0.9,1.6-1.1 c0.6-0.3,1.3-0.4,1.9-0.4s1.3,0.1,1.9,0.3c0.6,0.2,1.1,0.6,1.6,1" class="easy-start-1 fill-none stroke-primary"/><path id="easyStart_274_" stroke-miterlimit="10" stroke-width="1.5" d="M50,88.6c0-0.6,0.1-1.3,0.3-1.9s0.6-1.1,1-1.6s1-0.9,1.6-1.1c0.6-0.3,1.3-0.4,1.9-0.4 c0.6,0,1.3,0.1,1.9,0.3c0.6,0.2,1.1,0.6,1.6,1" class="easy-start-1 fill-none stroke-primary"/><path id="easyStart_273_" stroke-miterlimit="10" stroke-width="1.5" d="M106.4,79.4c0.6-0.3,1.2-0.4,1.9-0.4c0.6,0,1.3,0.1,1.9,0.3c0.6,0.2,1.2,0.6,1.7,1 c0.5,0.5,0.9,1,1.1,1.6c0.3,0.6,0.4,1.2,0.4,1.9c0,0.6-0.1,1.3-0.3,1.9" class="easy-start-1 fill-none stroke-primary"/><path id="easyStart_272_" stroke-miterlimit="10" stroke-width="1.5" d="M80.5,95.7c0.1-0.6,0.3-1.3,0.7-1.9c0.4-0.6,0.8-1.1,1.3-1.5s1.1-0.7,1.7-0.8 c0.6-0.2,1.3-0.2,1.9-0.1" class="easy-start-1 fill-none stroke-primary"/><path id="easyStart_286_" stroke-miterlimit="10" stroke-width="1.5" d="M113.4,96.8c0.1-0.6,0.3-1.3,0.7-1.9c0.4-0.6,0.8-1.1,1.3-1.5s1.1-0.7,1.7-0.8 c0.6-0.2,1.3-0.2,1.9-0.1" class="easy-start-1 fill-none stroke-primary"/><path id="easyStart_271_" stroke-miterlimit="10" stroke-width="1.5" d="M97.3,102.3c-0.6-0.2-1.2-0.5-1.7-1s-0.9-1-1.2-1.6c-0.3-0.6-0.4-1.2-0.5-1.8 c0-0.6,0-1.3,0.2-1.9" class="easy-start-1 fill-none stroke-primary"/><path id="easyStart_230_" stroke-miterlimit="10" stroke-width="1.5" d="M36,87.8c-1.2-1.2-2-3-2-4.8c0-3.8,3.1-6.9,6.9-6.9c1.7,0,3.2,0.6,4.3,1.6" class="easy-start-1 fill-none stroke-primary"/><path id="easyStart_263_" stroke-miterlimit="10" stroke-width="1.5" d="M123.1,73.3c0.8-0.2,1.5-0.3,2.4-0.3c5.5,0,10.5,4.5,10,10c-0.4,4-2.5,7.4-5.8,9" class="easy-start-1 fill-none stroke-primary"/><path id="easyStart_268_" stroke-miterlimit="10" stroke-width="1.5" d="M132.4,90.3c0.3,1,0.4,2,0.3,3.1c-0.5,5.3-4.3,9.6-9.6,9.6" class="easy-start-1 fill-none stroke-primary"/></g><g id="easyStart_382_"><path id="easyStart_432_" d="M43.1,80.7H16.2c-0.8,0-1.4,0.6-1.4,1.4V103h26.9c1.6,0,2.9-1.3,2.9-2.9V82.2 C44.6,81.4,43.9,80.7,43.1,80.7z" class="easy-start-2 fill-primary-lighter" opacity=".5"/><path id="easyStart_431_" stroke-miterlimit="10" stroke-width="1.5" d="M33.5,80.7H16c-0.6,0-1.2,0.5-1.2,1.2V103h27.4c1.3,0,2.3-1,2.3-2.3V81.9 c0-0.7-0.5-1.2-1.2-1.2h-1.8" class="easy-start-1 fill-none stroke-primary"/><g id="easyStart_422_"><path id="easyStart_430_" d="M33.9,72.4l5.9,5.9V99c0,0.9-0.8,1.7-1.7,1.7H20.4c-0.9,0-1.7-0.8-1.7-1.7V74.1 c0-0.9,0.8-1.7,1.7-1.7H33.9z" class="easy-start-0 fill-white"/><polygon id="easyStart_426_" points="33.9 78.3 33.9 72.4 39.8 78.3" class="easy-start-0 fill-white"/><path id="easyStart_425_" stroke-miterlimit="10" stroke-width="1.5" d="M39.8,78.3h-5.3c-0.3,0-0.6-0.3-0.6-0.6v-5.3" class="easy-start-1 fill-none stroke-primary"/><path id="easyStart_423_" stroke-miterlimit="10" stroke-width="1.5" d="M18.8,82v-8c0-0.9,0.8-1.7,1.7-1.7H34l5.9,5.9V99c0,0.9-0.8,1.7-1.7,1.7H20.4" class="easy-start-1 fill-none stroke-primary"/></g><g id="easyStart_405_"><path id="easyStart_421_" d="M37.4,70.6l5.9,5.9v20.7c0,0.9-0.8,1.7-1.7,1.7H23.9c-0.9,0-1.7-0.8-1.7-1.7V72.3 c0-0.9,0.8-1.7,1.7-1.7C23.9,70.6,37.4,70.6,37.4,70.6z" class="easy-start-0 fill-white"/><polygon id="easyStart_420_" points="37.4 76.6 37.4 70.6 43.3 76.6" class="easy-start-0 fill-white"/><path id="easyStart_419_" stroke-miterlimit="10" stroke-width="1.5" d="M43.3,76.6H38c-0.3,0-0.6-0.3-0.6-0.6v-5.3" class="easy-start-1 fill-none stroke-primary"/><line id="easyStart_418_" x1="40.4" x2="25.4" y1="79.5" y2="79.5" stroke-miterlimit="10" stroke-width="1.5" class="easy-start-1 fill-none stroke-primary"/><line id="easyStart_417_" x1="40.4" x2="25.4" y1="82.8" y2="82.8" stroke-miterlimit="10" stroke-width="1.5" class="easy-start-1 fill-none stroke-primary"/><line id="easyStart_416_" x1="40.4" x2="25.4" y1="86.2" y2="86.2" stroke-miterlimit="10" stroke-width="1.5" class="easy-start-1 fill-none stroke-primary"/><line id="easyStart_415_" x1="40.4" x2="25.4" y1="89.5" y2="89.5" stroke-miterlimit="10" stroke-width="1.5" class="easy-start-1 fill-none stroke-primary"/><path id="easyStart_407_" stroke-miterlimit="10" stroke-width="1.5" d="M22.2,84.3v-12c0-0.9,0.8-1.7,1.7-1.7h13.5l5.9,5.9v20.7c0,0.9-0.8,1.7-1.7,1.7h-0.8" class="easy-start-1 fill-none stroke-primary"/></g><g id="easyStart_386_"><path id="easyStart_401_" d="M40.8,73.2l5.9,5.9v20.7c0,0.9-0.8,1.7-1.7,1.7H27.3c-0.9,0-1.7-0.8-1.7-1.7V74.9 c0-0.9,0.8-1.7,1.7-1.7C27.3,73.2,40.8,73.2,40.8,73.2z" class="easy-start-0 fill-white"/><polygon id="easyStart_400_" points="40.8 79.2 40.8 73.2 46.7 79.2" class="easy-start-0 fill-white"/><path id="easyStart_393_" stroke-miterlimit="10" stroke-width="1.5" d="M46.7,79.2h-5.3c-0.3,0-0.6-0.3-0.6-0.6v-5.3" class="easy-start-1 fill-none stroke-primary"/><line id="easyStart_392_" x1="43.9" x2="28.8" y1="82" y2="82" stroke-miterlimit="10" stroke-width="1.5" class="easy-start-1 fill-none stroke-primary"/><line id="easyStart_390_" x1="43.9" x2="28.8" y1="85.4" y2="85.4" stroke-miterlimit="10" stroke-width="1.5" class="easy-start-1 fill-none stroke-primary"/><line id="easyStart_389_" x1="43.9" x2="28.8" y1="88.8" y2="88.8" stroke-miterlimit="10" stroke-width="1.5" class="easy-start-1 fill-none stroke-primary"/><line id="easyStart_388_" x1="43.9" x2="28.8" y1="92.1" y2="92.1" stroke-miterlimit="10" stroke-width="1.5" class="easy-start-1 fill-none stroke-primary"/><path id="easyStart_387_" stroke-miterlimit="10" stroke-width="1.5" d="M25.7,84.3v-9.4c0-0.9,0.8-1.7,1.7-1.7h13.5l5.9,5.9v20.7c0,0.9-0.8,1.7-1.7,1.7h-3" class="easy-start-1 fill-none stroke-primary"/></g><path id="easyStart_385_" d="M42.2,103H13.8c-0.7,0-1.2-0.6-1.2-1.2V84.2c0-0.6,0.5-1,1-1h4.8c0.4,0,0.7,0.2,0.9,0.5l1.3,2 h18c0.7,0,1.2,0.5,1.2,1.2v13.8C39.8,101.8,40.6,103,42.2,103z" class="easy-start-0 fill-white"/><path id="easyStart_384_" d="M39.8,100.6v-2H12.6v3.2c0,0.7,0.6,1.2,1.2,1.2h28.4C40.6,103,39.8,101.8,39.8,100.6z" class="easy-start-2 fill-primary-lighter" opacity=".5"/><path id="easyStart_433_" stroke-miterlimit="10" stroke-width="1.5" d="M12.6,102.9V84.2c0-0.6,0.5-1,1-1h4.8c0.4,0,0.7,0.2,0.9,0.5l1.3,2h18c0.7,0,1.2,0.5,1.2,1.2 v13.8c0,1.1,0.8,2.4,2.4,2.4" class="easy-start-1 fill-none stroke-primary"/></g><g id="easyStart_318_"><line id="easyStart_322_" x1="4.6" x2="168.4" y1="103" y2="103" stroke-miterlimit="10" stroke-width="1.5" class="easy-start-1 fill-none stroke-primary"/><line id="easyStart_321_" x1="0" x2="2.7" y1="103" y2="103" stroke-miterlimit="10" stroke-width="1.5" class="easy-start-1 fill-none stroke-primary"/><line id="easyStart_320_" x1="169.9" x2="176" y1="103" y2="103" stroke-miterlimit="10" stroke-width="1.5" class="easy-start-1 fill-none stroke-primary"/></g></svg>