<svg xmlns="http://www.w3.org/2000/svg" xmlns:xlink="http://www.w3.org/1999/xlink" x="0" y="0" viewBox="0 0 187.1 98.9" xml:space="preserve" style="enable-background:new 0 0 187.1 98.9"><style type="text/css">.easy-payment-0{fill:#fff}.easy-payment-1{fill:#19a0ff}.easy-payment-2{fill:none;stroke:#377dff}.easy-payment-3{fill:none;stroke:#ffc107}.easy-payment-4{fill:#ffc107}.easy-payment-5{fill:#377dff}</style><path id="easyPayment_357_" d="M133.2,84.7l13.1,13.1c0.4,0.4,1,0.4,1.4,0L169.5,76c0.4-0.4,0.4-1,0-1.4l-13.1-13.1	c-0.4-0.4-1-0.4-1.4,0l-21.8,21.8C132.8,83.7,132.8,84.3,133.2,84.7z" class="easy-payment-0 fill-white"/><rect id="easyPayment_356_" width="4.4" height="32.8" x="152.9" y="67" class="easy-payment-1 fill-primary-lighter" opacity=".8" transform="matrix(-0.7071 -0.7071 0.7071 -0.7071 205.7904 252.0853)"/><rect id="easyPayment_355_" width="2.3" height="22.1" x="147.3" y="69.2" class="easy-payment-1 fill-primary-lighter" opacity=".8" transform="matrix(-0.7071 -0.7071 0.7071 -0.7071 196.6946 242.0109)"/><path id="easyPayment_354_" stroke-miterlimit="10" stroke-width="1.5" d="M150,95.5l19.4-19.4c0.4-0.4,0.4-1.1,0-1.5l-13-13c-0.4-0.4-1.1-0.4-1.5,0l-5.2,5.2" class="easy-payment-2 fill-none stroke-primary"/><path id="easyPayment_352_" d="M148.1,96.1V61.9c0-1.1-0.9-1.9-1.9-1.9H130c-1.1,0-1.9,0.9-1.9,1.9v34.2	c0,1.1,0.9,1.9,1.9,1.9h16.1C147.2,98,148.1,97.2,148.1,96.1z" class="easy-payment-1 fill-primary-lighter" opacity=".8"/><path id="easyPayment_350_" stroke-miterlimit="10" stroke-width="1.5" d="M146.2,98c1,0,1.8-0.8,1.8-1.8V61.8c0-1-0.8-1.8-1.8-1.8h-16.4c-1,0-1.8,0.8-1.8,1.8v2.4" class="easy-payment-2 fill-none stroke-primary"/><path id="easyPayment_349_" d="M144.7,79c-0.1-3.7-3.2-6.7-6.9-6.6c-3.7,0.1-6.7,3.2-6.6,6.9c0.1,3.7,3.2,6.7,6.9,6.6	C141.8,85.8,144.8,82.7,144.7,79z" class="easy-payment-0 fill-white"/><path id="easyPayment_348_" stroke-miterlimit="10" stroke-width="1.5" d="M144.7,79c-0.1-3.7-3.2-6.7-6.9-6.6c-3.7,0.1-6.7,3.2-6.6,6.9c0.1,3.7,3.2,6.7,6.9,6.6	C141.8,85.8,144.8,82.7,144.7,79z" class="easy-payment-2 fill-none stroke-primary"/><path id="easyPayment_345_" d="M139.6,89.6c0-1-0.8-1.8-1.9-1.8c-1,0-1.8,0.8-1.8,1.9c0,1,0.8,1.8,1.9,1.8	C138.8,91.4,139.6,90.6,139.6,89.6z" class="easy-payment-0 fill-white"/><path id="easyPayment_344_" d="M139.6,68.1c0-1-0.8-1.8-1.9-1.8c-1,0-1.8,0.8-1.8,1.9c0,1,0.8,1.8,1.9,1.8	C138.8,70,139.6,69.1,139.6,68.1z" class="easy-payment-0 fill-white"/><g id="easyPayment_328_"><path id="easyPayment_342_" stroke-miterlimit="10" stroke-width="1.5" d="M135.4,81.8v-3.3c0-0.7,0.6-1.3,1.3-1.3l0,0c0.7,0,1.3,0.6,1.3,1.3v1.4c0,0.7,0.6,1.3,1.3,1.3 l0,0c0.7,0,1.3-0.6,1.3-1.3v-3.4" class="easy-payment-2 fill-none stroke-primary"/><line id="easyPayment_337_" x1="133.3" x2="142.6" y1="79.1" y2="79.1" stroke-miterlimit="10" stroke-width="1.5" class="easy-payment-2 fill-none stroke-primary"/></g><path id="easyPayment_325_" stroke-miterlimit="10" stroke-width="1.5" d="M144.8,70v-3.4c0-0.2-0.1-0.3-0.3-0.3c-1.8-0.1-3.1-1.5-3.3-3.3c0-0.2-0.1-0.3-0.3-0.3	c-1.1,0-4.9,0-5.9,0c-0.2,0-0.3,0.1-0.3,0.3c-0.1,1.8-1.6,3.2-3.3,3.3c-0.2,0-0.3,0.1-0.3,0.3v2.9" class="easy-payment-2 fill-none stroke-primary"/><path id="easyPayment_282_" stroke-miterlimit="10" stroke-width="1.5" d="M144.8,87.7v3.4c0,0.2-0.1,0.3-0.3,0.3c-1.8,0.1-3.1,1.5-3.3,3.3c0,0.2-0.1,0.3-0.3,0.3	c-1.1,0-4.9,0-5.9,0c-0.2,0-0.3-0.1-0.3-0.3c-0.1-1.8-1.6-3.2-3.3-3.3c-0.2,0-0.3-0.1-0.3-0.3v-2.9" class="easy-payment-2 fill-none stroke-primary"/><g id="easyPayment_74_"><line id="easyPayment_76_" x1="64" x2="68" y1="6.4" y2="6.4" stroke-linecap="round" stroke-miterlimit="10" stroke-width="1.5" class="easy-payment-3 fill-none stroke-warning"/><line id="easyPayment_75_" x1="66" x2="66" y1="8.4" y2="4.4" stroke-linecap="round" stroke-miterlimit="10" stroke-width="1.5" class="easy-payment-3 fill-none stroke-warning"/></g><g id="easyPayment_369_"><line id="easyPayment_375_" x1="144.7" x2="148.7" y1="42.2" y2="42.2" stroke-linecap="round" stroke-miterlimit="10" stroke-width="1.5" class="easy-payment-2 fill-none stroke-primary"/><line id="easyPayment_370_" x1="146.7" x2="146.7" y1="44.1" y2="40.2" stroke-linecap="round" stroke-miterlimit="10" stroke-width="1.5" class="easy-payment-2 fill-none stroke-primary"/></g><g id="easyPayment_379_"><line id="easyPayment_381_" x1="7.8" x2="11.7" y1="65.2" y2="65.2" stroke-linecap="round" stroke-miterlimit="10" stroke-width="1.5" class="easy-payment-2 fill-none stroke-primary"/><line id="easyPayment_380_" x1="9.8" x2="9.8" y1="67.2" y2="63.2" stroke-linecap="round" stroke-miterlimit="10" stroke-width="1.5" class="easy-payment-2 fill-none stroke-primary"/></g><g id="easyPayment_79_"><line id="easyPayment_81_" x1="117.5" x2="120.3" y1="16.4" y2="13.6" stroke-linecap="round" stroke-miterlimit="10" stroke-width="1.5" class="easy-payment-2 fill-none stroke-primary"/><line id="easyPayment_80_" x1="120.3" x2="117.5" y1="16.4" y2="13.6" stroke-linecap="round" stroke-miterlimit="10" stroke-width="1.5" class="easy-payment-2 fill-none stroke-primary"/></g><g id="easyPayment_465_"><line id="easyPayment_468_" x1="51.6" x2="54.4" y1="32.7" y2="29.9" stroke-linecap="round" stroke-miterlimit="10" stroke-width="1.5" class="easy-payment-2 fill-none stroke-primary"/><line id="easyPayment_466_" x1="54.4" x2="51.6" y1="32.7" y2="29.9" stroke-linecap="round" stroke-miterlimit="10" stroke-width="1.5" class="easy-payment-2 fill-none stroke-primary"/></g><g id="easyPayment_376_"><line id="easyPayment_378_" x1="178.1" x2="180.9" y1="64.6" y2="61.8" stroke-linecap="round" stroke-miterlimit="10" stroke-width="1.5" class="easy-payment-3 fill-none stroke-warning"/><line id="easyPayment_377_" x1="180.9" x2="178.1" y1="64.6" y2="61.8" stroke-linecap="round" stroke-miterlimit="10" stroke-width="1.5" class="easy-payment-3 fill-none stroke-warning"/></g><line id="easyPayment_305_" x1="128.1" x2="148.3" y1="15.2" y2="15.2" stroke-miterlimit="10" stroke-width="1.5" class="easy-payment-2 fill-none stroke-primary"/><line id="easyPayment_401_" x1="2.5" x2="16.8" y1="44.2" y2="44.2" stroke-miterlimit="10" stroke-width="1.5" class="easy-payment-2 fill-none stroke-primary"/><line id="easyPayment_368_" x1="72.5" x2="124.3" y1="6.4" y2="6.4" stroke-miterlimit="10" stroke-width="1.5" class="easy-payment-2 fill-none stroke-primary"/><line id="easyPayment_302_" x1="126.2" x2="122.6" y1="15.2" y2="15.2" stroke-miterlimit="10" stroke-width="1.5" class="easy-payment-2 fill-none stroke-primary"/><line id="easyPayment_404_" x1="164.1" x2="184.4" y1="50.5" y2="50.5" stroke-miterlimit="10" stroke-width="1.5" class="easy-payment-2 fill-none stroke-primary"/><line id="easyPayment_402_" x1="162.2" x2="158.6" y1="50.5" y2="50.5" stroke-miterlimit="10" stroke-width="1.5" class="easy-payment-2 fill-none stroke-primary"/><path id="easyPayment_482_" d="M168.3,64.5c0,0.7-0.6,1.2-1.2,1.2c-0.7,0-1.2-0.6-1.2-1.2s0.6-1.2,1.2-1.2	C167.7,63.2,168.3,63.8,168.3,64.5z" class="easy-payment-5 fill-primary"/><path id="easyPayment_396_" d="M134.5,2c0,0.7-0.6,1.2-1.2,1.2c-0.7,0-1.2-0.6-1.2-1.2s0.6-1.2,1.2-1.2	C134,0.8,134.5,1.3,134.5,2z" class="easy-payment-5 fill-primary"/><path id="easyPayment_383_" d="M162.2,25.1c0,0.7-0.6,1.2-1.2,1.2c-0.7,0-1.2-0.6-1.2-1.2c0-0.7,0.6-1.2,1.2-1.2	C161.7,23.9,162.2,24.4,162.2,25.1z" class="easy-payment-5 fill-primary"/><path id="easyPayment_385_" d="M35.8,32.7c0,0.7-0.6,1.2-1.2,1.2c-0.7,0-1.2-0.6-1.2-1.2c0-0.7,0.6-1.2,1.2-1.2	C35.2,31.4,35.8,32,35.8,32.7z" class="easy-payment-5 fill-primary"/><path id="easyPayment_382_" d="M145,51.4c0,0.5-0.4,0.9-0.9,0.9c-0.5,0-0.9-0.4-0.9-0.9c0-0.5,0.4-0.9,0.9-0.9	C144.6,50.5,145,50.9,145,51.4z" class="easy-payment-5 fill-primary"/><path id="easyPayment_400_" d="M16.8,31.4c0,0.5-0.4,0.9-0.9,0.9c-0.5,0-0.9-0.4-0.9-0.9c0-0.5,0.4-0.9,0.9-0.9	C16.4,30.6,16.8,31,16.8,31.4z" class="easy-payment-5 fill-primary"/><path id="easyPayment_386_" d="M21,82.9c0,0.5-0.4,0.9-0.9,0.9c-0.5,0-0.9-0.4-0.9-0.9s0.4-0.9,0.9-0.9	C20.6,82.1,21,82.5,21,82.9z" class="easy-payment-5 fill-primary"/><path id="easyPayment_384_" d="M92.3,16.4c0,0.5-0.4,0.9-0.9,0.9s-0.9-0.4-0.9-0.9c0-0.5,0.4-0.9,0.9-0.9S92.3,16,92.3,16.4z" class="easy-payment-5 fill-primary"/><path id="easyPayment_87_" d="M72.8,98.1H43.3c-1.1,0-1.9-0.9-1.9-1.9V76c0-1.1,0.9-1.9,1.9-1.9h29.5c1.1,0,1.9,0.9,1.9,1.9	v20.1C74.7,97.2,73.9,98.1,72.8,98.1z" class="easy-payment-0 fill-white"/><path id="easyPayment_86_" stroke-miterlimit="10" stroke-width="1.5" d="M51.5,98.1h-8.6c-0.9,0-1.5-0.7-1.5-1.5V80.7" class="easy-payment-2 fill-none stroke-primary"/><path id="easyPayment_268_" stroke-miterlimit="10" stroke-width="1.5" d="M74.7,96.5c0,0.9-0.7,1.5-1.5,1.5h-3.6" class="easy-payment-2 fill-none stroke-primary"/><line id="easyPayment_70_" x1="58.4" x2="68.5" y1="74.1" y2="74.1" stroke-miterlimit="10" stroke-width="1.5" class="easy-payment-2 fill-none stroke-primary"/><line id="easyPayment_84_" x1="43.8" x2="43.8" y1="83.8" y2="88.4" stroke-miterlimit="10" stroke-width="1.5" class="easy-payment-2 fill-none stroke-primary"/><rect id="easyPayment_82_" width="24.4" height="19.9" x="45.7" y="76.1" class="easy-payment-1 fill-primary-lighter" opacity=".6"/><path id="easyPayment_73_" stroke-miterlimit="10" stroke-width="1.5" d="M72.5,86.1c0,0.5-0.4,0.9-0.9,0.9c-0.5,0-0.9-0.4-0.9-0.9c0-0.5,0.4-0.9,0.9-0.9	C72.1,85.2,72.5,85.6,72.5,86.1z" class="easy-payment-2 fill-none stroke-primary"/><polyline id="easyPayment_134_" stroke-miterlimit="10" stroke-width="1.5" points="49.7 88.3 47.4 86.1 49.6 83.9" class="easy-payment-2 fill-none stroke-primary"/><polyline id="easyPayment_72_" stroke-miterlimit="10" stroke-width="1.5" points="66 88.3 68.2 86.1 66.1 83.9" class="easy-payment-2 fill-none stroke-primary"/><rect id="easyPayment_71_" width="11.7" height="8.1" x="52.3" y="82" class="easy-payment-1 fill-primary-lighter" opacity=".8"/><rect id="easyPayment_85_" width="11.7" height="8.1" x="52.3" y="82" stroke-miterlimit="10" stroke-width="1.5" class="easy-payment-2 fill-none stroke-primary"/><path id="easyPayment_358_" d="M75.4,96.5h-0.7c0-0.1,0-0.2,0-0.2V75.9c0-1-0.8-1.8-1.8-1.8h-4.4v-0.7H68v24.7h1.4v-0.5h5.7	C75.3,97.2,75.4,96.9,75.4,96.5z" class="easy-payment-5 fill-primary" opacity=".3"/><path id="easyPayment_751_" d="M123,97.6V25.4c0-1.7-1.4-3.1-3.1-3.1H73.7c-1.7,0-3.1,1.4-3.1,3.1v72.1L123,97.6z" class="easy-payment-0 fill-white"/><path id="easyPayment_739_" d="M70.6,30.4v-5.5c0-1.5,1.2-2.6,2.6-2.6h47.2c1.5,0,2.6,1.2,2.6,2.6v5.5H70.6z" class="easy-payment-1 fill-primary-lighter" opacity=".8"/><path id="easyPayment_736_" stroke-miterlimit="10" stroke-width="1.5" d="M70.6,98.1V24.9c0-1.5,1.2-2.6,2.6-2.6h47.2c1.5,0,2.6,1.2,2.6,2.6v36.3" class="easy-payment-2 fill-none stroke-primary"/><line id="easyPayment_735_" x1="70.6" x2="123" y1="30.5" y2="30.5" stroke-miterlimit="10" stroke-width="1.5" class="easy-payment-2 fill-none stroke-primary"/><line id="easyPayment_734_" x1="76.6" x2="78.7" y1="26.8" y2="26.8" stroke-miterlimit="10" stroke-width="1.5" class="easy-payment-2 fill-none stroke-primary"/><line id="easyPayment_727_" x1="81.4" x2="83.5" y1="26.8" y2="26.8" stroke-miterlimit="10" stroke-width="1.5" class="easy-payment-2 fill-none stroke-primary"/><line id="easyPayment_726_" x1="86.3" x2="88.4" y1="26.8" y2="26.8" stroke-miterlimit="10" stroke-width="1.5" class="easy-payment-2 fill-none stroke-primary"/><rect id="easyPayment_725_" width="38.4" height="15.1" x="77.6" y="36.6" class="easy-payment-1 fill-primary-lighter" opacity=".6"/><rect id="easyPayment_99_" width="38.4" height="10.7" x="77.1" y="85.6" class="easy-payment-1 fill-primary-lighter" opacity=".6"/><rect id="easyPayment_724_" width="11.7" height="15.1" x="77.6" y="63.2" class="easy-payment-1 fill-primary-lighter" opacity=".8"/><rect id="easyPayment_111_" width="11.7" height="15.1" x="91.4" y="63.2" class="easy-payment-1 fill-primary-lighter" opacity=".8"/><rect id="easyPayment_130_" width="11.7" height="15.1" x="105.2" y="63.2" class="easy-payment-1 fill-primary-lighter" opacity=".8"/><line id="easyPayment_717_" x1="88.6" x2="104.9" y1="56.5" y2="56.5" stroke-miterlimit="10" stroke-width="1.5" class="easy-payment-2 fill-none stroke-primary"/><path id="easyPayment_359_" d="M123,97.5V63.4c-0.3-0.3-0.7-0.5-0.9-0.7c-0.4-0.4-1.1-0.4-1.5,0c-1,0.8-2.7,2.2-5,2.5l0.1,0.7	h0c-0.6,0.1-1.5,0.1-2.6,0.1l0-0.7c-0.5,0-1.1,0-1.7,0V66h0c-1.2,0-2.4,0-3.6,0l0-0.7l-1.3,0c-0.3,0-0.7,0.1-0.9,0.4	c-0.2,0.2-0.4,0.6-0.4,0.9l0,11.7c0,4.3,1.9,8.4,5.1,11.3l9,8L123,97.5L123,97.5z" class="easy-payment-5 fill-primary" opacity=".3"/><g id="easyPayment_1066_"><path id="easyPayment_1067_" d="M123.3,98c-0.2,0.1-0.4,0.1-0.6,0l-10-9c-3.1-2.8-4.8-6.7-4.8-10.8l0-11.7 c0-0.3,0.2-0.6,0.5-0.5c1.4,0,3.2,0.1,4.8,0.1c2,0,3.4-0.1,4.3-0.2c2.4-0.3,4.2-1.7,5.3-2.6c0.2-0.2,0.5-0.2,0.6,0 c1.2,0.9,2.9,2.3,5.4,2.7c0.8,0.1,2.1,0.2,3.9,0.2c1.7,0,3.5-0.1,4.8-0.1c0.3,0,0.6,0.2,0.5,0.5l0,11.8c0,4.2-1.8,8.2-4.9,10.9 L123.3,98z" class="easy-payment-0 fill-white"/></g><g id="easyPayment_1059_"><path id="easyPayment_1065_" d="M123.2,95.9c-0.2,0.1-0.4,0.1-0.5,0l-8.8-7.9c-2.7-2.4-4.3-5.9-4.3-9.5l0-10.3 c0-0.3,0.2-0.5,0.5-0.5c1.2,0,2.8,0.1,4.3,0.1c1.7,0,3,0,3.8-0.1c2.2-0.3,3.7-1.5,4.7-2.3c0.2-0.1,0.4-0.1,0.6,0 c1,0.8,2.6,2,4.8,2.4c0.7,0.1,1.9,0.2,3.4,0.2c1.5,0,3.1,0,4.3-0.1c0.3,0,0.5,0.2,0.5,0.5l0,10.4c0,3.7-1.6,7.2-4.4,9.6L123.2,95.9 z" class="easy-payment-1 fill-primary-lighter"/></g><g id="easyPayment_1057_"><path id="easyPayment_91_" stroke-miterlimit="10" stroke-width="1.5" d="M117.5,65.9c2.4-0.3,4.2-1.7,5.3-2.6c0.2-0.2,0.5-0.2,0.6,0c1.2,0.9,2.9,2.3,5.4,2.7 c0.8,0.1,2.1,0.2,3.9,0.2c1.7,0,3.5-0.1,4.8-0.1c0.3,0,0.6,0.2,0.5,0.5l0,11.8c0,4.2-1.8,8.2-4.9,10.9l-9.9,8.7 c-0.2,0.1-0.4,0.1-0.6,0l-10-9c-3.1-2.8-4.8-6.7-4.8-10.8l0-11.7c0-0.3,0.2-0.6,0.5-0.5c0.4,0,0.8,0,1.3,0" class="easy-payment-2 fill-none stroke-primary"/><path id="easyPayment_131_" stroke-miterlimit="10" stroke-width="1.5" d="M113.2,66c0.6,0,1.2,0,1.7,0" class="easy-payment-2 fill-none stroke-primary"/></g><path id="easyPayment_1056_" d="M131.4,79.8c0,4.6-3.7,8.3-8.3,8.3c-4.6,0-8.3-3.7-8.3-8.3c0-4.6,3.7-8.3,8.3-8.3	C127.7,71.5,131.4,75.2,131.4,79.8z" class="easy-payment-4 fill-warning"/><polyline id="easyPayment_334_" stroke-miterlimit="10" stroke-width="1.5" points="128 76.6 121.7 82.9 118.3 79.5" class="easy-payment-2 fill-none stroke-primary"/><path id="easyPayment_395_" d="M94.3,50.7c-0.7,0-1.2,0.6-1.2,1.2v-1.3c0-0.7-0.6-1.2-1.2-1.2c-0.7,0-1.2,0.6-1.2,1.2v-1.3	c0-0.7-0.6-1.2-1.2-1.2c-0.7,0-1.2,0.6-1.2,1.2v-3.9c0-0.7-0.6-1.2-1.2-1.2c-0.7,0-1.2,0.6-1.2,1.2v7.8h-1.7c-0.5,0-0.8,0.4-0.8,0.8	v5.5c0,0.4,0.3,0.8,0.7,1l1,0.5c0.4,0.2,0.7,0.6,0.7,1v2.4h8.3v-2.7c0-0.3,0.1-0.5,0.3-0.7l1.3-1.2c0.2-0.2,0.4-0.5,0.4-0.8v-7.1	C95.5,51.3,95,50.7,94.3,50.7z" class="easy-payment-0 fill-white"/><path id="easyPayment_394_" stroke-miterlimit="10" stroke-width="1.5" d="M88.1,53.6v-8.2c0-0.7-0.6-1.2-1.2-1.2l0,0c-0.7,0-1.2,0.6-1.2,1.2v10.1" class="easy-payment-2 fill-none stroke-primary"/><path id="easyPayment_393_" stroke-miterlimit="10" stroke-width="1.5" d="M90.5,51.5v-2.1c0-0.7-0.6-1.2-1.2-1.2l0,0c-0.7,0-1.2,0.6-1.2,1.2v2.1" class="easy-payment-2 fill-none stroke-primary"/><path id="easyPayment_392_" stroke-miterlimit="10" stroke-width="1.5" d="M93,53.6v-3c0-0.7-0.6-1.2-1.2-1.2l0,0c-0.7,0-1.2,0.6-1.2,1.2v3" class="easy-payment-2 fill-none stroke-primary"/><path id="easyPayment_391_" stroke-miterlimit="10" stroke-width="1.5" d="M93,53.1v-1.2c0-0.7,0.6-1.2,1.2-1.2l0,0c0.7,0,1.2,0.6,1.2,1.2V59c0,0.3-0.1,0.6-0.4,0.8	l-1.3,1.2c-0.2,0.2-0.3,0.4-0.3,0.7v2.7" class="easy-payment-2 fill-none stroke-primary"/><path id="easyPayment_390_" stroke-miterlimit="10" stroke-width="1.5" d="M85.6,53.2h-1.7c-0.5,0-0.8,0.4-0.8,0.8v5.5c0,0.4,0.3,0.8,0.7,1l1,0.5c0.4,0.2,0.7,0.6,0.7,1	v2.4" class="easy-payment-2 fill-none stroke-primary"/><rect id="easyPayment_389_" width="10.6" height="35.7" x="84.2" y="62.3" class="easy-payment-1 fill-primary-lighter"/><polyline id="easyPayment_388_" stroke-miterlimit="10" stroke-width="1.5" points="84.2 98.1 84.2 62.3 94.8 62.3 94.8 98.1" class="easy-payment-2 fill-none stroke-primary"/><path id="easyPayment_168_" d="M57.7,78.7L48.5,77c-2.2,1-4.6,1.5-7.1,1.5c-9.6,0-17.4-7.8-17.4-17.4	c0-9.6,7.8-17.4,17.4-17.4c9.6,0,17.4,7.8,17.4,17.4c0,3.4-1,6.5-2.7,9.2L57.7,78.7z" class="easy-payment-1 fill-primary-lighter" opacity=".6"/><path id="easyPayment_160_" stroke-miterlimit="10" stroke-width="1.5" d="M57.7,78.7L48.5,77c-2.2,1-4.6,1.5-7.1,1.5c-9.6,0-17.4-7.8-17.4-17.4	c0-9.6,7.8-17.4,17.4-17.4c9.6,0,17.4,7.8,17.4,17.4c0,3.4-1,6.5-2.7,9.2L57.7,78.7z" class="easy-payment-2 fill-none stroke-primary"/><path id="easyPayment_241_" d="M41.4,74.7c7.2,0,13.1-6,13.1-13.4c0-7.4-5.9-13.4-13.1-13.4c-7.2,0-13.1,6-13.1,13.4	C28.3,68.7,34.1,74.7,41.4,74.7z" class="easy-payment-0 fill-white"/><path id="easyPayment_153_" d="M45.5,67.7l-3.9-2c-0.1,0-0.2,0-0.2,0l-3.8,2.1c-0.2,0.1-0.4-0.1-0.4-0.3l0.7-4.3	c0-0.1,0-0.2-0.1-0.2l-3.1-3c-0.2-0.1-0.1-0.4,0.1-0.4l4.3-0.7c0.1,0,0.2-0.1,0.2-0.1l1.9-3.9c0.1-0.2,0.4-0.2,0.5,0l2,3.9	c0,0.1,0.1,0.1,0.2,0.1l4.3,0.6c0.2,0,0.3,0.3,0.1,0.4l-3.1,3.1C45.1,63,45,63.1,45,63.1l0.8,4.3C45.9,67.6,45.7,67.8,45.5,67.7z" class="easy-payment-4 fill-warning"/><path id="easyPayment_278_" stroke-miterlimit="10" stroke-width="1.5" d="M45.5,67.7l-3.9-2c-0.1,0-0.2,0-0.2,0l-3.8,2.1c-0.2,0.1-0.4-0.1-0.4-0.3l0.7-4.3	c0-0.1,0-0.2-0.1-0.2l-3.1-3c-0.2-0.1-0.1-0.4,0.1-0.4l4.3-0.7c0.1,0,0.2-0.1,0.2-0.1l1.9-3.9c0.1-0.2,0.4-0.2,0.5,0l2,3.9	c0,0.1,0.1,0.1,0.2,0.1l4.3,0.6c0.2,0,0.3,0.3,0.1,0.4l-3.1,3.1C45.1,63,45,63.1,45,63.1l0.8,4.3C45.9,67.6,45.7,67.8,45.5,67.7z" class="easy-payment-2 fill-none stroke-primary"/><line id="easyPayment_269_" x1="41.4" x2="41.4" y1="38.8" y2="41.8" stroke-miterlimit="10" stroke-width="1.5" class="easy-payment-2 fill-none stroke-primary"/><line id="easyPayment_257_" x1="41.4" x2="41.4" y1="38.1" y2="42.6" stroke-miterlimit="10" stroke-width="1.5" class="easy-payment-2 fill-none stroke-primary"/><line id="easyPayment_270_" x1="46.8" x2="46.2" y1="41.1" y2="43.3" stroke-miterlimit="10" stroke-width="1.5" class="easy-payment-2 fill-none stroke-primary"/><line id="easyPayment_271_" x1="53" x2="50.7" y1="41.2" y2="45.1" stroke-miterlimit="10" stroke-width="1.5" class="easy-payment-2 fill-none stroke-primary"/><line id="easyPayment_272_" x1="56.2" x2="54.6" y1="46.5" y2="48.1" stroke-miterlimit="10" stroke-width="1.5" class="easy-payment-2 fill-none stroke-primary"/><line id="easyPayment_273_" x1="61.5" x2="57.5" y1="49.7" y2="51.9" stroke-miterlimit="10" stroke-width="1.5" class="easy-payment-2 fill-none stroke-primary"/><line id="easyPayment_274_" x1="61.6" x2="59.4" y1="56.1" y2="56.4" stroke-miterlimit="10" stroke-width="1.5" class="easy-payment-2 fill-none stroke-primary"/><line id="easyPayment_275_" x1="64.6" x2="60" y1="61.3" y2="61.3" stroke-miterlimit="10" stroke-width="1.5" class="easy-payment-2 fill-none stroke-primary"/><line id="easyPayment_276_" x1="61.5" x2="59.4" y1="66.7" y2="66.1" stroke-miterlimit="10" stroke-width="1.5" class="easy-payment-2 fill-none stroke-primary"/><line id="easyPayment_277_" x1="61.5" x2="57.5" y1="72.8" y2="70.6" stroke-miterlimit="10" stroke-width="1.5" class="easy-payment-2 fill-none stroke-primary"/><line id="easyPayment_285_" x1="36" x2="36.6" y1="81.4" y2="79.3" stroke-miterlimit="10" stroke-width="1.5" class="easy-payment-2 fill-none stroke-primary"/><line id="easyPayment_287_" x1="29.8" x2="32.1" y1="81.3" y2="77.4" stroke-miterlimit="10" stroke-width="1.5" class="easy-payment-2 fill-none stroke-primary"/><line id="easyPayment_288_" x1="26.5" x2="28.2" y1="76.1" y2="74.4" stroke-miterlimit="10" stroke-width="1.5" class="easy-payment-2 fill-none stroke-primary"/><line id="easyPayment_289_" x1="21.3" x2="25.3" y1="72.8" y2="70.6" stroke-miterlimit="10" stroke-width="1.5" class="easy-payment-2 fill-none stroke-primary"/><line id="easyPayment_292_" x1="21.2" x2="23.4" y1="66.7" y2="66.1" stroke-miterlimit="10" stroke-width="1.5" class="easy-payment-2 fill-none stroke-primary"/><line id="easyPayment_296_" x1="18.2" x2="22.8" y1="61.2" y2="61.3" stroke-miterlimit="10" stroke-width="1.5" class="easy-payment-2 fill-none stroke-primary"/><line id="easyPayment_297_" x1="21.2" x2="23.4" y1="55.8" y2="56.4" stroke-miterlimit="10" stroke-width="1.5" class="easy-payment-2 fill-none stroke-primary"/><line id="easyPayment_298_" x1="21.3" x2="25.3" y1="49.7" y2="51.9" stroke-miterlimit="10" stroke-width="1.5" class="easy-payment-2 fill-none stroke-primary"/><line id="easyPayment_314_" x1="26.5" x2="28.2" y1="46.5" y2="48.1" stroke-miterlimit="10" stroke-width="1.5" class="easy-payment-2 fill-none stroke-primary"/><line id="easyPayment_318_" x1="29.8" x2="32.1" y1="41.2" y2="45.1" stroke-miterlimit="10" stroke-width="1.5" class="easy-payment-2 fill-none stroke-primary"/><line id="easyPayment_321_" x1="36.3" x2="36.6" y1="41.1" y2="43.3" stroke-miterlimit="10" stroke-width="1.5" class="easy-payment-2 fill-none stroke-primary"/><g id="easyPayment_293_"><line id="easyPayment_338_" x1="15.9" x2="18.5" y1="98.1" y2="98.1" stroke-miterlimit="10" stroke-width="1.5" class="easy-payment-2 fill-none stroke-primary"/><line id="easyPayment_341_" x1="173.9" x2="179.5" y1="98.1" y2="98.1" stroke-miterlimit="10" stroke-width="1.5" class="easy-payment-2 fill-none stroke-primary"/><line id="easyPayment_343_" x1="20.2" x2="172.5" y1="98.1" y2="98.1" stroke-miterlimit="10" stroke-width="1.5" class="easy-payment-2 fill-none stroke-primary"/></g><g id="easyPayment_351_"><line id="easyPayment_362_" x1="86.8" x2="86.8" y1="40.5" y2="42.4" stroke-miterlimit="10" stroke-width="1.5" class="easy-payment-2 fill-none stroke-primary"/><line id="easyPayment_361_" x1="90.3" x2="88.3" y1="39.5" y2="42.8" stroke-miterlimit="10" stroke-width="1.5" class="easy-payment-2 fill-none stroke-primary"/><line id="easyPayment_363_" x1="91" x2="89.4" y1="43" y2="43.9" stroke-miterlimit="10" stroke-width="1.5" class="easy-payment-2 fill-none stroke-primary"/><line id="easyPayment_366_" x1="93.7" x2="89.8" y1="45.4" y2="45.4" stroke-miterlimit="10" stroke-width="1.5" class="easy-payment-2 fill-none stroke-primary"/><line id="easyPayment_367_" x1="91.3" x2="89.4" y1="47.9" y2="46.9" stroke-miterlimit="10" stroke-width="1.5" class="easy-payment-2 fill-none stroke-primary"/><line id="easyPayment_371_" x1="82.8" x2="84.2" y1="47.9" y2="46.9" stroke-miterlimit="10" stroke-width="1.5" class="easy-payment-2 fill-none stroke-primary"/><line id="easyPayment_372_" x1="79.9" x2="83.8" y1="45.5" y2="45.4" stroke-miterlimit="10" stroke-width="1.5" class="easy-payment-2 fill-none stroke-primary"/><line id="easyPayment_373_" x1="82.5" x2="84.2" y1="43" y2="44" stroke-miterlimit="10" stroke-width="1.5" class="easy-payment-2 fill-none stroke-primary"/><line id="easyPayment_374_" x1="83.3" x2="85.3" y1="39.5" y2="42.9" stroke-miterlimit="10" stroke-width="1.5" class="easy-payment-2 fill-none stroke-primary"/></g></svg>