<svg xmlns="http://www.w3.org/2000/svg" xmlns:xlink="http://www.w3.org/1999/xlink" x="0" y="0" viewBox="0 0 151.5 112.2" xml:space="preserve" style="enable-background:new 0 0 151.5 112.2"><style type="text/css">.enterprise-1-0{fill:#377dff}.enterprise-1-1{fill:#fff}.enterprise-1-2{fill:none;stroke:#377dff}.enterprise-1-3{fill:none;stroke:#fff}</style><g id="enterprise_1_399_"><rect id="enterprise_1_654_" width="27" height="75.4" x="88" y="31.3" class="enterprise-1-0 fill-primary"/><rect id="enterprise_1_653_" width="27" height="14.7" x="88" y="31.3" class="enterprise-1-1 fill-white"/><polyline id="enterprise_1_59_" stroke-miterlimit="10" stroke-width="1.5" points="89.6 31.3 115 31.3 115 106.6 88 106.6" class="enterprise-1-2 fill-none stroke-primary"/><line id="enterprise_1_645_" x1="90.3" x2="112.4" y1="50.6" y2="50.6" stroke-miterlimit="10" stroke-width="1.5" class="enterprise-1-3 fill-none stroke-white"/><line id="enterprise_1_86_" x1="90.3" x2="112.4" y1="54.9" y2="54.9" stroke-miterlimit="10" stroke-width="1.5" class="enterprise-1-3 fill-none stroke-white"/><line id="enterprise_1_107_" x1="90.3" x2="112.4" y1="59.1" y2="59.1" stroke-miterlimit="10" stroke-width="1.5" class="enterprise-1-3 fill-none stroke-white"/><line id="enterprise_1_108_" x1="90.3" x2="112.4" y1="63.4" y2="63.4" stroke-miterlimit="10" stroke-width="1.5" class="enterprise-1-3 fill-none stroke-white"/><line id="enterprise_1_110_" x1="90.3" x2="112.4" y1="67.6" y2="67.6" stroke-miterlimit="10" stroke-width="1.5" class="enterprise-1-3 fill-none stroke-white"/><line id="enterprise_1_111_" x1="90.3" x2="112.4" y1="71.9" y2="71.9" stroke-miterlimit="10" stroke-width="1.5" class="enterprise-1-3 fill-none stroke-white"/><line id="enterprise_1_113_" x1="90.3" x2="112.4" y1="76.1" y2="76.1" stroke-miterlimit="10" stroke-width="1.5" class="enterprise-1-3 fill-none stroke-white"/><line id="enterprise_1_114_" x1="90.3" x2="112.4" y1="80.4" y2="80.4" stroke-miterlimit="10" stroke-width="1.5" class="enterprise-1-3 fill-none stroke-white"/><line id="enterprise_1_115_" x1="90.3" x2="112.4" y1="84.6" y2="84.6" stroke-miterlimit="10" stroke-width="1.5" class="enterprise-1-3 fill-none stroke-white"/><line id="enterprise_1_117_" x1="90.3" x2="112.4" y1="88.9" y2="88.9" stroke-miterlimit="10" stroke-width="1.5" class="enterprise-1-3 fill-none stroke-white"/><line id="enterprise_1_118_" x1="90.3" x2="112.4" y1="93.1" y2="93.1" stroke-miterlimit="10" stroke-width="1.5" class="enterprise-1-3 fill-none stroke-white"/><line id="enterprise_1_119_" x1="90.3" x2="112.4" y1="97.4" y2="97.4" stroke-miterlimit="10" stroke-width="1.5" class="enterprise-1-3 fill-none stroke-white"/><line id="enterprise_1_121_" x1="90.3" x2="112.4" y1="101.6" y2="101.6" stroke-miterlimit="10" stroke-width="1.5" class="enterprise-1-3 fill-none stroke-white"/><g id="enterprise_1_405_"><line id="enterprise_1_422_" x1="91.6" x2="91.6" y1="33.3" y2="43.7" stroke-miterlimit="10" stroke-width="1.5" class="enterprise-1-2 fill-none stroke-primary"/><line id="enterprise_1_421_" x1="94.6" x2="94.6" y1="33.3" y2="43.7" stroke-miterlimit="10" stroke-width="1.5" class="enterprise-1-2 fill-none stroke-primary"/><line id="enterprise_1_420_" x1="97.5" x2="97.5" y1="33.3" y2="43.7" stroke-miterlimit="10" stroke-width="1.5" class="enterprise-1-2 fill-none stroke-primary"/><line id="enterprise_1_419_" x1="100.5" x2="100.5" y1="33.3" y2="43.7" stroke-miterlimit="10" stroke-width="1.5" class="enterprise-1-2 fill-none stroke-primary"/><line id="enterprise_1_410_" x1="103.5" x2="103.5" y1="33.3" y2="43.7" stroke-miterlimit="10" stroke-width="1.5" class="enterprise-1-2 fill-none stroke-primary"/><line id="enterprise_1_408_" x1="106.4" x2="106.4" y1="33.3" y2="43.7" stroke-miterlimit="10" stroke-width="1.5" class="enterprise-1-2 fill-none stroke-primary"/><line id="enterprise_1_407_" x1="109.4" x2="109.4" y1="33.3" y2="43.7" stroke-miterlimit="10" stroke-width="1.5" class="enterprise-1-2 fill-none stroke-primary"/><line id="enterprise_1_406_" x1="112.4" x2="112.4" y1="33.3" y2="43.7" stroke-miterlimit="10" stroke-width="1.5" class="enterprise-1-2 fill-none stroke-primary"/></g></g><g id="enterprise_1_891_"><rect id="enterprise_1_972_" width="16.5" height="7.6" x="68.9" y="13.9" class="enterprise-1-1 fill-white"/><rect id="enterprise_1_970_" width="16.5" height="7.6" x="68.9" y="13.9" stroke-miterlimit="10" stroke-width="1.5" class="enterprise-1-2 fill-none stroke-primary"/><rect id="enterprise_1_969_" width="23.3" height="87.4" x="65.5" y="19.1" class="enterprise-1-1 fill-white"/><line id="enterprise_1_967_" x1="68.9" x2="68.9" y1="0" y2="14.5" stroke-miterlimit="10" stroke-width="1.5" class="enterprise-1-2 fill-none stroke-primary"/><line id="enterprise_1_966_" x1="85.4" x2="85.4" y1="0" y2="14.5" stroke-miterlimit="10" stroke-width="1.5" class="enterprise-1-2 fill-none stroke-primary"/><line id="enterprise_1_965_" x1="77.1" x2="77.1" y1="4.4" y2="13.8" stroke-miterlimit="10" stroke-width="1.5" class="enterprise-1-2 fill-none stroke-primary"/><polyline id="enterprise_1_652_" stroke-miterlimit="10" stroke-width="1.5" points="65.5 107.3 65.5 19.9 88.8 19.9 88.8 106.9" class="enterprise-1-2 fill-none stroke-primary"/><line id="enterprise_1_893_" x1="70.3" x2="70.3" y1="19.9" y2="107.3" stroke-miterlimit="10" stroke-width="1.5" class="enterprise-1-2 fill-none stroke-primary"/><line id="enterprise_1_892_" x1="83.5" x2="83.5" y1="20.2" y2="107.3" stroke-miterlimit="10" stroke-width="1.5" class="enterprise-1-2 fill-none stroke-primary"/></g><g id="enterprise_1_655_"><polygon id="enterprise_1_890_" points="36.5 107.3 59.4 107.3 59.4 27.1 40.3 27.1 40.3 60.1 36.5 60.1" class="enterprise-1-1 fill-white"/><polyline id="enterprise_1_428_" stroke-miterlimit="10" stroke-width="1.5" points="59.4 27.1 40.3 27.1 40.3 59.9 36.5 59.9 36.5 107.3" class="enterprise-1-2 fill-none stroke-primary"/><g><polyline id="enterprise_1_427_" stroke-miterlimit="10" stroke-width="1.5" points="59.2 107.3 59.2 22.3 62.6 20.1 62.6 107.3" class="enterprise-1-2 fill-none stroke-primary"/><line id="enterprise_1_886_" x1="62.6" x2="62.6" y1="2.9" y2="21.1" stroke-miterlimit="10" stroke-width="1.5" class="enterprise-1-2 fill-none stroke-primary"/></g><g><line id="enterprise_1_841_" x1="40.3" x2="59" y1="29.7" y2="29.7" stroke-miterlimit="10" stroke-width="1.5" class="enterprise-1-2 fill-none stroke-primary"/><line id="enterprise_1_840_" x1="40.3" x2="59" y1="32.8" y2="32.8" stroke-miterlimit="10" stroke-width="1.5" class="enterprise-1-2 fill-none stroke-primary"/><line id="enterprise_1_839_" x1="40.3" x2="59" y1="36" y2="36" stroke-miterlimit="10" stroke-width="1.5" class="enterprise-1-2 fill-none stroke-primary"/><line id="enterprise_1_838_" x1="40.3" x2="59" y1="39.1" y2="39.1" stroke-miterlimit="10" stroke-width="1.5" class="enterprise-1-2 fill-none stroke-primary"/><line id="enterprise_1_837_" x1="40.3" x2="59" y1="42.2" y2="42.2" stroke-miterlimit="10" stroke-width="1.5" class="enterprise-1-2 fill-none stroke-primary"/><line id="enterprise_1_836_" x1="40.3" x2="59" y1="45.3" y2="45.3" stroke-miterlimit="10" stroke-width="1.5" class="enterprise-1-2 fill-none stroke-primary"/><line id="enterprise_1_835_" x1="40.3" x2="59" y1="48.4" y2="48.4" stroke-miterlimit="10" stroke-width="1.5" class="enterprise-1-2 fill-none stroke-primary"/><line id="enterprise_1_834_" x1="40.3" x2="59" y1="51.5" y2="51.5" stroke-miterlimit="10" stroke-width="1.5" class="enterprise-1-2 fill-none stroke-primary"/><line id="enterprise_1_833_" x1="40.3" x2="59" y1="54.7" y2="54.7" stroke-miterlimit="10" stroke-width="1.5" class="enterprise-1-2 fill-none stroke-primary"/><line id="enterprise_1_828_" x1="40.3" x2="59" y1="57.8" y2="57.8" stroke-miterlimit="10" stroke-width="1.5" class="enterprise-1-2 fill-none stroke-primary"/><line id="enterprise_1_827_" x1="40.3" x2="59" y1="59.9" y2="59.9" stroke-miterlimit="10" stroke-width="1.5" class="enterprise-1-2 fill-none stroke-primary"/></g><g><g id="enterprise_1_815_"><line id="enterprise_1_826_" x1="38.1" x2="38.1" y1="61.6" y2="63.1" stroke-miterlimit="10" stroke-width="1.5" class="enterprise-1-2 fill-none stroke-primary"/><line id="enterprise_1_825_" x1="40.3" x2="40.3" y1="61.6" y2="63.1" stroke-miterlimit="10" stroke-width="1.5" class="enterprise-1-2 fill-none stroke-primary"/><line id="enterprise_1_824_" x1="42.5" x2="42.5" y1="61.6" y2="63.1" stroke-miterlimit="10" stroke-width="1.5" class="enterprise-1-2 fill-none stroke-primary"/><line id="enterprise_1_823_" x1="44.7" x2="44.7" y1="61.6" y2="63.1" stroke-miterlimit="10" stroke-width="1.5" class="enterprise-1-2 fill-none stroke-primary"/><line id="enterprise_1_822_" x1="46.9" x2="46.9" y1="61.6" y2="63.1" stroke-miterlimit="10" stroke-width="1.5" class="enterprise-1-2 fill-none stroke-primary"/><line id="enterprise_1_821_" x1="49.1" x2="49.1" y1="61.6" y2="63.1" stroke-miterlimit="10" stroke-width="1.5" class="enterprise-1-2 fill-none stroke-primary"/><line id="enterprise_1_820_" x1="51.3" x2="51.3" y1="61.6" y2="63.1" stroke-miterlimit="10" stroke-width="1.5" class="enterprise-1-2 fill-none stroke-primary"/><line id="enterprise_1_819_" x1="53.5" x2="53.5" y1="61.6" y2="63.1" stroke-miterlimit="10" stroke-width="1.5" class="enterprise-1-2 fill-none stroke-primary"/><line id="enterprise_1_818_" x1="55.7" x2="55.7" y1="61.6" y2="63.1" stroke-miterlimit="10" stroke-width="1.5" class="enterprise-1-2 fill-none stroke-primary"/><line id="enterprise_1_816_" x1="57.9" x2="57.9" y1="61.6" y2="63.1" stroke-miterlimit="10" stroke-width="1.5" class="enterprise-1-2 fill-none stroke-primary"/></g><g id="enterprise_1_804_"><line id="enterprise_1_814_" x1="38.1" x2="38.1" y1="64.7" y2="66.2" stroke-miterlimit="10" stroke-width="1.5" class="enterprise-1-2 fill-none stroke-primary"/><line id="enterprise_1_813_" x1="40.3" x2="40.3" y1="64.7" y2="66.2" stroke-miterlimit="10" stroke-width="1.5" class="enterprise-1-2 fill-none stroke-primary"/><line id="enterprise_1_812_" x1="42.5" x2="42.5" y1="64.7" y2="66.2" stroke-miterlimit="10" stroke-width="1.5" class="enterprise-1-2 fill-none stroke-primary"/><line id="enterprise_1_811_" x1="44.7" x2="44.7" y1="64.7" y2="66.2" stroke-miterlimit="10" stroke-width="1.5" class="enterprise-1-2 fill-none stroke-primary"/><line id="enterprise_1_810_" x1="46.9" x2="46.9" y1="64.7" y2="66.2" stroke-miterlimit="10" stroke-width="1.5" class="enterprise-1-2 fill-none stroke-primary"/><line id="enterprise_1_809_" x1="49.1" x2="49.1" y1="64.7" y2="66.2" stroke-miterlimit="10" stroke-width="1.5" class="enterprise-1-2 fill-none stroke-primary"/><line id="enterprise_1_808_" x1="51.3" x2="51.3" y1="64.7" y2="66.2" stroke-miterlimit="10" stroke-width="1.5" class="enterprise-1-2 fill-none stroke-primary"/><line id="enterprise_1_807_" x1="53.5" x2="53.5" y1="64.7" y2="66.2" stroke-miterlimit="10" stroke-width="1.5" class="enterprise-1-2 fill-none stroke-primary"/><line id="enterprise_1_806_" x1="55.7" x2="55.7" y1="64.7" y2="66.2" stroke-miterlimit="10" stroke-width="1.5" class="enterprise-1-2 fill-none stroke-primary"/><line id="enterprise_1_805_" x1="57.9" x2="57.9" y1="64.7" y2="66.2" stroke-miterlimit="10" stroke-width="1.5" class="enterprise-1-2 fill-none stroke-primary"/></g><g id="enterprise_1_791_"><line id="enterprise_1_802_" x1="38.1" x2="38.1" y1="67.8" y2="69.3" stroke-miterlimit="10" stroke-width="1.5" class="enterprise-1-2 fill-none stroke-primary"/><line id="enterprise_1_801_" x1="40.3" x2="40.3" y1="67.8" y2="69.3" stroke-miterlimit="10" stroke-width="1.5" class="enterprise-1-2 fill-none stroke-primary"/><line id="enterprise_1_800_" x1="42.5" x2="42.5" y1="67.8" y2="69.3" stroke-miterlimit="10" stroke-width="1.5" class="enterprise-1-2 fill-none stroke-primary"/><line id="enterprise_1_799_" x1="44.7" x2="44.7" y1="67.8" y2="69.3" stroke-miterlimit="10" stroke-width="1.5" class="enterprise-1-2 fill-none stroke-primary"/><line id="enterprise_1_798_" x1="46.9" x2="46.9" y1="67.8" y2="69.3" stroke-miterlimit="10" stroke-width="1.5" class="enterprise-1-2 fill-none stroke-primary"/><line id="enterprise_1_797_" x1="49.1" x2="49.1" y1="67.8" y2="69.3" stroke-miterlimit="10" stroke-width="1.5" class="enterprise-1-2 fill-none stroke-primary"/><line id="enterprise_1_796_" x1="51.3" x2="51.3" y1="67.8" y2="69.3" stroke-miterlimit="10" stroke-width="1.5" class="enterprise-1-2 fill-none stroke-primary"/><line id="enterprise_1_795_" x1="53.5" x2="53.5" y1="67.8" y2="69.3" stroke-miterlimit="10" stroke-width="1.5" class="enterprise-1-2 fill-none stroke-primary"/><line id="enterprise_1_794_" x1="55.7" x2="55.7" y1="67.8" y2="69.3" stroke-miterlimit="10" stroke-width="1.5" class="enterprise-1-2 fill-none stroke-primary"/><line id="enterprise_1_793_" x1="57.9" x2="57.9" y1="67.8" y2="69.3" stroke-miterlimit="10" stroke-width="1.5" class="enterprise-1-2 fill-none stroke-primary"/></g><g id="enterprise_1_780_"><line id="enterprise_1_790_" x1="38.1" x2="38.1" y1="70.9" y2="72.4" stroke-miterlimit="10" stroke-width="1.5" class="enterprise-1-2 fill-none stroke-primary"/><line id="enterprise_1_789_" x1="40.3" x2="40.3" y1="70.9" y2="72.4" stroke-miterlimit="10" stroke-width="1.5" class="enterprise-1-2 fill-none stroke-primary"/><line id="enterprise_1_788_" x1="42.5" x2="42.5" y1="70.9" y2="72.4" stroke-miterlimit="10" stroke-width="1.5" class="enterprise-1-2 fill-none stroke-primary"/><line id="enterprise_1_787_" x1="44.7" x2="44.7" y1="70.9" y2="72.4" stroke-miterlimit="10" stroke-width="1.5" class="enterprise-1-2 fill-none stroke-primary"/><line id="enterprise_1_786_" x1="46.9" x2="46.9" y1="70.9" y2="72.4" stroke-miterlimit="10" stroke-width="1.5" class="enterprise-1-2 fill-none stroke-primary"/><line id="enterprise_1_785_" x1="49.1" x2="49.1" y1="70.9" y2="72.4" stroke-miterlimit="10" stroke-width="1.5" class="enterprise-1-2 fill-none stroke-primary"/><line id="enterprise_1_784_" x1="51.3" x2="51.3" y1="70.9" y2="72.4" stroke-miterlimit="10" stroke-width="1.5" class="enterprise-1-2 fill-none stroke-primary"/><line id="enterprise_1_783_" x1="53.5" x2="53.5" y1="70.9" y2="72.4" stroke-miterlimit="10" stroke-width="1.5" class="enterprise-1-2 fill-none stroke-primary"/><line id="enterprise_1_782_" x1="55.7" x2="55.7" y1="70.9" y2="72.4" stroke-miterlimit="10" stroke-width="1.5" class="enterprise-1-2 fill-none stroke-primary"/><line id="enterprise_1_781_" x1="57.9" x2="57.9" y1="70.9" y2="72.4" stroke-miterlimit="10" stroke-width="1.5" class="enterprise-1-2 fill-none stroke-primary"/></g><g id="enterprise_1_768_"><line id="enterprise_1_779_" x1="38.1" x2="38.1" y1="74" y2="75.5" stroke-miterlimit="10" stroke-width="1.5" class="enterprise-1-2 fill-none stroke-primary"/><line id="enterprise_1_777_" x1="40.3" x2="40.3" y1="74" y2="75.5" stroke-miterlimit="10" stroke-width="1.5" class="enterprise-1-2 fill-none stroke-primary"/><line id="enterprise_1_776_" x1="42.5" x2="42.5" y1="74" y2="75.5" stroke-miterlimit="10" stroke-width="1.5" class="enterprise-1-2 fill-none stroke-primary"/><line id="enterprise_1_775_" x1="44.7" x2="44.7" y1="74" y2="75.5" stroke-miterlimit="10" stroke-width="1.5" class="enterprise-1-2 fill-none stroke-primary"/><line id="enterprise_1_774_" x1="46.9" x2="46.9" y1="74" y2="75.5" stroke-miterlimit="10" stroke-width="1.5" class="enterprise-1-2 fill-none stroke-primary"/><line id="enterprise_1_773_" x1="49.1" x2="49.1" y1="74" y2="75.5" stroke-miterlimit="10" stroke-width="1.5" class="enterprise-1-2 fill-none stroke-primary"/><line id="enterprise_1_772_" x1="51.3" x2="51.3" y1="74" y2="75.5" stroke-miterlimit="10" stroke-width="1.5" class="enterprise-1-2 fill-none stroke-primary"/><line id="enterprise_1_771_" x1="53.5" x2="53.5" y1="74" y2="75.5" stroke-miterlimit="10" stroke-width="1.5" class="enterprise-1-2 fill-none stroke-primary"/><line id="enterprise_1_770_" x1="55.7" x2="55.7" y1="74" y2="75.5" stroke-miterlimit="10" stroke-width="1.5" class="enterprise-1-2 fill-none stroke-primary"/><line id="enterprise_1_769_" x1="57.9" x2="57.9" y1="74" y2="75.5" stroke-miterlimit="10" stroke-width="1.5" class="enterprise-1-2 fill-none stroke-primary"/></g><g id="enterprise_1_757_"><line id="enterprise_1_767_" x1="38.1" x2="38.1" y1="77.1" y2="78.6" stroke-miterlimit="10" stroke-width="1.5" class="enterprise-1-2 fill-none stroke-primary"/><line id="enterprise_1_766_" x1="40.3" x2="40.3" y1="77.1" y2="78.6" stroke-miterlimit="10" stroke-width="1.5" class="enterprise-1-2 fill-none stroke-primary"/><line id="enterprise_1_765_" x1="42.5" x2="42.5" y1="77.1" y2="78.6" stroke-miterlimit="10" stroke-width="1.5" class="enterprise-1-2 fill-none stroke-primary"/><line id="enterprise_1_764_" x1="44.7" x2="44.7" y1="77.1" y2="78.6" stroke-miterlimit="10" stroke-width="1.5" class="enterprise-1-2 fill-none stroke-primary"/><line id="enterprise_1_763_" x1="46.9" x2="46.9" y1="77.1" y2="78.6" stroke-miterlimit="10" stroke-width="1.5" class="enterprise-1-2 fill-none stroke-primary"/><line id="enterprise_1_762_" x1="49.1" x2="49.1" y1="77.1" y2="78.6" stroke-miterlimit="10" stroke-width="1.5" class="enterprise-1-2 fill-none stroke-primary"/><line id="enterprise_1_761_" x1="51.3" x2="51.3" y1="77.1" y2="78.6" stroke-miterlimit="10" stroke-width="1.5" class="enterprise-1-2 fill-none stroke-primary"/><line id="enterprise_1_760_" x1="53.5" x2="53.5" y1="77.1" y2="78.6" stroke-miterlimit="10" stroke-width="1.5" class="enterprise-1-2 fill-none stroke-primary"/><line id="enterprise_1_759_" x1="55.7" x2="55.7" y1="77.1" y2="78.6" stroke-miterlimit="10" stroke-width="1.5" class="enterprise-1-2 fill-none stroke-primary"/><line id="enterprise_1_758_" x1="57.9" x2="57.9" y1="77.1" y2="78.6" stroke-miterlimit="10" stroke-width="1.5" class="enterprise-1-2 fill-none stroke-primary"/></g><g id="enterprise_1_746_"><line id="enterprise_1_756_" x1="38.1" x2="38.1" y1="80.2" y2="81.7" stroke-miterlimit="10" stroke-width="1.5" class="enterprise-1-2 fill-none stroke-primary"/><line id="enterprise_1_755_" x1="40.3" x2="40.3" y1="80.2" y2="81.7" stroke-miterlimit="10" stroke-width="1.5" class="enterprise-1-2 fill-none stroke-primary"/><line id="enterprise_1_754_" x1="42.5" x2="42.5" y1="80.2" y2="81.7" stroke-miterlimit="10" stroke-width="1.5" class="enterprise-1-2 fill-none stroke-primary"/><line id="enterprise_1_753_" x1="44.7" x2="44.7" y1="80.2" y2="81.7" stroke-miterlimit="10" stroke-width="1.5" class="enterprise-1-2 fill-none stroke-primary"/><line id="enterprise_1_752_" x1="46.9" x2="46.9" y1="80.2" y2="81.7" stroke-miterlimit="10" stroke-width="1.5" class="enterprise-1-2 fill-none stroke-primary"/><line id="enterprise_1_751_" x1="49.1" x2="49.1" y1="80.2" y2="81.7" stroke-miterlimit="10" stroke-width="1.5" class="enterprise-1-2 fill-none stroke-primary"/><line id="enterprise_1_750_" x1="51.3" x2="51.3" y1="80.2" y2="81.7" stroke-miterlimit="10" stroke-width="1.5" class="enterprise-1-2 fill-none stroke-primary"/><line id="enterprise_1_749_" x1="53.5" x2="53.5" y1="80.2" y2="81.7" stroke-miterlimit="10" stroke-width="1.5" class="enterprise-1-2 fill-none stroke-primary"/><line id="enterprise_1_748_" x1="55.7" x2="55.7" y1="80.2" y2="81.7" stroke-miterlimit="10" stroke-width="1.5" class="enterprise-1-2 fill-none stroke-primary"/><line id="enterprise_1_747_" x1="57.9" x2="57.9" y1="80.2" y2="81.7" stroke-miterlimit="10" stroke-width="1.5" class="enterprise-1-2 fill-none stroke-primary"/></g><g id="enterprise_1_735_"><line id="enterprise_1_745_" x1="38.1" x2="38.1" y1="83.3" y2="84.8" stroke-miterlimit="10" stroke-width="1.5" class="enterprise-1-2 fill-none stroke-primary"/><line id="enterprise_1_744_" x1="40.3" x2="40.3" y1="83.3" y2="84.8" stroke-miterlimit="10" stroke-width="1.5" class="enterprise-1-2 fill-none stroke-primary"/><line id="enterprise_1_743_" x1="42.5" x2="42.5" y1="83.3" y2="84.8" stroke-miterlimit="10" stroke-width="1.5" class="enterprise-1-2 fill-none stroke-primary"/><line id="enterprise_1_742_" x1="44.7" x2="44.7" y1="83.3" y2="84.8" stroke-miterlimit="10" stroke-width="1.5" class="enterprise-1-2 fill-none stroke-primary"/><line id="enterprise_1_741_" x1="46.9" x2="46.9" y1="83.3" y2="84.8" stroke-miterlimit="10" stroke-width="1.5" class="enterprise-1-2 fill-none stroke-primary"/><line id="enterprise_1_740_" x1="49.1" x2="49.1" y1="83.3" y2="84.8" stroke-miterlimit="10" stroke-width="1.5" class="enterprise-1-2 fill-none stroke-primary"/><line id="enterprise_1_739_" x1="51.3" x2="51.3" y1="83.3" y2="84.8" stroke-miterlimit="10" stroke-width="1.5" class="enterprise-1-2 fill-none stroke-primary"/><line id="enterprise_1_738_" x1="53.5" x2="53.5" y1="83.3" y2="84.8" stroke-miterlimit="10" stroke-width="1.5" class="enterprise-1-2 fill-none stroke-primary"/><line id="enterprise_1_737_" x1="55.7" x2="55.7" y1="83.3" y2="84.8" stroke-miterlimit="10" stroke-width="1.5" class="enterprise-1-2 fill-none stroke-primary"/><line id="enterprise_1_736_" x1="57.9" x2="57.9" y1="83.3" y2="84.8" stroke-miterlimit="10" stroke-width="1.5" class="enterprise-1-2 fill-none stroke-primary"/></g><g id="enterprise_1_724_"><line id="enterprise_1_734_" x1="38.1" x2="38.1" y1="86.4" y2="87.9" stroke-miterlimit="10" stroke-width="1.5" class="enterprise-1-2 fill-none stroke-primary"/><line id="enterprise_1_733_" x1="40.3" x2="40.3" y1="86.4" y2="87.9" stroke-miterlimit="10" stroke-width="1.5" class="enterprise-1-2 fill-none stroke-primary"/><line id="enterprise_1_732_" x1="42.5" x2="42.5" y1="86.4" y2="87.9" stroke-miterlimit="10" stroke-width="1.5" class="enterprise-1-2 fill-none stroke-primary"/><line id="enterprise_1_731_" x1="44.7" x2="44.7" y1="86.4" y2="87.9" stroke-miterlimit="10" stroke-width="1.5" class="enterprise-1-2 fill-none stroke-primary"/><line id="enterprise_1_730_" x1="46.9" x2="46.9" y1="86.4" y2="87.9" stroke-miterlimit="10" stroke-width="1.5" class="enterprise-1-2 fill-none stroke-primary"/><line id="enterprise_1_729_" x1="49.1" x2="49.1" y1="86.4" y2="87.9" stroke-miterlimit="10" stroke-width="1.5" class="enterprise-1-2 fill-none stroke-primary"/><line id="enterprise_1_728_" x1="51.3" x2="51.3" y1="86.4" y2="87.9" stroke-miterlimit="10" stroke-width="1.5" class="enterprise-1-2 fill-none stroke-primary"/><line id="enterprise_1_727_" x1="53.5" x2="53.5" y1="86.4" y2="87.9" stroke-miterlimit="10" stroke-width="1.5" class="enterprise-1-2 fill-none stroke-primary"/><line id="enterprise_1_726_" x1="55.7" x2="55.7" y1="86.4" y2="87.9" stroke-miterlimit="10" stroke-width="1.5" class="enterprise-1-2 fill-none stroke-primary"/><line id="enterprise_1_725_" x1="57.9" x2="57.9" y1="86.4" y2="87.9" stroke-miterlimit="10" stroke-width="1.5" class="enterprise-1-2 fill-none stroke-primary"/></g><g id="enterprise_1_713_"><line id="enterprise_1_723_" x1="38.1" x2="38.1" y1="89.5" y2="91" stroke-miterlimit="10" stroke-width="1.5" class="enterprise-1-2 fill-none stroke-primary"/><line id="enterprise_1_722_" x1="40.3" x2="40.3" y1="89.5" y2="91" stroke-miterlimit="10" stroke-width="1.5" class="enterprise-1-2 fill-none stroke-primary"/><line id="enterprise_1_721_" x1="42.5" x2="42.5" y1="89.5" y2="91" stroke-miterlimit="10" stroke-width="1.5" class="enterprise-1-2 fill-none stroke-primary"/><line id="enterprise_1_720_" x1="44.7" x2="44.7" y1="89.5" y2="91" stroke-miterlimit="10" stroke-width="1.5" class="enterprise-1-2 fill-none stroke-primary"/><line id="enterprise_1_719_" x1="46.9" x2="46.9" y1="89.5" y2="91" stroke-miterlimit="10" stroke-width="1.5" class="enterprise-1-2 fill-none stroke-primary"/><line id="enterprise_1_718_" x1="49.1" x2="49.1" y1="89.5" y2="91" stroke-miterlimit="10" stroke-width="1.5" class="enterprise-1-2 fill-none stroke-primary"/><line id="enterprise_1_717_" x1="51.3" x2="51.3" y1="89.5" y2="91" stroke-miterlimit="10" stroke-width="1.5" class="enterprise-1-2 fill-none stroke-primary"/><line id="enterprise_1_716_" x1="53.5" x2="53.5" y1="89.5" y2="91" stroke-miterlimit="10" stroke-width="1.5" class="enterprise-1-2 fill-none stroke-primary"/><line id="enterprise_1_715_" x1="55.7" x2="55.7" y1="89.5" y2="91" stroke-miterlimit="10" stroke-width="1.5" class="enterprise-1-2 fill-none stroke-primary"/><line id="enterprise_1_714_" x1="57.9" x2="57.9" y1="89.5" y2="91" stroke-miterlimit="10" stroke-width="1.5" class="enterprise-1-2 fill-none stroke-primary"/></g><g id="enterprise_1_700_"><line id="enterprise_1_712_" x1="38.1" x2="38.1" y1="92.6" y2="94.1" stroke-miterlimit="10" stroke-width="1.5" class="enterprise-1-2 fill-none stroke-primary"/><line id="enterprise_1_711_" x1="40.3" x2="40.3" y1="92.6" y2="94.1" stroke-miterlimit="10" stroke-width="1.5" class="enterprise-1-2 fill-none stroke-primary"/><line id="enterprise_1_709_" x1="42.5" x2="42.5" y1="92.6" y2="94.1" stroke-miterlimit="10" stroke-width="1.5" class="enterprise-1-2 fill-none stroke-primary"/><line id="enterprise_1_708_" x1="44.7" x2="44.7" y1="92.6" y2="94.1" stroke-miterlimit="10" stroke-width="1.5" class="enterprise-1-2 fill-none stroke-primary"/><line id="enterprise_1_707_" x1="46.9" x2="46.9" y1="92.6" y2="94.1" stroke-miterlimit="10" stroke-width="1.5" class="enterprise-1-2 fill-none stroke-primary"/><line id="enterprise_1_706_" x1="49.1" x2="49.1" y1="92.6" y2="94.1" stroke-miterlimit="10" stroke-width="1.5" class="enterprise-1-2 fill-none stroke-primary"/><line id="enterprise_1_705_" x1="51.3" x2="51.3" y1="92.6" y2="94.1" stroke-miterlimit="10" stroke-width="1.5" class="enterprise-1-2 fill-none stroke-primary"/><line id="enterprise_1_703_" x1="53.5" x2="53.5" y1="92.6" y2="94.1" stroke-miterlimit="10" stroke-width="1.5" class="enterprise-1-2 fill-none stroke-primary"/><line id="enterprise_1_702_" x1="55.7" x2="55.7" y1="92.6" y2="94.1" stroke-miterlimit="10" stroke-width="1.5" class="enterprise-1-2 fill-none stroke-primary"/><line id="enterprise_1_701_" x1="57.9" x2="57.9" y1="92.6" y2="94.1" stroke-miterlimit="10" stroke-width="1.5" class="enterprise-1-2 fill-none stroke-primary"/></g><g id="enterprise_1_689_"><line id="enterprise_1_699_" x1="38.1" x2="38.1" y1="95.7" y2="97.2" stroke-miterlimit="10" stroke-width="1.5" class="enterprise-1-2 fill-none stroke-primary"/><line id="enterprise_1_698_" x1="40.3" x2="40.3" y1="95.7" y2="97.2" stroke-miterlimit="10" stroke-width="1.5" class="enterprise-1-2 fill-none stroke-primary"/><line id="enterprise_1_697_" x1="42.5" x2="42.5" y1="95.7" y2="97.2" stroke-miterlimit="10" stroke-width="1.5" class="enterprise-1-2 fill-none stroke-primary"/><line id="enterprise_1_696_" x1="44.7" x2="44.7" y1="95.7" y2="97.2" stroke-miterlimit="10" stroke-width="1.5" class="enterprise-1-2 fill-none stroke-primary"/><line id="enterprise_1_695_" x1="46.9" x2="46.9" y1="95.7" y2="97.2" stroke-miterlimit="10" stroke-width="1.5" class="enterprise-1-2 fill-none stroke-primary"/><line id="enterprise_1_694_" x1="49.1" x2="49.1" y1="95.7" y2="97.2" stroke-miterlimit="10" stroke-width="1.5" class="enterprise-1-2 fill-none stroke-primary"/><line id="enterprise_1_693_" x1="51.3" x2="51.3" y1="95.7" y2="97.2" stroke-miterlimit="10" stroke-width="1.5" class="enterprise-1-2 fill-none stroke-primary"/><line id="enterprise_1_692_" x1="53.5" x2="53.5" y1="95.7" y2="97.2" stroke-miterlimit="10" stroke-width="1.5" class="enterprise-1-2 fill-none stroke-primary"/><line id="enterprise_1_691_" x1="55.7" x2="55.7" y1="95.7" y2="97.2" stroke-miterlimit="10" stroke-width="1.5" class="enterprise-1-2 fill-none stroke-primary"/><line id="enterprise_1_690_" x1="57.9" x2="57.9" y1="95.7" y2="97.2" stroke-miterlimit="10" stroke-width="1.5" class="enterprise-1-2 fill-none stroke-primary"/></g><g id="enterprise_1_678_"><line id="enterprise_1_688_" x1="38.1" x2="38.1" y1="98.8" y2="100.3" stroke-miterlimit="10" stroke-width="1.5" class="enterprise-1-2 fill-none stroke-primary"/><line id="enterprise_1_687_" x1="40.3" x2="40.3" y1="98.8" y2="100.3" stroke-miterlimit="10" stroke-width="1.5" class="enterprise-1-2 fill-none stroke-primary"/><line id="enterprise_1_686_" x1="42.5" x2="42.5" y1="98.8" y2="100.3" stroke-miterlimit="10" stroke-width="1.5" class="enterprise-1-2 fill-none stroke-primary"/><line id="enterprise_1_685_" x1="44.7" x2="44.7" y1="98.8" y2="100.3" stroke-miterlimit="10" stroke-width="1.5" class="enterprise-1-2 fill-none stroke-primary"/><line id="enterprise_1_684_" x1="46.9" x2="46.9" y1="98.8" y2="100.3" stroke-miterlimit="10" stroke-width="1.5" class="enterprise-1-2 fill-none stroke-primary"/><line id="enterprise_1_683_" x1="49.1" x2="49.1" y1="98.8" y2="100.3" stroke-miterlimit="10" stroke-width="1.5" class="enterprise-1-2 fill-none stroke-primary"/><line id="enterprise_1_682_" x1="51.3" x2="51.3" y1="98.8" y2="100.3" stroke-miterlimit="10" stroke-width="1.5" class="enterprise-1-2 fill-none stroke-primary"/><line id="enterprise_1_681_" x1="53.5" x2="53.5" y1="98.8" y2="100.3" stroke-miterlimit="10" stroke-width="1.5" class="enterprise-1-2 fill-none stroke-primary"/><line id="enterprise_1_680_" x1="55.7" x2="55.7" y1="98.8" y2="100.3" stroke-miterlimit="10" stroke-width="1.5" class="enterprise-1-2 fill-none stroke-primary"/><line id="enterprise_1_679_" x1="57.9" x2="57.9" y1="98.8" y2="100.3" stroke-miterlimit="10" stroke-width="1.5" class="enterprise-1-2 fill-none stroke-primary"/></g><g id="enterprise_1_667_"><line id="enterprise_1_677_" x1="38.1" x2="38.1" y1="101.9" y2="103.4" stroke-miterlimit="10" stroke-width="1.5" class="enterprise-1-2 fill-none stroke-primary"/><line id="enterprise_1_676_" x1="40.3" x2="40.3" y1="101.9" y2="103.4" stroke-miterlimit="10" stroke-width="1.5" class="enterprise-1-2 fill-none stroke-primary"/><line id="enterprise_1_675_" x1="42.5" x2="42.5" y1="101.9" y2="103.4" stroke-miterlimit="10" stroke-width="1.5" class="enterprise-1-2 fill-none stroke-primary"/><line id="enterprise_1_674_" x1="44.7" x2="44.7" y1="101.9" y2="103.4" stroke-miterlimit="10" stroke-width="1.5" class="enterprise-1-2 fill-none stroke-primary"/><line id="enterprise_1_673_" x1="46.9" x2="46.9" y1="101.9" y2="103.4" stroke-miterlimit="10" stroke-width="1.5" class="enterprise-1-2 fill-none stroke-primary"/><line id="enterprise_1_672_" x1="49.1" x2="49.1" y1="101.9" y2="103.4" stroke-miterlimit="10" stroke-width="1.5" class="enterprise-1-2 fill-none stroke-primary"/><line id="enterprise_1_671_" x1="51.3" x2="51.3" y1="101.9" y2="103.4" stroke-miterlimit="10" stroke-width="1.5" class="enterprise-1-2 fill-none stroke-primary"/><line id="enterprise_1_670_" x1="53.5" x2="53.5" y1="101.9" y2="103.4" stroke-miterlimit="10" stroke-width="1.5" class="enterprise-1-2 fill-none stroke-primary"/><line id="enterprise_1_669_" x1="55.7" x2="55.7" y1="101.9" y2="103.4" stroke-miterlimit="10" stroke-width="1.5" class="enterprise-1-2 fill-none stroke-primary"/><line id="enterprise_1_668_" x1="57.9" x2="57.9" y1="101.9" y2="103.4" stroke-miterlimit="10" stroke-width="1.5" class="enterprise-1-2 fill-none stroke-primary"/></g><g id="enterprise_1_656_"><line id="enterprise_1_666_" x1="38.1" x2="38.1" y1="105.1" y2="106.5" stroke-miterlimit="10" stroke-width="1.5" class="enterprise-1-2 fill-none stroke-primary"/><line id="enterprise_1_665_" x1="40.3" x2="40.3" y1="105.1" y2="106.5" stroke-miterlimit="10" stroke-width="1.5" class="enterprise-1-2 fill-none stroke-primary"/><line id="enterprise_1_664_" x1="42.5" x2="42.5" y1="105.1" y2="106.5" stroke-miterlimit="10" stroke-width="1.5" class="enterprise-1-2 fill-none stroke-primary"/><line id="enterprise_1_663_" x1="44.7" x2="44.7" y1="105.1" y2="106.5" stroke-miterlimit="10" stroke-width="1.5" class="enterprise-1-2 fill-none stroke-primary"/><line id="enterprise_1_662_" x1="46.9" x2="46.9" y1="105.1" y2="106.5" stroke-miterlimit="10" stroke-width="1.5" class="enterprise-1-2 fill-none stroke-primary"/><line id="enterprise_1_661_" x1="49.1" x2="49.1" y1="105.1" y2="106.5" stroke-miterlimit="10" stroke-width="1.5" class="enterprise-1-2 fill-none stroke-primary"/><line id="enterprise_1_660_" x1="51.3" x2="51.3" y1="105.1" y2="106.5" stroke-miterlimit="10" stroke-width="1.5" class="enterprise-1-2 fill-none stroke-primary"/><line id="enterprise_1_659_" x1="53.5" x2="53.5" y1="105.1" y2="106.5" stroke-miterlimit="10" stroke-width="1.5" class="enterprise-1-2 fill-none stroke-primary"/><line id="enterprise_1_658_" x1="55.7" x2="55.7" y1="105.1" y2="106.5" stroke-miterlimit="10" stroke-width="1.5" class="enterprise-1-2 fill-none stroke-primary"/><line id="enterprise_1_657_" x1="57.9" x2="57.9" y1="105.1" y2="106.5" stroke-miterlimit="10" stroke-width="1.5" class="enterprise-1-2 fill-none stroke-primary"/></g></g></g><rect width="151.5" height="4.8" y="107.4" class="enterprise-1-0 fill-primary"/><polygon points="118.8 107.4 118.8 36 140.2 51.5 140.2 107.3" class="enterprise-1-0 fill-primary"/><polygon points="32.7 107.4 32.7 36 11.3 51.5 11.3 107.3" class="enterprise-1-0 fill-primary"/></svg>