<svg xmlns="http://www.w3.org/2000/svg" xmlns:xlink="http://www.w3.org/1999/xlink" x="0" y="0" viewBox="0 0 188.4 91.1" xml:space="preserve" style="enable-background:new 0 0 188.4 91.1"><style type="text/css">.enterprise-2-0{fill:none;stroke:#377dff}.enterprise-2-1{fill:#fff}.enterprise-2-2{fill:#377dff}</style><g opacity=".1"><path d="M168.7,73.3c0,0.5-0.4,0.9-0.9,0.9s-0.9-0.4-0.9-0.9c0-0.5,0.4-0.9,0.9-0.9 S168.7,72.8,168.7,73.3z" class="enterprise-2-2 fill-primary"/><path d="M66.6,11c0,0.5-0.4,0.9-0.9,0.9c-0.5,0-0.9-0.4-0.9-0.9c0-0.5,0.4-0.9,0.9-0.9 C66.2,10.1,66.6,10.5,66.6,11z" class="enterprise-2-2 fill-primary"/><path d="M133.8,26.5c0,0.5-0.4,0.9-0.9,0.9c-0.5,0-0.9-0.4-0.9-0.9s0.4-0.9,0.9-0.9 C133.4,25.6,133.8,26,133.8,26.5z" class="enterprise-2-2 fill-primary"/><path d="M20.8,56c0,0.5-0.4,0.9-0.9,0.9s-0.9-0.4-0.9-0.9s0.4-0.9,0.9-0.9S20.8,55.5,20.8,56z" class="enterprise-2-2 fill-primary"/><path d="M176.3,41.9c0,0.7-0.5,1.2-1.2,1.2c-0.7,0-1.2-0.5-1.2-1.2c0-0.7,0.5-1.2,1.2-1.2 C175.8,40.7,176.3,41.3,176.3,41.9z" class="enterprise-2-2 fill-primary"/><path d="M138.1,1.2c0,0.7-0.5,1.2-1.2,1.2s-1.2-0.5-1.2-1.2s0.5-1.2,1.2-1.2S138.1,0.5,138.1,1.2z" class="enterprise-2-2 fill-primary"/><path d="M21.1,12.3c0,0.7-0.5,1.2-1.2,1.2c-0.7,0-1.2-0.5-1.2-1.2c0-0.7,0.5-1.2,1.2-1.2 C20.5,11,21.1,11.6,21.1,12.3z" class="enterprise-2-2 fill-primary"/></g><g><polyline stroke-miterlimit="10" stroke-width=".75" points="105.6 26.4 128.9 26.4 128.9 90.1 104.1 90.1" class="enterprise-2-0 fill-none stroke-primary"/><line x1="106.7" x2="127" y1="42.8" y2="42.8" stroke-miterlimit="10" stroke-width=".75" class="enterprise-2-0 fill-none stroke-primary"/><line x1="106.7" x2="127" y1="46.4" y2="46.4" stroke-miterlimit="10" stroke-width=".75" class="enterprise-2-0 fill-none stroke-primary"/><line x1="106.7" x2="127" y1="49.9" y2="49.9" stroke-miterlimit="10" stroke-width=".75" class="enterprise-2-0 fill-none stroke-primary"/><line x1="106.7" x2="127" y1="53.6" y2="53.6" stroke-miterlimit="10" stroke-width=".75" class="enterprise-2-0 fill-none stroke-primary"/><line x1="106.7" x2="127" y1="57.1" y2="57.1" stroke-miterlimit="10" stroke-width=".75" class="enterprise-2-0 fill-none stroke-primary"/><line x1="106.7" x2="127" y1="60.8" y2="60.8" stroke-miterlimit="10" stroke-width=".75" class="enterprise-2-0 fill-none stroke-primary"/><line x1="106.7" x2="127" y1="64.3" y2="64.3" stroke-miterlimit="10" stroke-width=".75" class="enterprise-2-0 fill-none stroke-primary"/><line x1="106.7" x2="127" y1="67.9" y2="67.9" stroke-miterlimit="10" stroke-width=".75" class="enterprise-2-0 fill-none stroke-primary"/><line x1="106.7" x2="127" y1="71.5" y2="71.5" stroke-miterlimit="10" stroke-width=".75" class="enterprise-2-0 fill-none stroke-primary"/><line x1="106.7" x2="127" y1="75.1" y2="75.1" stroke-miterlimit="10" stroke-width=".75" class="enterprise-2-0 fill-none stroke-primary"/><line x1="106.7" x2="127" y1="78.7" y2="78.7" stroke-miterlimit="10" stroke-width=".75" class="enterprise-2-0 fill-none stroke-primary"/><line x1="106.7" x2="127" y1="82.3" y2="82.3" stroke-miterlimit="10" stroke-width=".75" class="enterprise-2-0 fill-none stroke-primary"/><line x1="106.7" x2="127" y1="85.8" y2="85.8" stroke-miterlimit="10" stroke-width=".75" class="enterprise-2-0 fill-none stroke-primary"/><g><line x1="107.4" x2="107.4" y1="28.1" y2="36.9" stroke-miterlimit="10" stroke-width=".75" class="enterprise-2-0 fill-none stroke-primary"/><line x1="110.2" x2="110.2" y1="28.1" y2="36.9" stroke-miterlimit="10" stroke-width=".75" class="enterprise-2-0 fill-none stroke-primary"/><line x1="112.9" x2="112.9" y1="28.1" y2="36.9" stroke-miterlimit="10" stroke-width=".75" class="enterprise-2-0 fill-none stroke-primary"/><line x1="115.6" x2="115.6" y1="28.1" y2="36.9" stroke-miterlimit="10" stroke-width=".75" class="enterprise-2-0 fill-none stroke-primary"/><line x1="118.4" x2="118.4" y1="28.1" y2="36.9" stroke-miterlimit="10" stroke-width=".75" class="enterprise-2-0 fill-none stroke-primary"/><line x1="121" x2="121" y1="28.1" y2="36.9" stroke-miterlimit="10" stroke-width=".75" class="enterprise-2-0 fill-none stroke-primary"/><line x1="123.8" x2="123.8" y1="28.1" y2="36.9" stroke-miterlimit="10" stroke-width=".75" class="enterprise-2-0 fill-none stroke-primary"/><line x1="126.5" x2="126.5" y1="28.1" y2="36.9" stroke-miterlimit="10" stroke-width=".75" class="enterprise-2-0 fill-none stroke-primary"/></g></g><g><rect width="15.1" height="6.4" x="86.6" y="11.7" stroke-miterlimit="10" stroke-width=".75" class="enterprise-2-0 fill-none stroke-primary"/><rect width="21.4" height="73.9" x="83.5" y="16.1" class="enterprise-2-1 fill-white"/><line x1="86.6" x2="86.6" y1="0" y2="12.3" stroke-miterlimit="10" stroke-width=".75" class="enterprise-2-0 fill-none stroke-primary"/><line x1="101.7" x2="101.7" y1="0" y2="12.3" stroke-miterlimit="10" stroke-width=".75" class="enterprise-2-0 fill-none stroke-primary"/><line x1="94.1" x2="94.1" y1="3.7" y2="11.7" stroke-miterlimit="10" stroke-width=".75" class="enterprise-2-0 fill-none stroke-primary"/><polyline stroke-miterlimit="10" stroke-width=".75" points="83.5 90.7 83.5 16.8 104.9 16.8 104.9 90.3" class="enterprise-2-0 fill-none stroke-primary"/><line x1="87.9" x2="87.9" y1="16.8" y2="90.7" stroke-miterlimit="10" stroke-width=".75" class="enterprise-2-0 fill-none stroke-primary"/><line x1="100" x2="100" y1="17.1" y2="90.7" stroke-miterlimit="10" stroke-width=".75" class="enterprise-2-0 fill-none stroke-primary"/></g><g><polyline stroke-miterlimit="10" stroke-width=".75" points="77.9 22.9 60.3 22.9 60.3 50.6 56.9 50.6 56.9 90.7" class="enterprise-2-0 fill-none stroke-primary"/><g><polyline stroke-miterlimit="10" stroke-width=".75" points="77.7 90.7 77.7 18.8 80.8 17 80.8 90.7" class="enterprise-2-0 fill-none stroke-primary"/><line x1="80.8" x2="80.8" y1="2.5" y2="17.8" stroke-miterlimit="10" stroke-width=".75" class="enterprise-2-0 fill-none stroke-primary"/></g><g><line x1="60.3" x2="77.5" y1="25.1" y2="25.1" stroke-miterlimit="10" stroke-width=".75" class="enterprise-2-0 fill-none stroke-primary"/><line x1="60.3" x2="77.5" y1="27.7" y2="27.7" stroke-miterlimit="10" stroke-width=".75" class="enterprise-2-0 fill-none stroke-primary"/><line x1="60.3" x2="77.5" y1="30.4" y2="30.4" stroke-miterlimit="10" stroke-width=".75" class="enterprise-2-0 fill-none stroke-primary"/><line x1="60.3" x2="77.5" y1="33" y2="33" stroke-miterlimit="10" stroke-width=".75" class="enterprise-2-0 fill-none stroke-primary"/><line x1="60.3" x2="77.5" y1="35.7" y2="35.7" stroke-miterlimit="10" stroke-width=".75" class="enterprise-2-0 fill-none stroke-primary"/><line x1="60.3" x2="77.5" y1="38.3" y2="38.3" stroke-miterlimit="10" stroke-width=".75" class="enterprise-2-0 fill-none stroke-primary"/><line x1="60.3" x2="77.5" y1="40.9" y2="40.9" stroke-miterlimit="10" stroke-width=".75" class="enterprise-2-0 fill-none stroke-primary"/><line x1="60.3" x2="77.5" y1="43.5" y2="43.5" stroke-miterlimit="10" stroke-width=".75" class="enterprise-2-0 fill-none stroke-primary"/><line x1="60.3" x2="77.5" y1="46.2" y2="46.2" stroke-miterlimit="10" stroke-width=".75" class="enterprise-2-0 fill-none stroke-primary"/><line x1="60.3" x2="77.5" y1="48.8" y2="48.8" stroke-miterlimit="10" stroke-width=".75" class="enterprise-2-0 fill-none stroke-primary"/><line x1="60.3" x2="77.5" y1="50.6" y2="50.6" stroke-miterlimit="10" stroke-width=".75" class="enterprise-2-0 fill-none stroke-primary"/></g><g><g><line x1="58.3" x2="58.3" y1="52.1" y2="53.3" stroke-miterlimit="10" stroke-width=".75" class="enterprise-2-0 fill-none stroke-primary"/><line x1="60.3" x2="60.3" y1="52.1" y2="53.3" stroke-miterlimit="10" stroke-width=".75" class="enterprise-2-0 fill-none stroke-primary"/><line x1="62.4" x2="62.4" y1="52.1" y2="53.3" stroke-miterlimit="10" stroke-width=".75" class="enterprise-2-0 fill-none stroke-primary"/><line x1="64.4" x2="64.4" y1="52.1" y2="53.3" stroke-miterlimit="10" stroke-width=".75" class="enterprise-2-0 fill-none stroke-primary"/><line x1="66.4" x2="66.4" y1="52.1" y2="53.3" stroke-miterlimit="10" stroke-width=".75" class="enterprise-2-0 fill-none stroke-primary"/><line x1="68.4" x2="68.4" y1="52.1" y2="53.3" stroke-miterlimit="10" stroke-width=".75" class="enterprise-2-0 fill-none stroke-primary"/><line x1="70.4" x2="70.4" y1="52.1" y2="53.3" stroke-miterlimit="10" stroke-width=".75" class="enterprise-2-0 fill-none stroke-primary"/><line x1="72.5" x2="72.5" y1="52.1" y2="53.3" stroke-miterlimit="10" stroke-width=".75" class="enterprise-2-0 fill-none stroke-primary"/><line x1="74.5" x2="74.5" y1="52.1" y2="53.3" stroke-miterlimit="10" stroke-width=".75" class="enterprise-2-0 fill-none stroke-primary"/><line x1="76.5" x2="76.5" y1="52.1" y2="53.3" stroke-miterlimit="10" stroke-width=".75" class="enterprise-2-0 fill-none stroke-primary"/></g><g><line x1="58.3" x2="58.3" y1="54.7" y2="55.9" stroke-miterlimit="10" stroke-width=".75" class="enterprise-2-0 fill-none stroke-primary"/><line x1="60.3" x2="60.3" y1="54.7" y2="55.9" stroke-miterlimit="10" stroke-width=".75" class="enterprise-2-0 fill-none stroke-primary"/><line x1="62.4" x2="62.4" y1="54.7" y2="55.9" stroke-miterlimit="10" stroke-width=".75" class="enterprise-2-0 fill-none stroke-primary"/><line x1="64.4" x2="64.4" y1="54.7" y2="55.9" stroke-miterlimit="10" stroke-width=".75" class="enterprise-2-0 fill-none stroke-primary"/><line x1="66.4" x2="66.4" y1="54.7" y2="55.9" stroke-miterlimit="10" stroke-width=".75" class="enterprise-2-0 fill-none stroke-primary"/><line x1="68.4" x2="68.4" y1="54.7" y2="55.9" stroke-miterlimit="10" stroke-width=".75" class="enterprise-2-0 fill-none stroke-primary"/><line x1="70.4" x2="70.4" y1="54.7" y2="55.9" stroke-miterlimit="10" stroke-width=".75" class="enterprise-2-0 fill-none stroke-primary"/><line x1="72.5" x2="72.5" y1="54.7" y2="55.9" stroke-miterlimit="10" stroke-width=".75" class="enterprise-2-0 fill-none stroke-primary"/><line x1="74.5" x2="74.5" y1="54.7" y2="55.9" stroke-miterlimit="10" stroke-width=".75" class="enterprise-2-0 fill-none stroke-primary"/><line x1="76.5" x2="76.5" y1="54.7" y2="55.9" stroke-miterlimit="10" stroke-width=".75" class="enterprise-2-0 fill-none stroke-primary"/></g><g><line x1="58.3" x2="58.3" y1="57.3" y2="58.6" stroke-miterlimit="10" stroke-width=".75" class="enterprise-2-0 fill-none stroke-primary"/><line x1="60.3" x2="60.3" y1="57.3" y2="58.6" stroke-miterlimit="10" stroke-width=".75" class="enterprise-2-0 fill-none stroke-primary"/><line x1="62.4" x2="62.4" y1="57.3" y2="58.6" stroke-miterlimit="10" stroke-width=".75" class="enterprise-2-0 fill-none stroke-primary"/><line x1="64.4" x2="64.4" y1="57.3" y2="58.6" stroke-miterlimit="10" stroke-width=".75" class="enterprise-2-0 fill-none stroke-primary"/><line x1="66.4" x2="66.4" y1="57.3" y2="58.6" stroke-miterlimit="10" stroke-width=".75" class="enterprise-2-0 fill-none stroke-primary"/><line x1="68.4" x2="68.4" y1="57.3" y2="58.6" stroke-miterlimit="10" stroke-width=".75" class="enterprise-2-0 fill-none stroke-primary"/><line x1="70.4" x2="70.4" y1="57.3" y2="58.6" stroke-miterlimit="10" stroke-width=".75" class="enterprise-2-0 fill-none stroke-primary"/><line x1="72.5" x2="72.5" y1="57.3" y2="58.6" stroke-miterlimit="10" stroke-width=".75" class="enterprise-2-0 fill-none stroke-primary"/><line x1="74.5" x2="74.5" y1="57.3" y2="58.6" stroke-miterlimit="10" stroke-width=".75" class="enterprise-2-0 fill-none stroke-primary"/><line x1="76.5" x2="76.5" y1="57.3" y2="58.6" stroke-miterlimit="10" stroke-width=".75" class="enterprise-2-0 fill-none stroke-primary"/></g><g><line x1="58.3" x2="58.3" y1="59.9" y2="61.2" stroke-miterlimit="10" stroke-width=".75" class="enterprise-2-0 fill-none stroke-primary"/><line x1="60.3" x2="60.3" y1="59.9" y2="61.2" stroke-miterlimit="10" stroke-width=".75" class="enterprise-2-0 fill-none stroke-primary"/><line x1="62.4" x2="62.4" y1="59.9" y2="61.2" stroke-miterlimit="10" stroke-width=".75" class="enterprise-2-0 fill-none stroke-primary"/><line x1="64.4" x2="64.4" y1="59.9" y2="61.2" stroke-miterlimit="10" stroke-width=".75" class="enterprise-2-0 fill-none stroke-primary"/><line x1="66.4" x2="66.4" y1="59.9" y2="61.2" stroke-miterlimit="10" stroke-width=".75" class="enterprise-2-0 fill-none stroke-primary"/><line x1="68.4" x2="68.4" y1="59.9" y2="61.2" stroke-miterlimit="10" stroke-width=".75" class="enterprise-2-0 fill-none stroke-primary"/><line x1="70.4" x2="70.4" y1="59.9" y2="61.2" stroke-miterlimit="10" stroke-width=".75" class="enterprise-2-0 fill-none stroke-primary"/><line x1="72.5" x2="72.5" y1="59.9" y2="61.2" stroke-miterlimit="10" stroke-width=".75" class="enterprise-2-0 fill-none stroke-primary"/><line x1="74.5" x2="74.5" y1="59.9" y2="61.2" stroke-miterlimit="10" stroke-width=".75" class="enterprise-2-0 fill-none stroke-primary"/><line x1="76.5" x2="76.5" y1="59.9" y2="61.2" stroke-miterlimit="10" stroke-width=".75" class="enterprise-2-0 fill-none stroke-primary"/></g><g><line x1="58.3" x2="58.3" y1="62.5" y2="63.8" stroke-miterlimit="10" stroke-width=".75" class="enterprise-2-0 fill-none stroke-primary"/><line x1="60.3" x2="60.3" y1="62.5" y2="63.8" stroke-miterlimit="10" stroke-width=".75" class="enterprise-2-0 fill-none stroke-primary"/><line x1="62.4" x2="62.4" y1="62.5" y2="63.8" stroke-miterlimit="10" stroke-width=".75" class="enterprise-2-0 fill-none stroke-primary"/><line x1="64.4" x2="64.4" y1="62.5" y2="63.8" stroke-miterlimit="10" stroke-width=".75" class="enterprise-2-0 fill-none stroke-primary"/><line x1="66.4" x2="66.4" y1="62.5" y2="63.8" stroke-miterlimit="10" stroke-width=".75" class="enterprise-2-0 fill-none stroke-primary"/><line x1="68.4" x2="68.4" y1="62.5" y2="63.8" stroke-miterlimit="10" stroke-width=".75" class="enterprise-2-0 fill-none stroke-primary"/><line x1="70.4" x2="70.4" y1="62.5" y2="63.8" stroke-miterlimit="10" stroke-width=".75" class="enterprise-2-0 fill-none stroke-primary"/><line x1="72.5" x2="72.5" y1="62.5" y2="63.8" stroke-miterlimit="10" stroke-width=".75" class="enterprise-2-0 fill-none stroke-primary"/><line x1="74.5" x2="74.5" y1="62.5" y2="63.8" stroke-miterlimit="10" stroke-width=".75" class="enterprise-2-0 fill-none stroke-primary"/><line x1="76.5" x2="76.5" y1="62.5" y2="63.8" stroke-miterlimit="10" stroke-width=".75" class="enterprise-2-0 fill-none stroke-primary"/></g><g><line x1="58.3" x2="58.3" y1="65.1" y2="66.4" stroke-miterlimit="10" stroke-width=".75" class="enterprise-2-0 fill-none stroke-primary"/><line x1="60.3" x2="60.3" y1="65.1" y2="66.4" stroke-miterlimit="10" stroke-width=".75" class="enterprise-2-0 fill-none stroke-primary"/><line x1="62.4" x2="62.4" y1="65.1" y2="66.4" stroke-miterlimit="10" stroke-width=".75" class="enterprise-2-0 fill-none stroke-primary"/><line x1="64.4" x2="64.4" y1="65.1" y2="66.4" stroke-miterlimit="10" stroke-width=".75" class="enterprise-2-0 fill-none stroke-primary"/><line x1="66.4" x2="66.4" y1="65.1" y2="66.4" stroke-miterlimit="10" stroke-width=".75" class="enterprise-2-0 fill-none stroke-primary"/><line x1="68.4" x2="68.4" y1="65.1" y2="66.4" stroke-miterlimit="10" stroke-width=".75" class="enterprise-2-0 fill-none stroke-primary"/><line x1="70.4" x2="70.4" y1="65.1" y2="66.4" stroke-miterlimit="10" stroke-width=".75" class="enterprise-2-0 fill-none stroke-primary"/><line x1="72.5" x2="72.5" y1="65.1" y2="66.4" stroke-miterlimit="10" stroke-width=".75" class="enterprise-2-0 fill-none stroke-primary"/><line x1="74.5" x2="74.5" y1="65.1" y2="66.4" stroke-miterlimit="10" stroke-width=".75" class="enterprise-2-0 fill-none stroke-primary"/><line x1="76.5" x2="76.5" y1="65.1" y2="66.4" stroke-miterlimit="10" stroke-width=".75" class="enterprise-2-0 fill-none stroke-primary"/></g><g><line x1="58.3" x2="58.3" y1="67.8" y2="69" stroke-miterlimit="10" stroke-width=".75" class="enterprise-2-0 fill-none stroke-primary"/><line x1="60.3" x2="60.3" y1="67.8" y2="69" stroke-miterlimit="10" stroke-width=".75" class="enterprise-2-0 fill-none stroke-primary"/><line x1="62.4" x2="62.4" y1="67.8" y2="69" stroke-miterlimit="10" stroke-width=".75" class="enterprise-2-0 fill-none stroke-primary"/><line x1="64.4" x2="64.4" y1="67.8" y2="69" stroke-miterlimit="10" stroke-width=".75" class="enterprise-2-0 fill-none stroke-primary"/><line x1="66.4" x2="66.4" y1="67.8" y2="69" stroke-miterlimit="10" stroke-width=".75" class="enterprise-2-0 fill-none stroke-primary"/><line x1="68.4" x2="68.4" y1="67.8" y2="69" stroke-miterlimit="10" stroke-width=".75" class="enterprise-2-0 fill-none stroke-primary"/><line x1="70.4" x2="70.4" y1="67.8" y2="69" stroke-miterlimit="10" stroke-width=".75" class="enterprise-2-0 fill-none stroke-primary"/><line x1="72.5" x2="72.5" y1="67.8" y2="69" stroke-miterlimit="10" stroke-width=".75" class="enterprise-2-0 fill-none stroke-primary"/><line x1="74.5" x2="74.5" y1="67.8" y2="69" stroke-miterlimit="10" stroke-width=".75" class="enterprise-2-0 fill-none stroke-primary"/><line x1="76.5" x2="76.5" y1="67.8" y2="69" stroke-miterlimit="10" stroke-width=".75" class="enterprise-2-0 fill-none stroke-primary"/></g><g><line x1="58.3" x2="58.3" y1="70.4" y2="71.7" stroke-miterlimit="10" stroke-width=".75" class="enterprise-2-0 fill-none stroke-primary"/><line x1="60.3" x2="60.3" y1="70.4" y2="71.7" stroke-miterlimit="10" stroke-width=".75" class="enterprise-2-0 fill-none stroke-primary"/><line x1="62.4" x2="62.4" y1="70.4" y2="71.7" stroke-miterlimit="10" stroke-width=".75" class="enterprise-2-0 fill-none stroke-primary"/><line x1="64.4" x2="64.4" y1="70.4" y2="71.7" stroke-miterlimit="10" stroke-width=".75" class="enterprise-2-0 fill-none stroke-primary"/><line x1="66.4" x2="66.4" y1="70.4" y2="71.7" stroke-miterlimit="10" stroke-width=".75" class="enterprise-2-0 fill-none stroke-primary"/><line x1="68.4" x2="68.4" y1="70.4" y2="71.7" stroke-miterlimit="10" stroke-width=".75" class="enterprise-2-0 fill-none stroke-primary"/><line x1="70.4" x2="70.4" y1="70.4" y2="71.7" stroke-miterlimit="10" stroke-width=".75" class="enterprise-2-0 fill-none stroke-primary"/><line x1="72.5" x2="72.5" y1="70.4" y2="71.7" stroke-miterlimit="10" stroke-width=".75" class="enterprise-2-0 fill-none stroke-primary"/><line x1="74.5" x2="74.5" y1="70.4" y2="71.7" stroke-miterlimit="10" stroke-width=".75" class="enterprise-2-0 fill-none stroke-primary"/><line x1="76.5" x2="76.5" y1="70.4" y2="71.7" stroke-miterlimit="10" stroke-width=".75" class="enterprise-2-0 fill-none stroke-primary"/></g><g><line x1="58.3" x2="58.3" y1="73" y2="74.3" stroke-miterlimit="10" stroke-width=".75" class="enterprise-2-0 fill-none stroke-primary"/><line x1="60.3" x2="60.3" y1="73" y2="74.3" stroke-miterlimit="10" stroke-width=".75" class="enterprise-2-0 fill-none stroke-primary"/><line x1="62.4" x2="62.4" y1="73" y2="74.3" stroke-miterlimit="10" stroke-width=".75" class="enterprise-2-0 fill-none stroke-primary"/><line x1="64.4" x2="64.4" y1="73" y2="74.3" stroke-miterlimit="10" stroke-width=".75" class="enterprise-2-0 fill-none stroke-primary"/><line x1="66.4" x2="66.4" y1="73" y2="74.3" stroke-miterlimit="10" stroke-width=".75" class="enterprise-2-0 fill-none stroke-primary"/><line x1="68.4" x2="68.4" y1="73" y2="74.3" stroke-miterlimit="10" stroke-width=".75" class="enterprise-2-0 fill-none stroke-primary"/><line x1="70.4" x2="70.4" y1="73" y2="74.3" stroke-miterlimit="10" stroke-width=".75" class="enterprise-2-0 fill-none stroke-primary"/><line x1="72.5" x2="72.5" y1="73" y2="74.3" stroke-miterlimit="10" stroke-width=".75" class="enterprise-2-0 fill-none stroke-primary"/><line x1="74.5" x2="74.5" y1="73" y2="74.3" stroke-miterlimit="10" stroke-width=".75" class="enterprise-2-0 fill-none stroke-primary"/><line x1="76.5" x2="76.5" y1="73" y2="74.3" stroke-miterlimit="10" stroke-width=".75" class="enterprise-2-0 fill-none stroke-primary"/></g><g><line x1="58.3" x2="58.3" y1="75.6" y2="76.9" stroke-miterlimit="10" stroke-width=".75" class="enterprise-2-0 fill-none stroke-primary"/><line x1="60.3" x2="60.3" y1="75.6" y2="76.9" stroke-miterlimit="10" stroke-width=".75" class="enterprise-2-0 fill-none stroke-primary"/><line x1="62.4" x2="62.4" y1="75.6" y2="76.9" stroke-miterlimit="10" stroke-width=".75" class="enterprise-2-0 fill-none stroke-primary"/><line x1="64.4" x2="64.4" y1="75.6" y2="76.9" stroke-miterlimit="10" stroke-width=".75" class="enterprise-2-0 fill-none stroke-primary"/><line x1="66.4" x2="66.4" y1="75.6" y2="76.9" stroke-miterlimit="10" stroke-width=".75" class="enterprise-2-0 fill-none stroke-primary"/><line x1="68.4" x2="68.4" y1="75.6" y2="76.9" stroke-miterlimit="10" stroke-width=".75" class="enterprise-2-0 fill-none stroke-primary"/><line x1="70.4" x2="70.4" y1="75.6" y2="76.9" stroke-miterlimit="10" stroke-width=".75" class="enterprise-2-0 fill-none stroke-primary"/><line x1="72.5" x2="72.5" y1="75.6" y2="76.9" stroke-miterlimit="10" stroke-width=".75" class="enterprise-2-0 fill-none stroke-primary"/><line x1="74.5" x2="74.5" y1="75.6" y2="76.9" stroke-miterlimit="10" stroke-width=".75" class="enterprise-2-0 fill-none stroke-primary"/><line x1="76.5" x2="76.5" y1="75.6" y2="76.9" stroke-miterlimit="10" stroke-width=".75" class="enterprise-2-0 fill-none stroke-primary"/></g><g><line x1="58.3" x2="58.3" y1="78.2" y2="79.5" stroke-miterlimit="10" stroke-width=".75" class="enterprise-2-0 fill-none stroke-primary"/><line x1="60.3" x2="60.3" y1="78.2" y2="79.5" stroke-miterlimit="10" stroke-width=".75" class="enterprise-2-0 fill-none stroke-primary"/><line x1="62.4" x2="62.4" y1="78.2" y2="79.5" stroke-miterlimit="10" stroke-width=".75" class="enterprise-2-0 fill-none stroke-primary"/><line x1="64.4" x2="64.4" y1="78.2" y2="79.5" stroke-miterlimit="10" stroke-width=".75" class="enterprise-2-0 fill-none stroke-primary"/><line x1="66.4" x2="66.4" y1="78.2" y2="79.5" stroke-miterlimit="10" stroke-width=".75" class="enterprise-2-0 fill-none stroke-primary"/><line x1="68.4" x2="68.4" y1="78.2" y2="79.5" stroke-miterlimit="10" stroke-width=".75" class="enterprise-2-0 fill-none stroke-primary"/><line x1="70.4" x2="70.4" y1="78.2" y2="79.5" stroke-miterlimit="10" stroke-width=".75" class="enterprise-2-0 fill-none stroke-primary"/><line x1="72.5" x2="72.5" y1="78.2" y2="79.5" stroke-miterlimit="10" stroke-width=".75" class="enterprise-2-0 fill-none stroke-primary"/><line x1="74.5" x2="74.5" y1="78.2" y2="79.5" stroke-miterlimit="10" stroke-width=".75" class="enterprise-2-0 fill-none stroke-primary"/><line x1="76.5" x2="76.5" y1="78.2" y2="79.5" stroke-miterlimit="10" stroke-width=".75" class="enterprise-2-0 fill-none stroke-primary"/></g><g><line x1="58.3" x2="58.3" y1="80.9" y2="82.1" stroke-miterlimit="10" stroke-width=".75" class="enterprise-2-0 fill-none stroke-primary"/><line x1="60.3" x2="60.3" y1="80.9" y2="82.1" stroke-miterlimit="10" stroke-width=".75" class="enterprise-2-0 fill-none stroke-primary"/><line x1="62.4" x2="62.4" y1="80.9" y2="82.1" stroke-miterlimit="10" stroke-width=".75" class="enterprise-2-0 fill-none stroke-primary"/><line x1="64.4" x2="64.4" y1="80.9" y2="82.1" stroke-miterlimit="10" stroke-width=".75" class="enterprise-2-0 fill-none stroke-primary"/><line x1="66.4" x2="66.4" y1="80.9" y2="82.1" stroke-miterlimit="10" stroke-width=".75" class="enterprise-2-0 fill-none stroke-primary"/><line x1="68.4" x2="68.4" y1="80.9" y2="82.1" stroke-miterlimit="10" stroke-width=".75" class="enterprise-2-0 fill-none stroke-primary"/><line x1="70.4" x2="70.4" y1="80.9" y2="82.1" stroke-miterlimit="10" stroke-width=".75" class="enterprise-2-0 fill-none stroke-primary"/><line x1="72.5" x2="72.5" y1="80.9" y2="82.1" stroke-miterlimit="10" stroke-width=".75" class="enterprise-2-0 fill-none stroke-primary"/><line x1="74.5" x2="74.5" y1="80.9" y2="82.1" stroke-miterlimit="10" stroke-width=".75" class="enterprise-2-0 fill-none stroke-primary"/><line x1="76.5" x2="76.5" y1="80.9" y2="82.1" stroke-miterlimit="10" stroke-width=".75" class="enterprise-2-0 fill-none stroke-primary"/></g><g><line x1="58.3" x2="58.3" y1="83.5" y2="84.8" stroke-miterlimit="10" stroke-width=".75" class="enterprise-2-0 fill-none stroke-primary"/><line x1="60.3" x2="60.3" y1="83.5" y2="84.8" stroke-miterlimit="10" stroke-width=".75" class="enterprise-2-0 fill-none stroke-primary"/><line x1="62.4" x2="62.4" y1="83.5" y2="84.8" stroke-miterlimit="10" stroke-width=".75" class="enterprise-2-0 fill-none stroke-primary"/><line x1="64.4" x2="64.4" y1="83.5" y2="84.8" stroke-miterlimit="10" stroke-width=".75" class="enterprise-2-0 fill-none stroke-primary"/><line x1="66.4" x2="66.4" y1="83.5" y2="84.8" stroke-miterlimit="10" stroke-width=".75" class="enterprise-2-0 fill-none stroke-primary"/><line x1="68.4" x2="68.4" y1="83.5" y2="84.8" stroke-miterlimit="10" stroke-width=".75" class="enterprise-2-0 fill-none stroke-primary"/><line x1="70.4" x2="70.4" y1="83.5" y2="84.8" stroke-miterlimit="10" stroke-width=".75" class="enterprise-2-0 fill-none stroke-primary"/><line x1="72.5" x2="72.5" y1="83.5" y2="84.8" stroke-miterlimit="10" stroke-width=".75" class="enterprise-2-0 fill-none stroke-primary"/><line x1="74.5" x2="74.5" y1="83.5" y2="84.8" stroke-miterlimit="10" stroke-width=".75" class="enterprise-2-0 fill-none stroke-primary"/><line x1="76.5" x2="76.5" y1="83.5" y2="84.8" stroke-miterlimit="10" stroke-width=".75" class="enterprise-2-0 fill-none stroke-primary"/></g><g><line x1="58.3" x2="58.3" y1="86.1" y2="87.4" stroke-miterlimit="10" stroke-width=".75" class="enterprise-2-0 fill-none stroke-primary"/><line x1="60.3" x2="60.3" y1="86.1" y2="87.4" stroke-miterlimit="10" stroke-width=".75" class="enterprise-2-0 fill-none stroke-primary"/><line x1="62.4" x2="62.4" y1="86.1" y2="87.4" stroke-miterlimit="10" stroke-width=".75" class="enterprise-2-0 fill-none stroke-primary"/><line x1="64.4" x2="64.4" y1="86.1" y2="87.4" stroke-miterlimit="10" stroke-width=".75" class="enterprise-2-0 fill-none stroke-primary"/><line x1="66.4" x2="66.4" y1="86.1" y2="87.4" stroke-miterlimit="10" stroke-width=".75" class="enterprise-2-0 fill-none stroke-primary"/><line x1="68.4" x2="68.4" y1="86.1" y2="87.4" stroke-miterlimit="10" stroke-width=".75" class="enterprise-2-0 fill-none stroke-primary"/><line x1="70.4" x2="70.4" y1="86.1" y2="87.4" stroke-miterlimit="10" stroke-width=".75" class="enterprise-2-0 fill-none stroke-primary"/><line x1="72.5" x2="72.5" y1="86.1" y2="87.4" stroke-miterlimit="10" stroke-width=".75" class="enterprise-2-0 fill-none stroke-primary"/><line x1="74.5" x2="74.5" y1="86.1" y2="87.4" stroke-miterlimit="10" stroke-width=".75" class="enterprise-2-0 fill-none stroke-primary"/><line x1="76.5" x2="76.5" y1="86.1" y2="87.4" stroke-miterlimit="10" stroke-width=".75" class="enterprise-2-0 fill-none stroke-primary"/></g><g><line x1="58.3" x2="58.3" y1="88.8" y2="90" stroke-miterlimit="10" stroke-width=".75" class="enterprise-2-0 fill-none stroke-primary"/><line x1="60.3" x2="60.3" y1="88.8" y2="90" stroke-miterlimit="10" stroke-width=".75" class="enterprise-2-0 fill-none stroke-primary"/><line x1="62.4" x2="62.4" y1="88.8" y2="90" stroke-miterlimit="10" stroke-width=".75" class="enterprise-2-0 fill-none stroke-primary"/><line x1="64.4" x2="64.4" y1="88.8" y2="90" stroke-miterlimit="10" stroke-width=".75" class="enterprise-2-0 fill-none stroke-primary"/><line x1="66.4" x2="66.4" y1="88.8" y2="90" stroke-miterlimit="10" stroke-width=".75" class="enterprise-2-0 fill-none stroke-primary"/><line x1="68.4" x2="68.4" y1="88.8" y2="90" stroke-miterlimit="10" stroke-width=".75" class="enterprise-2-0 fill-none stroke-primary"/><line x1="70.4" x2="70.4" y1="88.8" y2="90" stroke-miterlimit="10" stroke-width=".75" class="enterprise-2-0 fill-none stroke-primary"/><line x1="72.5" x2="72.5" y1="88.8" y2="90" stroke-miterlimit="10" stroke-width=".75" class="enterprise-2-0 fill-none stroke-primary"/><line x1="74.5" x2="74.5" y1="88.8" y2="90" stroke-miterlimit="10" stroke-width=".75" class="enterprise-2-0 fill-none stroke-primary"/><line x1="76.5" x2="76.5" y1="88.8" y2="90" stroke-miterlimit="10" stroke-width=".75" class="enterprise-2-0 fill-none stroke-primary"/></g></g></g><rect width="188.4" height="1.2" y="90" class="enterprise-2-2 fill-primary"/><polygon stroke-miterlimit="10" stroke-width=".75" points="132.4 90.8 132.4 30.4 152.1 43.5 152.1 90.7" class="enterprise-2-0 fill-none stroke-primary"/><polygon stroke-miterlimit="10" stroke-width=".75" points="53.4 90.8 53.4 30.4 33.7 43.5 33.7 90.7" class="enterprise-2-0 fill-none stroke-primary"/></svg>