<svg xmlns="http://www.w3.org/2000/svg" xmlns:xlink="http://www.w3.org/1999/xlink" x="0" y="0" viewBox="0 0 151.5 112.2" xml:space="preserve" style="enable-background:new 0 0 151.5 112.2"><style type="text/css">.free-trial-0{fill:#fff}.free-trial-1{fill:#377dff}.free-trial-2{fill:none;stroke:#377dff}.free-trial-3{fill:none;stroke:#fff}.free-trial-4{fill:#ffc107}.free-trial-5{fill:#19a0ff}.free-trial-6{fill:#de4437}</style><g id="free-trial_63_"><g id="free-trial_601_"><g id="free-trial_555_"><path id="free-trial_617_" d="M93.9,41.4c0-10.9-8.9-19.8-19.8-19.8s-19.8,8.9-19.8,19.8c0,7.3,4,13.7,9.9,17.1v12.3 h19.7V58.5C89.9,55.1,93.9,48.7,93.9,41.4z" class="free-trial-0 fill-white"/><rect id="free-trial_616_" width="19.7" height="12.9" x="64.3" y="58.5" class="free-trial-1 fill-primary"/><line id="free-trial_612_" x1="61.3" x2="87" y1="64.5" y2="64.5" stroke-miterlimit="10" stroke-width="1.5" class="free-trial-2 fill-none stroke-primary"/><line id="free-trial_3_" x1="63.6" x2="84.8" y1="64.5" y2="64.5" stroke-miterlimit="10" stroke-width="1.5" class="free-trial-3 fill-none stroke-white"/><line id="free-trial_600_" x1="74" x2="74" y1="13.5" y2="19.1" stroke-miterlimit="10" stroke-width="1.5" class="free-trial-2 fill-none stroke-primary"/><line id="free-trial_599_" x1="82.7" x2="81.7" y1="17.8" y2="20.4" stroke-miterlimit="10" stroke-width="1.5" class="free-trial-2 fill-none stroke-primary"/><line id="free-trial_598_" x1="92" x2="88.5" y1="20" y2="24.2" stroke-miterlimit="10" stroke-width="1.5" class="free-trial-2 fill-none stroke-primary"/><line id="free-trial_597_" x1="96.3" x2="93.5" y1="28.6" y2="30.2" stroke-miterlimit="10" stroke-width="1.5" class="free-trial-2 fill-none stroke-primary"/><line id="free-trial_596_" x1="101.7" x2="96.3" y1="36.5" y2="37.5" stroke-miterlimit="10" stroke-width="1.5" class="free-trial-2 fill-none stroke-primary"/><line id="free-trial_595_" x1="99" x2="96.3" y1="45.8" y2="45.3" stroke-miterlimit="10" stroke-width="1.5" class="free-trial-2 fill-none stroke-primary"/><line id="free-trial_594_" x1="98.6" x2="93.7" y1="55.4" y2="52.6" stroke-miterlimit="10" stroke-width="1.5" class="free-trial-2 fill-none stroke-primary"/><line id="free-trial_593_" x1="90.6" x2="88.8" y1="60.8" y2="58.6" stroke-miterlimit="10" stroke-width="1.5" class="free-trial-2 fill-none stroke-primary"/><line id="free-trial_592_" x1="58.2" x2="59.9" y1="60.8" y2="59" stroke-miterlimit="10" stroke-width="1.5" class="free-trial-2 fill-none stroke-primary"/><line id="free-trial_591_" x1="50" x2="54.8" y1="55.9" y2="53.1" stroke-miterlimit="10" stroke-width="1.5" class="free-trial-2 fill-none stroke-primary"/><line id="free-trial_590_" x1="49.2" x2="52.1" y1="46.2" y2="45.8" stroke-miterlimit="10" stroke-width="1.5" class="free-trial-2 fill-none stroke-primary"/><line id="free-trial_582_" x1="46.5" x2="52" y1="37.1" y2="38" stroke-miterlimit="10" stroke-width="1.5" class="free-trial-2 fill-none stroke-primary"/><line id="free-trial_581_" x1="52" x2="54.5" y1="29.2" y2="30.6" stroke-miterlimit="10" stroke-width="1.5" class="free-trial-2 fill-none stroke-primary"/><line id="free-trial_579_" x1="55.8" x2="59.5" y1="20.3" y2="24.6" stroke-miterlimit="10" stroke-width="1.5" class="free-trial-2 fill-none stroke-primary"/><line id="free-trial_578_" x1="65.2" x2="66.1" y1="18" y2="20.6" stroke-miterlimit="10" stroke-width="1.5" class="free-trial-2 fill-none stroke-primary"/><path id="free-trial_602_" stroke-miterlimit="10" stroke-width="1.5" d="M84,69.4V58.5c5.9-3.4,9.9-9.8,9.9-17.1c0-10.9-8.9-19.8-19.8-19.8s-19.8,8.9-19.8,19.8 c0,7.3,4,13.7,9.9,17.1v10.9" class="free-trial-2 fill-none stroke-primary"/></g><rect id="free-trial_564_" width="8.4" height="39.3" x="43.3" y="72" class="free-trial-1 fill-primary"/><path id="free-trial_563_" stroke-miterlimit="10" stroke-width="1.5" d="M45.3,111.3h6.3V72h-8.4v37.2C43.2,110.4,44.1,111.3,45.3,111.3z" class="free-trial-2 fill-none stroke-primary"/><polygon id="free-trial_562_" points="38.9 77.7 47.3 77.7 50.1 72 41.6 72" class="free-trial-0 fill-white"/><polygon id="free-trial_561_" stroke-miterlimit="10" stroke-width="1.5" points="38.9 77.7 47.3 77.7 50.1 72 41.6 72" class="free-trial-2 fill-none stroke-primary"/><path id="free-trial_560_" d="M99.7,111.3h-48V72h51v36.3C102.6,110,101.3,111.3,99.7,111.3z" class="free-trial-0 fill-white" opacity=".9"/><path id="free-trial_2_" d="M99.7,111.3h-48V72h51v36.3C102.6,110,101.3,111.3,99.7,111.3z" class="free-trial-5 fill-primary-lighter"/><line id="free-trial_559_" x1="102.6" x2="102.6" y1="93.8" y2="100.2" stroke-miterlimit="10" stroke-width="1.5" class="free-trial-2 fill-none stroke-primary"/><path id="free-trial_558_" stroke-miterlimit="10" stroke-width="1.5" d="M102.6,104.5v3.5c0,1.9-1.5,3.4-3.4,3.4H51.6V72h51v18.1" class="free-trial-2 fill-none stroke-primary"/><polygon id="free-trial_557_" points="107 77.7 56 77.7 53.2 72 104.2 72" class="free-trial-0 fill-white"/><polygon id="free-trial_556_" stroke-miterlimit="10" stroke-width="1.5" points="107 77.7 56 77.7 53.2 72 104.2 72" class="free-trial-2 fill-none stroke-primary"/></g><g id="free-trial_76_"><path id="free-trial_66_" stroke-miterlimit="10" stroke-width="1.5" d="M79.7,29.6c0,0,3,0.6,3.1,3l0,0c0,0,2.7,0.5,1.9,3.7c0,0,2,1.5,1.4,5l0,0 c0,0,2.8,1.9-0.3,4.7v0.3c0,0,0.4,2.3-2.2,4.2c0,0-1.1,0.9-2.9,3.1c-0.9,1.1-3.7,2.3-5.1-1.9V30.4C75.4,30.4,77.3,26.9,79.7,29.6z" class="free-trial-2 fill-none stroke-primary"/><path id="free-trial_67_" stroke-miterlimit="10" stroke-width="1.5" d="M68.7,29.6c0,0-3,0.6-3.1,3l0,0c0,0-2.7,0.5-1.9,3.7c0,0-2,1.5-1.4,5l0,0 c0,0-2.8,1.9,0.3,4.7v0.3c0,0-0.4,2.3,2.2,4.2c0,0,1.1,0.9,2.9,3.1c0.9,1.1,3.7,2.3,5.1-1.9V30.4C73,30.4,71.2,26.9,68.7,29.6z" class="free-trial-2 fill-none stroke-primary"/><path id="free-trial_950_" stroke-miterlimit="10" stroke-width="1.5" d="M83.1,38c-0.7,0.4-1.4,0.6-2.2,0.4c-0.7-0.1-1.4-0.6-1.8-1.2c-0.4-0.7-0.6-1.4-0.4-2.2" class="free-trial-2 fill-none stroke-primary"/><path id="free-trial_993_" stroke-miterlimit="10" stroke-width="1.5" d="M80.8,45.4c-0.7,0.4-1.4,0.6-2.2,0.4c-0.7-0.1-1.4-0.6-1.8-1.2c-0.4-0.7-0.6-1.4-0.4-2.2" class="free-trial-2 fill-none stroke-primary"/><path id="free-trial_952_" stroke-miterlimit="10" stroke-width="1.5" d="M85.7,46c-0.6,0-1.2-0.3-1.6-0.8c-0.4-0.4-0.6-1-0.6-1.7c0-0.6,0.3-1.2,0.8-1.6" class="free-trial-2 fill-none stroke-primary"/><path id="free-trial_989_" stroke-miterlimit="10" stroke-width="1.5" d="M78.7,41.4c-0.5-0.6-0.7-1.3-0.7-2.1c0.1-0.8,0.5-1.5,1-1.9" class="free-trial-2 fill-none stroke-primary"/><path id="free-trial_991_" stroke-miterlimit="10" stroke-width="1.5" d="M83.9,44.9c-0.2-0.7-0.8-1.3-1.5-1.6s-1.5-0.4-2.2-0.1" class="free-trial-2 fill-none stroke-primary"/><path id="free-trial_990_" stroke-miterlimit="10" stroke-width="1.5" d="M80.7,34.1c-0.5-0.5-0.9-1.2-0.9-2c0-0.8,0.2-1.5,0.7-2.1" class="free-trial-2 fill-none stroke-primary"/><path id="free-trial_995_" stroke-miterlimit="10" stroke-width="1.5" d="M76.9,34.2c0.7,0,1.5-0.3,2-0.8c0.6-0.6,0.8-1.3,0.8-2" class="free-trial-2 fill-none stroke-primary"/><path id="free-trial_988_" stroke-miterlimit="10" stroke-width="1.5" d="M77.3,52.6c0.6-0.6,1.3-0.9,2-0.9s1.5,0.3,2,0.8" class="free-trial-2 fill-none stroke-primary"/><path id="free-trial_992_" stroke-miterlimit="10" stroke-width="1.5" d="M78.6,48.1c-0.3,0.7-0.3,1.5,0,2.2s0.8,1.2,1.6,1.5" class="free-trial-2 fill-none stroke-primary"/><path id="free-trial_1003_" stroke-miterlimit="10" stroke-width="1.5" d="M65.4,38.1c0.7,0.4,1.4,0.6,2.2,0.4c0.7-0.1,1.4-0.6,1.8-1.2c0.4-0.7,0.6-1.4,0.4-2.2" class="free-trial-2 fill-none stroke-primary"/><path id="free-trial_1002_" stroke-miterlimit="10" stroke-width="1.5" d="M67.6,45.4c0.7,0.4,1.4,0.6,2.2,0.4c0.7-0.1,1.4-0.6,1.8-1.2c0.4-0.7,0.6-1.4,0.4-2.2" class="free-trial-2 fill-none stroke-primary"/><path id="free-trial_1001_" stroke-miterlimit="10" stroke-width="1.5" d="M62.7,46c0.6,0,1.2-0.3,1.6-0.8c0.4-0.4,0.6-1,0.6-1.7c0-0.6-0.3-1.2-0.8-1.6" class="free-trial-2 fill-none stroke-primary"/><path id="free-trial_1000_" stroke-miterlimit="10" stroke-width="1.5" d="M70.3,41.4c0.5-0.6,0.7-1.3,0.7-2.1c-0.1-0.8-0.5-1.5-1-1.9" class="free-trial-2 fill-none stroke-primary"/><path id="free-trial_999_" stroke-miterlimit="10" stroke-width="1.5" d="M64.6,45c0.2-0.7,0.8-1.3,1.5-1.6s1.5-0.4,2.2-0.1" class="free-trial-2 fill-none stroke-primary"/><path id="free-trial_998_" stroke-miterlimit="10" stroke-width="1.5" d="M67.8,34.1c0.5-0.5,0.9-1.2,0.9-2c0-0.8-0.2-1.5-0.7-2.1" class="free-trial-2 fill-none stroke-primary"/><path id="free-trial_997_" stroke-miterlimit="10" stroke-width="1.5" d="M71.5,34.2c-0.7,0-1.5-0.3-2-0.8c-0.6-0.6-0.8-1.3-0.8-2" class="free-trial-2 fill-none stroke-primary"/><path id="free-trial_996_" stroke-miterlimit="10" stroke-width="1.5" d="M71.1,52.7c-0.6-0.6-1.3-0.9-2-0.9s-1.5,0.3-2,0.8" class="free-trial-2 fill-none stroke-primary"/><path id="free-trial_994_" stroke-miterlimit="10" stroke-width="1.5" d="M69.8,48.2c0.3,0.7,0.3,1.5,0,2.2s-0.8,1.2-1.6,1.5" class="free-trial-2 fill-none stroke-primary"/></g><g><path id="free-trial_376_" stroke-miterlimit="10" stroke-width="1.5" d="M18.9,103.1c-6.3,0-11.4-5.1-11.4-11.4s5.1-11.4,11.4-11.4c4.4,0,8.2,2.5,10.1,6.1" class="free-trial-2 fill-none stroke-primary"/><path id="free-trial_370_" stroke-miterlimit="10" stroke-width="1.5" d="M1.5,100.8c0-1.7,0.6-3.4,1.5-4.7c1.1-1.5,2.7-2.6,4.5-3.1" class="free-trial-2 fill-none stroke-primary"/><path id="free-trial_380_" stroke-miterlimit="10" stroke-width="1.5" d="M28.5,104.3c0-1.7,0.6-3.4,1.5-4.7c1.1-1.5,2.7-2.6,4.5-3.1" class="free-trial-2 fill-none stroke-primary"/><path id="free-trial_375_" stroke-miterlimit="10" stroke-width="1.5" d="M106.7,88.3c2.6-3.9,7-6.5,12-6.5c7.3,0,13.4,5.5,14.2,12.6" class="free-trial-2 fill-none stroke-primary"/><path id="free-trial_372_" d="M110.9,103.1c0,4.6-5.9,8.3-13.2,8.3c-7.3,0-13.2-3.7-13.2-8.3c0-4.6,5.9-8.3,13.2-8.3 C105,94.8,110.9,98.5,110.9,103.1z" class="free-trial-0 fill-white"/><circle id="free-trial_378_" cx="102.2" cy="100.3" r="8.3" class="free-trial-0 fill-white"/><ellipse id="free-trial_379_" cx="87.4" cy="100.5" class="free-trial-0 fill-white" rx="10.6" ry="10.6"/><path id="free-trial_381_" stroke-miterlimit="10" stroke-width="1.5" d="M93.9,100.3c0-4.6,3.7-8.3,8.3-8.3c1.7,0,3.4,0.5,4.7,1.5" class="free-trial-2 fill-none stroke-primary"/><path id="free-trial_382_" stroke-miterlimit="10" stroke-width="1.5" d="M87.3,111.1c-5.9,0-10.6-4.8-10.6-10.6c0-5.9,4.8-10.6,10.6-10.6c3.7,0,7,1.9,8.9,4.8" class="free-trial-2 fill-none stroke-primary"/><path id="free-trial_1_" stroke-miterlimit="10" stroke-width="1.5" d="M140.3,111.1c5.4,0,9.9-4.4,9.9-9.9c0-5.4-4.4-9.9-9.9-9.9c-3.4,0-6.5,1.8-8.2,4.4" class="free-trial-2 fill-none stroke-primary"/></g></g><g><g id="free-trial_22_"><circle id="free-trial_23_" cx="120.7" cy="24.2" r="6.4" class="free-trial-6 fill-danger"/><g><path d="M123.1,24.4c0.1,0.2,0.2,0.5,0.2,0.8c-0.1,0.4-0.2,0.7-0.5,0.9c-0.3,0.1-0.7,0.3-1.1,0.3v0.8h-0.6v-0.8h-0.5 v0.8H120v-0.8h-1.1l0.1-0.7h0.1c0.2,0,0.3,0,0.3,0c0.1,0,0.1-0.1,0.1-0.2V23c0-0.1-0.1-0.2-0.2-0.2s-0.2,0-0.5,0h-0.1v-0.6h0.3 c0.4,0,0.7,0,0.8,0v-0.9h0.6v0.9h0.5v-0.9h0.6v0.9c0.4,0.1,0.7,0.1,0.9,0.3s0.4,0.4,0.4,0.7c0.1,0.5-0.1,0.7-0.5,0.9 C122.7,24,122.9,24.2,123.1,24.4z M120.5,23.8L120.5,23.8c0.4,0,0.7,0,0.8-0.1c0.3-0.1,0.5-0.3,0.5-0.5c0-0.3-0.1-0.4-0.5-0.5 c-0.2-0.1-0.4-0.1-0.7-0.1c-0.1,0-0.1,0-0.1,0L120.5,23.8L120.5,23.8z M120.7,25.6c0.4,0,0.7,0,0.9-0.1c0.3-0.1,0.5-0.3,0.5-0.5 c0-0.3-0.2-0.5-0.5-0.5c-0.2-0.1-0.5-0.1-0.9-0.1h-0.1L120.7,25.6L120.7,25.6L120.7,25.6z" class="free-trial-0 fill-white"/></g></g><g id="free-trial_18_"><path id="free-trial_21_" d="M134.5,57.6c0,2.1-1.7,3.8-3.8,3.8s-3.8-1.7-3.8-3.8s1.7-3.8,3.8-3.8 C132.8,53.9,134.5,55.6,134.5,57.6z" class="free-trial-1 fill-primary"/><g id="free-trial_19_"><polygon id="free-trial_20_" points="130.4 58.8 129.1 57.6 129.6 57.2 130.4 58 131.8 56.5 132.3 56.9" class="free-trial-0 fill-white"/></g></g><g id="free-trial_14_"><path id="free-trial_17_" d="M34,26.7c-1.3,2.6-4.4,3.7-7,2.5c-2.6-1.3-3.7-4.4-2.5-7c1.3-2.6,4.4-3.7,7-2.5 C34.2,21,35.3,24.1,34,26.7z" class="free-trial-4 fill-warning"/><g id="free-trial_15_"><g><path id="free-trial_16_" d="M29,23.8l0.6-1.2l0.9,0.4l-0.6,1.2l1.2,0.6l-0.4,0.8L29.5,25l-0.6,1.2L28,25.8l0.6-1.2 L27.5,24l0.4-0.8L29,23.8z" class="free-trial-0 fill-white"/></g></g></g><g id="free-trial_12_"><path id="free-trial_13_" d="M77.4,5.7c-0.7,2-3,3.1-5,2.4c-2-0.7-3.1-3-2.4-5s3-3.1,5-2.4C77.1,1.4,78.1,3.6,77.4,5.7 z" class="free-trial-4 fill-warning"/><g><path d="M73.8,5.8v0.3c0,0,0,0.1-0.1,0.1h-0.3c0,0-0.1,0-0.1-0.1V5.8c-0.5-0.1-0.7-0.3-0.8-0.4V5.3L72.7,5l0,0l0,0 c0,0,0.3,0.3,0.6,0.3c0.2,0,0.4-0.1,0.4-0.3c0-0.2-0.2-0.3-0.5-0.4c-0.4-0.2-0.8-0.3-0.8-0.8c0-0.4,0.3-0.7,0.7-0.8V2.5 c0,0,0-0.1,0.1-0.1h0.5c0,0,0.1,0,0.1,0.1v0.3c0.4,0,0.6,0.3,0.6,0.3s0,0,0,0.1l-0.1,0.3l0,0l0,0c0,0-0.3-0.2-0.6-0.2 c-0.3,0-0.4,0.1-0.4,0.3c0,0.2,0.3,0.3,0.5,0.4c0.4,0.2,0.8,0.3,0.8,0.8S74.2,5.7,73.8,5.8z" class="free-trial-0 fill-white"/></g></g><g id="free-trial_10_"><path id="free-trial_11_" d="M27.4,57.1c0,4.6-3.8,8.3-8.3,8.3c-4.6,0-8.3-3.8-8.3-8.3c0-4.6,3.8-8.3,8.3-8.3 C23.7,48.8,27.4,52.6,27.4,57.1z" class="free-trial-1 fill-primary"/><g><path d="M21.3,60c0,0.1,0,0.2-0.1,0.2c0,0-0.4,0.2-1,0.2c-1.4,0-2.6-0.9-3-2.2h-0.4c-0.1,0-0.2-0.1-0.2-0.2v-0.5 c0-0.1,0.1-0.2,0.2-0.2h0.3c0-0.2,0-0.3,0-0.5h-0.3c-0.1,0-0.2-0.1-0.2-0.2v-0.5c0-0.1,0.1-0.2,0.2-0.2h0.4 c0.4-1.3,1.6-2.1,3-2.1c0.4,0,0.9,0.1,0.9,0.1s0.1,0,0.1,0.1v0.1L21,54.8c0,0.1-0.1,0.1-0.2,0.1c0,0-0.3-0.1-0.6-0.1 c-0.8,0-1.4,0.4-1.7,1.1h2.2c0.1,0,0.1,0,0.1,0.1v0.1l-0.1,0.5c0,0.1-0.1,0.1-0.2,0.1h-2.3c0,0.2,0,0.3,0,0.5h2.1 c0.1,0,0.1,0,0.1,0.1v0.1l-0.1,0.5c0,0.1-0.1,0.1-0.2,0.1h-1.7c0.3,0.7,1,1.1,1.7,1.1c0.4,0,0.7-0.1,0.7-0.1h0.1l0.1,0.1L21.3,60 z" class="free-trial-0 fill-white"/></g></g></g></svg>