<svg xmlns="http://www.w3.org/2000/svg" xmlns:xlink="http://www.w3.org/1999/xlink" x="0" y="0" viewBox="0 0 176 105.5" xml:space="preserve" style="enable-background:new 0 0 176 105.5"><style type="text/css">.graphic-design-0{fill:#19a0ff}.graphic-design-1{fill:none;stroke:#377dff}.graphic-design-2{fill:#fff}.graphic-design-7{fill:#377dff}.graphic-design-10{fill:none;stroke:#fff}</style><path id="graphicDesign_558_" d="M120.5,79.4H27.3V25.9c0-1.1,0.9-2,2-2h89.2c1.1,0,2,0.9,2,2V79.4z" class="graphic-design-0 fill-primary-lighter" opacity=".6"/><line id="graphicDesign_556_" x1="34.6" x2="40.6" y1="23.9" y2="23.9" stroke-miterlimit="10" stroke-width="1.5" class="graphic-design-1 fill-none stroke-primary"/><path id="graphicDesign_68_" stroke-miterlimit="10" stroke-width="1.5" d="M27.3,70.9V25.7c0-1,0.8-1.8,1.8-1.8h4.2" class="graphic-design-1 fill-none stroke-primary"/><line id="graphicDesign_66_" x1="120.5" x2="120.5" y1="42.3" y2="66.8" stroke-miterlimit="10" stroke-width="1.5" class="graphic-design-1 fill-none stroke-primary"/><line id="graphicDesign_63_" x1="42.6" x2="101.7" y1="23.9" y2="23.9" stroke-miterlimit="10" stroke-width="1.5" class="graphic-design-1 fill-none stroke-primary"/><rect id="graphicDesign_554_" width="83.2" height="43.8" x="32.4" y="29.4" class="graphic-design-2 fill-white"/><rect id="graphicDesign_553_" width="21.8" height="43.8" x="93.8" y="29.4" class="graphic-design-0 fill-primary-lighter" opacity=".3"/><rect id="graphicDesign_552_" width="19.6" height="12.1" x="94.9" y="49" class="graphic-design-2 fill-white"/><rect id="graphicDesign_551_" width="5.2" height="43.8" x="32.4" y="29.4" class="graphic-design-0 fill-primary-lighter" opacity=".1"/><rect id="graphicDesign_547_" width="83.2" height="5" x="32.4" y="29.4" class="graphic-design-0 fill-primary-lighter" opacity=".1"/><rect id="graphicDesign_546_" width="28.1" height="16.6" x="59.9" y="87.8" class="graphic-design-2 fill-white"/><rect id="graphicDesign_545_" width="28.1" height="8.3" x="59.9" y="89.5" class="graphic-design-0 fill-primary-lighter" opacity=".5"/><rect id="graphicDesign_544_" width="28.1" height="16.6" x="59.9" y="87.8" stroke-miterlimit="10" stroke-width="1.5" class="graphic-design-1 fill-none stroke-primary"/><path id="graphicDesign_543_" d="M120.5,77.3H27.3v10.6c0,1.1,0.9,2,2,2h89.2c1.1,0,2-0.9,2-2V77.3z" class="graphic-design-2 fill-white"/><line id="graphicDesign_70_" x1="95.5" x2="53.3" y1="77.3" y2="77.3" stroke-miterlimit="10" stroke-width="1.5" class="graphic-design-1 fill-none stroke-primary"/><line id="graphicDesign_69_" x1="53.3" x2="90.5" y1="89.9" y2="89.9" stroke-miterlimit="10" stroke-width="1.5" class="graphic-design-1 fill-none stroke-primary"/><line id="graphicDesign_541_" x1="54.4" x2="93.8" y1="104.7" y2="104.7" stroke-miterlimit="10" stroke-width="1.5" class="graphic-design-1 fill-none stroke-primary"/><rect id="graphicDesign_540_" width="1.5" height="1.5" x="34.2" y="39.7" class="graphic-design-7 fill-primary" opacity=".4"/><rect id="graphicDesign_539_" width="1.5" height="1.5" x="94.9" y="39" class="graphic-design-2 fill-white"/><rect id="graphicDesign_538_" width="1.5" height="1.5" x="96.9" y="39" class="graphic-design-2 fill-white"/><rect id="graphicDesign_537_" width="1.5" height="1.5" x="99" y="39" class="graphic-design-2 fill-white"/><rect id="graphicDesign_536_" width="1.5" height="1.5" x="101" y="39" class="graphic-design-2 fill-white"/><rect id="graphicDesign_535_" width="1.5" height="1.5" x="103.1" y="39" class="graphic-design-2 fill-white"/><rect id="graphicDesign_534_" width="1.5" height="1.5" x="105.1" y="39" class="graphic-design-2 fill-white"/><rect id="graphicDesign_533_" width="1.5" height="1.5" x="107.2" y="39" class="graphic-design-2 fill-white"/><rect id="graphicDesign_532_" width="1.5" height="1.5" x="109.2" y="39" class="graphic-design-2 fill-white"/><rect id="graphicDesign_531_" width="1.5" height="1.5" x="111.3" y="39" class="graphic-design-2 fill-white"/><rect id="graphicDesign_530_" width="1.5" height="1.5" x="113.3" y="39" class="graphic-design-2 fill-white"/><g id="graphicDesign_519_"><rect id="graphicDesign_529_" width="1.5" height="1.5" x="94.9" y="41.2" class="graphic-design-2 fill-white"/><rect id="graphicDesign_528_" width="1.5" height="1.5" x="96.9" y="41.2" class="graphic-design-2 fill-white"/><rect id="graphicDesign_527_" width="1.5" height="1.5" x="99" y="41.2" class="graphic-design-2 fill-white"/><rect id="graphicDesign_526_" width="1.5" height="1.5" x="101" y="41.2" class="graphic-design-2 fill-white"/><rect id="graphicDesign_525_" width="1.5" height="1.5" x="103.1" y="41.2" class="graphic-design-2 fill-white"/><rect id="graphicDesign_524_" width="1.5" height="1.5" x="105.1" y="41.2" class="graphic-design-2 fill-white"/><rect id="graphicDesign_523_" width="1.5" height="1.5" x="107.2" y="41.2" class="graphic-design-2 fill-white"/><rect id="graphicDesign_522_" width="1.5" height="1.5" x="109.2" y="41.2" class="graphic-design-2 fill-white"/><rect id="graphicDesign_521_" width="1.5" height="1.5" x="111.3" y="41.2" class="graphic-design-2 fill-white"/><rect id="graphicDesign_520_" width="1.5" height="1.5" x="113.3" y="41.2" class="graphic-design-2 fill-white"/></g><g id="graphicDesign_501_"><rect id="graphicDesign_518_" width="1.5" height="1.5" x="94.9" y="43.3" class="graphic-design-2 fill-white"/><rect id="graphicDesign_515_" width="1.5" height="1.5" x="96.9" y="43.3" class="graphic-design-2 fill-white"/><rect id="graphicDesign_510_" width="1.5" height="1.5" x="99" y="43.3" class="graphic-design-2 fill-white"/><rect id="graphicDesign_508_" width="1.5" height="1.5" x="101" y="43.3" class="graphic-design-2 fill-white"/><rect id="graphicDesign_507_" width="1.5" height="1.5" x="103.1" y="43.3" class="graphic-design-2 fill-white"/><rect id="graphicDesign_506_" width="1.5" height="1.5" x="105.1" y="43.3" class="graphic-design-2 fill-white"/><rect id="graphicDesign_505_" width="1.5" height="1.5" x="107.2" y="43.3" class="graphic-design-2 fill-white"/><rect id="graphicDesign_504_" width="1.5" height="1.5" x="109.2" y="43.3" class="graphic-design-2 fill-white"/><rect id="graphicDesign_503_" width="1.5" height="1.5" x="111.3" y="43.3" class="graphic-design-2 fill-white"/><rect id="graphicDesign_502_" width="1.5" height="1.5" x="113.3" y="43.3" class="graphic-design-2 fill-white"/></g><rect id="graphicDesign_500_" width="1.5" height="1.5" x="94.9" y="45.4" class="graphic-design-2 fill-white"/><rect id="graphicDesign_499_" width="1.5" height="1.5" x="96.9" y="45.4" class="graphic-design-2 fill-white"/><rect id="graphicDesign_498_" width="1.5" height="1.5" x="99" y="45.4" class="graphic-design-2 fill-white"/><rect id="graphicDesign_497_" width="1.5" height="1.5" x="101" y="45.4" class="graphic-design-2 fill-white"/><rect id="graphicDesign_496_" width="1.5" height="1.5" x="103.1" y="45.4" class="graphic-design-2 fill-white"/><rect id="graphicDesign_495_" width="3.2" height="1.5" x="36" y="31.1" class="graphic-design-7 fill-primary" opacity=".4"/><rect id="graphicDesign_494_" width="3.2" height="1.5" x="42.6" y="31.1" class="graphic-design-7 fill-primary" opacity=".4"/><rect id="graphicDesign_493_" width="3.2" height="1.5" x="49.2" y="31.1" class="graphic-design-7 fill-primary" opacity=".4"/><rect id="graphicDesign_492_" width="3.2" height="1.5" x="55.8" y="31.1" class="graphic-design-7 fill-primary" opacity=".4"/><rect id="graphicDesign_491_" width="3.2" height="1.5" x="62.5" y="31.1" class="graphic-design-7 fill-primary" opacity=".4"/><rect id="graphicDesign_490_" width="3.2" height="1.5" x="69.1" y="31.1" class="graphic-design-7 fill-primary" opacity=".4"/><rect id="graphicDesign_489_" width="1.5" height="1.5" x="34.2" y="42.6" class="graphic-design-7 fill-primary" opacity=".4"/><rect id="graphicDesign_488_" width="1.5" height="1.5" x="34.2" y="45.4" class="graphic-design-7 fill-primary" opacity=".4"/><rect id="graphicDesign_487_" width="1.5" height="1.5" x="34.2" y="48.2" class="graphic-design-7 fill-primary" opacity=".4"/><rect id="graphicDesign_486_" width="1.5" height="1.5" x="34.2" y="51.1" class="graphic-design-7 fill-primary" opacity=".4"/><rect id="graphicDesign_406_" width="1.5" height="1.5" x="34.2" y="53.9" class="graphic-design-7 fill-primary" opacity=".4"/><rect id="graphicDesign_331_" width="1.5" height="1.5" x="34.2" y="56.7" class="graphic-design-7 fill-primary" opacity=".4"/><rect id="graphicDesign_330_" width="1.5" height="1.5" x="34.2" y="59.6" class="graphic-design-7 fill-primary" opacity=".4"/><rect id="graphicDesign_328_" width="1.5" height="1.5" x="34.2" y="62.4" class="graphic-design-7 fill-primary" opacity=".4"/><rect id="graphicDesign_326_" width="1.5" height="1.5" x="34.2" y="65.3" class="graphic-design-7 fill-primary" opacity=".4"/><rect id="graphicDesign_294_" width="33.7" height="25.4" x="48" y="42" class="graphic-design-0 fill-primary-lighter" opacity=".3"/><path id="graphicDesign_662_" d="M61.4,67.4c0.4,0,10.2-11.1,10.2-11.1l10.2,11.1H61.4z" class="graphic-design-7 fill-primary"/><path id="graphicDesign_656_" d="M48,67.4c0.4,0,12-13.1,12-13.1l12,13.1H48z" class="graphic-design-0 fill-primary-lighter"/><path id="graphicDesign_655_" d="M69.3,48.4c0,1.5-1.2,2.7-2.7,2.7c-1.5,0-2.7-1.2-2.7-2.7c0-1.5,1.2-2.7,2.7-2.7	C68.1,45.7,69.3,46.9,69.3,48.4z" class="graphic-design-2 fill-white"/><path id="graphicDesign_604_" d="M150.1,104.1H99.8c-1.1,0-2-0.9-2-2V70.6c0-1.1,0.9-2,2-2h50.3c1.1,0,2,0.9,2,2v31.6	C152.1,103.2,151.2,104.1,150.1,104.1z" class="graphic-design-2 fill-white"/><path id="graphicDesign_555_" stroke-miterlimit="10" stroke-width="1.5" d="M145.8,68.6h3.5c1.5,0,2.8,1.2,2.8,2.8v30c0,1.5-1.2,2.8-2.8,2.8h-48.7c-1.5,0-2.8-1.2-2.8-2.8	v-30c0-1.5,1.2-2.8,2.8-2.8H145.8z" class="graphic-design-1 fill-none stroke-primary"/><rect id="graphicDesign_601_" width="39.1" height="26.8" x="108.2" y="72.9" class="graphic-design-0 fill-primary-lighter"/><rect id="graphicDesign_600_" width="39.1" height="26.8" x="108.2" y="72.9" stroke-miterlimit="10" stroke-width="1.5" class="graphic-design-1 fill-none stroke-primary"/><line id="graphicDesign_599_" x1="108.2" x2="108.2" y1="68.3" y2="104.1" stroke-miterlimit="10" stroke-width="1.5" class="graphic-design-1 fill-none stroke-primary"/><line id="graphicDesign_598_" x1="102.8" x2="102.8" y1="73.5" y2="77.4" stroke-miterlimit="10" stroke-width="1.5" class="graphic-design-1 fill-none stroke-primary"/><line id="graphicDesign_597_" x1="102.8" x2="102.8" y1="80.7" y2="84.6" stroke-miterlimit="10" stroke-width="1.5" class="graphic-design-1 fill-none stroke-primary"/><line id="graphicDesign_596_" x1="102.8" x2="102.8" y1="87.9" y2="91.7" stroke-miterlimit="10" stroke-width="1.5" class="graphic-design-1 fill-none stroke-primary"/><line id="graphicDesign_594_" x1="102.8" x2="102.8" y1="95" y2="98.9" stroke-miterlimit="10" stroke-width="1.5" class="graphic-design-1 fill-none stroke-primary"/><polyline id="graphicDesign_593_" stroke-miterlimit="10" stroke-width="1.5" points="112.8 80.7 112.8 76.7 116.3 76.7" class="graphic-design-10 fill-none stroke-white"/><polyline id="graphicDesign_591_" stroke-miterlimit="10" stroke-width="1.5" points="142.8 91.7 142.8 95.7 139.3 95.7" class="graphic-design-10 fill-none stroke-white"/><path id="graphicDesign_590_" stroke-miterlimit="10" stroke-width="1.5" d="M97.8,86.2h-3c-1.5,0-2.7,1.2-2.7,2.7v15.8" class="graphic-design-1 fill-none stroke-primary"/><g id="graphicDesign_587_"><path id="graphicDesign_589_" d="M157.5,104.7h-1.9l-0.8-4.1c0-0.1,0-0.2,0-0.3V61.8l1.7-3.5l1.7,3.5v38.5c0,0.1,0,0.2,0,0.3 L157.5,104.7z" class="graphic-design-0 fill-primary-lighter" opacity=".5"/><path id="graphicDesign_588_" stroke-miterlimit="10" stroke-width="1.5" d="M157.5,104.7h-1.9l-0.8-4.1c0-0.1,0-0.2,0-0.3V61.8l1.4-3c0.1-0.2,0.4-0.2,0.5,0l1.4,3v38.5 c0,0.1,0,0.2,0,0.3L157.5,104.7z" class="graphic-design-1 fill-none stroke-primary"/></g><polygon id="graphicDesign_76_" points="54.1 90.7 54.1 72.3 41.7 72.3 41.7 84.6 29.3 72.2 27.3 74.1 27.3 77.3 27.3 79.4 27.3 87.7 29.6 89.9 53.3 89.9 53.3 90.7" class="graphic-design-0 fill-primary-lighter" opacity=".3"/><rect id="graphicDesign_693_" width="10.9" height="31.1" x="24.1" y="83.2" class="graphic-design-2 fill-white" transform="matrix(-1.836970e-16 1 -1 -1.836970e-16 128.27 69.285)"/><rect id="graphicDesign_692_" width="10.9" height="5.3" x="11.1" y="96.1" class="graphic-design-2 fill-white" opacity=".6" transform="matrix(-1.836970e-16 1 -1 -1.836970e-16 115.3397 82.2153)"/><rect id="graphicDesign_691_" width="10.9" height="5.3" x="16.4" y="96.1" class="graphic-design-2 fill-white" opacity=".4" transform="matrix(-1.836970e-16 1 -1 -1.836970e-16 120.6003 76.9547)"/><rect id="graphicDesign_690_" width="10.9" height="5.3" x="21.6" y="96.1" class="graphic-design-2 fill-white" opacity=".3" transform="matrix(-1.836970e-16 1 -1 -1.836970e-16 125.8608 71.6942)"/><rect id="graphicDesign_689_" width="10.9" height="5.3" x="26.9" y="96.1" class="graphic-design-2 fill-white" opacity=".2" transform="matrix(-1.836970e-16 1 -1 -1.836970e-16 131.1214 66.4336)"/><rect id="graphicDesign_606_" width="10.9" height="5.3" x="32.2" y="96.1" class="graphic-design-2 fill-white" opacity=".2" transform="matrix(-1.836970e-16 1 -1 -1.836970e-16 136.382 61.173)"/><rect id="graphicDesign_605_" width="10.9" height="31.1" x="24.1" y="83.2" stroke-miterlimit="10" stroke-width="1.5" class="graphic-design-1 fill-none stroke-primary" transform="matrix(-1.836970e-16 1 -1 -1.836970e-16 128.27 69.285)"/><rect id="graphicDesign_678_" width="10.9" height="31.1" x="29" y="72.5" class="graphic-design-2 fill-white" transform="matrix(-0.7071 0.7071 -0.7071 -0.7071 121.1093 125.9865)"/><rect id="graphicDesign_677_" width="10.9" height="5.3" x="19.9" y="76.3" class="graphic-design-2 fill-white" opacity=".6" transform="matrix(-0.7071 0.7071 -0.7071 -0.7071 99.0361 116.8434)"/><rect id="graphicDesign_676_" width="10.9" height="5.3" x="23.6" y="80" class="graphic-design-2 fill-white" opacity=".4" transform="matrix(-0.7071 0.7071 -0.7071 -0.7071 108.0164 120.5632)"/><rect id="graphicDesign_675_" width="10.9" height="5.3" x="27.3" y="83.7" class="graphic-design-2 fill-white" opacity=".3" transform="matrix(-0.7071 0.7071 -0.7071 -0.7071 116.9968 124.283)"/><rect id="graphicDesign_674_" width="10.9" height="5.3" x="31" y="87.5" class="graphic-design-2 fill-white" opacity=".2" transform="matrix(-0.7071 0.7071 -0.7071 -0.7071 125.9771 128.0028)"/><rect id="graphicDesign_673_" width="10.9" height="5.3" x="34.8" y="91.2" class="graphic-design-2 fill-white" opacity=".1" transform="matrix(-0.7071 0.7071 -0.7071 -0.7071 134.9575 131.7226)"/><rect id="graphicDesign_603_" width="10.9" height="31.1" x="29" y="72.5" stroke-miterlimit="10" stroke-width="1.5" class="graphic-design-1 fill-none stroke-primary" transform="matrix(-0.7071 0.7071 -0.7071 -0.7071 121.1093 125.9865)"/><rect id="graphicDesign_671_" width="10.9" height="31.1" x="40.5" y="73" class="graphic-design-2 fill-white" transform="matrix(-1 -1.224647e-16 1.224647e-16 -1 91.784 177.1639)"/><rect id="graphicDesign_670_" width="10.9" height="5.3" x="40.5" y="73" class="graphic-design-2 fill-white" opacity=".6" transform="matrix(-1 -1.224647e-16 1.224647e-16 -1 91.784 151.3035)"/><rect id="graphicDesign_669_" width="10.9" height="5.3" x="40.5" y="78.3" class="graphic-design-2 fill-white" opacity=".4" transform="matrix(-1 -1.224647e-16 1.224647e-16 -1 91.784 161.8246)"/><rect id="graphicDesign_668_" width="10.9" height="5.3" x="40.5" y="83.5" class="graphic-design-2 fill-white" opacity=".3" transform="matrix(-1 -1.224647e-16 1.224647e-16 -1 91.784 172.3458)"/><rect id="graphicDesign_667_" width="10.9" height="5.3" x="40.5" y="88.8" class="graphic-design-2 fill-white" opacity=".2" transform="matrix(-0.9969 -7.873475e-02 7.873475e-02 -0.9969 84.4425 186.1964)"/><rect id="graphicDesign_666_" width="10.9" height="5.3" x="40.5" y="94.1" class="graphic-design-2 fill-white" opacity=".1" transform="matrix(-1 -1.224647e-16 1.224647e-16 -1 91.784 193.388)"/><path id="graphicDesign_665_" stroke-miterlimit="10" stroke-width="1.5" d="M45.1,101.6c0,0.4,0.3,0.8,0.8,0.8c0.4,0,0.8-0.3,0.8-0.8c0-0.4-0.3-0.8-0.8-0.8	C45.5,100.8,45.1,101.2,45.1,101.6z" class="graphic-design-1 fill-none stroke-primary"/><rect id="graphicDesign_649_" width="10.9" height="31.1" x="40.5" y="73.1" stroke-miterlimit="10" stroke-width="1.5" class="graphic-design-1 fill-none stroke-primary" transform="matrix(-1 -1.224647e-16 1.224647e-16 -1 91.784 177.3037)"/><line id="graphicDesign_660_" x1="51" x2="40.5" y1="78.2" y2="78.2" stroke-miterlimit="10" stroke-width="1.5" class="graphic-design-1 fill-none stroke-primary"/><line id="graphicDesign_602_" x1="51" x2="40.5" y1="83.5" y2="83.5" stroke-miterlimit="10" stroke-width="1.5" class="graphic-design-1 fill-none stroke-primary"/><line id="graphicDesign_661_" x1="51" x2="40.5" y1="88.7" y2="88.7" stroke-miterlimit="10" stroke-width="1.5" class="graphic-design-1 fill-none stroke-primary"/><line id="graphicDesign_664_" x1="51" x2="40.5" y1="94" y2="94" stroke-miterlimit="10" stroke-width="1.5" class="graphic-design-1 fill-none stroke-primary"/><line id="graphicDesign_694_" x1="30.8" x2="23.4" y1="77.2" y2="84.6" stroke-miterlimit="10" stroke-width="1.5" class="graphic-design-1 fill-none stroke-primary"/><line id="graphicDesign_586_" x1="34.8" x2="27.3" y1="80.7" y2="88.1" stroke-miterlimit="10" stroke-width="1.5" class="graphic-design-1 fill-none stroke-primary"/><line id="graphicDesign_695_" x1="38.7" x2="31.2" y1="84.1" y2="91.6" stroke-miterlimit="10" stroke-width="1.5" class="graphic-design-1 fill-none stroke-primary"/><line id="graphicDesign_696_" x1="40.3" x2="34.5" y1="90" y2="95.8" stroke-miterlimit="10" stroke-width="1.5" class="graphic-design-1 fill-none stroke-primary"/><line id="graphicDesign_699_" x1="35" x2="35" y1="95.8" y2="104.2" stroke-miterlimit="10" stroke-width="1.5" class="graphic-design-1 fill-none stroke-primary"/><line id="graphicDesign_585_" x1="29.7" x2="29.7" y1="93.3" y2="104.2" stroke-miterlimit="10" stroke-width="1.5" class="graphic-design-1 fill-none stroke-primary"/><line id="graphicDesign_700_" x1="24.5" x2="24.5" y1="93.3" y2="104.2" stroke-miterlimit="10" stroke-width="1.5" class="graphic-design-1 fill-none stroke-primary"/><line id="graphicDesign_557_" x1="19.2" x2="19.2" y1="93.3" y2="104.2" stroke-miterlimit="10" stroke-width="1.5" class="graphic-design-1 fill-none stroke-primary"/><line id="graphicDesign_451_" x1="40.5" x2="38.2" y1="97.2" y2="99.5" stroke-miterlimit="10" stroke-width="1.5" class="graphic-design-1 fill-none stroke-primary"/><line id="graphicDesign_672_" x1="51" x2="40.5" y1="99.3" y2="99.3" stroke-miterlimit="10" stroke-width="1.5" class="graphic-design-1 fill-none stroke-primary"/><path id="graphicDesign_73_" d="M120.5,25.9c0-1.1-0.9-2-2-2h-16.9c0,0.4-0.1,0.9-0.1,1.3c0,3.2,0.9,6.3,2.5,9l-1.6,8.8l9.7-1.8	c2.2,1,4.5,1.4,6.9,1.4c0.7,0,1.4-0.1,2.1-0.1v-0.4h-0.8V25.9z" class="graphic-design-0 fill-primary-lighter" opacity=".3"/><path id="graphicDesign_650_" d="M105,40.7l8.8-1.6c2.1,0.9,4.4,1.5,6.8,1.5c9.3,0,16.8-7.5,16.8-16.8c0-9.3-7.5-16.8-16.8-16.8	c-9.3,0-16.8,7.5-16.8,16.8c0,3.3,1,6.3,2.6,8.9L105,40.7z" class="graphic-design-0 fill-primary-lighter"/><path id="graphicDesign_648_" stroke-miterlimit="10" stroke-width="1.5" d="M105,40.7l8.8-1.6c2.1,0.9,4.4,1.5,6.8,1.5c9.3,0,16.8-7.5,16.8-16.8c0-9.3-7.5-16.8-16.8-16.8	c-9.3,0-16.8,7.5-16.8,16.8c0,3.3,1,6.3,2.6,8.9L105,40.7z" class="graphic-design-1 fill-none stroke-primary"/><path id="graphicDesign_646_" d="M120.7,36.8c-7,0-12.6-5.8-12.6-12.9c0-7.2,5.7-12.9,12.6-12.9s12.6,5.8,12.6,12.9	C133.3,31,127.6,36.8,120.7,36.8z" class="graphic-design-2 fill-white"/><rect id="graphicDesign_635_" width="2.4" height="2.4" x="120" y="20" stroke-miterlimit="10" stroke-width="1.5" class="graphic-design-1 fill-none stroke-primary"/><rect id="graphicDesign_632_" width="2.4" height="2.4" x="112.1" y="26.9" stroke-miterlimit="10" stroke-width="1.5" class="graphic-design-1 fill-none stroke-primary"/><path id="graphicDesign_627_" stroke-miterlimit="10" stroke-width="1.5" d="M113.3,26.9L113.3,26.9c0-3.2,2.6-5.7,5.7-5.7h0.9" class="graphic-design-1 fill-none stroke-primary"/><rect id="graphicDesign_637_" width="2.4" height="2.4" x="127.4" y="26.9" stroke-miterlimit="10" stroke-width="1.5" class="graphic-design-1 fill-none stroke-primary" transform="matrix(-1 -1.224647e-16 1.224647e-16 -1 257.1596 56.2378)"/><path id="graphicDesign_636_" stroke-miterlimit="10" stroke-width="1.5" d="M128.6,26.9L128.6,26.9c0-3.2-2.6-5.7-5.7-5.7h-0.9" class="graphic-design-1 fill-none stroke-primary"/><line id="graphicDesign_616_" x1="122" x2="129.5" y1="21.2" y2="21.2" stroke-miterlimit="10" stroke-width="1.5" class="graphic-design-1 fill-none stroke-primary"/><line id="graphicDesign_615_" x1="112.1" x2="119.8" y1="21.2" y2="21.2" stroke-miterlimit="10" stroke-width="1.5" class="graphic-design-1 fill-none stroke-primary"/><path id="graphicDesign_614_" stroke-miterlimit="10" stroke-width="1.5" d="M131,21.2c0-0.5-0.4-0.9-0.9-0.9c-0.5,0-0.9,0.4-0.9,0.9c0,0.5,0.4,0.9,0.9,0.9	C130.5,22.1,131,21.7,131,21.2z" class="graphic-design-1 fill-none stroke-primary"/><path id="graphicDesign_613_" stroke-miterlimit="10" stroke-width="1.5" d="M112.4,21.2c0-0.5-0.4-0.9-0.9-0.9c-0.5,0-0.9,0.4-0.9,0.9c0,0.5,0.4,0.9,0.9,0.9	C112,22.1,112.4,21.7,112.4,21.2z" class="graphic-design-1 fill-none stroke-primary"/><line id="graphicDesign_639_" x1="120.7" x2="120.7" y1="0" y2="5.6" stroke-miterlimit="10" stroke-width="1.5" class="graphic-design-1 fill-none stroke-primary"/><line id="graphicDesign_638_" x1="126.1" x2="125.4" y1="3.5" y2="6.3" stroke-miterlimit="10" stroke-width="1.5" class="graphic-design-1 fill-none stroke-primary"/><line id="graphicDesign_640_" x1="132.5" x2="129.7" y1="3.2" y2="8.1" stroke-miterlimit="10" stroke-width="1.5" class="graphic-design-1 fill-none stroke-primary"/><line id="graphicDesign_641_" x1="135.5" x2="133.5" y1="8.9" y2="10.9" stroke-miterlimit="10" stroke-width="1.5" class="graphic-design-1 fill-none stroke-primary"/><line id="graphicDesign_642_" x1="141.3" x2="136.4" y1="11.8" y2="14.7" stroke-miterlimit="10" stroke-width="1.5" class="graphic-design-1 fill-none stroke-primary"/><line id="graphicDesign_643_" x1="141" x2="138.2" y1="18.3" y2="19.1" stroke-miterlimit="10" stroke-width="1.5" class="graphic-design-1 fill-none stroke-primary"/><line id="graphicDesign_645_" x1="144.5" x2="138.9" y1="23.7" y2="23.7" stroke-miterlimit="10" stroke-width="1.5" class="graphic-design-1 fill-none stroke-primary"/><line id="graphicDesign_651_" x1="141" x2="138.3" y1="29.4" y2="28.5" stroke-miterlimit="10" stroke-width="1.5" class="graphic-design-1 fill-none stroke-primary"/><line id="graphicDesign_652_" x1="141.4" x2="136.5" y1="35.6" y2="32.8" stroke-miterlimit="10" stroke-width="1.5" class="graphic-design-1 fill-none stroke-primary"/><line id="graphicDesign_653_" x1="135.7" x2="133.7" y1="39" y2="36.6" stroke-miterlimit="10" stroke-width="1.5" class="graphic-design-1 fill-none stroke-primary"/><line id="graphicDesign_654_" x1="132.8" x2="130" y1="44.4" y2="39.6" stroke-miterlimit="10" stroke-width="1.5" class="graphic-design-1 fill-none stroke-primary"/><line id="graphicDesign_663_" x1="126.4" x2="125.6" y1="44.1" y2="41.4" stroke-miterlimit="10" stroke-width="1.5" class="graphic-design-1 fill-none stroke-primary"/><line id="graphicDesign_709_" x1="100.2" x2="102.9" y1="18.9" y2="19.6" stroke-miterlimit="10" stroke-width="1.5" class="graphic-design-1 fill-none stroke-primary"/><line id="graphicDesign_711_" x1="99.7" x2="104.6" y1="12.4" y2="15.1" stroke-miterlimit="10" stroke-width="1.5" class="graphic-design-1 fill-none stroke-primary"/><line id="graphicDesign_713_" x1="105.4" x2="107.4" y1="9.4" y2="11.3" stroke-miterlimit="10" stroke-width="1.5" class="graphic-design-1 fill-none stroke-primary"/><line id="graphicDesign_716_" x1="108.2" x2="111.1" y1="3.5" y2="8.3" stroke-miterlimit="10" stroke-width="1.5" class="graphic-design-1 fill-none stroke-primary"/><line id="graphicDesign_717_" x1="114.6" x2="115.5" y1="3.7" y2="6.4" stroke-miterlimit="10" stroke-width="1.5" class="graphic-design-1 fill-none stroke-primary"/><g id="graphicDesign_43_"><line id="graphicDesign_75_" x1="0" x2="2.7" y1="104.7" y2="104.7" stroke-miterlimit="10" stroke-width="1.5" class="graphic-design-1 fill-none stroke-primary"/><line id="graphicDesign_90_" x1="169.9" x2="176" y1="104.7" y2="104.7" stroke-miterlimit="10" stroke-width="1.5" class="graphic-design-1 fill-none stroke-primary"/><line id="graphicDesign_293_" x1="4.6" x2="168.4" y1="104.7" y2="104.7" stroke-miterlimit="10" stroke-width="1.5" class="graphic-design-1 fill-none stroke-primary"/></g></svg>