<svg xmlns="http://www.w3.org/2000/svg" xmlns:xlink="http://www.w3.org/1999/xlink" x="0" y="0" viewBox="0 0 204.1 102.4" xml:space="preserve" style="enable-background:new 0 0 204.1 102.4"><style type="text/css">.innovation-0{fill:#fff}.innovation-1{fill:none;stroke:#377dff}.innovation-2{fill:#19a0ff}.innovation-3{fill:#377dff}.innovation-4{fill:none;stroke:#fff}</style><g id="innovation_415_"><g id="innovation_391_"><path id="innovation_394_" d="M162.3,45.3c0-1.9-1.6-3.5-3.5-3.5L123.5,42c-2.5,0-4.5,2.3-4.5,5.1v54.6l43.4-0.2 L162.3,45.3z" class="innovation-0 fill-white"/><path id="innovation_393_" stroke-miterlimit="10" stroke-width="1.5" d="M162.3,101.4V45.2c0-1.9-1.6-3.5-3.5-3.5l-35.3,0.2" class="innovation-1 fill-none stroke-primary"/><line id="innovation_199_" x1="118.9" x2="118.9" y1="49.1" y2="61.9" stroke-miterlimit="10" stroke-width="1.5" class="innovation-1 fill-none stroke-primary"/><path id="innovation_387_" d="M130.1,60.1c3.7-3.7,9.6-3.7,13.3,0s3.7,9.6,0,13.3c-3.7,3.7-9.6,3.7-13.3,0 C126.4,69.7,126.4,63.7,130.1,60.1z" class="innovation-2 fill-primary-lighter" opacity=".3"/><g id="innovation_358_"><g id="innovation_411_"><circle id="innovation_413_" cx="141.2" cy="71.2" r="9.4" stroke-dasharray="1.968 1.968" stroke-miterlimit="10" stroke-width="1.5" class="innovation-1 fill-none stroke-primary"/></g></g><path id="innovation_213_" d="M117.4,41.7h41.2c0,0-3.7,0.2-3.7,3.7c0,0.5,0,2.2,0,2.2h-41.2v-2.2 C113.7,43.4,115.3,41.7,117.4,41.7z" class="innovation-3 fill-primary"/><path id="innovation_390_" stroke-miterlimit="10" stroke-width="1.5" d="M117.4,41.7h41.2c0,0-3.7,0.2-3.7,3.7c0,0.5,0,2.2,0,2.2h-41.2v-2.2 C113.7,43.4,115.3,41.7,117.4,41.7z" class="innovation-1 fill-none stroke-primary"/></g><g id="innovation_210_"><path id="innovation_163_" stroke-miterlimit="10" stroke-width="1.5" d="M35.1,42.2v-5.8c0-0.8-0.6-1.4-1.4-1.4H23.6c-0.8,0-1.4,0.6-1.4,1.4v63.8 c0,0.8,0.6,1.4,1.4,1.4" class="innovation-1 fill-none stroke-primary"/><line id="innovation_247_" x1="22.2" x2="30.1" y1="95.1" y2="95.1" stroke-miterlimit="10" stroke-width="1.5" class="innovation-1 fill-none stroke-primary"/><line id="innovation_246_" x1="22.2" x2="26.2" y1="89.5" y2="89.5" stroke-miterlimit="10" stroke-width="1.5" class="innovation-1 fill-none stroke-primary"/><line id="innovation_245_" x1="22.2" x2="26.2" y1="84" y2="84" stroke-miterlimit="10" stroke-width="1.5" class="innovation-1 fill-none stroke-primary"/><line id="innovation_254_" x1="22.2" x2="26.2" y1="78.5" y2="78.5" stroke-miterlimit="10" stroke-width="1.5" class="innovation-1 fill-none stroke-primary"/><line id="innovation_244_" x1="22.2" x2="30.1" y1="72.9" y2="72.9" stroke-miterlimit="10" stroke-width="1.5" class="innovation-1 fill-none stroke-primary"/><line id="innovation_243_" x1="22.2" x2="26.2" y1="67.4" y2="67.4" stroke-miterlimit="10" stroke-width="1.5" class="innovation-1 fill-none stroke-primary"/><line id="innovation_239_" x1="22.2" x2="26.2" y1="61.9" y2="61.9" stroke-miterlimit="10" stroke-width="1.5" class="innovation-1 fill-none stroke-primary"/><line id="innovation_238_" x1="22.2" x2="26.2" y1="56.4" y2="56.4" stroke-miterlimit="10" stroke-width="1.5" class="innovation-1 fill-none stroke-primary"/><line id="innovation_193_" x1="22.4" x2="30.1" y1="50.8" y2="50.8" stroke-miterlimit="10" stroke-width="1.5" class="innovation-1 fill-none stroke-primary"/><line id="innovation_383_" x1="22.6" x2="26.5" y1="45.3" y2="45.3" stroke-miterlimit="10" stroke-width="1.5" class="innovation-1 fill-none stroke-primary"/><line id="innovation_386_" x1="22.8" x2="26.7" y1="39.8" y2="39.8" stroke-miterlimit="10" stroke-width="1.5" class="innovation-1 fill-none stroke-primary"/></g><g id="innovation_116_"><path id="innovation_751_" d="M81.9,101.6V46.8c0-1.7-1.3-3-3-3H34.7c-1.7,0-3,1.3-3,3v54.8H81.9z" class="innovation-0 fill-white"/><path id="innovation_739_" d="M31.7,51.6v-5.2c0-1.4,1.1-2.5,2.5-2.5h45.2c1.4,0,2.5,1.1,2.5,2.5v5.2H31.7z" class="innovation-3 fill-primary"/><line id="innovation_735_" x1="31.7" x2="81.9" y1="51.7" y2="51.7" stroke-miterlimit="10" stroke-width="1.5" class="innovation-1 fill-none stroke-primary"/><line id="innovation_734_" x1="37.4" x2="39.4" y1="48.1" y2="48.1" stroke-miterlimit="10" stroke-width="1.5" class="innovation-4 fill-none stroke-white"/><line id="innovation_727_" x1="42.1" x2="44.1" y1="48.1" y2="48.1" stroke-miterlimit="10" stroke-width="1.5" class="innovation-4 fill-none stroke-white"/><line id="innovation_726_" x1="46.7" x2="48.7" y1="48.1" y2="48.1" stroke-miterlimit="10" stroke-width="1.5" class="innovation-4 fill-none stroke-white"/><rect id="innovation_725_" width="36.8" height="14.5" x="38.4" y="57.5" class="innovation-2 fill-primary-lighter" opacity=".3"/><rect id="innovation_724_" width="11.2" height="14.5" x="38.4" y="81.2" class="innovation-2 fill-primary-lighter" opacity=".3"/><rect id="innovation_723_" width="11.2" height="14.5" x="53.6" y="81.2" class="innovation-2 fill-primary-lighter" opacity=".3"/><path id="innovation_164_" stroke-miterlimit="10" stroke-width="1.5" d="M81.9,66.2V46.8c0-1.7-1.3-3-3-3H34.7c-1.7,0-3,1.3-3,3v54.8" class="innovation-1 fill-none stroke-primary"/></g><g id="innovation_184_"><line id="innovation_186_" x1="70.9" x2="75.2" y1="8.4" y2="8.4" stroke-linecap="round" stroke-miterlimit="10" stroke-width="1.5" class="innovation-1 fill-none stroke-primary"/><line id="innovation_185_" x1="73.1" x2="73.1" y1="10.5" y2="6.3" stroke-linecap="round" stroke-miterlimit="10" stroke-width="1.5" class="innovation-1 fill-none stroke-primary"/></g><g id="innovation_252_"><line id="innovation_389_" x1="173.3" x2="177.6" y1="43.3" y2="43.3" stroke-linecap="round" stroke-miterlimit="10" stroke-width="1.5" class="innovation-1 fill-none stroke-primary"/><line id="innovation_388_" x1="175.5" x2="175.5" y1="45.4" y2="41.2" stroke-linecap="round" stroke-miterlimit="10" stroke-width="1.5" class="innovation-1 fill-none stroke-primary"/></g><g id="innovation_212_"><line id="innovation_236_" x1="154.2" x2="157.2" y1="15.5" y2="12.5" stroke-linecap="round" stroke-miterlimit="10" stroke-width="1.5" class="innovation-1 fill-none stroke-primary"/><line id="innovation_235_" x1="157.2" x2="154.2" y1="15.5" y2="12.5" stroke-linecap="round" stroke-miterlimit="10" stroke-width="1.5" class="innovation-1 fill-none stroke-primary"/></g><g id="innovation_248_"><line id="innovation_251_" x1="6.2" x2="9.2" y1="49.8" y2="46.8" stroke-linecap="round" stroke-miterlimit="10" stroke-width="1.5" class="innovation-1 fill-none stroke-primary"/><line id="innovation_250_" x1="9.2" x2="6.2" y1="49.8" y2="46.8" stroke-linecap="round" stroke-miterlimit="10" stroke-width="1.5" class="innovation-1 fill-none stroke-primary"/></g><line id="innovation_135_" x1="43.2" x2="60.6" y1="8.4" y2="8.4" stroke-miterlimit="10" stroke-width="1.5" class="innovation-1 fill-none stroke-primary"/><line id="innovation_403_" x1="176.5" x2="204.1" y1="51.7" y2="51.7" stroke-miterlimit="10" stroke-width="1.5" class="innovation-1 fill-none stroke-primary"/><line id="innovation_201_" x1="118.3" x2="150.6" y1="14" y2="14" stroke-miterlimit="10" stroke-width="1.5" class="innovation-1 fill-none stroke-primary"/><line id="innovation_414_" x1="0" x2="51.3" y1="24.6" y2="24.6" stroke-miterlimit="10" stroke-width="1.5" class="innovation-1 fill-none stroke-primary"/><line id="innovation_105_" x1="65.6" x2="62.1" y1="8.4" y2="8.4" stroke-miterlimit="10" stroke-width="1.5" class="innovation-1 fill-none stroke-primary"/><path id="innovation_143_" d="M17.5,74.1c0,1-0.8,1.9-1.9,1.9c-1,0-1.9-0.8-1.9-1.9c0-1,0.8-1.9,1.9-1.9S17.5,73,17.5,74.1z" class="innovation-3 fill-primary"/><path id="innovation_404_" d="M60.2,34.2c0,0.6-0.5,1-1,1c-0.6,0-1-0.5-1-1c0-0.6,0.5-1,1-1C59.7,33.1,60.2,33.6,60.2,34.2z" class="innovation-3 fill-primary"/><path id="innovation_410_" d="M158.3,2.6c0,0.6-0.5,1-1,1c-0.6,0-1-0.5-1-1s0.5-1,1-1C157.8,1.5,158.3,2,158.3,2.6z" class="innovation-3 fill-primary"/><path id="innovation_407_" d="M134.2,31.6c0,0.8-0.6,1.4-1.4,1.4c-0.8,0-1.4-0.6-1.4-1.4c0-0.8,0.6-1.4,1.4-1.4 C133.6,30.2,134.2,30.8,134.2,31.6z" class="innovation-3 fill-primary"/><path id="innovation_408_" d="M28.2,5c0,0.8-0.6,1.4-1.4,1.4S25.4,5.8,25.4,5s0.6-1.4,1.4-1.4C27.5,3.6,28.2,4.2,28.2,5z" class="innovation-3 fill-primary"/><path id="innovation_406_" d="M180.2,59.2c0,0.6-0.5,1-1,1c-0.6,0-1-0.5-1-1c0-0.6,0.5-1,1-1S180.2,58.6,180.2,59.2z" class="innovation-3 fill-primary"/><path id="innovation_240_" d="M140,101.5c3.7-1.3,6.4-4.8,6.8-9.4c0.1-1,0-2-0.3-3c1.6-1.8,2.7-4.2,2.9-6.9 c0.2-2.5-0.6-5-2.4-6.9c-1.9-2-4.6-3.3-7.4-3.4c-1-1.7-2.8-2.8-4.8-2.8c-0.6,0-1.2,0.1-1.8,0.3c-0.5-0.8-1.1-1.6-1.7-2.3 c-2.1-2.1-4.8-3.2-7.8-3.2c-1.6,0-3.2,0.4-4.6,1v36.4h16.4c0.2,0,0.5,0,0.7,0s0.5,0,0.7,0l0,0v0.2L140,101.5z" class="innovation-2 fill-primary-lighter" opacity=".5"/><path id="innovation_237_" d="M81.9,80.1c-0.1,0-0.2-0.1-0.2-0.1c0.1-0.2,0.2-0.4,0.2-0.7v-7.9c-1.6-4.7-6.1-8-11.3-8 c-5.4,0-10,3.6-11.5,8.6c-1.1-0.2-2.2,0-3.2,0.5l0.4,0.7c-0.7,0.4-1.3,1-1.8,1.7c-0.1,0-0.3,0-0.4,0c-4,0-7.3,3.3-7.3,7.3 c0,0.9,0.2,1.7,0.4,2.5c-2.6,1.8-4.1,4.7-4.1,7.9c0,4.3,2.8,7.9,6.7,9.2h2.9v-0.3c1.4,0,2.7-0.3,3.9-0.9c1,0.6,2.2,0.9,3.5,0.9 h21.8C81.9,101.5,81.9,80.1,81.9,80.1z" class="innovation-2 fill-primary-lighter" opacity=".5"/><g id="innovation_15_"><path id="innovation_162_" d="M156.2,101.4H38.8c-4.7,0,1.9-2.3,1.9-6.4l0,0c0-4.1,7.3-8.4,12-8.4h95.9 c4.7,0,8.5,3.3,8.5,7.4l0,0C157.2,98,158.3,101.4,156.2,101.4z" class="innovation-0 fill-white"/><ellipse id="innovation_161_" cx="72.6" cy="75.4" class="innovation-0 fill-white" rx="11.3" ry="11.3"/><path id="innovation_158_" d="M64.8,77.1c0,2.5-2,4.5-4.5,4.5s-4.5-2-4.5-4.5s2-4.5,4.5-4.5C62.8,72.6,64.8,74.6,64.8,77.1 z" class="innovation-0 fill-white"/><path id="innovation_157_" d="M62.6,82.1c0,3.6-2.9,6.6-6.6,6.6c-3.6,0-6.6-2.9-6.6-6.6c0-3.6,2.9-6.6,6.6-6.6 C59.6,75.6,62.6,78.5,62.6,82.1z" class="innovation-0 fill-white"/><path id="innovation_416_" d="M50.3,94.6c0,3.7-3,6.7-6.7,6.7s-6.7-3-6.7-6.7s3-6.7,6.7-6.7S50.3,90.9,50.3,94.6z" class="innovation-0 fill-white"/><path id="innovation_417_" d="M43.2,95.9c0,3-2.5,5.5-5.5,5.5s-5.5-2.5-5.5-5.5s2.5-5.5,5.5-5.5 C40.8,90.4,43.2,92.9,43.2,95.9z" class="innovation-0 fill-white"/><path id="innovation_156_" d="M63.5,92.5c0,4.9-4,8.9-8.9,8.9s-8.9-4-8.9-8.9s4-8.9,8.9-8.9C59.6,83.6,63.5,87.6,63.5,92.5 z" class="innovation-0 fill-white"/><path id="innovation_419_" stroke-miterlimit="10" stroke-width="1.5" d="M45.8,92.5c0-3,1.5-5.7,3.8-7.3" class="innovation-1 fill-none stroke-primary"/><path id="innovation_151_" d="M86.3,84.3c0,2.1-1.7,3.7-3.7,3.7c-2.1,0-3.7-1.7-3.7-3.7c0-2.1,1.7-3.7,3.7-3.7 C84.7,80.6,86.3,82.3,86.3,84.3z" class="innovation-0 fill-white"/><circle id="innovation_150_" cx="121.5" cy="74.9" r="10.2" class="innovation-0 fill-white"/><path id="innovation_435_" d="M133.5,80.6c-0.3,3.6-2.9,6.6-6.6,6.6c-3.6,0-6.6-2.9-6.6-6.6c0-3.6,2.9-6.6,6.6-6.6 C130.6,74.1,133.8,77,133.5,80.6z" class="innovation-0 fill-white"/><path id="innovation_148_" d="M126.9,85.1c-0.3,3.6-2.9,6.6-6.6,6.6c-3.6,0-6.6-2.9-6.6-6.6c0-3.6,2.9-6.6,6.6-6.6 C124,78.6,127.3,81.5,126.9,85.1z" class="innovation-0 fill-white"/><path id="innovation_144_" d="M81.9,85.2c-0.6,3.6-5.6,6.6-12.5,6.6s-12.5-2.9-12.5-6.6c0-3.6,5.6-6.6,12.5-6.6 C76.3,78.7,82.5,81.6,81.9,85.2z" class="innovation-0 fill-white"/><path id="innovation_142_" d="M146.6,82.2c-0.5,5.3-4.3,9.6-9.6,9.6s-9.6-4.3-9.6-9.6c0-5.3,4.3-9.6,9.6-9.6 S147.1,76.9,146.6,82.2z" class="innovation-0 fill-white"/><path id="innovation_418_" d="M156.5,92.7c-0.4,4.8-3.9,8.6-8.6,8.6c-4.8,0-8.6-3.9-8.6-8.6s3.9-8.6,8.6-8.6 S156.9,88,156.5,92.7z" class="innovation-0 fill-white"/><path id="innovation_421_" d="M162.5,95.2c-0.3,3.4-2.8,6.2-6.2,6.2s-6.2-2.8-6.2-6.2c0-3.4,2.8-6.2,6.2-6.2 S162.8,91.8,162.5,95.2z" class="innovation-0 fill-white"/><path id="innovation_141_" d="M144,92.1c-0.5,5.1-4.1,9.2-9.2,9.2c-5.1,0-9.2-4.1-9.2-9.2s4.1-9.2,9.2-9.2 C139.8,82.9,144.4,87,144,92.1z" class="innovation-0 fill-white"/><path id="innovation_140_" d="M118.8,81.7c0,3.3-2.7,6-6,6s-6-2.7-6-6s2.7-6,6-6C116.1,75.7,118.8,78.4,118.8,81.7z" class="innovation-0 fill-white"/><path id="innovation_139_" d="M111,87c0,1.9-1.6,3.5-3.5,3.5S104,88.9,104,87s1.6-3.5,3.5-3.5S111,85,111,87z" class="innovation-0 fill-white"/><path id="innovation_138_" stroke-miterlimit="10" stroke-width="1.5" d="M103.7,87.3c0-1.9,1.6-3.5,3.5-3.5" class="innovation-1 fill-none stroke-primary"/><path id="innovation_137_" d="M96.6,89.2c0,2.2-3.1,4.1-7,4.1s-7-1.8-7-4.1s3.1-4.1,7-4.1S96.6,87,96.6,89.2z" class="innovation-0 fill-white"/><path id="innovation_434_" d="M137.2,72.9c0,2.6-4.4,9.5-4.4,6.4c0-2.6-4.7-2.1-4.7-4.7s2.1-4.7,4.7-4.7 C135.4,69.9,137.2,70.3,137.2,72.9z" class="innovation-0 fill-white"/><path id="innovation_136_" stroke-miterlimit="10" stroke-width="1.5" d="M130.9,70.2c0.6-0.3,1.2-0.4,1.9-0.4c1.9,0,3.6,1.1,4.3,2.8" class="innovation-1 fill-none stroke-primary"/><path id="innovation_133_" stroke-miterlimit="10" stroke-width="1.5" d="M114.2,82.1c-1.9-1.9-3-4.4-3-7.2s1.1-5.4,3-7.2c1.9-1.9,4.4-3,7.2-3c2.8,0,5.4,1.1,7.2,3 c1.9,1.9,3,4.4,3,7.2" class="innovation-1 fill-none stroke-primary"/><path id="innovation_440_" stroke-miterlimit="10" stroke-width="1.5" d="M112.8,87.7c-3.3,0-6-2.7-6-6c0-2.8,1.9-5.1,4.5-5.8" class="innovation-1 fill-none stroke-primary"/><path id="innovation_115_" stroke-miterlimit="10" stroke-width="1.5" d="M61.3,75.4c0-6.2,5-11.3,11.3-11.3c6.2,0,11.3,5,11.3,11.3c0,4.2-2.3,7.8-5.7,9.8" class="innovation-1 fill-none stroke-primary"/><path id="innovation_112_" stroke-miterlimit="10" stroke-width="1.5" d="M58.2,73.1c0.6-0.3,1.3-0.5,2.1-0.5c0.5,0,0.9,0.1,1.3,0.2" class="innovation-1 fill-none stroke-primary"/><path id="innovation_109_" stroke-miterlimit="10" stroke-width="1.5" d="M82.6,80.6c2.1,0,3.7,1.7,3.7,3.7c0,2.1-1.7,3.7-3.7,3.7" class="innovation-1 fill-none stroke-primary"/><path id="innovation_106_" d="M111,93H84.5l7.7-8.6v-32h8.2L100,81.6c0,1.8,0.8,3.4,2.2,4.5L111,93z" class="innovation-0 fill-white"/><path id="innovation_514_" stroke-miterlimit="10" stroke-width="1.5" d="M100.2,52.4v30.4c0,1.8,1.4,3.2,3.2,3.2h0.9" class="innovation-1 fill-none stroke-primary"/><path id="innovation_512_" stroke-miterlimit="10" stroke-width="1.5" d="M86.3,85.2h2.9c1.6,0,2.9-1.3,2.9-2.9V52.4" class="innovation-1 fill-none stroke-primary"/><path id="innovation_104_" stroke-miterlimit="10" stroke-width="1.5" d="M88.5,99.1c0-0.6,0.1-1.2,0.3-1.8c0.2-0.6,0.6-1.1,1-1.5c0.4-0.5,1-0.8,1.6-1.1 c0.6-0.3,1.2-0.4,1.9-0.4c0.6,0,1.2,0.1,1.8,0.3c0.6,0.2,1.1,0.6,1.5,1" class="innovation-1 fill-none stroke-primary"/><path id="innovation_103_" stroke-miterlimit="10" stroke-width="1.5" d="M64.8,87.6c0-0.6,0.1-1.2,0.3-1.8c0.2-0.6,0.6-1.1,1-1.5s1-0.8,1.6-1.1 c0.6-0.3,1.2-0.4,1.9-0.4c0.6,0,1.2,0.1,1.8,0.3c0.6,0.2,1.1,0.6,1.5,1" class="innovation-1 fill-none stroke-primary"/><path id="innovation_102_" stroke-miterlimit="10" stroke-width="1.5" d="M118.8,78.7c0.6-0.2,1.2-0.4,1.8-0.4c0.6,0,1.2,0.1,1.8,0.3c0.6,0.2,1.1,0.6,1.6,1 c0.5,0.5,0.8,1,1.1,1.6c0.2,0.6,0.4,1.2,0.4,1.8c0,0.6-0.1,1.2-0.3,1.8" class="innovation-1 fill-none stroke-primary"/><path id="innovation_101_" stroke-miterlimit="10" stroke-width="1.5" d="M93.9,94.4c0.1-0.6,0.3-1.2,0.6-1.8c0.3-0.6,0.8-1,1.3-1.4s1.1-0.6,1.7-0.8 c0.6-0.2,1.2-0.2,1.8-0.1" class="innovation-1 fill-none stroke-primary"/><path id="innovation_98_" stroke-miterlimit="10" stroke-width="1.5" d="M125.5,95.4c0.1-0.6,0.3-1.2,0.6-1.8c0.3-0.6,0.8-1,1.3-1.4s1.1-0.6,1.7-0.8 c0.6-0.2,1.2-0.2,1.8-0.1" class="innovation-1 fill-none stroke-primary"/><path id="innovation_97_" stroke-miterlimit="10" stroke-width="1.5" d="M110,100.7c-0.6-0.2-1.2-0.5-1.6-0.9c-0.5-0.4-0.9-0.9-1.2-1.5c-0.3-0.6-0.4-1.2-0.5-1.8 c0-0.6,0-1.2,0.2-1.8" class="innovation-1 fill-none stroke-primary"/><path id="innovation_96_" stroke-miterlimit="10" stroke-width="1.5" d="M51.4,86.8c-1.2-1.2-1.9-2.8-1.9-4.6c0-3.6,2.9-6.6,6.6-6.6c1.6,0,3,0.6,4.2,1.5" class="innovation-1 fill-none stroke-primary"/><path id="innovation_95_" stroke-miterlimit="10" stroke-width="1.5" d="M134.7,72.9c0.7-0.2,1.5-0.3,2.3-0.3c5.3,0,10.1,4.3,9.6,9.6c-0.3,3.8-2.4,7.1-5.6,8.7" class="innovation-1 fill-none stroke-primary"/><path id="innovation_155_" stroke-miterlimit="10" stroke-width="1.5" d="M36.8,94.6c0-3.7,3-6.7,6.7-6.7c1.1,0,2.1,0.3,3,0.7" class="innovation-1 fill-none stroke-primary"/><path id="innovation_420_" stroke-miterlimit="10" stroke-width="1.5" d="M37.8,101.4c-3,0-5.5-2.5-5.5-5.5s3-5.5,6-5.5" class="innovation-1 fill-none stroke-primary"/><path id="innovation_423_" stroke-miterlimit="10" stroke-width="1.5" d="M146.1,84.3c0.6-0.1,1.2-0.2,1.8-0.2c4.8,0,9,3.9,8.6,8.6c-0.2,2.2-1,4.1-2.3,5.6" class="innovation-1 fill-none stroke-primary"/><path id="innovation_64_" stroke-miterlimit="10" stroke-width="1.5" d="M156.3,89c3.4,0,6.5,2.8,6.2,6.2c-0.3,3.4-2.8,6.2-6.2,6.2" class="innovation-1 fill-none stroke-primary"/></g><g id="innovation_166_"><path id="innovation_192_" d="M97.4,53.6h-2.8c-0.5,0-1-0.5-1-1v-5.3c0-0.5,0.5-1,1-1h2.8c0.5,0,1,0.5,1,1v5.3 C98.4,53.1,97.9,53.6,97.4,53.6z" class="innovation-2 fill-primary-lighter" opacity=".5"/><path id="innovation_190_" stroke-miterlimit="10" stroke-width="1.5" d="M97.4,53.6h-2.8c-0.5,0-1-0.5-1-1v-5.3c0-0.5,0.5-1,1-1h2.8c0.5,0,1,0.5,1,1v5.3 C98.4,53.1,97.9,53.6,97.4,53.6z" class="innovation-1 fill-none stroke-primary"/><path id="innovation_183_" d="M112,16.7c0-8.8-7.1-15.9-15.9-15.9S80.2,7.9,80.2,16.7c0,5.9,3.2,11,8,13.8v15.7l2.3,4.3 h10.9l2.7-4.3V30.5C108.8,27.7,112,22.6,112,16.7z" class="innovation-0 fill-white"/><polygon id="innovation_181_" points="104.1 46.1 101.4 50.4 90.5 50.4 88.2 46.1" class="innovation-2 fill-primary-lighter" opacity=".5"/><path id="innovation_180_" stroke-miterlimit="10" stroke-width="1.5" d="M84,6.4c-2.3,2.8-3.7,6.3-3.7,10.3c0,5.9,3.2,11,8,13.8v15.7l2.3,4.3h10.9l2.7-4.3V30.5 c4.8-2.7,8-7.9,8-13.8c0-8.8-7.1-15.9-15.9-15.9c-2.1,0-4.1,0.4-6,1.2" class="innovation-1 fill-none stroke-primary"/><path id="innovation_179_" stroke-miterlimit="10" stroke-width="1.5" d="M88.2,2.9c-1.2,0.7-1.7,0.9-2.7,1.9" class="innovation-1 fill-none stroke-primary"/><line id="innovation_566_" x1="85.8" x2="106.5" y1="35.3" y2="35.3" stroke-miterlimit="10" stroke-width="1.5" class="innovation-1 fill-none stroke-primary"/><line id="innovation_178_" x1="85.8" x2="106.5" y1="38.9" y2="38.9" stroke-miterlimit="10" stroke-width="1.5" class="innovation-1 fill-none stroke-primary"/><line id="innovation_177_" x1="85.8" x2="106.5" y1="42.5" y2="42.5" stroke-miterlimit="10" stroke-width="1.5" class="innovation-1 fill-none stroke-primary"/><line id="innovation_176_" x1="85.8" x2="106.5" y1="46.1" y2="46.1" stroke-miterlimit="10" stroke-width="1.5" class="innovation-1 fill-none stroke-primary"/><ellipse id="innovation_175_" cx="96" cy="16.2" class="innovation-3 fill-primary" rx="11.2" ry="11.2"/><path id="innovation_576_" d="M99.5,13.7c0-1.9-1.5-3.4-3.4-3.4s-3.4,1.5-3.4,3.4c0,0.9,0.4,1.8,1,2.4l-1,5.9h6.5l-1-5.7 C99,15.7,99.5,14.8,99.5,13.7z" class="innovation-0 fill-white"/></g><g id="innovation_43_"><line id="innovation_189_" x1="13.8" x2="177.6" y1="101.6" y2="101.6" stroke-miterlimit="10" stroke-width="1.5" class="innovation-1 fill-none stroke-primary"/><line id="innovation_188_" x1="9.2" x2="11.9" y1="101.6" y2="101.6" stroke-miterlimit="10" stroke-width="1.5" class="innovation-1 fill-none stroke-primary"/><line id="innovation_187_" x1="179.2" x2="185.2" y1="101.6" y2="101.6" stroke-miterlimit="10" stroke-width="1.5" class="innovation-1 fill-none stroke-primary"/></g><g id="innovation_395_"><path id="innovation_405_" d="M166,101.6h3.4c0.3,0,0.5-0.2,0.5-0.5V52.6c0-0.1,0-0.1,0-0.2l-1.7-3.7 c-0.2-0.4-0.7-0.4-0.8,0l-1.7,3.7c0,0.1,0,0.1,0,0.2v48.6C165.5,101.4,165.7,101.6,166,101.6z" class="innovation-0 fill-white"/><rect id="innovation_402_" width="4.3" height="42.9" x="165.5" y="54.1" class="innovation-2 fill-primary-lighter" opacity=".5"/><path id="innovation_400_" stroke-miterlimit="10" stroke-width="1.5" d="M165.5,101.6h4.3V52.5l-1.9-4.1c-0.1-0.2-0.4-0.2-0.5,0l-1.9,4.1L165.5,101.6L165.5,101.6z" class="innovation-1 fill-none stroke-primary"/><line id="innovation_399_" x1="170" x2="165.5" y1="54.1" y2="54.1" stroke-miterlimit="10" stroke-width="1.5" class="innovation-1 fill-none stroke-primary"/><line id="innovation_398_" x1="170.2" x2="165.2" y1="97" y2="97" stroke-miterlimit="10" stroke-width="1.5" class="innovation-1 fill-none stroke-primary"/></g></g></svg>