<svg xmlns="http://www.w3.org/2000/svg" xmlns:xlink="http://www.w3.org/1999/xlink" x="0" y="0" viewBox="0 0 66.5 44.9" xml:space="preserve" style="enable-background:new 0 0 66.5 44.9"><style type="text/css">.media-0{fill:#fff}.media-1{fill:none;stroke:#97a4af}</style><g id="media_122_"><g id="media_168_"><path id="media_300_" d="M45.9,37.6l-18.2-5.7c-0.6-0.2-0.9-0.8-0.7-1.3l5.7-18.2c0.2-0.6,0.8-0.9,1.3-0.7l18.2,5.7 c0.6,0.2,0.9,0.8,0.7,1.3L47.2,37C47.1,37.5,46.5,37.8,45.9,37.6z" class="media-0 fill-white"/><path id="media_59_" stroke-miterlimit="10" stroke-width="1.5" d="M30.9,18.3l1.8-5.7c0.2-0.7,0.9-1.1,1.6-0.8l3.4,1.2" class="media-1 fill-none stroke-gray-500"/></g><g id="media_132_"><path id="media_165_" d="M24.9,28.5L5.6,32.8c-0.8,0.2-1.7-0.3-1.9-1.2L0.9,19c-0.2-0.8,0.3-1.7,1.2-1.9l19.3-4.3 c0.8-0.2,1.7,0.3,1.9,1.2l2.8,12.7C26.3,27.5,25.7,28.3,24.9,28.5z" class="media-0 fill-white"/><path id="media_153_" stroke-miterlimit="10" stroke-width="1.5" d="M0.8,17.6l12.2,5c0.3,0.1,0.7,0,0.9-0.2l8.7-9.6" class="media-1 fill-none stroke-gray-500"/><path id="media_379_" stroke-miterlimit="10" stroke-width="1.5" d="M3.7,31.2L0.8,18.4c-0.1-0.5,0.2-1.1,0.8-1.2l2.1-0.5" class="media-1 fill-none stroke-gray-500"/><path id="media_152_" stroke-miterlimit="10" stroke-width="1.5" d="M9.1,15.5l12.9-2.9c0.5-0.1,1.1,0.2,1.2,0.8l1.1,4.9" class="media-1 fill-none stroke-gray-500"/><line id="media_286_" x1="5.4" x2="7.8" y1="16.4" y2="15.8" stroke-miterlimit="10" stroke-width="1.5" class="media-1 fill-none stroke-gray-500"/></g><path id="media_482_1" d="M47.6,33.3h-0.2c-0.9-3.1-3.7-5.3-7.1-5.3c-1.5,0-2.8,0.4-4,1.2c-0.7-4.9-4.9-8.6-10-8.6 c-4.5,0-8.4,3-9.7,7.1c-0.6-0.2-1.2-0.2-1.8-0.2c-3.5,0-6.3,2.5-6.9,5.9H6.8c-2.9,0-5.2,2.3-5.2,5.2v0.4c0,2.9,2.3,5.2,5.2,5.2 h40.8c2.9,0,5.2-2.3,5.2-5.2v-0.4C52.8,35.7,50.4,33.3,47.6,33.3z" class="media-0 fill-white"/><path id="media_60_" stroke-miterlimit="10" stroke-width="1.5" d="M36.3,29.2c-0.7-4.9-4.9-8.6-10-8.6c-4.5,0-8.4,3-9.7,7.1c-0.6-0.2-1.2-0.2-1.8-0.2 c-3.5,0-6.3,2.5-6.9,5.9H6.8c-2.9,0-5.2,2.3-5.2,5.2v0.4c0,2.9,2.3,5.2,5.2,5.2h7.3h25.6h7.9" class="media-1 fill-none stroke-gray-500"/><path id="media_480_1" stroke-miterlimit="10" stroke-width="1.5" d="M32.9,28.4c-1.5-2.3-4.1-3.8-7.1-3.8c-1.6,0-3,0.4-4.3,1.2" class="media-1 fill-none stroke-gray-500"/><path id="media_479_1" stroke-miterlimit="10" stroke-width="1.5" d="M14.9,27.4c2,0,3.6,1.6,3.6,3.6" class="media-1 fill-none stroke-gray-500"/><g id="media_125_"><path id="media_130_" d="M26.5,7.8c0.1,0.8-0.7,1.5-1.8,1.7c-1.1,0.2-2.1-0.3-2.2-1c-0.1-0.8,0.7-1.5,1.8-1.7 C25.3,6.5,26.3,7,26.5,7.8z" class="media-0 fill-white"/><path id="media_129_" stroke-miterlimit="10" stroke-width="1.5" d="M26.5,7.8c0.1,0.8-0.7,1.5-1.8,1.7c-1.1,0.2-2.1-0.3-2.2-1c-0.1-0.8,0.7-1.5,1.8-1.7 C25.3,6.5,26.3,7,26.5,7.8z" class="media-1 fill-none stroke-gray-500"/><path id="media_128_" d="M32.2,7.8c0.1,0.8-0.7,1.5-1.8,1.7c-1.1,0.2-2.1-0.3-2.2-1c-0.1-0.8,0.7-1.5,1.8-1.7 C31,6.5,32,7,32.2,7.8z" class="media-0 fill-white"/><path id="media_127_" stroke-miterlimit="10" stroke-width="1.5" d="M32.2,7.8c0.1,0.8-0.7,1.5-1.8,1.7c-1.1,0.2-2.1-0.3-2.2-1c-0.1-0.8,0.7-1.5,1.8-1.7 C31,6.5,32,7,32.2,7.8z" class="media-1 fill-none stroke-gray-500"/><polyline id="media_126_" stroke-miterlimit="10" stroke-width="1.5" points="26.5 7.9 26.5 .8 32.2 .8 32.2 7.9" class="media-1 fill-none stroke-gray-500"/></g></g><g id="media_77_"><g id="media_83_"><path id="media_121_" d="M63.8,44.1H41.6c-1.1,0-2-0.9-2-2V4.5c0-1.1,0.9-2,2-2h22.2c1.1,0,2,0.9,2,2v37.6 C65.8,43.2,64.9,44.1,63.8,44.1z" class="media-0 fill-white"/><path id="media_120_" stroke-miterlimit="10" stroke-width="1.5" d="M48.6,2.5h14.8c1.3,0,2.3,1,2.3,2.3v36.9c0,1.3-1,2.3-2.3,2.3H42c-1.3,0-2.3-1-2.3-2.3V4.9 c0-1.3,1-2.3,2.3-2.3h1.4" class="media-1 fill-none stroke-gray-500"/><line id="media_119_" x1="44.8" x2="47.7" y1="2.5" y2="2.5" stroke-miterlimit="10" stroke-width="1.5" class="media-1 fill-none stroke-gray-500"/><line id="media_117_" x1="48.8" x2="56.6" y1="5.7" y2="5.7" stroke-miterlimit="10" stroke-width="1.5" class="media-1 fill-none stroke-gray-500"/><path id="media_110_" stroke-miterlimit="10" stroke-width="1.5" d="M53.9,40.7c0,0.7-0.6,1.3-1.3,1.3s-1.3-0.6-1.3-1.3c0-0.7,0.6-1.3,1.3-1.3S53.9,40,53.9,40.7 z" class="media-1 fill-none stroke-gray-500"/></g></g></svg>