<svg xmlns="http://www.w3.org/2000/svg" xmlns:xlink="http://www.w3.org/1999/xlink" x="0" y="0" viewBox="0 0 176 105.5" xml:space="preserve" style="enable-background:new 0 0 176 105.5"><style type="text/css">.mobile-marketing-0{fill:#19a0ff}.mobile-marketing-1{fill:#fff}.mobile-marketing-2{fill:none;stroke:#377dff}.mobile-marketing-3{fill:none;stroke:#fff}</style><path id="mobileMarketing_319_" d="M153.6,104.9V12.7c0-2-1.6-3.6-3.6-3.6H97.4c-2,0-3.6,1.6-3.6,3.6v92.3L153.6,104.9z" class="mobile-marketing-0 fill-primary-lighter" opacity=".5"/><path id="mobileMarketing_317_" d="M149,104.6V12.3c0-2-1.4-3.6-3-3.6h-44.6c-1.7,0-3,1.6-3,3.6v92.3L149,104.6z" class="mobile-marketing-1 fill-white"/><path id="mobileMarketing_316_" d="M94.2,17.3v-6.2c0-1.7,1.3-3,3-3h53.8c1.7,0,3,1.3,3,3v6.2H94.2z" class="mobile-marketing-1 fill-white"/><path id="mobileMarketing_315_" stroke-miterlimit="10" stroke-width="1.5" d="M94.2,29.6V11.7c0-1.7,1.3-3,3-3h6.3h1.7" class="mobile-marketing-2 fill-none stroke-primary"/><path id="mobileMarketing_313_" stroke-miterlimit="10" stroke-width="1.5" d="M115.5,8.7h35.4c1.7,0,3,1.3,3,3v92.4" class="mobile-marketing-2 fill-none stroke-primary"/><line id="mobileMarketing_312_" x1="108" x2="112.1" y1="8.7" y2="8.7" stroke-miterlimit="10" stroke-width="1.5" class="mobile-marketing-2 fill-none stroke-primary"/><line id="mobileMarketing_311_" x1="94.2" x2="153.9" y1="18.1" y2="18.1" stroke-miterlimit="10" stroke-width="1.5" class="mobile-marketing-2 fill-none stroke-primary"/><line id="mobileMarketing_310_" x1="101" x2="102.4" y1="13.9" y2="13.9" stroke-miterlimit="10" stroke-width="1.5" class="mobile-marketing-2 fill-none stroke-primary"/><line id="mobileMarketing_304_" x1="105.1" x2="106.5" y1="13.9" y2="13.9" stroke-miterlimit="10" stroke-width="1.5" class="mobile-marketing-2 fill-none stroke-primary"/><line id="mobileMarketing_303_" x1="109.1" x2="110.5" y1="13.9" y2="13.9" stroke-miterlimit="10" stroke-width="1.5" class="mobile-marketing-2 fill-none stroke-primary"/><rect id="mobileMarketing_301_" width="43.7" height="17.3" x="102.2" y="25" class="mobile-marketing-0 fill-primary-lighter" opacity=".5"/><rect id="mobileMarketing_300_" width="13.3" height="17.3" x="102.2" y="53.2" class="mobile-marketing-0 fill-primary-lighter" opacity=".5"/><rect id="mobileMarketing_299_" width="13.3" height="17.3" x="117.4" y="53.2" class="mobile-marketing-0 fill-primary-lighter" opacity=".2"/><rect id="mobileMarketing_295_" width="13.3" height="17.3" x="132.6" y="53.2" class="mobile-marketing-0 fill-primary-lighter" opacity=".8"/><line id="mobileMarketing_294_" x1="114.7" x2="133.3" y1="47.7" y2="47.7" stroke-miterlimit="10" stroke-width="1.5" class="mobile-marketing-2 fill-none stroke-primary"/><path id="mobileMarketing_284_" d="M27.9,104.6h33.7c1.4,0,2.6-1.1,2.6-2.6V75c0-1.4-1.1-2.6-2.6-2.6H27.9c-1.4,0-2.6,1.1-2.6,2.6	v27C25.3,103.4,26.5,104.6,27.9,104.6z" class="mobile-marketing-1 fill-white"/><polygon id="mobileMarketing_283_" points="25.3 94.2 38.8 86 48.1 91.4 56 83 64.2 92.2 64.2 97 25.3 97" class="mobile-marketing-0 fill-primary-lighter" opacity=".5"/><line id="mobileMarketing_281_" x1="64.2" x2="25.3" y1="97" y2="97" stroke-miterlimit="10" stroke-width="1.5" class="mobile-marketing-2 fill-none stroke-primary"/><polyline id="mobileMarketing_266_" stroke-miterlimit="10" stroke-width="1.5" points="64.2 92.2 56 83 48.1 91.4 38.8 86 25.3 94.2" class="mobile-marketing-2 fill-none stroke-primary"/><path id="mobileMarketing_256_" d="M42.1,78.8c0,0.9,0.7,1.6,1.6,1.6s1.6-0.7,1.6-1.6s-0.7-1.6-1.6-1.6S42.1,77.9,42.1,78.8z" class="mobile-marketing-0 fill-primary-lighter" opacity=".5"/><path id="mobileMarketing_250_" stroke-miterlimit="10" stroke-width="1.5" d="M42.1,78.8c0,0.9,0.7,1.6,1.6,1.6s1.6-0.7,1.6-1.6s-0.7-1.6-1.6-1.6S42.1,77.9,42.1,78.8z" class="mobile-marketing-2 fill-none stroke-primary"/><line id="mobileMarketing_248_" x1="58.5" x2="49.7" y1="77.2" y2="77.2" stroke-miterlimit="10" stroke-width="1.5" class="mobile-marketing-2 fill-none stroke-primary"/><line id="mobileMarketing_139_" x1="62" x2="53.1" y1="79.7" y2="79.7" stroke-miterlimit="10" stroke-width="1.5" class="mobile-marketing-2 fill-none stroke-primary"/><line id="mobileMarketing_335_" x1="54.1" x2="40.7" y1="72.4" y2="72.4" stroke-miterlimit="10" stroke-width="1.5" class="mobile-marketing-2 fill-none stroke-primary"/><path id="mobileMarketing_331_" stroke-miterlimit="10" stroke-width="1.5" d="M25.3,86.5V102c0,1.4,1.1,2.6,2.6,2.6h33.7c1.4,0,2.6-1.1,2.6-2.6" class="mobile-marketing-2 fill-none stroke-primary"/><path id="mobileMarketing_116_" d="M38.7,83.3l-1.4-7.4c0.8-1.8,1.2-3.7,1.2-5.8c0-7.8-6.3-14.1-14.1-14.1	c-7.8,0-14.1,6.3-14.1,14.1c0,7.8,6.3,14.1,14.1,14.1c2.8,0,5.3-0.8,7.5-2.2L38.7,83.3z" class="mobile-marketing-0 fill-primary-lighter"/><path id="mobileMarketing_115_" stroke-miterlimit="10" stroke-width="1.5" d="M30,57.1c-1.7-0.8-3.6-1.2-5.6-1.2c-7.8,0-14.1,6.3-14.1,14.1c0,7.8,6.3,14.1,14.1,14.1	c2.8,0,5.3-0.8,7.5-2.2l6.8,1.2l-1.4-7.4c0.8-1.8,1.2-3.7,1.2-5.8c0-3.4-1.2-6.5-3.1-8.9" class="mobile-marketing-2 fill-none stroke-primary"/><path id="mobileMarketing_112_" stroke-miterlimit="10" stroke-width="1.5" d="M34.4,60.1c-0.9-0.9-1.9-1.7-3-2.3" class="mobile-marketing-2 fill-none stroke-primary"/><ellipse id="mobileMarketing_109_" cx="24.5" cy="70.1" class="mobile-marketing-1 fill-white" rx="10.9" ry="10.6"/><g id="mobileMarketing_102_"><path id="mobileMarketing_747_" stroke-miterlimit="10" stroke-width="1.5" d="M30.3,71h1.6c0.5,0,0.9-0.4,0.9-0.9l0,0c0-0.5-0.4-0.9-0.9-0.9h-1.6" class="mobile-marketing-2 fill-none stroke-primary"/><path id="mobileMarketing_746_" stroke-miterlimit="10" stroke-width="1.5" d="M28.6,72.9h2.3c0.5,0,0.9-0.4,0.9-0.9l0,0c0-0.5-0.4-0.9-0.9-0.9h-2.3" class="mobile-marketing-2 fill-none stroke-primary"/><path id="mobileMarketing_745_" stroke-miterlimit="10" stroke-width="1.5" d="M29,72.9h0.9c0.5,0,0.9,0.4,0.9,0.9l0,0c0,0.5-0.4,0.9-0.9,0.9h-5.4c-0.2,0-0.5-0.1-0.6-0.3 l-0.9-1c-0.1-0.1-0.3-0.2-0.5-0.2h-0.2" class="mobile-marketing-2 fill-none stroke-primary"/><path id="mobileMarketing_138_" stroke-miterlimit="10" stroke-width="1.5" d="M28.6,69.2h2.9c0.5,0,0.9-0.4,0.9-0.9l0,0c0-0.5-0.4-0.9-0.9-0.9H28h-2.3c0,0,0.8-2,0.8-2.9 c0-0.4,0.1-1.3-0.2-1.7c-0.1-0.2-0.9-0.2-1,0c0,0-0.7,2.2-1.2,2.9c-0.3,0.4-1.3,1.7-1.3,1.7h-1" class="mobile-marketing-2 fill-none stroke-primary"/><line id="mobileMarketing_106_" x1="16.8" x2="17.8" y1="66.3" y2="66.3" stroke-miterlimit="10" stroke-width="1.5" class="mobile-marketing-2 fill-none stroke-primary"/><path id="mobileMarketing_104_" stroke-miterlimit="10" stroke-width="1.5" d="M20.1,66.3h1.1c0.4,0,0.8,0.4,0.8,0.8v6.4c0,0.4-0.4,0.8-0.8,0.8h-4.5" class="mobile-marketing-2 fill-none stroke-primary"/><line id="mobileMarketing_103_" x1="18.1" x2="19.3" y1="66.3" y2="66.3" stroke-miterlimit="10" stroke-width="1.5" class="mobile-marketing-2 fill-none stroke-primary"/></g><line id="mobileMarketing_324_" x1="24.5" x2="24.5" y1="48.9" y2="54.4" stroke-miterlimit="10" stroke-width="1.5" class="mobile-marketing-2 fill-none stroke-primary"/><line id="mobileMarketing_323_" x1="29.3" x2="28.5" y1="52.3" y2="55" stroke-miterlimit="10" stroke-width="1.5" class="mobile-marketing-2 fill-none stroke-primary"/><line id="mobileMarketing_326_" x1="35.1" x2="32.3" y1="51.8" y2="56.6" stroke-miterlimit="10" stroke-width="1.5" class="mobile-marketing-2 fill-none stroke-primary"/><line id="mobileMarketing_327_" x1="37.5" x2="35.6" y1="57.1" y2="59.1" stroke-miterlimit="10" stroke-width="1.5" class="mobile-marketing-2 fill-none stroke-primary"/><line id="mobileMarketing_329_" x1="42.8" x2="38.1" y1="59.6" y2="62.3" stroke-miterlimit="10" stroke-width="1.5" class="mobile-marketing-2 fill-none stroke-primary"/><line id="mobileMarketing_330_" x1="42.3" x2="39.6" y1="65.7" y2="66.1" stroke-miterlimit="10" stroke-width="1.5" class="mobile-marketing-2 fill-none stroke-primary"/><line id="mobileMarketing_409_" x1="19.5" x2="20.2" y1="87.6" y2="85.1" stroke-miterlimit="10" stroke-width="1.5" class="mobile-marketing-2 fill-none stroke-primary"/><line id="mobileMarketing_410_" x1="13.6" x2="16.5" y1="88.2" y2="83.5" stroke-miterlimit="10" stroke-width="1.5" class="mobile-marketing-2 fill-none stroke-primary"/><line id="mobileMarketing_411_" x1="11.1" x2="13.2" y1="83" y2="80.9" stroke-miterlimit="10" stroke-width="1.5" class="mobile-marketing-2 fill-none stroke-primary"/><line id="mobileMarketing_412_" x1="6" x2="10.8" y1="80.3" y2="77.7" stroke-miterlimit="10" stroke-width="1.5" class="mobile-marketing-2 fill-none stroke-primary"/><line id="mobileMarketing_413_" x1="6.4" x2="9.3" y1="74.5" y2="73.8" stroke-miterlimit="10" stroke-width="1.5" class="mobile-marketing-2 fill-none stroke-primary"/><line id="mobileMarketing_414_" x1="3.3" x2="8.8" y1="69.7" y2="69.8" stroke-miterlimit="10" stroke-width="1.5" class="mobile-marketing-2 fill-none stroke-primary"/><line id="mobileMarketing_415_" x1="6.8" x2="9.5" y1="65" y2="65.7" stroke-miterlimit="10" stroke-width="1.5" class="mobile-marketing-2 fill-none stroke-primary"/><line id="mobileMarketing_416_" x1="6.4" x2="11.1" y1="59.1" y2="62" stroke-miterlimit="10" stroke-width="1.5" class="mobile-marketing-2 fill-none stroke-primary"/><line id="mobileMarketing_417_" x1="11.8" x2="13.7" y1="56.8" y2="58.8" stroke-miterlimit="10" stroke-width="1.5" class="mobile-marketing-2 fill-none stroke-primary"/><line id="mobileMarketing_418_" x1="14.4" x2="17" y1="51.5" y2="56.4" stroke-miterlimit="10" stroke-width="1.5" class="mobile-marketing-2 fill-none stroke-primary"/><line id="mobileMarketing_419_" x1="20.2" x2="20.8" y1="52.2" y2="54.9" stroke-miterlimit="10" stroke-width="1.5" class="mobile-marketing-2 fill-none stroke-primary"/><path id="mobileMarketing_408_" d="M63.7,104.6c0.7-0.6,1.2-1.5,1.2-2.6h-0.8v-4.3V97v-0.7v-4l0.6-0.5l-0.6-0.6V75	c0-1.4-1.1-2.6-2.6-2.6h-7.5v-0.7h-0.9v28.9c0,1,0.3,2,0.9,2.8c0.2,0.5,0.6,0.9,1.1,1.1c0.8,0.6,1.7,0.9,2.8,0.9v-0.8H63.7z" class="mobile-marketing-0 fill-primary-lighter" opacity=".5"/><path id="mobileMarketing_407_" d="M103,102.6v-25h0.8V36.9c0-1-0.3-2-0.9-2.8c-0.2-0.5-0.6-0.9-1.1-1.1c-0.8-0.6-1.7-0.9-2.8-0.9	h-4.8v72.4h4.2h2.6C102.1,104.6,103,103.7,103,102.6z" class="mobile-marketing-0 fill-primary-lighter" opacity=".5"/><path id="mobileMarketing_516_" d="M99,104.6h-41c-1.1,0-2-0.9-2-2V34.9c0-1.1,0.9-2,2-2h41c1.1,0,2,0.9,2,2v67.7	C101,103.7,100.1,104.6,99,104.6z" class="mobile-marketing-1 fill-white"/><path id="mobileMarketing_339_" stroke-miterlimit="10" stroke-width="1.5" d="M60,104.6c-2.2,0-4-1.8-4-4V36.9c0-2.2,1.8-4,4-4h3.8" class="mobile-marketing-2 fill-none stroke-primary"/><path id="mobileMarketing_251_" stroke-miterlimit="10" stroke-width="1.5" d="M73.5,32.9H97c2.2,0,4,1.8,4,4v40.6" class="mobile-marketing-2 fill-none stroke-primary"/><line id="mobileMarketing_513_" x1="71.8" x2="85.1" y1="38.3" y2="38.3" stroke-miterlimit="10" stroke-width="1.5" class="mobile-marketing-2 fill-none stroke-primary"/><path id="mobileMarketing_512_" stroke-miterlimit="10" stroke-width="1.5" d="M80.6,98.7c0,1.2-1,2.2-2.2,2.2c-1.2,0-2.2-1-2.2-2.2c0-1.2,1-2.2,2.2-2.2	C79.7,96.5,80.6,97.5,80.6,98.7z" class="mobile-marketing-2 fill-none stroke-primary"/><rect id="mobileMarketing_511_" width="36" height="50.8" x="60.5" y="43.2" class="mobile-marketing-0 fill-primary-lighter"/><line id="mobileMarketing_97_" x1="66.1" x2="70.8" y1="32.9" y2="32.9" stroke-miterlimit="10" stroke-width="1.5" class="mobile-marketing-2 fill-none stroke-primary"/><path id="mobileMarketing_346_" d="M101,102.6V79H87.2c-0.8,0-1.5,0.7-1.5,1.5v23.5c0,0.3,0.1,0.5,0.2,0.7H99	C100.1,104.6,101,103.7,101,102.6z" class="mobile-marketing-0 fill-primary-lighter" opacity=".5"/><path id="mobileMarketing_814_" d="M124.6,104.6H89.2c-0.4,0-0.7-0.3-0.7-0.7V80.4c0-0.4,0.3-0.7,0.7-0.7h35.4	c0.4,0,0.7,0.3,0.7,0.7v23.5C125.3,104.2,125,104.6,124.6,104.6z" class="mobile-marketing-1 fill-white"/><path id="mobileMarketing_812_" stroke-miterlimit="10" stroke-width="1.5" d="M110.1,90l-5.9,3.4c-0.4,0.2-0.8-0.1-0.8-0.5v-6.8c0-0.4,0.5-0.7,0.8-0.5l5.9,3.4	C110.5,89.3,110.5,89.8,110.1,90z" class="mobile-marketing-2 fill-none stroke-primary"/><path id="mobileMarketing_811_" stroke-miterlimit="10" stroke-width="1.5" d="M110.1,90l-5.9,3.4c-0.4,0.2-0.8-0.1-0.8-0.5v-6.8c0-0.4,0.5-0.7,0.8-0.5l5.9,3.4	C110.5,89.3,110.5,89.8,110.1,90z" class="mobile-marketing-2 fill-none stroke-primary"/><line id="mobileMarketing_810_" x1="92.6" x2="120.8" y1="100" y2="100" stroke-miterlimit="10" stroke-width="1.5" class="mobile-marketing-2 fill-none stroke-primary"/><line id="mobileMarketing_809_" x1="98.9" x2="98.9" y1="102.3" y2="97.8" stroke-miterlimit="10" stroke-width="1.5" class="mobile-marketing-2 fill-none stroke-primary"/><path id="mobileMarketing_426_" d="M116.8,88.7l1.4-7.8c-0.8-1.8-1.3-3.9-1.3-6.1c0-8.2,6.6-14.9,14.9-14.9	c8.2,0,14.9,6.6,14.9,14.9c0,8.2-6.6,14.9-14.9,14.9c-2.9,0-5.6-0.8-7.9-2.3L116.8,88.7z" class="mobile-marketing-0 fill-primary-lighter"/><path id="mobileMarketing_425_" stroke-miterlimit="10" stroke-width="1.5" d="M125.8,61.2c1.8-0.8,3.8-1.2,5.9-1.2c8.2,0,14.9,6.6,14.9,14.9c0,8.2-6.6,14.9-14.9,14.9	c-2.9,0-5.6-0.8-7.9-2.3l-7.1,1.3l1.4-7.8c-0.8-1.8-1.3-3.9-1.3-6.1c0-3.5,1.2-6.8,3.3-9.3" class="mobile-marketing-2 fill-none stroke-primary"/><path id="mobileMarketing_424_" stroke-miterlimit="10" stroke-width="1.5" d="M121.2,64.3c0.9-0.9,2-1.7,3.1-2.4" class="mobile-marketing-2 fill-none stroke-primary"/><ellipse id="mobileMarketing_423_" cx="131.7" cy="74.8" class="mobile-marketing-1 fill-white" rx="11.5" ry="11.2"/><g id="mobileMarketing_95_"><line id="mobileMarketing_431_" x1="127.5" x2="135.5" y1="74.3" y2="69.1" stroke-miterlimit="10" stroke-width="1.5" class="mobile-marketing-2 fill-none stroke-primary"/><line id="mobileMarketing_430_" x1="135.5" x2="127.4" y1="80.7" y2="75.1" stroke-miterlimit="10" stroke-width="1.5" class="mobile-marketing-2 fill-none stroke-primary"/><path id="mobileMarketing_429_" d="M126.7,72.6c1.2,0,2.1,1,2.1,2.1c0,1.2-1,2.1-2.1,2.1c-1.2,0-2.1-1-2.1-2.1 C124.6,73.6,125.5,72.6,126.7,72.6z" class="mobile-marketing-1 fill-white"/><path id="mobileMarketing_428_" stroke-miterlimit="10" stroke-width="1.5" d="M126.7,72.6c1.2,0,2.1,1,2.1,2.1c0,1.2-1,2.1-2.1,2.1c-1.2,0-2.1-1-2.1-2.1 C124.6,73.6,125.5,72.6,126.7,72.6z" class="mobile-marketing-2 fill-none stroke-primary"/><path id="mobileMarketing_427_" d="M135.5,67c1.2,0,2.1,1,2.1,2.1c0,1.2-1,2.1-2.1,2.1c-1.2,0-2.1-1-2.1-2.1 C133.4,68,134.4,67,135.5,67z" class="mobile-marketing-1 fill-white"/><path id="mobileMarketing_422_" stroke-miterlimit="10" stroke-width="1.5" d="M135.5,67c1.2,0,2.1,1,2.1,2.1c0,1.2-1,2.1-2.1,2.1c-1.2,0-2.1-1-2.1-2.1 C133.4,68,134.4,67,135.5,67z" class="mobile-marketing-2 fill-none stroke-primary"/><path id="mobileMarketing_421_" d="M135.5,78.4c1.2,0,2.1,1,2.1,2.1c0,1.2-1,2.1-2.1,2.1c-1.2,0-2.1-1-2.1-2.1 C133.4,79.3,134.4,78.4,135.5,78.4z" class="mobile-marketing-1 fill-white"/><path id="mobileMarketing_420_" stroke-miterlimit="10" stroke-width="1.5" d="M135.5,78.4c1.2,0,2.1,1,2.1,2.1c0,1.2-1,2.1-2.1,2.1c-1.2,0-2.1-1-2.1-2.1 C133.4,79.3,134.4,78.4,135.5,78.4z" class="mobile-marketing-2 fill-none stroke-primary"/></g><path id="mobileMarketing_98_" stroke-miterlimit="10" stroke-width="1.5" d="M125.3,90.4v13.5c0,0.4-0.3,0.7-0.7,0.7H89.2c-0.4,0-0.7-0.3-0.7-0.7V80.4	c0-0.4,0.3-0.7,0.7-0.7H116" class="mobile-marketing-2 fill-none stroke-primary"/><g id="mobileMarketing_43_"><line id="mobileMarketing_189_" x1="4.6" x2="168.4" y1="104.6" y2="104.6" stroke-miterlimit="10" stroke-width="1.5" class="mobile-marketing-2 fill-none stroke-primary"/><line id="mobileMarketing_188_" x1="0" x2="2.7" y1="104.6" y2="104.6" stroke-miterlimit="10" stroke-width="1.5" class="mobile-marketing-2 fill-none stroke-primary"/><line id="mobileMarketing_187_" x1="169.9" x2="176" y1="104.6" y2="104.6" stroke-miterlimit="10" stroke-width="1.5" class="mobile-marketing-2 fill-none stroke-primary"/></g><path id="mobileMarketing_452_" d="M78.2,55.7c-6,0.1-10.8,5.1-10.7,11.1c0.1,6,5.1,10.8,11.1,10.7c6-0.1,10.8-5.1,10.7-11.1	C89.2,60.3,84.2,55.5,78.2,55.7z" class="mobile-marketing-1 fill-white" opacity=".2"/><path id="mobileMarketing_451_" stroke-miterlimit="10" stroke-width="1.5" d="M89.2,64.7c-0.9-5.2-5.5-9.1-11-9c-0.9,0-1.8,0.2-2.7,0.4" class="mobile-marketing-3 fill-none stroke-white"/><path id="mobileMarketing_450_" stroke-miterlimit="10" stroke-width="1.5" d="M69.4,60.5c-0.9,1.3-1.5,2.9-1.8,4.6" class="mobile-marketing-3 fill-none stroke-white"/><path id="mobileMarketing_449_" stroke-miterlimit="10" stroke-width="1.5" d="M73.9,56.6c-1.2,0.6-2.3,1.3-3.2,2.3" class="mobile-marketing-3 fill-none stroke-white"/><g id="mobileMarketing_446_"><path id="mobileMarketing_448_" stroke-miterlimit="10" stroke-width="1.5" d="M81.3,62.4h-3.5c-0.7,0-1.3,0.6-1.3,1.3l0,0c0,0.7,0.6,1.3,1.3,1.3h1.4c0.7,0,1.3,0.6,1.3,1.3 l0,0c0,0.7-0.6,1.3-1.3,1.3h-3.6" class="mobile-marketing-3 fill-none stroke-white"/><line id="mobileMarketing_447_" x1="78.4" x2="78.4" y1="60.2" y2="69.9" stroke-miterlimit="10" stroke-width="1.5" class="mobile-marketing-3 fill-none stroke-white"/></g><path id="mobileMarketing_444_" d="M83.3,66.7c0,2.7-2.2,4.9-4.9,4.9c-2.7,0-4.9-2.2-4.9-4.9l-9.7,0.1l0,0.7	c0,0.8,0.7,1.5,1.5,1.5l2.4,0c0.3,1.2,0.8,2.4,1.4,3.4l-1.7,1.7c-0.6,0.6-0.6,1.6,0,2.2l1.2,1.3c0.6,0.6,1.6,0.6,2.2,0l1.7-1.7	c1,0.7,2.2,1.1,3.4,1.4l0,2.4c0,0.8,0.7,1.5,1.5,1.5l1.8,0c0.8,0,1.5-0.7,1.5-1.5l0-2.4c1.2-0.3,2.4-0.8,3.4-1.4l1.7,1.7	c0.6,0.6,1.6,0.6,2.2,0l1.3-1.3c0.6-0.6,0.6-1.6,0-2.2l-1.7-1.7c0.7-1,1.1-2.2,1.4-3.4l2.4,0c0.8,0,1.5-0.7,1.5-1.5v-1L83.3,66.7z" class="mobile-marketing-1 fill-white"/><path id="mobileMarketing_442_" stroke-miterlimit="10" stroke-width="1.5" d="M83.3,66.7c0,2.7-2.2,4.9-4.9,4.9c-2.7,0-4.9-2.2-4.9-4.9l-9.7,0.1l0,0.7	c0,0.8,0.7,1.5,1.5,1.5l2.4,0c0.3,1.2,0.8,2.4,1.4,3.4l-1.7,1.7c-0.6,0.6-0.6,1.6,0,2.2l1.2,1.3c0.6,0.6,1.6,0.6,2.2,0l1.7-1.7	c1,0.7,2.2,1.1,3.4,1.4l0,2.4c0,0.8,0.7,1.5,1.5,1.5l1.8,0c0.8,0,1.5-0.7,1.5-1.5l0-2.4c1.2-0.3,2.4-0.8,3.4-1.4l1.7,1.7	c0.6,0.6,1.6,0.6,2.2,0l1.3-1.3c0.6-0.6,0.6-1.6,0-2.2l-1.7-1.7c0.7-1,1.1-2.2,1.4-3.4l2.4,0c0.8,0,1.5-0.7,1.5-1.5v-1L83.3,66.7z" class="mobile-marketing-2 fill-none stroke-primary"/><line id="mobileMarketing_440_" x1="78.2" x2="78.2" y1="52.4" y2="53.9" stroke-miterlimit="10" stroke-width="1.5" class="mobile-marketing-3 fill-none stroke-white"/><line id="mobileMarketing_439_" x1="83.8" x2="82.5" y1="51.1" y2="54.6" stroke-miterlimit="10" stroke-width="1.5" class="mobile-marketing-3 fill-none stroke-white"/><line id="mobileMarketing_438_" x1="87.5" x2="86.4" y1="55.3" y2="56.7" stroke-miterlimit="10" stroke-width="1.5" class="mobile-marketing-3 fill-none stroke-white"/><line id="mobileMarketing_437_" x1="92.4" x2="89.2" y1="58.2" y2="60" stroke-miterlimit="10" stroke-width="1.5" class="mobile-marketing-3 fill-none stroke-white"/><line id="mobileMarketing_436_" x1="92.6" x2="90.8" y1="63.8" y2="64.1" stroke-miterlimit="10" stroke-width="1.5" class="mobile-marketing-3 fill-none stroke-white"/><line id="mobileMarketing_435_" x1="64.2" x2="66" y1="64.2" y2="64.6" stroke-miterlimit="10" stroke-width="1.5" class="mobile-marketing-3 fill-none stroke-white"/><line id="mobileMarketing_434_" x1="64.2" x2="67.4" y1="58.6" y2="60.4" stroke-miterlimit="10" stroke-width="1.5" class="mobile-marketing-3 fill-none stroke-white"/><line id="mobileMarketing_433_" x1="69.1" x2="70.2" y1="55.7" y2="57" stroke-miterlimit="10" stroke-width="1.5" class="mobile-marketing-3 fill-none stroke-white"/><line id="mobileMarketing_432_" x1="72.7" x2="73.9" y1="51.3" y2="54.8" stroke-miterlimit="10" stroke-width="1.5" class="mobile-marketing-3 fill-none stroke-white"/></svg>