<svg xmlns="http://www.w3.org/2000/svg" xmlns:xlink="http://www.w3.org/1999/xlink" x="0" y="0" viewBox="0 0 204.1 102.4" xml:space="preserve" style="enable-background:new 0 0 204.1 102.4"><style type="text/css">.project-0{fill:#fff}.project-1{fill:none;stroke:#377dff}.project-2{fill:#19a0ff}.project-3{fill:#377dff}</style><g id="project_336_"><g id="project_776_"><path id="project_769_" d="M170.8,44.2l-0.5-2.3c-0.2-1.6-1.7-2.8-3.4-2.6l-34.8,4.5c-1.6,0.2-2.8,1.7-2.6,3.4l6.4,49.1 l39.5-12.1L170.8,44.2z" class="project-0 fill-white"/><path id="project_298_" stroke-miterlimit="10" stroke-width="1.5" d="M170.8,44.2l-0.5-2.3c-0.2-1.6-1.7-2.8-3.4-2.6L143,42.4" class="project-1 fill-none stroke-primary"/><path id="project_297_" d="M140.7,101.6H178c1,0,1.9-0.8,1.9-1.9V48c0-1-0.8-1.9-1.9-1.9h-37.3c-1,0-1.9,0.8-1.9,1.9 v51.7C138.8,100.8,139.7,101.6,140.7,101.6z" class="project-2 fill-primary-lighter" opacity=".3"/><path id="project_296_" stroke-miterlimit="10" stroke-width="1.5" d="M176.6,101.6c1.8,0,3.3-1.5,3.3-3.3V49.5c0-1.8-1.5-3.3-3.3-3.3h-25.7" class="project-1 fill-none stroke-primary"/><line id="project_760_" x1="183.7" x2="176.1" y1="52" y2="52" stroke-miterlimit="10" stroke-width="1.5" class="project-1 fill-none stroke-primary"/><line id="project_759_" x1="183.7" x2="176.1" y1="57.4" y2="57.4" stroke-miterlimit="10" stroke-width="1.5" class="project-1 fill-none stroke-primary"/><line id="project_292_" x1="183.7" x2="176.1" y1="62.7" y2="62.7" stroke-miterlimit="10" stroke-width="1.5" class="project-1 fill-none stroke-primary"/><line id="project_288_" x1="183.7" x2="176.1" y1="68.1" y2="68.1" stroke-miterlimit="10" stroke-width="1.5" class="project-1 fill-none stroke-primary"/><line id="project_763_" x1="183.7" x2="176.1" y1="73.5" y2="73.5" stroke-miterlimit="10" stroke-width="1.5" class="project-1 fill-none stroke-primary"/><line id="project_287_" x1="183.7" x2="176.1" y1="78.8" y2="78.8" stroke-miterlimit="10" stroke-width="1.5" class="project-1 fill-none stroke-primary"/><line id="project_285_" x1="183.7" x2="176.4" y1="84.7" y2="84.7" stroke-miterlimit="10" stroke-width="1.5" class="project-1 fill-none stroke-primary"/><line id="project_282_" x1="183.7" x2="176.4" y1="89.9" y2="89.9" stroke-miterlimit="10" stroke-width="1.5" class="project-1 fill-none stroke-primary"/><line id="project_279_" x1="183.7" x2="176.4" y1="95.1" y2="95.1" stroke-miterlimit="10" stroke-width="1.5" class="project-1 fill-none stroke-primary"/><circle id="project_768_" cx="159.4" cy="68.1" r="9" class="project-0 fill-white"/><circle id="project_771_" cx="159.4" cy="68.1" r="9" stroke-miterlimit="10" stroke-width="1.5" class="project-1 fill-none stroke-primary"/></g><g id="XMLID_567_"><path id="XMLID_261_" stroke-miterlimit="10" stroke-width="1.5" d="M40.7,100.8V26.2c0-0.5,0.4-0.8,0.8-0.8h10.3c0.5,0,0.8,0.4,0.8,0.8v6.3" class="project-1 fill-none stroke-primary"/><line id="XMLID_575_" x1="40.7" x2="46.2" y1="95.4" y2="95.4" stroke-miterlimit="10" stroke-width="1.5" class="project-1 fill-none stroke-primary"/><line id="XMLID_574_" x1="40.7" x2="46.2" y1="87.4" y2="87.4" stroke-miterlimit="10" stroke-width="1.5" class="project-1 fill-none stroke-primary"/><line id="XMLID_573_" x1="40.7" x2="46.2" y1="79.4" y2="79.4" stroke-miterlimit="10" stroke-width="1.5" class="project-1 fill-none stroke-primary"/><line id="XMLID_572_" x1="40.7" x2="46.2" y1="71.3" y2="71.3" stroke-miterlimit="10" stroke-width="1.5" class="project-1 fill-none stroke-primary"/><line id="XMLID_571_" x1="40.7" x2="46.2" y1="63.3" y2="63.3" stroke-miterlimit="10" stroke-width="1.5" class="project-1 fill-none stroke-primary"/><line id="XMLID_570_" x1="40.7" x2="46.2" y1="55.3" y2="55.3" stroke-miterlimit="10" stroke-width="1.5" class="project-1 fill-none stroke-primary"/><line id="XMLID_569_" x1="40.7" x2="46.2" y1="47.3" y2="47.3" stroke-miterlimit="10" stroke-width="1.5" class="project-1 fill-none stroke-primary"/><line id="XMLID_568_" x1="40.7" x2="46.2" y1="39.3" y2="39.3" stroke-miterlimit="10" stroke-width="1.5" class="project-1 fill-none stroke-primary"/><line id="XMLID_258_" x1="40.7" x2="46.2" y1="31.4" y2="31.4" stroke-miterlimit="10" stroke-width="1.5" class="project-1 fill-none stroke-primary"/></g><g id="project_392_"><line id="project_397_" x1="187.2" x2="191.5" y1="42" y2="42" stroke-linecap="round" stroke-miterlimit="10" stroke-width="1.5" class="project-1 fill-none stroke-primary"/><line id="project_396_" x1="189.4" x2="189.4" y1="44.1" y2="39.8" stroke-linecap="round" stroke-miterlimit="10" stroke-width="1.5" class="project-1 fill-none stroke-primary"/></g><g id="project_263_"><line id="project_265_" x1="81.6" x2="85.8" y1="22.2" y2="22.2" stroke-linecap="round" stroke-miterlimit="10" stroke-width="1.5" class="project-1 fill-none stroke-primary"/><line id="project_264_" x1="83.7" x2="83.7" y1="24.4" y2="20.1" stroke-linecap="round" stroke-miterlimit="10" stroke-width="1.5" class="project-1 fill-none stroke-primary"/></g><g id="project_360_"><line id="project_365_" x1="145.5" x2="148.5" y1="11.5" y2="8.5" stroke-linecap="round" stroke-miterlimit="10" stroke-width="1.5" class="project-1 fill-none stroke-primary"/><line id="project_364_" x1="148.5" x2="145.5" y1="11.5" y2="8.5" stroke-linecap="round" stroke-miterlimit="10" stroke-width="1.5" class="project-1 fill-none stroke-primary"/></g><g id="project_266_"><line id="project_272_" x1="9.7" x2="12.8" y1="37.4" y2="34.4" stroke-linecap="round" stroke-miterlimit="10" stroke-width="1.5" class="project-1 fill-none stroke-primary"/><line id="project_269_" x1="12.8" x2="9.7" y1="37.4" y2="34.4" stroke-linecap="round" stroke-miterlimit="10" stroke-width="1.5" class="project-1 fill-none stroke-primary"/></g><line id="project_322_" x1="68.6" x2="98" y1="3.3" y2="3.3" stroke-miterlimit="10" stroke-width="1.5" class="project-1 fill-none stroke-primary"/><line id="project_171_" x1="120.5" x2="149.9" y1="25.4" y2="25.4" stroke-miterlimit="10" stroke-width="1.5" class="project-1 fill-none stroke-primary"/><line id="project_320_" x1="84.4" x2="138.7" y1="10" y2="10" stroke-miterlimit="10" stroke-width="1.5" class="project-1 fill-none stroke-primary"/><line id="project_259_" x1="0" x2="27.5" y1="48" y2="48" stroke-miterlimit="10" stroke-width="1.5" class="project-1 fill-none stroke-primary"/><line id="project_333_" x1="184.7" x2="204.1" y1="48.6" y2="48.6" stroke-miterlimit="10" stroke-width="1.5" class="project-1 fill-none stroke-primary"/><line id="project_318_" x1="103.1" x2="99.5" y1="3.3" y2="3.3" stroke-miterlimit="10" stroke-width="1.5" class="project-1 fill-none stroke-primary"/><path id="project_271_" d="M114.5,34.5c0,0.7-0.6,1.3-1.3,1.3c-0.7,0-1.3-0.6-1.3-1.3s0.6-1.3,1.3-1.3 S114.5,33.8,114.5,34.5z" class="project-3 fill-primary"/><path id="project_278_" d="M25.7,70.2c0,1-0.8,1.8-1.8,1.8s-1.8-0.8-1.8-1.8s0.8-1.8,1.8-1.8 C24.9,68.4,25.7,69.2,25.7,70.2z" class="project-3 fill-primary"/><path id="project_321_" d="M48.5,18c0,1-0.8,1.8-1.8,1.8S44.9,19,44.9,18s0.8-1.8,1.8-1.8S48.5,17,48.5,18z" class="project-3 fill-primary"/><path id="project_325_" d="M193.3,85.4c0,1-0.8,1.8-1.8,1.8s-1.8-0.8-1.8-1.8s0.8-1.8,1.8-1.8S193.3,84.4,193.3,85.4z" class="project-3 fill-primary"/><g id="project_43_"><path id="project_172_" d="M140.6,101.6l-0.3-52.9c0-4-3.6-7.2-8.1-7.2H56.4l0.3,60.2L140.6,101.6z" class="project-0 fill-white"/><path id="project_173_" stroke-miterlimit="10" stroke-width="1.5" d="M140.6,101.6l-0.3-52.9c0-4-3.6-7.2-8.1-7.2H56.4" class="project-1 fill-none stroke-primary"/><path id="project_170_" d="M132.7,101.6h8.5V39.1c0-3.2-2.9-5.9-6.5-5.9h-2V101.6z" class="project-3 fill-primary"/><path id="project_169_" stroke-miterlimit="10" stroke-width="1.5" d="M141.1,47.6v-7.8c0-3.6-2.9-6.5-6.5-6.5h-2v68.3" class="project-1 fill-none stroke-primary"/><path id="project_202_" d="M59.4,101.6h-8.5V39.1c0-3.2,2.9-5.9,6.5-5.9h2V101.6z" class="project-3 fill-primary"/><path id="project_200_" stroke-miterlimit="10" stroke-width="1.5" d="M50.9,101.6V39.8c0-3.6,2.9-6.5,6.5-6.5h2v68.3" class="project-1 fill-none stroke-primary"/><circle id="project_167_" cx="100.7" cy="69" r="15" class="project-2 fill-primary-lighter" opacity=".3"/><g id="project_159_"><g id="project_267_"><circle id="project_268_" cx="93.5" cy="76.2" r="15" stroke-dasharray="2" stroke-miterlimit="10" stroke-width="1.5" class="project-1 fill-none stroke-primary"/></g></g></g><g id="project_145_"><line id="project_154_" x1="21.4" x2="185.3" y1="101.6" y2="101.6" stroke-miterlimit="10" stroke-width="1.5" class="project-1 fill-none stroke-primary"/><line id="project_147_" x1="16.9" x2="19.6" y1="101.6" y2="101.6" stroke-miterlimit="10" stroke-width="1.5" class="project-1 fill-none stroke-primary"/><line id="project_146_" x1="186.8" x2="192.9" y1="101.6" y2="101.6" stroke-miterlimit="10" stroke-width="1.5" class="project-1 fill-none stroke-primary"/></g><path id="project_342_" d="M132.7,101.6L132.7,101.6h8.5v-0.1h0.2l-0.2-44.4v-9.5h0.7v-1.5L88.2,99.9 c-0.4,0.4-0.5,1-0.3,1.6l0.1,0.1h44v0.1L132.7,101.6L132.7,101.6z M108.2,93l29.7-29.7V93H108.2z" class="project-2 fill-primary-lighter" opacity=".2"/><g id="project_229_"><g id="project_203_"><path id="project_206_" d="M149,101.6H91.7c-0.6,0-1-0.8-0.5-1.2l56.6-56.6c0.4-0.4,1.2-0.1,1.2,0.5L149,101.6 L149,101.6z M108.9,93.8h32.2V61.5L108.9,93.8z" class="project-0 fill-white"/></g><g id="project_204_"><path id="project_209_" stroke-miterlimit="10" stroke-width="1.5" d="M149,101.6H91.7c-0.6,0-1-0.8-0.5-1.2l56.6-56.6c0.4-0.4,1.2-0.1,1.2,0.5L149,101.6 L149,101.6z M108.9,93.8h32.2V61.5L108.9,93.8z" class="project-1 fill-none stroke-primary"/></g><line id="project_218_" x1="99.4" x2="99.4" y1="97.8" y2="101.6" stroke-miterlimit="10" stroke-width="1.5" class="project-1 fill-none stroke-primary"/><line id="project_217_" x1="105.6" x2="105.6" y1="97.8" y2="101.6" stroke-miterlimit="10" stroke-width="1.5" class="project-1 fill-none stroke-primary"/><line id="project_220_" x1="111.9" x2="111.9" y1="97.8" y2="101.6" stroke-miterlimit="10" stroke-width="1.5" class="project-1 fill-none stroke-primary"/><line id="project_221_" x1="118.1" x2="118.1" y1="97.8" y2="101.6" stroke-miterlimit="10" stroke-width="1.5" class="project-1 fill-none stroke-primary"/><line id="project_223_" x1="124.3" x2="124.3" y1="97.8" y2="101.6" stroke-miterlimit="10" stroke-width="1.5" class="project-1 fill-none stroke-primary"/><line id="project_224_" x1="130.6" x2="130.6" y1="97.8" y2="101.6" stroke-miterlimit="10" stroke-width="1.5" class="project-1 fill-none stroke-primary"/><line id="project_226_" x1="136.8" x2="136.8" y1="97.8" y2="101.6" stroke-miterlimit="10" stroke-width="1.5" class="project-1 fill-none stroke-primary"/><line id="project_227_" x1="143.1" x2="143.1" y1="97.8" y2="101.6" stroke-miterlimit="10" stroke-width="1.5" class="project-1 fill-none stroke-primary"/><line id="project_249_" x1="145.1" x2="148.9" y1="94.4" y2="94.4" stroke-miterlimit="10" stroke-width="1.5" class="project-1 fill-none stroke-primary"/><line id="project_242_" x1="145.1" x2="148.9" y1="88.2" y2="88.2" stroke-miterlimit="10" stroke-width="1.5" class="project-1 fill-none stroke-primary"/><line id="project_241_" x1="145.1" x2="148.9" y1="82" y2="82" stroke-miterlimit="10" stroke-width="1.5" class="project-1 fill-none stroke-primary"/><line id="project_234_" x1="145.1" x2="148.9" y1="75.7" y2="75.7" stroke-miterlimit="10" stroke-width="1.5" class="project-1 fill-none stroke-primary"/><line id="project_233_" x1="145.1" x2="148.9" y1="69.5" y2="69.5" stroke-miterlimit="10" stroke-width="1.5" class="project-1 fill-none stroke-primary"/><line id="project_232_" x1="145.1" x2="148.9" y1="63.2" y2="63.2" stroke-miterlimit="10" stroke-width="1.5" class="project-1 fill-none stroke-primary"/><line id="project_231_" x1="145.1" x2="148.9" y1="57" y2="57" stroke-miterlimit="10" stroke-width="1.5" class="project-1 fill-none stroke-primary"/><line id="project_230_" x1="145.1" x2="148.9" y1="50.8" y2="50.8" stroke-miterlimit="10" stroke-width="1.5" class="project-1 fill-none stroke-primary"/></g><g id="project_211_"><path id="project_257_" d="M31.1,101.6h4.2c0.3,0,0.6-0.3,0.6-0.6V40c0-0.1,0-0.2-0.1-0.2l-2.1-4.6 c-0.2-0.4-0.8-0.4-1,0l-2.1,4.6c0,0.1-0.1,0.2-0.1,0.2v61C30.5,101.4,30.8,101.6,31.1,101.6z" class="project-0 fill-white"/><rect id="project_270_" width="5.4" height="53.8" x="30.5" y="42" class="project-2 fill-primary-lighter" opacity=".3"/><path id="project_256_" stroke-miterlimit="10" stroke-width="1.5" d="M30.5,101.6h5.4V39.9l-2.4-5.2c-0.1-0.3-0.5-0.3-0.6,0l-2.4,5.2 C30.5,39.9,30.5,101.6,30.5,101.6z" class="project-1 fill-none stroke-primary"/><line id="project_255_" x1="36.1" x2="30.5" y1="42" y2="42" stroke-miterlimit="10" stroke-width="1.5" class="project-1 fill-none stroke-primary"/><line id="project_214_" x1="36.3" x2="30.1" y1="95.8" y2="95.8" stroke-miterlimit="10" stroke-width="1.5" class="project-1 fill-none stroke-primary"/></g></g></svg>