<svg xmlns="http://www.w3.org/2000/svg" xmlns:xlink="http://www.w3.org/1999/xlink" x="0" y="0" viewBox="0 0 187.1 98.9" xml:space="preserve" style="enable-background:new 0 0 187.1 98.9"><style type="text/css">.vault-0{fill:#fff}.vault-1{fill:none;stroke:#377dff}.vault-2{fill:#19a0ff}.vault-3{stroke:#377dff}.vault-3,.vault-4{fill:#ffc107}.vault-5{fill:#5fb0e5}.vault-6{fill:none;stroke:#ffc107}.vault-7{fill:#377dff}</style><g id="vaultID_251_"><path id="vaultID_263_" d="M139.6,98.2H118c-1.1,0-2-0.9-2-2V59.5c0-1.1,0.9-2,2-2h21.6c1.1,0,2,0.9,2,2v36.7 C141.6,97.3,140.7,98.2,139.6,98.2z" class="vault-0 fill-white"/><path id="vaultID_261_" stroke-miterlimit="10" stroke-width="1.5" d="M116,74.4V59.8c0-1.3,1-2.3,2.3-2.3h2.2" class="vault-1 fill-none stroke-primary"/><path id="vaultID_260_" stroke-miterlimit="10" stroke-width="1.5" d="M128.7,57.5h10.6c1.3,0,2.3,1,2.3,2.3v36.1c0,1.3-1,2.3-2.3,2.3" class="vault-1 fill-none stroke-primary"/><line id="vaultID_259_" x1="122.6" x2="126.2" y1="57.5" y2="57.5" stroke-miterlimit="10" stroke-width="1.5" class="vault-1 fill-none stroke-primary"/><line id="vaultID_257_" x1="125" x2="132.6" y1="60.6" y2="60.6" stroke-miterlimit="10" stroke-width="1.5" class="vault-1 fill-none stroke-primary"/><path id="vaultID_256_" stroke-miterlimit="10" stroke-width="1.5" d="M130,94.9c0,0.7-0.5,1.2-1.2,1.2c-0.7,0-1.2-0.5-1.2-1.2c0-0.7,0.5-1.2,1.2-1.2 C129.5,93.6,130,94.2,130,94.9z" class="vault-1 fill-none stroke-primary"/><rect id="vaultID_255_" width="20.4" height="28.8" x="118.6" y="63.4" class="vault-2 fill-primary-lighter" opacity=".5"/></g><path id="vaultID_248_" d="M148.5,98.2h-4.1V16.3c0-1.1,0.9-2,2-2l0,0c1.1,0,2,0.9,2,2V98.2z" class="vault-0 fill-white"/><path id="vaultID_244_" stroke-miterlimit="10" stroke-width="1.5" d="M144.5,98.2V16.1c0-1,0.8-1.9,1.9-1.9h0.3c1,0,1.9,0.8,1.9,1.9v82.1" class="vault-1 fill-none stroke-primary"/><line id="vaultID_243_" x1="132.2" x2="160.8" y1="23.4" y2="23.4" stroke-miterlimit="10" stroke-width="1.5" class="vault-1 fill-none stroke-primary"/><path id="vaultID_242_" d="M150.8,23.1c0,2.4-1.9,4.3-4.3,4.3c-2.4,0-4.3-1.9-4.3-4.3c0-2.4,1.9-4.3,4.3-4.3 C148.9,18.8,150.8,20.7,150.8,23.1z" class="vault-2 fill-primary-lighter"/><path id="vaultID_241_" stroke-miterlimit="10" stroke-width="1.5" d="M150.8,23.1c0,2.4-1.9,4.3-4.3,4.3c-2.4,0-4.3-1.9-4.3-4.3c0-2.4,1.9-4.3,4.3-4.3 C148.9,18.8,150.8,20.7,150.8,23.1z" class="vault-1 fill-none stroke-primary"/><line id="vaultID_240_" x1="163.8" x2="158.3" y1="37.4" y2="22" stroke-miterlimit="10" stroke-width="1.5" class="vault-1 fill-none stroke-primary"/><line id="vaultID_239_" x1="153.8" x2="159.8" y1="37.4" y2="22" stroke-miterlimit="10" stroke-width="1.5" class="vault-1 fill-none stroke-primary"/><path id="vaultID_238_" d="M165.7,36.8c0,3.8-3.1,6.9-6.9,6.9c-3.8,0-6.9-3.1-6.9-6.9H165.7z" class="vault-4 fill-warning" opacity=".5"/><line id="vaultID_237_" x1="129.2" x2="134.7" y1="37.4" y2="22" stroke-miterlimit="10" stroke-width="1.5" class="vault-1 fill-none stroke-primary"/><line id="vaultID_236_" x1="139.2" x2="133.2" y1="37.4" y2="22" stroke-miterlimit="10" stroke-width="1.5" class="vault-1 fill-none stroke-primary"/><path id="vaultID_235_" d="M127.3,36.8c0,3.8,3.1,6.9,6.9,6.9c3.8,0,6.9-3.1,6.9-6.9H127.3z" class="vault-4 fill-warning" opacity=".5"/><path id="vaultID_234_" stroke-miterlimit="10" stroke-width="1.5" d="M165.1,39.8c-0.3,0.5-0.6,1-1,1.5" class="vault-1 fill-none stroke-primary"/><path id="vaultID_233_" stroke-miterlimit="10" stroke-width="1.5" d="M162.8,42.4c-0.6,0.4-1.4,0.8-2.1,1c-0.6,0.2-1.2,0.2-1.8,0.2c-3.8,0-6.9-3.1-6.9-6.9h13.7 c0,0.9-0.2,1.7-0.4,2.4" class="vault-1 fill-none stroke-primary"/><path id="vaultID_232_" stroke-miterlimit="10" stroke-width="1.5" d="M127.3,36.8c0,3.8,3.1,6.9,6.9,6.9c3.8,0,6.9-3.1,6.9-6.9H127.3z" class="vault-1 fill-none stroke-primary"/><path id="vaultID_231_" d="M160.7,23.4c0,1-0.8,1.8-1.8,1.8s-1.8-0.8-1.8-1.8c0-1,0.8-1.8,1.8-1.8S160.7,22.4,160.7,23.4z" class="vault-2 fill-primary-lighter"/><path id="vaultID_230_" stroke-miterlimit="10" stroke-width="1.5" d="M160.7,23.4c0,1-0.8,1.8-1.8,1.8s-1.8-0.8-1.8-1.8c0-1,0.8-1.8,1.8-1.8S160.7,22.4,160.7,23.4z" class="vault-1 fill-none stroke-primary"/><path id="vaultID_229_" d="M136,23.4c0,1-0.8,1.8-1.8,1.8c-1,0-1.8-0.8-1.8-1.8c0-1,0.8-1.8,1.8-1.8 C135.2,21.6,136,22.4,136,23.4z" class="vault-2 fill-primary-lighter"/><path id="vaultID_228_" stroke-miterlimit="10" stroke-width="1.5" d="M136,23.4c0,1-0.8,1.8-1.8,1.8c-1,0-1.8-0.8-1.8-1.8c0-1,0.8-1.8,1.8-1.8 C135.2,21.6,136,22.4,136,23.4z" class="vault-1 fill-none stroke-primary"/><rect id="vaultID_225_" width="29.7" height="48" x="19" y="50.2" class="vault-2 fill-primary-lighter" opacity=".8"/><polyline id="vaultID_224_" stroke-miterlimit="10" stroke-width="1.5" points="19 98.2 19 50.2 42.7 50.2" class="vault-1 fill-none stroke-primary"/><rect id="vaultID_223_" width="25.6" height="41" x="21.1" y="57.2" class="vault-0 fill-white"/><rect id="vaultID_222_" width="25.6" height="41" x="21.1" y="57.2" stroke-miterlimit="10" stroke-width="1.5" class="vault-1 fill-none stroke-primary"/><line id="vaultID_221_" x1="25.3" x2="25.3" y1="57.2" y2="98.2" stroke-miterlimit="10" stroke-width="1.5" class="vault-1 fill-none stroke-primary"/><line id="vaultID_220_" x1="29.5" x2="29.5" y1="57.2" y2="98.2" stroke-miterlimit="10" stroke-width="1.5" class="vault-1 fill-none stroke-primary"/><line id="vaultID_218_" x1="33.8" x2="33.8" y1="57.2" y2="98.2" stroke-miterlimit="10" stroke-width="1.5" class="vault-1 fill-none stroke-primary"/><line id="vaultID_217_" x1="38" x2="38" y1="57.2" y2="98.2" stroke-miterlimit="10" stroke-width="1.5" class="vault-1 fill-none stroke-primary"/><line id="vaultID_216_" x1="42.2" x2="42.2" y1="57.2" y2="98.2" stroke-miterlimit="10" stroke-width="1.5" class="vault-1 fill-none stroke-primary"/><line id="vaultID_215_" x1="21.1" x2="46.7" y1="78.7" y2="78.7" stroke-miterlimit="10" stroke-width="1.5" class="vault-1 fill-none stroke-primary"/><line id="vaultID_214_" x1="21.1" x2="46.7" y1="74.4" y2="74.4" stroke-miterlimit="10" stroke-width="1.5" class="vault-1 fill-none stroke-primary"/><line id="vaultID_213_" x1="21.1" x2="46.7" y1="82.9" y2="82.9" stroke-miterlimit="10" stroke-width="1.5" class="vault-1 fill-none stroke-primary"/><line id="vaultID_212_" x1="21.1" x2="46.7" y1="87.1" y2="87.1" stroke-miterlimit="10" stroke-width="1.5" class="vault-1 fill-none stroke-primary"/><line id="vaultID_211_" x1="21.1" x2="46.7" y1="91.3" y2="91.3" stroke-miterlimit="10" stroke-width="1.5" class="vault-1 fill-none stroke-primary"/><line id="vaultID_210_" x1="21.1" x2="46.7" y1="95.5" y2="95.5" stroke-miterlimit="10" stroke-width="1.5" class="vault-1 fill-none stroke-primary"/><line id="vaultID_209_" x1="21.1" x2="46.7" y1="70.2" y2="70.2" stroke-miterlimit="10" stroke-width="1.5" class="vault-1 fill-none stroke-primary"/><line id="vaultID_207_" x1="21.1" x2="46.7" y1="66" y2="66" stroke-miterlimit="10" stroke-width="1.5" class="vault-1 fill-none stroke-primary"/><line id="vaultID_206_" x1="21.1" x2="46.7" y1="61.8" y2="61.8" stroke-miterlimit="10" stroke-width="1.5" class="vault-1 fill-none stroke-primary"/><rect id="vaultID_202_" width="15.2" height="7" x="48.4" y="12.8" class="vault-2 fill-primary-lighter" opacity=".8"/><rect id="vaultID_201_" width="15.2" height="7" x="48.4" y="12.8" stroke-miterlimit="10" stroke-width="1.5" class="vault-1 fill-none stroke-primary"/><rect id="vaultID_199_" width="21.5" height="80.6" x="45.2" y="17.6" class="vault-0 fill-white"/><rect id="vaultID_198_" width="11.8" height="80.6" x="49.7" y="17.6" class="vault-0 fill-white"/><line id="vaultID_196_" x1="48.4" x2="48.4" y1="0" y2="13.4" stroke-miterlimit="10" stroke-width="1.5" class="vault-1 fill-none stroke-primary"/><line id="vaultID_195_" x1="63.6" x2="63.6" y1="0" y2="13.4" stroke-miterlimit="10" stroke-width="1.5" class="vault-1 fill-none stroke-primary"/><line id="vaultID_194_" x1="55.9" x2="55.9" y1="4" y2="12.7" stroke-miterlimit="10" stroke-width="1.5" class="vault-1 fill-none stroke-primary"/><polyline id="vaultID_193_" stroke-miterlimit="10" stroke-width="1.5" points="45.2 98.2 45.2 17.6 66.7 17.6 66.7 38.3" class="vault-1 fill-none stroke-primary"/><line id="vaultID_192_" x1="49.7" x2="49.7" y1="17.6" y2="97.9" stroke-miterlimit="10" stroke-width="1.5" class="vault-1 fill-none stroke-primary"/><line id="vaultID_190_" x1="61.8" x2="61.8" y1="17.6" y2="39.5" stroke-miterlimit="10" stroke-width="1.5" class="vault-1 fill-none stroke-primary"/><g id="vaultID_186_"><line id="vaultID_188_" x1="6.2" x2="10.5" y1="36.5" y2="36.5" stroke-linecap="round" stroke-miterlimit="10" stroke-width="1.5" class="vault-6 fill-none stroke-warning"/><line id="vaultID_187_" x1="8.3" x2="8.3" y1="38.6" y2="34.4" stroke-linecap="round" stroke-miterlimit="10" stroke-width="1.5" class="vault-6 fill-none stroke-warning"/></g><g id="vaultID_183_"><line id="vaultID_185_" x1="154.7" x2="159" y1="63.9" y2="63.9" stroke-linecap="round" stroke-miterlimit="10" stroke-width="1.5" class="vault-1 fill-none stroke-primary"/><line id="vaultID_184_" x1="156.8" x2="156.8" y1="66.1" y2="61.8" stroke-linecap="round" stroke-miterlimit="10" stroke-width="1.5" class="vault-1 fill-none stroke-primary"/></g><g id="vaultID_180_"><line id="vaultID_182_" x1="99.1" x2="103.4" y1="29.7" y2="29.7" stroke-linecap="round" stroke-miterlimit="10" stroke-width="1.5" class="vault-1 fill-none stroke-primary"/><line id="vaultID_181_" x1="101.3" x2="101.3" y1="31.8" y2="27.6" stroke-linecap="round" stroke-miterlimit="10" stroke-width="1.5" class="vault-1 fill-none stroke-primary"/></g><g id="vaultID_177_"><line id="vaultID_179_" x1="117.9" x2="120.9" y1="19.1" y2="16.1" stroke-linecap="round" stroke-miterlimit="10" stroke-width="1.5" class="vault-1 fill-none stroke-primary"/><line id="vaultID_178_" x1="120.9" x2="117.9" y1="19.1" y2="16.1" stroke-linecap="round" stroke-miterlimit="10" stroke-width="1.5" class="vault-1 fill-none stroke-primary"/></g><g id="vaultID_174_"><line id="vaultID_176_" x1="168.4" x2="171.5" y1="33.7" y2="30.6" stroke-linecap="round" stroke-miterlimit="10" stroke-width="1.5" class="vault-1 fill-none stroke-primary"/><line id="vaultID_175_" x1="171.5" x2="168.4" y1="33.7" y2="30.6" stroke-linecap="round" stroke-miterlimit="10" stroke-width="1.5" class="vault-1 fill-none stroke-primary"/></g><g id="vaultID_171_"><line id="vaultID_173_" x1="10.8" x2="13.8" y1="84.4" y2="81.4" stroke-linecap="round" stroke-miterlimit="10" stroke-width="1.5" class="vault-1 fill-none stroke-primary"/><line id="vaultID_172_" x1="13.8" x2="10.8" y1="84.4" y2="81.4" stroke-linecap="round" stroke-miterlimit="10" stroke-width="1.5" class="vault-1 fill-none stroke-primary"/></g><line id="vaultID_170_" x1="74.1" x2="114.8" y1="17.6" y2="17.6" stroke-miterlimit="10" stroke-width="1.5" class="vault-1 fill-none stroke-primary"/><line id="vaultID_169_" x1="104" x2="144.8" y1="4" y2="4" stroke-miterlimit="10" stroke-width="1.5" class="vault-1 fill-none stroke-primary"/><line id="vaultID_168_" x1="164.6" x2="187.1" y1="63.9" y2="63.9" stroke-miterlimit="10" stroke-width="1.5" class="vault-1 fill-none stroke-primary"/><line id="vaultID_167_" x1="35.9" x2="18.5" y1="36.5" y2="36.5" stroke-miterlimit="10" stroke-width="1.5" class="vault-1 fill-none stroke-primary"/><line id="vaultID_166_" x1="13.5" x2="17" y1="36.5" y2="36.5" stroke-miterlimit="10" stroke-width="1.5" class="vault-1 fill-none stroke-primary"/><path id="vaultID_165_" d="M2.6,49c0,0.7-0.5,1.2-1.2,1.2c-0.7,0-1.2-0.5-1.2-1.2c0-0.7,0.5-1.2,1.2-1.2 C2,47.8,2.6,48.4,2.6,49z" class="vault-7 fill-primary"/><path id="vaultID_164_" d="M90.6,30.9c0,0.7-0.5,1.2-1.2,1.2c-0.7,0-1.2-0.5-1.2-1.2c0-0.7,0.5-1.2,1.2-1.2 C90.1,29.7,90.6,30.3,90.6,30.9z" class="vault-7 fill-primary"/><path id="vaultID_163_" d="M160.2,79.7c0,0.7-0.5,1.2-1.2,1.2c-0.7,0-1.2-0.5-1.2-1.2c0-0.7,0.5-1.2,1.2-1.2 C159.6,78.5,160.2,79.1,160.2,79.7z" class="vault-7 fill-primary"/><path id="vaultID_162_" d="M11.2,73c0,0.4-0.3,0.7-0.7,0.7c-0.4,0-0.7-0.3-0.7-0.7c0-0.4,0.3-0.7,0.7-0.7 C10.9,72.3,11.2,72.6,11.2,73z" class="vault-7 fill-primary"/><path id="vaultID_161_" d="M108.9,12.7c0,0.4-0.3,0.7-0.7,0.7c-0.4,0-0.7-0.3-0.7-0.7c0-0.4,0.3-0.7,0.7-0.7 C108.6,12,108.9,12.3,108.9,12.7z" class="vault-7 fill-primary"/><path id="vaultID_160_" d="M179.6,34.1c0,0.4-0.3,0.7-0.7,0.7c-0.4,0-0.7-0.3-0.7-0.7c0-0.4,0.3-0.7,0.7-0.7 C179.3,33.4,179.6,33.7,179.6,34.1z" class="vault-7 fill-primary"/><path id="vaultID_159_" d="M22.5,14.2c0,0.4-0.3,0.7-0.7,0.7c-0.4,0-0.7-0.3-0.7-0.7c0-0.4,0.3-0.7,0.7-0.7 C22.2,13.5,22.5,13.8,22.5,14.2z" class="vault-7 fill-primary"/><path id="vaultID_158_" d="M65.2,39.3c-6.2,0-11.2,5-11.2,11.2v34.4c0,4.7,2.9,8.7,7,10.3v3h0.5h5.2V39.3H65.2z" class="vault-2 fill-primary-lighter" opacity=".3"/><rect id="vaultID_157_" width="7.2" height="5.5" x="95.3" y="92.7" class="vault-5 fill-primary-lighter"/><rect id="vaultID_156_" width="7.2" height="5.5" x="95.3" y="92.7" stroke-miterlimit="10" stroke-width="1.5" class="vault-1 fill-none stroke-primary"/><rect id="vaultID_155_" width="7.2" height="5.5" x="63.8" y="92.7" class="vault-2 fill-primary-lighter"/><rect id="vaultID_154_" width="7.2" height="5.5" x="63.8" y="92.7" stroke-miterlimit="10" stroke-width="1.5" class="vault-1 fill-none stroke-primary"/><path id="vaultID_153_" d="M101.6,95.3H67.2c-5.8,0-10.4-4.7-10.4-10.4V50.5c0-5.8,4.7-10.4,10.4-10.4h34.4 c5.8,0,10.4,4.7,10.4,10.4v34.4C112,90.6,107.4,95.3,101.6,95.3z" class="vault-0 fill-white"/><path id="vaultID_151_" d="M100.6,90.6H68.2c-3.7,0-6.7-3-6.7-6.7V51.5c0-3.7,3-6.7,6.7-6.7h32.3c3.7,0,6.7,3,6.7,6.7 v32.3C107.3,87.5,104.3,90.6,100.6,90.6z" class="vault-2 fill-primary-lighter" opacity=".15"/><path id="vaultID_150_" stroke-miterlimit="10" stroke-width="1.5" d="M101.1,90.6H67.7c-3.4,0-6.2-2.8-6.2-6.2V51c0-3.4,2.8-6.2,6.2-6.2h33.4c3.4,0,6.2,2.8,6.2,6.2 v33.4C107.3,87.8,104.5,90.6,101.1,90.6z" class="vault-1 fill-none stroke-primary"/><path id="vaultID_149_" stroke-miterlimit="10" stroke-width="1.5" d="M101.6,95.3H67.2c-5.8,0-10.4-4.7-10.4-10.4V50.5c0-5.8,4.7-10.4,10.4-10.4h34.4 c5.8,0,10.4,4.7,10.4,10.4v34.4C112,90.6,107.4,95.3,101.6,95.3z" class="vault-1 fill-none stroke-primary"/><g id="vaultID_146_"><path id="vaultID_148_" d="M107.8,97.9h-11c-0.1,0-0.2-0.1-0.2-0.2v-3.1c0-0.1,0.1-0.2,0.2-0.2h11c0.1,0,0.2,0.1,0.2,0.2 v3.1C108,97.8,107.9,97.9,107.8,97.9z" class="vault-0 fill-white"/><path id="vaultID_147_" stroke-miterlimit="10" stroke-width="1.5" d="M107.8,97.9h-11c-0.1,0-0.2-0.1-0.2-0.2v-3.1c0-0.1,0.1-0.2,0.2-0.2h11c0.1,0,0.2,0.1,0.2,0.2 v3.1C108,97.8,107.9,97.9,107.8,97.9z" class="vault-1 fill-none stroke-primary"/></g><g id="vaultID_143_"><path id="vaultID_145_" d="M106.8,94.3h-11c-0.1,0-0.2-0.1-0.2-0.2v-3.1c0-0.1,0.1-0.2,0.2-0.2h11c0.1,0,0.2,0.1,0.2,0.2 V94C107,94.2,106.9,94.3,106.8,94.3z" class="vault-0 fill-white"/><path id="vaultID_144_" stroke-miterlimit="10" stroke-width="1.5" d="M106.8,94.3h-11c-0.1,0-0.2-0.1-0.2-0.2v-3.1c0-0.1,0.1-0.2,0.2-0.2h11c0.1,0,0.2,0.1,0.2,0.2 V94C107,94.2,106.9,94.3,106.8,94.3z" class="vault-1 fill-none stroke-primary"/></g><g id="vaultID_140_"><path id="vaultID_142_" d="M107.5,90.6h-11c-0.1,0-0.2-0.1-0.2-0.2v-3.1c0-0.1,0.1-0.2,0.2-0.2h11c0.1,0,0.2,0.1,0.2,0.2 v3.1C107.8,90.5,107.6,90.6,107.5,90.6z" class="vault-0 fill-white"/><path id="vaultID_141_" stroke-miterlimit="10" stroke-width="1.5" d="M107.5,90.6h-11c-0.1,0-0.2-0.1-0.2-0.2v-3.1c0-0.1,0.1-0.2,0.2-0.2h11c0.1,0,0.2,0.1,0.2,0.2 v3.1C107.8,90.5,107.6,90.6,107.5,90.6z" class="vault-1 fill-none stroke-primary"/></g><g id="vaultID_137_"><path id="vaultID_139_" d="M107.8,87h-11c-0.1,0-0.2-0.1-0.2-0.2v-3.1c0-0.1,0.1-0.2,0.2-0.2h11c0.1,0,0.2,0.1,0.2,0.2 v3.1C108.1,86.9,108,87,107.8,87z" class="vault-0 fill-white"/><path id="vaultID_138_" stroke-miterlimit="10" stroke-width="1.5" d="M107.8,87h-11c-0.1,0-0.2-0.1-0.2-0.2v-3.1c0-0.1,0.1-0.2,0.2-0.2h11c0.1,0,0.2,0.1,0.2,0.2 v3.1C108.1,86.9,108,87,107.8,87z" class="vault-1 fill-none stroke-primary"/></g><g id="vaultID_134_"><path id="vaultID_136_" d="M105.5,83.4h-11c-0.1,0-0.2-0.1-0.2-0.2V80c0-0.1,0.1-0.2,0.2-0.2h11c0.1,0,0.2,0.1,0.2,0.2 v3.1C105.7,83.2,105.6,83.4,105.5,83.4z" class="vault-0 fill-white"/><path id="vaultID_135_" stroke-miterlimit="10" stroke-width="1.5" d="M105.5,83.4h-11c-0.1,0-0.2-0.1-0.2-0.2V80c0-0.1,0.1-0.2,0.2-0.2h11c0.1,0,0.2,0.1,0.2,0.2 v3.1C105.7,83.2,105.6,83.4,105.5,83.4z" class="vault-1 fill-none stroke-primary"/></g><g id="vaultID_131_"><path id="vaultID_133_" d="M105.8,79.7h-11c-0.1,0-0.2-0.1-0.2-0.2v-3.1c0-0.1,0.1-0.2,0.2-0.2h11c0.1,0,0.2,0.1,0.2,0.2 v3.1C106,79.6,105.9,79.7,105.8,79.7z" class="vault-0 fill-white"/><path id="vaultID_132_" stroke-miterlimit="10" stroke-width="1.5" d="M105.8,79.7h-11c-0.1,0-0.2-0.1-0.2-0.2v-3.1c0-0.1,0.1-0.2,0.2-0.2h11c0.1,0,0.2,0.1,0.2,0.2 v3.1C106,79.6,105.9,79.7,105.8,79.7z" class="vault-1 fill-none stroke-primary"/></g><g id="vaultID_115_"><path id="vaultID_130_" d="M103,76.1H92c-0.1,0-0.2-0.1-0.2-0.2v-3.1c0-0.1,0.1-0.2,0.2-0.2h11c0.1,0,0.2,0.1,0.2,0.2 v3.1C103.3,76,103.1,76.1,103,76.1z" class="vault-0 fill-white"/><path id="vaultID_116_" stroke-miterlimit="10" stroke-width="1.5" d="M103,76.1H92c-0.1,0-0.2-0.1-0.2-0.2v-3.1c0-0.1,0.1-0.2,0.2-0.2h11c0.1,0,0.2,0.1,0.2,0.2 v3.1C103.3,76,103.1,76.1,103,76.1z" class="vault-1 fill-none stroke-primary"/></g><g id="vaultID_109_"><path id="vaultID_112_" d="M120.3,97.9h-11c-0.1,0-0.2-0.1-0.2-0.2v-3.1c0-0.1,0.1-0.2,0.2-0.2h11c0.1,0,0.2,0.1,0.2,0.2 v3.1C120.6,97.8,120.4,97.9,120.3,97.9z" class="vault-0 fill-white"/><path id="vaultID_111_" stroke-miterlimit="10" stroke-width="1.5" d="M120.3,97.9h-11c-0.1,0-0.2-0.1-0.2-0.2v-3.1c0-0.1,0.1-0.2,0.2-0.2h11c0.1,0,0.2,0.1,0.2,0.2 v3.1C120.6,97.8,120.4,97.9,120.3,97.9z" class="vault-1 fill-none stroke-primary"/></g><g id="vaultID_104_"><path id="vaultID_106_" d="M120.3,94.3h-11c-0.1,0-0.2-0.1-0.2-0.2v-3.1c0-0.1,0.1-0.2,0.2-0.2h11c0.1,0,0.2,0.1,0.2,0.2 V94C120.6,94.2,120.4,94.3,120.3,94.3z" class="vault-0 fill-white"/><path id="vaultID_105_" stroke-miterlimit="10" stroke-width="1.5" d="M120.3,94.3h-11c-0.1,0-0.2-0.1-0.2-0.2v-3.1c0-0.1,0.1-0.2,0.2-0.2h11c0.1,0,0.2,0.1,0.2,0.2 V94C120.6,94.2,120.4,94.3,120.3,94.3z" class="vault-1 fill-none stroke-primary"/></g><g id="vaultID_101_"><path id="vaultID_103_" d="M119.4,90.6h-11c-0.1,0-0.2-0.1-0.2-0.2v-3.1c0-0.1,0.1-0.2,0.2-0.2h11c0.1,0,0.2,0.1,0.2,0.2 v3.1C119.7,90.5,119.6,90.6,119.4,90.6z" class="vault-0 fill-white"/><path id="vaultID_102_" stroke-miterlimit="10" stroke-width="1.5" d="M119.4,90.6h-11c-0.1,0-0.2-0.1-0.2-0.2v-3.1c0-0.1,0.1-0.2,0.2-0.2h11c0.1,0,0.2,0.1,0.2,0.2 v3.1C119.7,90.5,119.6,90.6,119.4,90.6z" class="vault-1 fill-none stroke-primary"/></g><g id="vaultID_98_"><path id="vaultID_100_" d="M120.3,87h-11c-0.1,0-0.2-0.1-0.2-0.2v-3.1c0-0.1,0.1-0.2,0.2-0.2h11c0.1,0,0.2,0.1,0.2,0.2 v3.1C120.6,86.9,120.4,87,120.3,87z" class="vault-0 fill-white"/><path id="vaultID_99_" stroke-miterlimit="10" stroke-width="1.5" d="M120.3,87h-11c-0.1,0-0.2-0.1-0.2-0.2v-3.1c0-0.1,0.1-0.2,0.2-0.2h11c0.1,0,0.2,0.1,0.2,0.2 v3.1C120.6,86.9,120.4,87,120.3,87z" class="vault-1 fill-none stroke-primary"/></g><g id="vaultID_95_"><path id="vaultID_97_" d="M119,83.4h-11c-0.1,0-0.2-0.1-0.2-0.2V80c0-0.1,0.1-0.2,0.2-0.2h11c0.1,0,0.2,0.1,0.2,0.2v3.1 C119.2,83.2,119.1,83.4,119,83.4z" class="vault-0 fill-white"/><path id="vaultID_96_" stroke-miterlimit="10" stroke-width="1.5" d="M119,83.4h-11c-0.1,0-0.2-0.1-0.2-0.2V80c0-0.1,0.1-0.2,0.2-0.2h11c0.1,0,0.2,0.1,0.2,0.2v3.1 C119.2,83.2,119.1,83.4,119,83.4z" class="vault-1 fill-none stroke-primary"/></g><g id="vaultID_92_"><path id="vaultID_94_" d="M113.7,79.7l-9.8-5c-0.1-0.1-0.2-0.2-0.1-0.3l1.4-2.8c0.1-0.1,0.2-0.2,0.3-0.1l9.8,5 c0.1,0.1,0.2,0.2,0.1,0.3l-1.4,2.8C114,79.7,113.9,79.8,113.7,79.7z" class="vault-0 fill-white"/><path id="vaultID_93_" stroke-miterlimit="10" stroke-width="1.5" d="M113.7,79.7l-9.8-5c-0.1-0.1-0.2-0.2-0.1-0.3l1.4-2.8c0.1-0.1,0.2-0.2,0.3-0.1l9.8,5 c0.1,0.1,0.2,0.2,0.1,0.3l-1.4,2.8C114,79.7,113.9,79.8,113.7,79.7z" class="vault-1 fill-none stroke-primary"/></g><path id="vaultID_91_" d="M94.1,85.8l-21.9-1.9c-2-0.2-3.7-1.7-3.7-3.3V53.2c0-1.6,1.6-3.1,3.7-3.3l21.9-1.9 c2.6-0.2,4.8,1.1,4.8,3v31.8C98.9,84.6,96.7,86,94.1,85.8z" class="vault-2 fill-primary-lighter"/><path id="vaultID_90_" stroke-miterlimit="10" stroke-width="1.5" d="M94.1,85.8l-21.9-1.9c-2-0.2-3.7-1.7-3.7-3.3V53.2c0-1.6,1.6-3.1,3.7-3.3l21.9-1.9 c2.6-0.2,4.8,1.1,4.8,3v31.8C98.9,84.6,96.7,86,94.1,85.8z" class="vault-1 fill-none stroke-primary"/><path id="vaultID_89_" d="M89.7,93.8L67.8,91c-2-0.3-3.7-2.3-3.7-4.6V47.7c0-2.3,1.6-4.4,3.7-4.6l21.9-2.7 c2.6-0.3,4.8,1.6,4.8,4.3v44.9C94.5,92.2,92.3,94.1,89.7,93.8z" class="vault-2 fill-primary-lighter"/><path id="vaultID_87_" stroke-miterlimit="10" stroke-width="1.5" d="M89.7,93.8L67.8,91c-2-0.3-3.7-2.3-3.7-4.6V47.7c0-2.3,1.6-4.4,3.7-4.6l21.9-2.7 c2.6-0.3,4.8,1.6,4.8,4.3v44.9C94.5,92.2,92.3,94.1,89.7,93.8z" class="vault-1 fill-none stroke-primary"/><path id="vaultID_86_" d="M87.1,93.8L65.2,91c-2-0.3-3.7-2.3-3.7-4.6V47.7c0-2.3,1.6-4.4,3.7-4.6l21.9-2.7 c2.6-0.3,4.8,1.6,4.8,4.3v44.9C91.9,92.2,89.7,94.1,87.1,93.8z" class="vault-2 fill-primary-lighter"/><path id="vaultID_85_" d="M91.9,89.5v-38L61.5,81.8v4.5c0,2.3,1.6,4.4,3.7,4.6l21.9,2.7C89.7,94.1,91.9,92.2,91.9,89.5z" class="vault-0 fill-white"/><path id="vaultID_84_" stroke-miterlimit="10" stroke-width="1.5" d="M87.1,93.8L65.2,91c-2-0.3-3.7-2.3-3.7-4.6V47.7c0-2.3,1.6-4.4,3.7-4.6l21.9-2.7 c2.6-0.3,4.8,1.6,4.8,4.3v44.9C91.9,92.2,89.7,94.1,87.1,93.8z" class="vault-1 fill-none stroke-primary"/><g id="vaultID_79_"><path id="vaultID_82_" d="M62.3,58.8h-1.4c-0.5,0-0.9-0.4-0.9-0.9v-5.8c0-0.5,0.4-0.9,0.9-0.9h1.4c0.5,0,0.9,0.4,0.9,0.9 V58C63.1,58.4,62.7,58.8,62.3,58.8z" class="vault-0 fill-white"/><path id="vaultID_81_" d="M62.7,51.3h-1.2v7.5h1.2c0.2,0,0.4-0.3,0.4-0.6v-6.3C63.1,51.6,62.9,51.3,62.7,51.3z" class="vault-2 fill-gray-200"/><path id="vaultID_80_" stroke-miterlimit="10" stroke-width="1.5" d="M62.3,58.8h-1.4c-0.5,0-0.9-0.4-0.9-0.9v-5.8c0-0.5,0.4-0.9,0.9-0.9h1.4c0.5,0,0.9,0.4,0.9,0.9 V58C63.1,58.4,62.7,58.8,62.3,58.8z" class="vault-1 fill-none stroke-primary"/></g><g id="vaultID_73_"><path id="vaultID_76_" d="M62.3,81.6h-1.4c-0.5,0-0.9-0.4-0.9-0.9V75c0-0.5,0.4-0.9,0.9-0.9h1.4c0.5,0,0.9,0.4,0.9,0.9 v5.8C63.1,81.3,62.7,81.6,62.3,81.6z" class="vault-0 fill-white"/><path id="vaultID_75_" d="M62.7,74.1h-1.2v7.5h1.2c0.2,0,0.4-0.3,0.4-0.6v-6.3C63.1,74.4,62.9,74.1,62.7,74.1z" class="vault-2 fill-gray-200"/><path id="vaultID_74_" stroke-miterlimit="10" stroke-width="1.5" d="M62.3,81.6h-1.4c-0.5,0-0.9-0.4-0.9-0.9V75c0-0.5,0.4-0.9,0.9-0.9h1.4c0.5,0,0.9,0.4,0.9,0.9 v5.8C63.1,81.3,62.7,81.6,62.3,81.6z" class="vault-1 fill-none stroke-primary"/></g><path id="vaultID_72_" d="M80.9,67c0,3.3-2.5,5.5-5,5c-2-0.5-3.4-2.6-3.4-5c0-2.3,1.4-4.5,3.4-5 C78.5,61.5,80.9,63.7,80.9,67z" class="vault-2 fill-primary-lighter"/><path id="vaultID_71_" stroke-miterlimit="10" stroke-width="1.5" d="M80.9,67c0,3.3-2.5,5.5-5,5c-2-0.5-3.4-2.6-3.4-5c0-2.3,1.4-4.5,3.4-5 C78.5,61.5,80.9,63.7,80.9,67z" class="vault-1 fill-none stroke-primary"/><path id="vaultID_70_" d="M79.6,67c0-2.2-1.2-3.8-2.7-4v0h-1.3v0.3c-1.1,0.6-1.8,2.1-1.8,3.7c0,1.6,0.8,3.1,1.8,3.7V71 h1.3v0C78.4,70.8,79.6,69.2,79.6,67z" class="vault-2 fill-primary-lighter"/><path id="vaultID_68_" stroke-miterlimit="10" stroke-width="1.5" d="M77.8,67c0,2.2-1.5,3.7-3.2,3.6C73.1,70.4,72,68.8,72,67c0-1.8,1.1-3.4,2.7-3.6 C76.3,63.3,77.8,64.9,77.8,67z" class="vault-3 fill-warning stroke-primary"/><g id="vaultID_15_"><path id="vaultID_58_" d="M116.9,86.6c-2,3.9-0.4,8.7,3.5,10.7c3.9,2,8.7,0.4,10.7-3.5c2-3.9,0.4-8.7-3.5-10.7 C123.7,81.1,118.9,82.7,116.9,86.6z" class="vault-0 fill-white"/><path id="vaultID_55_" stroke-miterlimit="10" stroke-width="1.5" d="M132,89.8c0.1,1.5-0.2,2.9-1,4.3c-2.1,3.8-7,5.2-10.8,3.1c-3.8-2.1-5.2-7-3.1-10.8 c2.1-3.8,7-5.2,10.8-3.1c0.7,0.4,1.4,0.9,2,1.5" class="vault-1 fill-none stroke-primary"/><path id="vaultID_52_" stroke-miterlimit="10" stroke-width="1.5" d="M130.8,86c0.3,0.5,0.6,1.1,0.8,1.7" class="vault-1 fill-none stroke-primary"/><g id="vaultID_43_"><path id="vaultID_47_" stroke-miterlimit="10" stroke-width="1.5" d="M127.2,87.2h-3.9c-0.8,0-1.5,0.7-1.5,1.5l0,0c0,0.8,0.7,1.5,1.5,1.5h1.6 c0.8,0,1.5,0.7,1.5,1.5l0,0c0,0.8-0.7,1.5-1.5,1.5h-4.1" class="vault-1 fill-none stroke-primary"/><line id="vaultID_46_" x1="124" x2="124" y1="84.7" y2="95.7" stroke-miterlimit="10" stroke-width="1.5" class="vault-1 fill-none stroke-primary"/></g></g><g id="vaultID_1_"><line id="vaultID_10_" x1="0" x2="2.7" y1="98.2" y2="98.2" stroke-miterlimit="10" stroke-width="1.5" class="vault-1 fill-none stroke-primary"/><line id="vaultID_6_" x1="169.9" x2="176" y1="98.2" y2="98.2" stroke-miterlimit="10" stroke-width="1.5" class="vault-1 fill-none stroke-primary"/><line id="vaultID_2_" x1="4.6" x2="168.4" y1="98.2" y2="98.2" stroke-miterlimit="10" stroke-width="1.5" class="vault-1 fill-none stroke-primary"/></g></svg>