<svg xmlns="http://www.w3.org/2000/svg" xmlns:xlink="http://www.w3.org/1999/xlink" x="0" y="0" viewBox="0 0 440.6 228.1" xml:space="preserve" style="enable-background:new 0 0 440.6 228.1"><style type="text/css">.business-analysis-0{opacity:.15}.business-analysis-1,.business-analysis-2{opacity:.5;fill:#377dff}.business-analysis-3{fill:#00c9a7}.business-analysis-4{fill:none;stroke:#1e2022;stroke-miterlimit:10}.business-analysis-5{fill:#4d5068}.business-analysis-6{fill:#ffc107}.business-analysis-7{fill:#377dff}.business-analysis-8{fill:#196eff}.business-analysis-9{fill:#f4d076}.business-analysis-10{fill:#de4437}.business-analysis-11{fill:#19a0ff}.business-analysis-12{fill:#fcd991}.business-analysis-13{fill:#efa02e}.business-analysis-14{fill:#1e2022}.business-analysis-15{fill:#fff}.business-analysis-16{fill:#191c3c}.business-analysis-17{fill:#ffe8bf}.business-analysis-18{opacity:.35}.business-analysis-19{fill:#bfd1dd}.business-analysis-20{fill:none;stroke:#196eff;stroke-width:.75;stroke-miterlimit:10}.business-analysis-21{fill:#e7eaf3}.business-analysis-23{fill:#f6f9fc}.business-analysis-24{opacity:.3;fill:#191c3c}.business-analysis-25{opacity:.5;fill:#f4e1b8;fill-opacity:.6}.business-analysis-26{opacity:.4;fill:#191c3c}.business-analysis-27{fill:#e2c076}.business-analysis-28{fill:#e6b255}.business-analysis-29{fill:#dbb361}.business-analysis-30{fill:#efdcb4}.business-analysis-31{opacity:.3}.business-analysis-32{fill:#717386}.business-analysis-33{fill:none;stroke:#191c3c;stroke-width:.5;stroke-miterlimit:10}.business-analysis-34{opacity:.18}.business-analysis-35{fill:#3e4154}.business-analysis-36{fill:#f5f7f9}.business-analysis-37{opacity:.2}.business-analysis-38{fill:#fec55e}.business-analysis-39{fill:#093a66}.business-analysis-40{fill:#ddab52}.business-analysis-41{fill:#f8fafd}.business-analysis-42{fill:none}.business-analysis-43{fill:#679df4}.business-analysis-44{opacity:.1;fill:#231f20}.business-analysis-45{opacity:.1}.business-analysis-46{fill:#231f20}.business-analysis-47{opacity:.2;fill:#231f20}.business-analysis-48{fill:#f2d188}.business-analysis-49{opacity:.3;fill:#231f20}.business-analysis-50{fill:#f7de9f}.business-analysis-51{fill:#fedc9e}.business-analysis-52{fill:#1b1d1f}.business-analysis-53{fill:#434c51}.business-analysis-54{fill:#212121}</style><g class="business-analysis-0"><ellipse cx="426.6" cy="146.7" class="business-analysis-1 fill-primary" opacity=".5" rx="10.4" ry="10.4"/><path d="M287.7,17.2c0,7.5-6.1,13.5-13.5,13.5c-7.5,0-13.5-6.1-13.5-13.5c0-7.5,6.1-13.5,13.5-13.5 C281.6,3.6,287.7,9.7,287.7,17.2z" class="business-analysis-1 fill-primary" opacity=".5"/><path d="M101.8,34.4c0,3.8-3.1,6.9-6.9,6.9S88,38.2,88,34.4s3.1-6.9,6.9-6.9S101.8,30.6,101.8,34.4z" class="business-analysis-1 fill-primary" opacity=".5"/><path d="M344.1,47.5c0,3.8-3.1,6.9-6.9,6.9s-6.9-3.1-6.9-6.9c0-3.8,3.1-6.9,6.9-6.9S344.1,43.7,344.1,47.5z" class="business-analysis-1 fill-primary" opacity=".5"/><circle cx="179.8" cy="6.9" r="6.9" class="business-analysis-1 fill-primary" opacity=".5"/><path d="M439.8,176.9c0,1.6-1.3,2.8-2.8,2.8c-1.6,0-2.8-1.3-2.8-2.8c0-1.6,1.3-2.8,2.8-2.8 C438.6,174,439.8,175.3,439.8,176.9z" class="business-analysis-1 fill-primary" opacity=".5"/><path d="M329.9,22.7c0,1.2-1,2.1-2.1,2.1c-1.2,0-2.1-1-2.1-2.1c0-1.2,1-2.1,2.1-2.1S329.9,21.5,329.9,22.7z" class="business-analysis-1 fill-primary" opacity=".5"/><circle cx="122.1" cy="6.9" r="2.8" class="business-analysis-1 fill-primary" opacity=".5"/><path d="M25.9,67c0,2-1.6,3.7-3.7,3.7c-2,0-3.7-1.6-3.7-3.7c0-2,1.6-3.7,3.7-3.7C24.2,63.4,25.9,65,25.9,67z" class="business-analysis-1 fill-primary" opacity=".5"/><path d="M433.9,101.9c0,2-1.6,3.7-3.7,3.7c-2,0-3.7-1.6-3.7-3.7c0-2,1.6-3.7,3.7-3.7 C432.3,98.2,433.9,99.9,433.9,101.9z" class="business-analysis-1 fill-primary" opacity=".5"/><ellipse cx="58.8" cy="55.5" class="business-analysis-1 fill-primary" opacity=".5" rx="15.6" ry="15.6"/><path d="M12,183.3c0,2-1.6,3.7-3.7,3.7c-2,0-3.7-1.6-3.7-3.7s1.6-3.7,3.7-3.7C10.3,179.6,12,181.3,12,183.3z" class="business-analysis-1 fill-primary" opacity=".5"/><circle cx="406.7" cy="47.5" r="15.1" class="business-analysis-1 fill-primary" opacity=".5"/><ellipse cx="12" cy="115.2" class="business-analysis-1 fill-primary" opacity=".5" rx="12" ry="12"/><path d="M424.6,227.4c0-28.2-6-55.1-16.8-79.3c3.9-8.1,6.1-17.1,6.1-26.7c0-34-27.5-61.5-61.5-61.5 c-6.4,0-12.5,1-18.3,2.8C303.9,43.5,268,32.3,229.5,32.3c-4.8,0-9.6,0.2-14.3,0.5c-8.4-6.3-18.9-10.1-30.2-10.1 c-21.4,0-39.7,13.4-46.9,32.3c-14.8,7.9-28.5,17.6-40.7,28.8c-4-0.9-8.1-1.4-12.4-1.4c-30.8,0-55.7,24.9-55.7,55.7 c0,13.4,4.7,25.7,12.6,35.3c-4.9,17.1-7.6,35.2-7.6,53.9L424.6,227.4L424.6,227.4z" class="business-analysis-2 fill-primary" opacity=".5"/><path d="M370.1,227c0-78.3-63.4-141.7-141.7-141.7S86.7,148.7,86.7,227H370.1z" class="business-analysis-2 fill-primary" opacity=".5"/></g><g><g><g><path d="M376.8,140.3c-0.1,0-0.2,0.1-0.2,0.1c-2.6,1.2-4,1-6.5-0.1c-2.3-1.1-4.6-2.3-6.5-4c-2.4-2.1-4.3-5.1-4.7-8.3 c-0.1-0.7-0.1-1.5,0.3-2.1c0.6-0.8,1.8-0.9,2.7-0.6c0.9,0.4,1.7,1.1,2.4,1.8c0.3,0.3,0.7,0.6,1.1,0.7s0.9,0,1.1-0.4 c0.3-0.6-0.2-1.3-0.8-1.7c-1.2-1-2.3-1.6-3.6-2.5c-1.6-1.1-3.1-2.5-3.9-4.2c-0.9-1.7-1.1-3.9-0.2-5.6c0.3-0.5,0.7-1,1.2-1.3 c0.9-0.6,2-0.5,3.1-0.3c1,0.2,2,0.6,3.1,0.7c2.5,0.3,3.4-1.5,3.4-3.8c0-1.5-0.5-3-0.6-4.5c-0.2-2.7,1.2-5.5,3.6-6.7 c2.4-1.1,5.8,0,6.7,2.5c0.9,2.8-1.2,5.9,0.2,8.5c0.5,0.9,1.5,2,2.3,2.5c1.4,0.8,3.3-0.1,4.9-0.1c0.4,0,0.7,0.1,1,0.3 c0.2,0.2,0.3,0.4,0.3,0.7c0.4,1.9-0.3,4-1.8,5.3c-1.6,1.5-4.5,2.2-5.2,4.6c-0.4,1.4-0.2,5,2.1,4.7c0.9-0.1,1.4-1,2.3-1.3 c1-0.3,2.2,0.3,2.7,1.3s0.3,2.1-0.1,3.1c-0.6,1.6-1.8,2.9-3,4.1C381.6,136.3,380,138.7,376.8,140.3z" class="business-analysis-3"/></g><line x1="373.4" x2="373.4" y1="106.8" y2="184.8" class="business-analysis-4"/><polyline points="379.9 116.5 373.4 123 366.9 116.5" class="business-analysis-4"/><polyline points="379.9 129.6 373.4 136.1 366.9 129.6" class="business-analysis-4"/></g><g><g><path d="M54.2,200.7c-0.1,0-0.1,0.1-0.2,0.1c-1.9,0.9-2.8,0.7-4.6-0.1c-1.7-0.8-3.3-1.7-4.7-2.9 c-1.7-1.5-3.1-3.6-3.4-5.9c-0.1-0.5-0.1-1.1,0.2-1.5c0.4-0.6,1.3-0.7,2-0.4s1.2,0.8,1.7,1.3c0.2,0.2,0.5,0.4,0.8,0.5 s0.7,0,0.8-0.3c0.2-0.4-0.2-0.9-0.5-1.2c-0.9-0.7-1.7-1.1-2.6-1.8c-1.1-0.8-2.2-1.8-2.8-3s-0.8-2.8-0.1-4 c0.2-0.4,0.5-0.7,0.8-0.9c0.6-0.4,1.5-0.4,2.2-0.2s1.4,0.4,2.2,0.5c1.8,0.2,2.5-1.1,2.4-2.7c0-1.1-0.4-2.2-0.4-3.2 c-0.1-1.9,0.8-4,2.6-4.8c1.7-0.8,4.2,0,4.8,1.8c0.7,2-0.9,4.2,0.2,6.1c0.3,0.6,1.1,1.5,1.7,1.8c1,0.6,2.4-0.1,3.5-0.1 c0.3,0,0.5,0,0.7,0.2c0.1,0.1,0.2,0.3,0.2,0.5c0.3,1.4-0.2,2.9-1.3,3.8c-1.2,1.1-3.2,1.6-3.7,3.3c-0.3,1-0.2,3.6,1.5,3.4 c0.6-0.1,1-0.7,1.6-0.9c0.7-0.2,1.6,0.2,1.9,0.9c0.3,0.7,0.2,1.5-0.1,2.3c-0.5,1.1-1.3,2-2.2,2.9 C57.7,197.8,56.5,199.5,54.2,200.7z" class="business-analysis-3"/></g><line x1="51.7" x2="51.7" y1="176.6" y2="227" class="business-analysis-4"/><polyline points="56.4 183.6 51.7 188.2 47.1 183.6" class="business-analysis-4"/><polyline points="56.4 192.9 51.7 197.6 47.1 192.9" class="business-analysis-4"/></g><g><g><path d="M184.8,113.4c-0.1,0.1-0.3,0.1-0.4,0.2c-4,1.9-6.1,1.6-10-0.2c-3.6-1.7-7-3.6-10-6.2 c-3.8-3.3-6.7-7.8-7.3-12.8c-0.1-1.1-0.1-2.3,0.5-3.2c0.9-1.2,2.8-1.4,4.2-0.9c1.4,0.6,2.6,1.7,3.7,2.7c0.5,0.4,1,0.9,1.6,1 c0.6,0.2,1.4,0,1.7-0.6c0.5-0.9-0.4-2-1.2-2.6c-1.9-1.6-3.6-2.4-5.6-3.8c-2.5-1.7-4.7-3.8-6.1-6.5c-1.3-2.7-1.6-6-0.2-8.7 c0.4-0.8,1-1.5,1.8-2c1.4-0.9,3.1-0.8,4.7-0.5c1.6,0.3,3.1,0.9,4.7,1.1c3.8,0.4,5.3-2.3,5.2-5.8c-0.1-2.3-0.8-4.6-0.9-7 c-0.2-4.1,1.8-8.5,5.5-10.3s9-0.1,10.3,3.8c1.5,4.3-1.9,9,0.3,13.1c0.7,1.3,2.3,3.1,3.6,3.9c2.1,1.3,5.1-0.2,7.5-0.1 c0.5,0,1.1,0.1,1.5,0.5c0.3,0.3,0.4,0.7,0.5,1.1c0.6,3-0.5,6.2-2.7,8.2c-2.5,2.3-6.9,3.5-7.9,7c-0.7,2.2-0.4,7.8,3.2,7.2 c1.3-0.2,2.2-1.5,3.5-2c1.6-0.5,3.4,0.5,4.1,2c0.7,1.5,0.5,3.3-0.1,4.9c-1,2.4-2.8,4.4-4.7,6.3 C192.2,107.3,189.7,111,184.8,113.4z" class="business-analysis-3"/></g><line x1="179.5" x2="179.5" y1="61.7" y2="156.7" class="business-analysis-4"/><polyline points="189.5 76.7 179.5 86.7 169.5 76.7" class="business-analysis-4"/><polyline points="189.5 96.8 179.5 106.9 169.5 96.8" class="business-analysis-4"/></g><g><path d="M440.6,227.6h-25c0-2.1-1.7-3.8-3.8-3.8c-2.1,0-3.8,1.7-3.8,3.8" class="business-analysis-4"/><path d="M409.8,224.3c0-2.1-1.7-3.8-3.8-3.8s-3.8,1.7-3.8,3.8" class="business-analysis-4"/></g><g><path d="M10,227.6h25c0-2.1,1.7-3.8,3.8-3.8s3.8,1.7,3.8,3.8" class="business-analysis-4"/><path d="M40.9,224.3c0-2.1,1.7-3.8,3.8-3.8s3.8,1.7,3.8,3.8" class="business-analysis-4"/></g><g id="XMLID_957_"><rect id="XMLID_980_" width="2.7" height="5.2" x="396" y="185.9" class="business-analysis-5"/><rect id="XMLID_979_" width="5.2" height="37.6" x="394.8" y="190" class="business-analysis-6"/><path id="XMLID_976_" d="M397.4,157.3c-8.9,0-16.1,7.2-16.1,16.1c0,8.9,7.2,16.1,16.1,16.1s16.1-7.2,16.1-16.1 C413.4,164.5,406.2,157.3,397.4,157.3z M397.4,186c-7,0-12.7-5.7-12.7-12.7s5.7-12.7,12.7-12.7s12.7,5.7,12.7,12.7 C410,180.3,404.3,186,397.4,186z" class="business-analysis-7 fill-primary"/><path id="XMLID_973_" d="M410.1,173.3c0-7-5.7-12.8-12.8-12.8c-7,0-12.8,5.7-12.8,12.8c0,7,5.7,12.8,12.8,12.8 S410.1,180.3,410.1,173.3z M397.4,184.8c-6.4,0-11.5-5.2-11.5-11.5c0-6.4,5.2-11.5,11.5-11.5c6.4,0,11.5,5.2,11.5,11.5 C408.9,179.7,403.7,184.8,397.4,184.8z" class="business-analysis-8 fill-primary-darker"/><rect id="XMLID_972_" width="2.7" height="37.6" x="394.7" y="190" class="business-analysis-9"/><g id="XMLID_959_"><path id="XMLID_1021_" d="M404.3,167.3l-6.4,6.4l0,0v9.1c2.3,0,4.6-0.9,6.4-2.6l0,0 C407.9,176.6,407.9,170.8,404.3,167.3z" class="business-analysis-6"/><path id="XMLID_1020_" d="M397.3,163.4c-2.3,0-4.6,0.9-6.4,2.6l6.4,6.4l0,0l6.4-6.4 C401.9,164.3,399.6,163.4,397.3,163.4z" class="business-analysis-10"/><path id="XMLID_1019_" d="M396.7,173.7L396.7,173.7l-6.4-6.4l0,0c-3.5,3.5-3.5,9.3,0,12.8c1.8,1.8,4.1,2.6,6.4,2.7 V173.7z" class="business-analysis-7 fill-primary"/></g></g></g><g><g id="XMLID_404_"><path id="XMLID_433_" d="M72.7,227.6h-5.1V132c0-1.4,1.1-2.5,2.5-2.5l0,0c1.4,0,2.5,1.1,2.5,2.5L72.7,227.6 L72.7,227.6z" class="business-analysis-7 fill-primary"/><path id="XMLID_432_" d="M70.2,129.5c-1.4,0-2.5,1.1-2.5,2.5v95.5h2.6L70.2,129.5C70.3,129.5,70.2,129.5,70.2,129.5z" class="business-analysis-11 fill-primary-lighter"/><g id="XMLID_430_"><rect id="XMLID_431_" width="35.5" height="3.8" x="52.5" y="138.9" class="business-analysis-7 fill-primary"/></g><path id="XMLID_429_" d="M75.6,140.5c0,2.9-2.4,5.3-5.3,5.3s-5.3-2.4-5.3-5.3s2.4-5.3,5.3-5.3S75.6,137.5,75.6,140.5z" class="business-analysis-6"/><path id="XMLID_428_" d="M73.1,140.5c0,1.6-1.3,2.9-2.9,2.9s-2.9-1.3-2.9-2.9s1.3-2.9,2.9-2.9 C71.8,137.6,73.1,138.9,73.1,140.5z" class="business-analysis-12"/><path id="XMLID_427_" d="M68,141.1c0-1.6,1.3-2.9,2.9-2.9c0.6,0,1.2,0.2,1.7,0.5c-0.5-0.7-1.4-1.2-2.3-1.2 c-1.6,0-2.9,1.3-2.9,2.9c0,1,0.5,1.8,1.2,2.3C68.2,142.3,68,141.8,68,141.1z" class="business-analysis-13"/><g id="XMLID_425_"><rect id="XMLID_426_" width="1.7" height="20.3" x="87.4" y="138.5" class="business-analysis-14" transform="matrix(0.9414 -0.3373 0.3373 0.9414 -44.968 38.4751)"/></g><g id="XMLID_423_"><rect id="XMLID_424_" width="20.5" height="1.7" x="72.8" y="147.8" class="business-analysis-14" transform="matrix(0.362 -0.9322 0.9322 0.362 -85.5675 172.221)"/></g><path id="XMLID_422_" d="M94.1,157.5c0,4.7-3.8,8.5-8.5,8.5s-8.5-3.8-8.5-8.5H94.1z" class="business-analysis-6"/><path id="XMLID_421_" d="M78.8,157.5h-1.7c0,4.7,3.8,8.5,8.5,8.5c0.3,0,0.6,0,0.9,0 C82.1,165.5,78.8,161.9,78.8,157.5z" class="business-analysis-13"/><g id="XMLID_419_"><rect id="XMLID_420_" width="20.3" height="1.7" x="41.9" y="147.8" class="business-analysis-14" transform="matrix(0.3372 -0.9414 0.9414 0.3372 -105.4285 147.5782)"/></g><g id="XMLID_417_"><rect id="XMLID_418_" width="1.7" height="20.5" x="56.6" y="138.4" class="business-analysis-14" transform="matrix(0.9321 -0.3622 0.3622 0.9321 -49.9391 30.9011)"/></g><path id="XMLID_416_" d="M46.4,157.5c0,4.7,3.8,8.5,8.5,8.5s8.5-3.8,8.5-8.5H46.4z" class="business-analysis-6"/><path id="XMLID_415_" d="M61.7,157.5c0,4.4-3.4,8-7.7,8.5c0.3,0,0.6,0,0.9,0c4.7,0,8.5-3.8,8.5-8.5H61.7z" class="business-analysis-13"/><path id="XMLID_414_" d="M87.8,140.8c0,1.2-1,2.2-2.2,2.2s-2.2-1-2.2-2.2s1-2.2,2.2-2.2S87.8,139.6,87.8,140.8z" class="business-analysis-6"/><g id="XMLID_410_"><path id="XMLID_411_" d="M85.6,143.9c-1.7,0-3.1-1.4-3.1-3.1c0-1.7,1.4-3.1,3.1-3.1s3.1,1.4,3.1,3.1 S87.3,143.9,85.6,143.9z M85.6,139.4c-0.8,0-1.4,0.6-1.4,1.4c0,0.8,0.6,1.4,1.4,1.4s1.4-0.6,1.4-1.4S86.4,139.4,85.6,139.4z" class="business-analysis-14"/></g><path id="XMLID_409_" d="M57.1,140.8c0,1.2-1,2.2-2.2,2.2s-2.2-1-2.2-2.2s1-2.2,2.2-2.2S57.1,139.6,57.1,140.8z" class="business-analysis-6"/><g id="XMLID_405_"><path id="XMLID_406_" d="M54.9,143.9c-1.7,0-3.1-1.4-3.1-3.1c0-1.7,1.4-3.1,3.1-3.1c1.7,0,3.1,1.4,3.1,3.1 S56.6,143.9,54.9,143.9z M54.9,139.4c-0.8,0-1.4,0.6-1.4,1.4c0,0.8,0.6,1.4,1.4,1.4s1.4-0.6,1.4-1.4 C56.3,140,55.7,139.4,54.9,139.4z" class="business-analysis-14"/></g></g><g id="XMLID_384_"><path id="XMLID_403_" d="M108.8,227.6H82.4c-0.6,0-1.1-0.5-1.1-1.1v-36.8c0-0.6,0.5-1.1,1.1-1.1h26.3 c0.6,0,1.1,0.5,1.1,1.1v36.8C109.8,227.2,109.4,227.6,108.8,227.6z" class="business-analysis-7 fill-primary"/><rect id="XMLID_402_" width="24.4" height="6.7" x="83.4" y="192.2" class="business-analysis-6"/><path id="XMLID_401_" d="M87.6,206H84c-0.3,0-0.6-0.3-0.6-0.6v-3.7c0-0.3,0.3-0.6,0.6-0.6h3.7c0.3,0,0.6,0.3,0.6,0.6 v3.7C88.2,205.8,88,206,87.6,206z" class="business-analysis-15"/><path id="XMLID_400_" d="M94.1,206h-3.7c-0.3,0-0.6-0.3-0.6-0.6v-3.7c0-0.3,0.3-0.6,0.6-0.6h3.7 c0.3,0,0.6,0.3,0.6,0.6v3.7C94.7,205.8,94.5,206,94.1,206z" class="business-analysis-15"/><path id="XMLID_399_" d="M100.7,206H97c-0.3,0-0.6-0.3-0.6-0.6v-3.7c0-0.3,0.3-0.6,0.6-0.6h3.7 c0.3,0,0.6,0.3,0.6,0.6v3.7C101.2,205.8,101,206,100.7,206z" class="business-analysis-15"/><path id="XMLID_398_" d="M107.2,206h-3.7c-0.3,0-0.6-0.3-0.6-0.6v-3.7c0-0.3,0.3-0.6,0.6-0.6h3.7 c0.3,0,0.6,0.3,0.6,0.6v3.7C107.7,205.8,107.5,206,107.2,206z" class="business-analysis-15"/><path id="XMLID_397_" d="M87.6,212.4H84c-0.3,0-0.6-0.3-0.6-0.6v-3.7c0-0.3,0.3-0.6,0.6-0.6h3.7 c0.3,0,0.6,0.3,0.6,0.6v3.7C88.2,212.2,88,212.4,87.6,212.4z" class="business-analysis-15"/><path id="XMLID_396_" d="M94.1,212.4h-3.7c-0.3,0-0.6-0.3-0.6-0.6v-3.7c0-0.3,0.3-0.6,0.6-0.6h3.7 c0.3,0,0.6,0.3,0.6,0.6v3.7C94.7,212.2,94.5,212.4,94.1,212.4z" class="business-analysis-15"/><path id="XMLID_395_" d="M100.7,212.4H97c-0.3,0-0.6-0.3-0.6-0.6v-3.7c0-0.3,0.3-0.6,0.6-0.6h3.7 c0.3,0,0.6,0.3,0.6,0.6v3.7C101.2,212.2,101,212.4,100.7,212.4z" class="business-analysis-15"/><path id="XMLID_394_" d="M107.2,212.4h-3.7c-0.3,0-0.6-0.3-0.6-0.6v-3.7c0-0.3,0.3-0.6,0.6-0.6h3.7 c0.3,0,0.6,0.3,0.6,0.6v3.7C107.7,212.2,107.5,212.4,107.2,212.4z" class="business-analysis-15"/><path id="XMLID_393_" d="M87.9,225.2h-4.2c-0.2,0-0.3-0.1-0.3-0.3v-10.6c0-0.2,0.1-0.3,0.3-0.3h4.2 c0.2,0,0.3,0.1,0.3,0.3v10.6C88.2,225,88.1,225.2,87.9,225.2z" class="business-analysis-16"/><path id="XMLID_392_" d="M94.1,218.8h-3.7c-0.3,0-0.6-0.3-0.6-0.6v-3.7c0-0.3,0.3-0.6,0.6-0.6h3.7 c0.3,0,0.6,0.3,0.6,0.6v3.7C94.7,218.5,94.5,218.8,94.1,218.8z" class="business-analysis-15"/><path id="XMLID_391_" d="M100.7,218.8H97c-0.3,0-0.6-0.3-0.6-0.6v-3.7c0-0.3,0.3-0.6,0.6-0.6h3.7 c0.3,0,0.6,0.3,0.6,0.6v3.7C101.2,218.5,101,218.8,100.7,218.8z" class="business-analysis-15"/><path id="XMLID_390_" d="M107.2,218.8h-3.7c-0.3,0-0.6-0.3-0.6-0.6v-3.7c0-0.3,0.3-0.6,0.6-0.6h3.7 c0.3,0,0.6,0.3,0.6,0.6v3.7C107.7,218.5,107.5,218.8,107.2,218.8z" class="business-analysis-15"/><path id="XMLID_389_" d="M94.1,225.2h-3.7c-0.3,0-0.6-0.3-0.6-0.6v-3.7c0-0.3,0.3-0.6,0.6-0.6h3.7 c0.3,0,0.6,0.3,0.6,0.6v3.7C94.7,224.9,94.5,225.2,94.1,225.2z" class="business-analysis-15"/><path id="XMLID_388_" d="M100.7,225.2H97c-0.3,0-0.6-0.3-0.6-0.6v-3.7c0-0.3,0.3-0.6,0.6-0.6h3.7 c0.3,0,0.6,0.3,0.6,0.6v3.7C101.2,224.9,101,225.2,100.7,225.2z" class="business-analysis-15"/><path id="XMLID_387_" d="M107.2,225.2h-3.7c-0.3,0-0.6-0.3-0.6-0.6v-3.7c0-0.3,0.3-0.6,0.6-0.6h3.7 c0.3,0,0.6,0.3,0.6,0.6v3.7C107.7,224.9,107.5,225.2,107.2,225.2z" class="business-analysis-15"/><polygon id="XMLID_386_" points="88.8 192.2 83.5 192.2 90.2 198.9 95.5 198.9" class="business-analysis-17"/><polygon id="XMLID_385_" points="100.5 198.9 93.9 192.2 90.9 192.2 97.5 198.9" class="business-analysis-17"/></g><g id="XMLID_1605_"><g id="XMLID_1611_"><g id="XMLID_1612_"><path id="XMLID_1613_" d="M374.5,179.5l7.6,7.4v40.7H346v-45c0-1.7,1.4-3.1,3.1-3.1L374.5,179.5L374.5,179.5z" class="business-analysis-15"/></g></g><g id="XMLID_1617_" class="business-analysis-18"><g id="XMLID_1618_"><polygon id="XMLID_1619_" points="374.9 186.1 382.1 194.4 382.1 186.9" class="business-analysis-19"/></g></g><g id="XMLID_1614_"><g id="XMLID_1615_"><path id="XMLID_1616_" d="M374.5,179.5l7.6,7.4h-5.6c-1.1,0-2-0.9-2-2V179.5z" class="business-analysis-7 fill-primary"/></g></g><rect id="XMLID_961_" width="27.3" height="33.1" x="350.4" y="191.1" class="business-analysis-7 fill-primary"/><rect id="XMLID_964_" width="6.8" height="33.1" x="350.4" y="191.1" class="business-analysis-15"/><rect id="XMLID_963_" width="27.3" height="6.1" x="350.4" y="191.1" class="business-analysis-19"/><path id="XMLID_966_" d="M351.2,224.3h25.7c0.4,0,0.8-0.4,0.8-0.8V192c0-0.4-0.4-0.8-0.8-0.8h-25.7 c-0.4,0-0.8,0.4-0.8,0.8v31.5C350.4,223.9,350.8,224.3,351.2,224.3z" class="business-analysis-20 stroke-primary-darker"/><line id="XMLID_970_" x1="350.4" x2="377.7" y1="197.2" y2="197.2" class="business-analysis-20 stroke-primary-darker"/><line id="XMLID_967_" x1="350.4" x2="377.7" y1="200.6" y2="200.6" class="business-analysis-20 stroke-primary-darker"/><line id="XMLID_999_" x1="357.2" x2="357.2" y1="224.3" y2="197.2" class="business-analysis-20 stroke-primary-darker"/><line id="XMLID_981_" x1="350.4" x2="377.7" y1="204" y2="204" class="business-analysis-20 stroke-primary-darker"/><line id="XMLID_982_" x1="350.4" x2="377.7" y1="207.4" y2="207.4" class="business-analysis-20 stroke-primary-darker"/><line id="XMLID_984_" x1="350.4" x2="377.7" y1="210.8" y2="210.8" class="business-analysis-20 stroke-primary-darker"/><line id="XMLID_985_" x1="350.4" x2="377.7" y1="214.1" y2="214.1" class="business-analysis-20 stroke-primary-darker"/><line id="XMLID_986_" x1="350.5" x2="377.7" y1="217.5" y2="217.5" class="business-analysis-20 stroke-primary-darker"/><line id="XMLID_995_" x1="350.5" x2="377.7" y1="220.9" y2="220.9" class="business-analysis-20 stroke-primary-darker"/><path id="XMLID_997_" d="M362.8,189.6h-11.4c-0.6,0-1-0.5-1-1l0,0c0-0.6,0.5-1,1-1h11.4c0.6,0,1,0.5,1,1l0,0 C363.9,189.1,363.4,189.6,362.8,189.6z" class="business-analysis-21"/></g></g><g><g id="XMLID_330_"><g id="XMLID_347_"><path id="XMLID_802_" d="M309.2,214H132.9V104.5c0-0.7,0.6-1.3,1.3-1.3h173.7c0.7,0,1.3,0.6,1.3,1.3L309.2,214 L309.2,214z" class="business-analysis-1 fill-primary"/><rect id="XMLID_799_" width="158.2" height="91.9" x="142" y="113.2" class="business-analysis-11 fill-primary-lighter"/><path id="XMLID_362_" d="M319.5,218.9H122.7l0,0c5.6,5.6,13.2,8.7,21.1,8.7h154.6 C306.3,227.6,313.8,224.5,319.5,218.9L319.5,218.9z" class="business-analysis-21"/><rect id="XMLID_361_" width="196.8" height="5.5" x="122.7" y="213.4" class="business-analysis-23"/><path id="XMLID_360_" d="M233.2,217.7h-24.4c-0.8,0-1.5-0.7-1.5-1.5l0,0c0-0.8,0.7-1.5,1.5-1.5h24.4 c0.8,0,1.5,0.7,1.5,1.5l0,0C234.7,217,234.1,217.7,233.2,217.7z" class="business-analysis-21"/></g><g id="XMLID_311_"><polygon id="XMLID_781_" points="142 205 142 178.1 156.9 172.7 156.9 205" class="business-analysis-15"/><polygon id="XMLID_832_" points="156.9 205 156.9 172.7 171.7 169.9 171.7 205" class="business-analysis-6"/><polygon id="XMLID_846_" points="186.6 205 186.6 163 201.5 159.4 201.5 205" class="business-analysis-6"/><polygon id="XMLID_848_" points="216.4 205 216.4 146.2 231.3 149.7 231.3 205" class="business-analysis-6"/><polygon id="XMLID_866_" points="246.9 205 246.9 134 261.7 149.7 261.7 205" class="business-analysis-6"/><polygon id="XMLID_883_" points="277.4 205 277.4 154.7 292.2 149.7 292.2 205" class="business-analysis-6"/><polygon id="XMLID_833_" points="171.7 205 171.7 169.9 186.6 163 186.6 205" class="business-analysis-15"/><polygon id="XMLID_847_" points="201.5 205 201.5 159.4 216.4 146.4 216.4 205" class="business-analysis-15"/><polygon id="XMLID_850_" points="231.2 205 231.2 149.9 246.9 134.1 246.9 205" class="business-analysis-15"/><polygon id="XMLID_881_" points="261.7 205 261.7 149.9 277.4 154.8 277.4 205" class="business-analysis-15"/><polygon id="XMLID_884_" points="292.2 205 292.2 149.9 300.2 154.8 300.2 205" class="business-analysis-15"/></g><path id="XMLID_333_" d="M216.7,103.2c0.1,0.1,0.1,0.2,0.2,0.4c4.8,7.6,11.5,12.6,18.8,15.4l9.7,14.2 c0.9,1.4,2.9,1.4,3.9,0l8.7-12.6c9.4-2.1,18.1-7.7,24-17c0.1-0.1,0.1-0.2,0.2-0.3L216.7,103.2L216.7,103.2z" class="business-analysis-24"/><g id="XMLID_864_"><path id="XMLID_854_" d="M245.5,128.5l-9.7-14.2c-7.4-2.8-14-7.9-18.8-15.4c-8.1-12.8-7.8-29.7,0.8-42.1 c15.6-22.4,48.2-22.3,63.6,0.3c8.5,12.4,8.7,29.1,0.7,41.8c-5.9,9.3-14.6,14.9-24,17l-8.7,12.6 C248.4,129.9,246.4,129.9,245.5,128.5z" class="business-analysis-6"/><path id="XMLID_871_" d="M268.8,59.2c10.8,10.8,10.8,28.2,0,39s-28.2,10.8-39,0s-10.8-28.2,0-39 C240.6,48.4,258.1,48.4,268.8,59.2z" class="business-analysis-25"/></g><g id="XMLID_346_"><g id="XMLID_344_"><path id="XMLID_363_" d="M242.2,94.1c-0.3,0-0.6-0.1-0.9-0.2c-0.9-0.5-1.2-1.6-0.7-2.5L256,64.2 c0.5-0.9,1.6-1.2,2.5-0.7s1.2,1.6,0.7,2.5l-15.4,27.1C243.4,93.7,242.8,94.1,242.2,94.1z" class="business-analysis-15"/></g><g id="XMLID_343_"><path id="XMLID_354_" d="M239.2,81.9c-3.6,0-6.6-3.6-6.6-8s3-8,6.6-8s6.6,3.6,6.6,8S242.9,81.9,239.2,81.9z M239.2,69.4c-1.7,0-3.1,2.1-3.1,4.5s1.4,4.5,3.1,4.5c1.7,0,3.1-2.1,3.1-4.5S240.9,69.4,239.2,69.4z" class="business-analysis-15"/></g><g id="XMLID_345_"><path id="XMLID_350_" d="M259.4,92.2c-3.6,0-6.6-3.6-6.6-8s3-8,6.6-8s6.6,3.6,6.6,8S263.1,92.2,259.4,92.2z M259.4,79.7c-1.7,0-3.1,2.1-3.1,4.5s1.4,4.5,3.1,4.5s3.1-2.1,3.1-4.5C262.5,81.8,261.1,79.7,259.4,79.7z" class="business-analysis-15"/></g></g></g></g><g><g><path d="M282.9,83.3c-0.1,0.8,0.2,1.6,0.8,2.1l3,2.5c0.8-3.1,1.2-6.2,1.2-9.4h-3.1c-0.5,0-0.9,0.2-1.1,0.6 c-0.2-0.2-0.5-0.3-0.8-0.3c-0.6,0-1,0.4-1.1,1l-21-9.4l-0.9,2.1L283,82.9L282.9,83.3z" class="business-analysis-26"/><path d="M309.2,111.1v-6.7c0-0.6-0.5-1.2-1.2-1.2h-14l2.8,6.3c0.2,0.4,0.5,0.6,0.9,0.7 C299.3,110.4,304.3,111.3,309.2,111.1z" class="business-analysis-26"/></g><g><path d="M286.3,80.9h-2.2v-1.4c0-0.6,0.5-1.1,1.1-1.1l0,0c0.6,0,1.1,0.5,1.1,1.1V80.9z" class="business-analysis-27"/><rect width="2.3" height="34.3" x="277.2" y="60.9" class="business-analysis-16" transform="matrix(0.407 -0.9134 0.9134 0.407 93.7597 300.5165)"/><rect width="4.2" height="11.6" x="293.7" y="87.6" class="business-analysis-27" transform="matrix(0.8991 -0.4377 0.4377 0.8991 -11.0469 138.8944)"/><g><path d="M347.5,96.5c0.3-1.4,1.2-2.9,0.7-4.2c-0.4-1.1-1.6-1.8-2.4-2.6c-1.4-1.5-1.9-3.6-1.9-5.6c0-1,0.1-2-0.1-2.9 c-0.4-2-1.9-3.5-2.9-5.2c-0.4-0.6-0.7-1.2-1.2-1.7c-0.6-0.5-1.3-0.8-2-1c-1.6-0.5-3.2-1.1-4.8-1.5c-0.8-0.2-1.6-0.5-2.4-0.2 c-0.6,0.2-1,0.7-1.4,1.2c-0.8,0.9-1.7,1.9-2.5,2.8c-0.7,0.4-1.2,1.1-1.4,1.8c-0.3,1.2,0,2.4,0.2,3.6s0.4,2.5-0.1,3.6 s-1.7,1.9-1.9,3.1c-0.3,1.2,0.4,2.3,1,3.3c1.1,1.8,2,3.8,1.6,5.8c-0.2,1.2-1,2.3-1.1,3.5c-0.2,1.4,0.5,2.8,1.6,3.6 c0.7,0.5,1.5,0.8,1.8,1.5c0.2,0.6,0,1.2,0.1,1.8c0.2,1.3,1.6,2,2.9,1.9s2.4-0.8,3.5-1.5s2.2-1.4,3.5-1.4c2.5-0.1,4.8,2.1,7.1,1.3 c1.9-0.7,2.5-3.1,2.3-5C347.7,100.5,347.1,98.5,347.5,96.5z" class="business-analysis-28"/></g><rect width="10" height="11.6" x="332.2" y="93.6" class="business-analysis-29"/><rect width="5.1" height="11.6" x="333.7" y="87.7" class="business-analysis-27"/><polygon points="338.8 90.6 333.7 93.1 333.7 87.7 338.8 87.7" class="business-analysis-26"/><path d="M331.3,91.9c-1.8,0.9-4.9-1.9-4.8-6.4c0-0.2-2.2-0.4-2.1-0.6c2.4-3.2,2.7-9.3,4.1-10.7 c3.1-3.1,15.9,0,15.9,0v7.5C344.4,88.5,331.3,91.9,331.3,91.9z" class="business-analysis-30"/><path d="M329.2,189.5c0,0,5,17.4,5.8,25.5l5.6-2c0,0-1.8-7.9-0.7-15.8L329.2,189.5z" class="business-analysis-27"/><path d="M335.1,215l-5.1,8.1l-8.4,2.2v0.8l8.4,1.5c0,0,2.7,0,3-0.7l6.4-6.1h1v6.1h1.3c0,0-0.8-5,0-6 c0,0,2-2.8,0.5-7.3l-1.5-0.7L335.1,215z" class="business-analysis-16"/><path d="M330.5,194.2l9.1,8.4c0-1.7,0.1-3.6,0.4-5.4l-10.8-7.8C329.2,189.5,329.8,191.4,330.5,194.2z" class="business-analysis-24"/><polygon points="323.4 185.7 347 207.5 349.8 202.6 337.2 185.7" class="business-analysis-27"/><path d="M347,207.5l5,11.2l-2.3,5.5l1,2.8l5.3-7.5c0,0,1.2-2.2,0-5.1l-1.5-5.6c0,0-0.7-1.2,0.7-0.8 c1.3,0.3,4.8,2.8,4.8,2.8v-1.3l-3.6-3.1l-2-2.9c0,0-3.3-2-4.5-0.8L347,207.5z" class="business-analysis-16"/><path d="M342.8,144.2c0,0,2.8,8.6,0,15.3c-1.6,3.7-1.9,8.4-2.1,12.3c-0.3,3.8-0.2,9.7,0.5,13.4c0.4,2.5,0.6,2.8-2.2,3 c-1.9,0.1-3.9-0.2-5.7-1c-0.6-0.2-1.1-0.5-1.7-0.5c-0.7,0-1.4,0.3-2.1,0.5c-1.7,0.6-3.6,0.6-5.3,0.1c-0.6-0.2-1.2-0.4-1.8-0.5 c-1.9-0.3-3.6,1.4-5.3,1.1c-1.5-0.2-1.2-0.7-0.9-2.1c0.4-2.3,0.9-6.5,1.4-8.8c0.8-4.1,2.3-8.8,2.1-13v-19.2c0,0-0.9-4.7-1.6-6.8 L342.8,144.2z" class="business-analysis-5"/><g class="business-analysis-31"><path d="M317.7,185.7c0.4-2.3,1.4-6.5,1.9-8.8c0.7-3.8,1.6-8.1,1.6-12c0-1.2,0.1-2.3,0.3-3.5l2.2-16.7 c0,0-3.3-4.1-4-6.4l-1.6-0.4c0.7,2.1,1.6,6.8,1.6,6.8v19.2c0.2,4.2-1.3,9-2.1,13c-0.4,2.3-1,6.5-1.4,8.8 c-0.2,1.4-0.6,1.9,0.9,2.1c0.4,0,0.7,0,1.1-0.1C317.2,187.5,317.5,187,317.7,185.7z" class="business-analysis-32"/></g><path d="M342.8,144.2l-24.2-6.2l-0.4,0.8c0.4,1.4,0.8,3.4,1.2,5.1c3.8,2.3,11.8,5.8,24.3,4.5 C343.4,145.9,342.8,144.2,342.8,144.2z" class="business-analysis-24"/><path d="M332.1,93.7l-4.2-0.1c-1,0-1.9,0.3-2.7,0.9l-5.9,4.4c-0.5,0.3-1,0.6-1.5,0.7l-10.6,2.8 c-0.7,0.2-1.5-0.1-1.9-0.7l-7.8-11.1l-5.1,3.5l6.7,14.9c0.2,0.4,0.5,0.6,0.9,0.7c2.8,0.6,14.8,2.6,20.5-1.6l-0.3,19.5 c0,0.6-0.1,1.2-0.4,1.8l-3.8,8.9c0,0,8.6,8.3,26.9,6v-6.6l7.8-35.8l-7-6.6l-10,3.5L332.1,93.7z" class="business-analysis-5"/><path d="M320.5,106c-6.5,4.8-20.4,2.3-20.4,2.3L292.5,94l6.7,14.9c0.2,0.4,0.5,0.6,0.9,0.7 c2.8,0.6,14.7,2.6,20.4-1.6V106z" class="business-analysis-26"/><polygon points="342.2 102.8 345.3 126.2 350.6 101.7" class="business-analysis-24"/><line x1="328.8" x2="335.4" y1="80.4" y2="80.4" class="business-analysis-33"/><line x1="327.4" x2="326.3" y1="80.4" y2="80.4" class="business-analysis-33"/><path d="M328.8,80.4c0,1.7-0.3,3-0.7,3s-0.7-1.4-0.7-3c0-1.7,0.3-3,0.7-3S328.8,78.7,328.8,80.4z" class="business-analysis-33"/><g class="business-analysis-34"><g><path d="M342.7,145.6c0.6,2.6,0,5.4-1.6,7.5c-0.7,0.9-1.6,1.7-2.4,2.7c-1.2,1.5-2,3.2-2.8,5c-0.9,1.9-1.7,4-1.3,6 c0.3,1.2,1,2.2,1.5,3.3c1.2,2.5,1.3,5.5,0.3,8.1c-0.7,1.8-1.8,3.4-2.6,5.2c-0.5,1.2-0.7,2.6-0.5,3.9c1.8,0.7,3.7,1,5.6,0.9 c2.8-0.1,2.6-0.5,2.2-3c-0.6-3.8-0.7-9.6-0.5-13.4c0.3-3.9,0.6-8.6,2.1-12.3c2.3-5.4,0.9-12.1,0.2-14.4 C342.9,145.2,342.8,145.4,342.7,145.6z" class="business-analysis-16"/></g><g><path d="M342.7,146.7l0.1-1C342.6,146,342.6,146.3,342.7,146.7z" class="business-analysis-16"/></g><g><path d="M342.7,145.7L342.7,145.7c0-0.1,0-0.1,0-0.2V145.7z" class="business-analysis-16"/></g></g><path d="M295.5,87.9v-5.3c0-0.5-0.2-1-0.5-1.4l-1.6-2c-0.5-0.7-1.4-1.1-2.2-1.1h-4.1c-0.7,0-1.4,0.5-1.4,1.3 l-0.4,3.5c-0.1,0.8,0.2,1.6,0.8,2.1l5.7,4.8L295.5,87.9z" class="business-analysis-27"/><polygon points="342.8 137.6 344.5 129.9 327.8 129.4 327.8 134.6 342.8 137.9" class="business-analysis-24"/><path d="M337.5,104c0,0-8.6,11.1-12.4,27.6c0,0,1.4-25.5,3.9-31.3l1.6-2.9l3,1.1l4.6,0.9L337.5,104z" class="business-analysis-10"/><path d="M325.2,131.7c0,0,9.2-20.5,11.2-21.1l0.8,1.3l0.6-4.8l1,2l4.9-14C343.7,95.1,329.2,112.7,325.2,131.7z" class="business-analysis-35"/><path d="M323.6,133.8c0,0,3.6-22.2,2.3-23.7l-1.4,0.6l2.2-4.3l-2,1.1l6.2-12.6C331,94.8,329.9,113.1,323.6,133.8z" class="business-analysis-35"/><polygon points="332.1 95.2 329.1 98.1 329.1 101.9 330.6 98.4 332.1 102.9 335.5 101.4 337.3 105.9 343.7 95.1 342.8 92.9 333.7 100.1 332.9 95.7" class="business-analysis-24"/><polygon points="332.1 93.7 329.1 96.6 329.1 100.4 330.6 98.4 332.1 101.4 335.5 101.4 337.5 104 343.7 95.1 342.8 91.4 333.7 98.6 332.9 94.3" class="business-analysis-36"/><path d="M324.4,132.1c0,0-1,10.6,1.9,11.2c0,0-6.6-2.6-7.1-2.9C318.6,140.1,323.1,139.8,324.4,132.1z" class="business-analysis-10"/><g><path d="M319.6,140.4c-0.5-0.3,2.9-0.6,4.6-5.9c0-1.5,0.1-2.5,0.1-2.5c-1.3,7.7-5.8,8-5.2,8.4 C319.6,140.7,319.6,140.4,319.6,140.4z" class="business-analysis-35"/></g><rect width="4.2" height="11.6" x="328.9" y="125.9" class="business-analysis-27" transform="matrix(0.1059 -0.9944 0.9944 0.1059 165.0722 446.8948)"/><path d="M327.8,128l19.7,0.6l-5.3-24.8c-0.6-2.5,1.1-4.9,3.6-5.3l0,0c2.4-0.4,4.7,1.2,5.1,3.6l4.8,29.4 c0.5,3.4-2.3,6.4-5.7,6.1l-22.3-3.4L327.8,128L327.8,128z" class="business-analysis-5"/><g class="business-analysis-31"><path d="M347.2,128.6l-19.4-0.6v0.5c0,0,18.4,3.1,20.9,2.1c0.6-0.3-2-0.7-2-0.8c0-0.2,2.2,0.2,2.1,0 C348.4,129.1,347.2,128.6,347.2,128.6z" class="business-analysis-32"/></g><path d="M326.3,129.1c0-0.2-0.9-1.4-1.1-1.6s-0.4-0.3-0.5-0.5c-0.5-0.4-1.1-0.6-1.7-0.6c-0.6,0.1-1.1,0.2-1.7,0.1 c-0.8-0.1-1.5-0.5-2.4-0.4c-0.4,0.1-0.8,0.4-0.7,0.8c0,0.5,0.6,0.8,0.5,1.3c0,0.3-0.4,0.6-0.5,0.9c-0.1,0.4,0.4,0.8,0.3,1.3 c0,0.4-0.4,0.7-0.5,1c-0.2,0.4-0.1,0.8,0.1,1.1s0.5,0.6,0.8,0.8c0.9,0.5,1.7,0.5,2.7,0.5c0.9,0,1.8-0.4,2.8-0.3 c0.7,0,1.3-0.5,1.4-1.2c0.1-0.5,0.1-0.2,0.2-0.7C326.2,130.6,326.2,130.1,326.3,129.1z" class="business-analysis-27"/><g class="business-analysis-37"><g><path d="M355.7,131.5l-3.3-20.3c-0.1,0.7-0.3,1.4-0.5,2.1c-0.3,0.8-0.7,1.7-0.9,2.6c-0.1,0.9,0.1,1.8,0.3,2.7 c0.5,2.1,1,4.3,2,6.2c0.2,0.5,0.5,1,0.5,1.5s-0.3,1-0.5,1.4c-1.1,2.4-0.7,5.3,1,7.3c0.1,0.2,0.3,0.3,0.4,0.5 C355.6,134.4,356,133,355.7,131.5z" class="business-analysis-16"/></g></g><path d="M353.3,103.5c-1.7-2-2.7-4.6-2.9-7.2c-0.2-2.7,1.5-5.5,0.7-8.2c-0.6-2-2.5-3.2-3.3-5.1 c-0.8-1.8-0.3-3.9-0.6-5.8c-0.9-6.7-9.4-7.6-14.8-6.7c-1.6,0.3-5.6,0.9-6.3,2.9c-0.9,2.6,3.2,3.8,5,2.9c0.5-0.3,1-0.7,1.6-0.9 c0.8-0.3,1.7-0.1,2.3,0.5c0.6,0.6,0.9,1.5,0.7,2.3c-0.1,0.5-0.4,0.9-0.4,1.4c-0.1,1.2,1.5,1.9,2.7,1.9c0.4,0,0.7,0,1,0.2 c0.2,0.2,0.3,0.4,0.3,0.6c1.1,3.4-1.4,5.6,1.4,8.4c2,1.9,6.5,5.4,4.6,8.6c-0.4,0.6-1,1.1-1.1,1.8c-0.2,1,0.7,1.8,1.6,2.4 c0.9,0.5,1.9,1,2.3,1.9c0.4,1,0,2.1,0,3.1c-0.2,3.2,1.9,3.5,3.8,5.2c1.4,1.2,1.8,3.8,1.6,5.5c0,0.3,0,0.6,0.3,0.7 c0.1,0,0.2,0,0.3-0.1c0.6-0.4,1.3-0.8,1.8-1.3s0.8-1.3,0.7-2c-0.1-0.5-0.3-0.9-0.5-1.4c-0.4-1.5,0.8-3,1-4.6 C357.6,107.3,355,105.6,353.3,103.5z" class="business-analysis-38"/></g></g><g><g><path d="M132.9,104.3v71.4l2.1-29.5l0,0c0.2,0,0.4-0.2,0.4-0.5c0-1.6,0-3.3,0-4.9c0-0.3-0.2-0.5-0.5-0.5l0.3-3.5 c0.1,0,0.1,0,0.2,0V136c1.8,0.3,3.6-0.1,4.6-1.6c0.6-0.9,0.9-2.2,1.2-3.7c0.4,0,0.8,0.1,1.1,0c0.4-0.1,0.8-0.3,1-0.6 c0.2-0.4-0.1-0.9-0.5-0.9c0.2-0.2,0.5-0.3,0.7-0.3c0.1-0.6-0.2-1.3-0.8-1.6c0.6-0.1,1.1-0.7,1-1.3c-0.1-0.6-0.6-1.2-1.2-1.2 c0-0.5,0.7-0.5,0.9-0.9c0.3-0.5-0.3-1.1-0.9-1.3c-0.3-0.1-0.6-0.1-0.9-0.1c0-0.7-0.1-1.2-0.1-1.2c0.2-1.7,0.1-3.3-0.1-4.9 c-0.1-1.4-0.4-2.7-0.8-4.1c-0.1-0.5-0.2-1-0.4-1.6c0-0.2-0.1-0.4-0.2-0.5c0-0.1,0-0.2-0.1-0.3c-0.6-2.6-2-4.8-3.8-6.7l-0.1-0.1 h-2.2C133.5,103.2,132.9,103.7,132.9,104.3z" class="business-analysis-26"/><path d="M145.5,227.6l-0.1-0.4c-0.5-1.7-1.8-3-3.5-3.6l-6.8-2.3L130,217l0.3-3.6H127l0.1,3.6l-1.1,1.8v3 c5.1,3.8,11.3,5.9,17.8,5.9L145.5,227.6L145.5,227.6z" class="business-analysis-26"/></g><g><polygon id="XMLID_1451_" points="122.4 145.4 122.4 145.4 132.8 145.1 128.6 216.9 124.8 216.9 123.1 156.3 121.1 156.3 117.5 216.9 113.7 216.9 112 145.1" class="business-analysis-39"/><path id="XMLID_1457_" d="M117.1,153.2c2.4,4,4,3.1,4,3.1l-3.6,60.6h-1.9c0.1-2.8,0.1-5.6,0.2-8.4 c0.1-3.5,0.2-6.9,0.7-10.3c0.5-3.7,0.6-7.4,0.7-11.2c0-1.6,0.1-3.2-0.1-4.8c-0.3-2.8-1-5.6-0.9-8.4c0.1-1.2,0.4-2.3,0.5-3.5 c0.1-1.5,0.1-3.1,0.1-4.6c0.1-3,0.1-6.1,0.2-9.1C117.1,156,117.5,153.9,117.1,153.2z" class="business-analysis-24"/><path id="XMLID_1458_" d="M127.4,145.6c0.1-0.1,0.3-0.3,0.4-0.3c1.2-0.5,3.6-0.1,4.9-0.1l-4.2,71.8h-2.4 c0,0,0.5-6.8,0.4-7.3c-0.3-1.2-0.7-2.4-0.8-3.6c-0.1-1,0-2.1,0.1-3.1c0.3-2.9,0.2-5.7,0.6-8.6c0.3-2.2-0.2-4.6,0.3-6.7 c0.3-1.4,0.7-2.9,0.4-4.3c-0.2-0.7-0.5-1.4-0.7-2.1c-0.3-1.1-0.2-2.3-0.2-3.4c0.3-5.6,0.4-11.2,0.5-16.8c0-2.7,0.1-5.4-0.3-8 C126.4,151.4,126.3,147,127.4,145.6z" class="business-analysis-24"/><rect id="XMLID_1389_" width="5.1" height="17.3" x="120.3" y="85" class="business-analysis-27"/><polygon id="XMLID_1454_" points="125.4 98.1 120.3 94.8 120.3 93.3 125.4 94.9" class="business-analysis-40"/><path id="XMLID_1410_" d="M139.1,120.9c0-0.1,0-0.2,0-0.3C139.2,120.7,139.2,120.8,139.1,120.9z M107.2,131.4 c0.5,1.5,1.3,3.1,2.8,3.7c0.6,0.2,1.2,0.2,1.9,0.2c0.1,0,0.2,0,0.2,0v6h20.4l0.5-6.1c1.5,0.7,2.9,0.9,4.3-1.3 c2.1-3.3,1.9-9.1,1.7-13c0,0.1,0.3-1.1,0.1-1.1c0.3-3.6-0.5-6.3-1.4-9.8c-0.8-3.3-2.8-6-5.3-8.2c-2.5-2.3-5.5-1.4-7.1-4.6 l-2.3,2.5l-2.8-2.5c-1.4,1.9-4.4,1.8-6.4,2.5c-2.5,0.9-3.8,3-4.8,5.4C105.9,112.8,104.6,123.3,107.2,131.4z" class="business-analysis-41"/><path id="XMLID_1382_" d="M134.6,77.1c0.2,2.1-0.5,4.3-0.3,6.4c0.1,1.2,1.6,4.1,0.1,4.7c-0.7,0.3-1.5,0.1-2-0.4 c0.5,2.6-1,6.7-4.2,7.6c-2.4,0.7-3.4-0.2-5.7-0.7c-0.9-0.2-1.6-0.5-2.5-0.7c-1.4-0.4-1.4-0.6-1.6-2c-0.3-2.3-0.6-4.7-1-7 c-0.2-1.2-0.3-2.6,0.2-3.7c0.5-1.2,1.6-2,2.6-2.7c2-1.4,4-2.8,5.9-4.2c0.4-0.3,0.8-0.6,1.3-0.6c0.6-0.1,1.2,0.1,1.8,0.4 c1.9,0.9,3.7,2.1,5.3,3.6" class="business-analysis-30"/><path id="XMLID_1368_" d="M135,71.7c0,0.3,0.2,0.5,0.5,0.5" class="business-analysis-42"/><path id="XMLID_1375_" d="M137.4,76.7c0.4-1.3,0.7-2.6,0.5-3.8c-0.3-1.2-0.6-2.5-1.8-3.1c-1-0.5-2-0.1-2.9-0.5 c-1.2-0.6-1.9-1.5-3.4-1.1c-0.7,0.1-1.3,0.5-2,0.7c-2.2,0.6-4.3-2.1-6.5-0.2c-0.9,0.8-1.2,2.1-2.3,2.6c-1.7,0.9-1.8,1.1-2.4,2.8 c-0.5,1.4-1.5,2-1.8,3.6c-0.2,1.3-0.9,2.4-1.1,3.7c-0.2,1.3,0.3,2.5,0.4,3.8c0,1.6-0.2,3.2-0.1,4.8c0,0.6,0.1,1.1,0.1,1.7 c0.1,1.1,0.1,1.9,1.2,2.4c1,0.4,2.6,0.2,3.7,0c0.5-0.1,1-0.3,1.2-0.7c0.1-0.2,0.1-0.4,0.1-0.6c0-2.1-0.6-4.2-0.8-6.3 c0-0.4-0.1-0.9,0.1-1.3c0.1-0.4,0.4-0.8,0.8-0.9c1.2-0.3,3.2,1.2,3.3-0.5c0.1-1.6-0.2-3.3,0.2-4.4c0.1-0.2-0.2-0.3-0.1-0.5 c0.1-0.1,0.1-0.1,0.3-0.1c0.7-0.2,1.5-0.3,1.8-0.9c0.2-0.3,0.1-0.7,0.3-1c0.3-0.6,1-0.8,1.6-0.7c0.9,0.2,1.6,1.5,2.6,1.4 c0.6-0.1,0.9-0.9,1.5-1.1c0.5-0.2,1,0.1,1.4,0.4s0.7,0.7,1.1,0.9c0.3,0.2,2.4-0.1,2.6-0.4C137.1,77.2,137.2,76.9,137.4,76.7" class="business-analysis-16"/><path id="XMLID_1403_" d="M126.2,97.7c4.9,1.3,8.6,5.5,10.5,10.2s2.3,9.8,2.3,14.9" class="business-analysis-42"/><path id="XMLID_1437_" d="M112.3,146.2c6.8,0.9,13.6,0.9,20.4,0c0.2,0,0.4-0.2,0.4-0.5c0-1.6,0-3.3,0-4.9 c0-0.3-0.3-0.5-0.5-0.5c-6.7,0.8-13.5,0.8-20.2,0c-0.3,0-0.5,0.2-0.5,0.5v4.9C111.9,146,112,146.2,112.3,146.2z" class="business-analysis-16"/><path id="XMLID_1449_" d="M125.6,146.8c-2,0.1-4,0.1-6,0V141c2,0.1,4,0.1,6,0V146.8z" class="business-analysis-38"/><path id="XMLID_1444_" d="M128.6,216.9l5.1,4.3l6.8,2.3c1.7,0.6,3,1.9,3.5,3.6l0.1,0.4h-13.5l-1.1-2.3v2.3h-4.9v-8.9 l1.1-1.8L128.6,216.9L128.6,216.9z" class="business-analysis-16"/><path id="XMLID_1448_" d="M114.1,216.9l-5.1,4.3l-6.8,2.3c-1.7,0.6-3,1.9-3.5,3.6l-0.1,0.4h13.5l1.1-2.3v2.3h4.9 v-8.9l-1.1-1.8L114.1,216.9L114.1,216.9z" class="business-analysis-16"/><path id="XMLID_1438_" d="M123.9,90.3L123.9,90.3v-12h-2.3v9.5C121.6,89.2,122.7,90.3,123.9,90.3z" class="business-analysis-16"/><polygon points="120 136.5 123.2 139.5 126.4 136.5 124.4 104.8 122 104.8" class="business-analysis-7 fill-primary"/><polygon points="122.4 138.8 120 136.5 122 104.8 123.2 104.8 123.2 139.5" class="business-analysis-43"/><g id="XMLID_1426_"><path id="XMLID_1431_" d="M117.9,123.6L117.9,123.6C117.9,123.7,117.9,123.7,117.9,123.6L117.9,123.6z" class="business-analysis-27"/><path id="XMLID_1430_" d="M118.4,125.6c-0.3-0.5-0.4-1.1-0.6-1.6c0.1-0.1,0.1-0.2,0.1-0.4c-0.2,0.3-0.7,0.3-0.9,0 c-0.3-0.3-0.3-0.7-0.4-1.1c-0.2-1.6-0.2-3.3-0.2-4.9c-0.6-0.2-1.1,0.3-1.4,0.8c-0.5,0.9-0.7,2.1-0.4,3.1 c-0.9-0.7-2.1-0.9-3.2-0.6c-0.6,0.2-1.2,0.8-0.9,1.3c0.2,0.4,0.9,0.5,0.9,0.9c-0.6,0-1.2,0.5-1.2,1.2c-0.1,0.6,0.4,1.2,1,1.3 c-0.6,0.3-0.9,1-0.8,1.6c0.3,0,0.6,0.1,0.7,0.3c-0.4,0-0.6,0.5-0.5,0.9c0.2,0.4,0.6,0.6,1,0.6c0.4,0.1,0.8,0,1.2,0 c0.7,0,1.3,0.1,2,0s1.3,0.2,2.1,0.2c0.2,0,0.3,0,0.5,0c0.5-0.1,0.8-0.6,1-1.1s0.3-1.1,0.7-1.5 C118.9,126.4,118.5,125.9,118.4,125.6z" class="business-analysis-27"/></g><path id="XMLID_1440_" d="M139.1,121c0-0.1,0-0.2,0-0.3C139.2,120.8,139.2,121,139.1,121z M137.8,133.1 c0.1-0.2,0.2-0.4,0.3-0.6c1.4-3.3-3.7-4.3-3.7-4.3c-0.8,0.4-1.7-0.3-2.4-0.9c-1-0.9-1.7-1.8-3-2.2c-3.7-1-8-1.8-11.7-3.1 c0,1.7-0.5,3.2-0.9,4.9c1.6,0.3,3,1.1,4.4,1.8c2.5,1.3,4.3,2,6.6,3.5c1.2,0.8,2.8,0.4,4.1,1C133.9,134.5,135.8,136.1,137.8,133.1z" class="business-analysis-44"/><g id="XMLID_1445_" class="business-analysis-45"><path id="XMLID_1446_" d="M139.1,120.9c0-0.1,0-0.2,0-0.3C139.2,120.7,139.2,120.8,139.1,120.9z" class="business-analysis-46"/><path id="XMLID_1447_" d="M133.1,136.9c-1.2-0.2-2.3-0.6-3.2-1c-3.1-1.6-6.2-3.4-9.3-5c-1.4-0.7-2.9-1.5-4.4-1.8 c0.4-1.7,1-3.2,0.9-4.9c3.7,1.3,8,2.1,11.8,3.2c1.3,0.4,2.1,1.3,3.1,2.2c0.7,0.6,1.6,1.3,2.4,0.9c0,0,5.1,0.2,3,3.5 c-1.4,2.2-2.8,2-4.3,1.3V136.9z" class="business-analysis-46"/></g><g id="XMLID_1427_" class="business-analysis-45"><path id="XMLID_1435_" d="M130.3,128.3c0.7,0.6,2-19.6,2-19.6s4.2-1.1,5,2.2c0.9,3.5,1.5,7.1,1.1,10.8 c0.1,0,0.2-0.1,0.3-0.2c0.2,3.9,0.4,9.6-1.7,13C135.4,136.9,129.3,127.4,130.3,128.3z" class="business-analysis-46"/><path id="XMLID_1434_" d="M138.7,121.4c0-0.1,0-0.2,0-0.3C138.8,121.2,138.8,121.3,138.7,121.4z" class="business-analysis-46"/></g><g id="XMLID_1417_"><path id="XMLID_1432_" d="M117.1,123.2c3.7,1.3,8,2.1,11.8,3.2c1.3,0.4,2.4-0.8,3.4,0.1l0.2-20c0,0-2.1-6.4,0.4-4.2 c2.5,2.3,4.4,5.2,5.2,8.5c0.9,3.5,1.6,6.9,1.3,10.5c0.1,0,0.5,9.7-1.6,13c-1.6,2.6-5.6,1.7-7.8,0.6c-3.1-1.6-6.2-3.4-9.3-5 c-1.4-0.7-3-1.2-4.6-1.5C116.5,126.7,116.9,124.6,117.1,123.2z" class="business-analysis-41"/></g><path id="XMLID_1396_" d="M114.6,99.7c-2.5,0.9-3.8,3-4.8,5.4c-3.2,7.7-4.5,18.3-1.9,26.3c0.5,1.5,1.3,3.1,2.8,3.7 c0.6,0.2,1.2,0.2,1.9,0.2l2.2-6.8l-0.7-19.7C114.2,108.7,116.7,98.9,114.6,99.7z" class="business-analysis-47"/><g id="XMLID_1418_"><path id="XMLID_1424_" d="M133.8,125.2C133.8,125.2,133.8,125.3,133.8,125.2C133.8,125.3,133.8,125.3,133.8,125.2 L133.8,125.2z" class="business-analysis-27"/><path id="XMLID_1425_" d="M133.3,127.3c0.3-0.5,0.4-1.1,0.6-1.6c-0.1-0.1-0.1-0.2-0.1-0.4c0.2,0.3,0.7,0.3,0.9,0 c0.3-0.3,0.3-0.7,0.4-1.1c0.2-1.6,0.2-3.3,0.2-4.9c0.6-0.2,1.1,0.3,1.4,0.8c0.5,0.9,0.7,2.1,0.4,3.1c0.9-0.7,2.1-0.9,3.2-0.6 c0.6,0.2,1.2,0.8,0.9,1.3c-0.2,0.4-0.9,0.5-0.9,0.9c0.6,0,1.2,0.5,1.2,1.2c0.1,0.6-0.4,1.2-1,1.3c0.6,0.3,0.9,1,0.8,1.6 c-0.3,0-0.6,0.1-0.7,0.3c0.4,0,0.6,0.5,0.5,0.9c-0.2,0.4-0.6,0.6-1,0.6c-0.4,0.1-0.8,0-1.2,0c-0.7,0-1.3,0.1-2,0 s-1.3,0.2-2.1,0.2c-0.2,0-0.3,0-0.5,0c-0.5-0.1-0.8-0.6-1-1.1s-0.3-1.1-0.7-1.5C132.7,128,133.2,127.6,133.3,127.3z" class="business-analysis-27"/></g><path id="XMLID_1436_" d="M113.1,130.9c6.3-1.3,12.7-2.5,19-3.8c0.7-0.1,1.4-0.2,2,0.1c0.4,0.2,0.6,0.7,0.8,1.1 c0.6,1.4-0.3,3.1-0.7,4.5c-1.6,0.4-3.3,0.9-4.9,1.3c-5.6,1.5-11.2,3-17,3.1v-2c-0.1,0-0.2,0-0.2,0c-0.6,0-1.3,0-1.9-0.2 C108.6,134.5,113.1,130.9,113.1,130.9z" class="business-analysis-44"/><path id="XMLID_1411_" d="M119,99.6c-1.4,1.9-3.2-0.6-5.3,0.1c-2.5,0.9-3.8,3-4.8,5.4c-3.2,7.7-4.5,18.3-1.9,26.3 c0.5,1.5,1.3,3.1,2.8,3.7c0.6,0.2,1.2,0.2,1.9,0.2c5.9,0,11.7-1.6,17.4-3.1c1.8-0.5,3.8-1.1,5.7-1c0.2-0.7-0.7-6.1-0.7-6.1 c-1.6,0.5-8.4,1.6-10.2,1.9c-1,0.2-11.2,2-11.2,2l1.2-20.4L119,99.6z" class="business-analysis-41"/><path id="XMLID_1439_" d="M120.3,104.5l-3.1-5.6c1.3-0.3,2.4-0.8,3.2-1.8l2.8,2.5L120.3,104.5z" class="business-analysis-38"/><polygon points="121.1 103 121.9 104.8 124.4 104.8 125.1 103.1 123.1 99.6" class="business-analysis-7 fill-primary"/><path id="XMLID_1443_" d="M128.3,99.7l-2.4,4.8l-2.8-4.9l2.3-2.5C126.1,98.6,127.1,99.2,128.3,99.7z" class="business-analysis-38"/></g></g><g><g id="XMLID_193_"><path id="XMLID_196_" d="M255.8,205.4V216l0,0l7.5,7.5c1.9-1.9,3.1-4.5,3.1-7.5l0,0 C266.4,210.1,261.7,205.4,255.8,205.4z" class="business-analysis-3"/><path id="XMLID_195_" d="M247,208.7c-1.9,1.9-3.1,4.6-3.1,7.5h10.6l0,0v-10.6C251.5,205.6,248.9,206.8,247,208.7z" class="business-analysis-10"/><path id="XMLID_194_" d="M254.4,217.6L254.4,217.6h-10.6l0,0c0,5.8,4.7,10.6,10.6,10.6c2.9,0,5.6-1.2,7.5-3.1 L254.4,217.6z" class="business-analysis-7 fill-primary"/></g><path d="M260.2,206.3c-1.4,2.2-2.3,4.8-2.3,7.6c0,1.8,0.3,3.5,1,5.1l4.4,4.4c1.9-1.9,3.1-4.5,3.1-7.5l0,0 C266.4,211.7,263.8,208,260.2,206.3z" class="business-analysis-24"/><g id="XMLID_183_"><g id="XMLID_184_"><path id="XMLID_192_" d="M288,214c0,7.8-6.3,14-14,14c-7.8,0-14-6.3-14-14c0-7.8,6.3-14,14-14 C281.7,199.9,288,206.2,288,214z" class="business-analysis-6"/><path id="XMLID_191_" d="M286.5,214c0,6.9-5.6,12.5-12.5,12.5s-12.5-5.6-12.5-12.5s5.6-12.5,12.5-12.5 S286.5,207.1,286.5,214z" class="business-analysis-13"/><path id="XMLID_190_" d="M285,214c0,6.1-4.9,11-11,11s-11-4.9-11-11s4.9-11,11-11C280,202.9,285,207.9,285,214z" class="business-analysis-6"/><g id="XMLID_185_"><g id="XMLID_188_"><path id="XMLID_189_" d="M275.4,219.6h-4.1c-0.9,0-1.7-0.8-1.7-1.7V217h2.4v0.2h3.4c0.6,0,1.2-0.5,1.2-1.2 c0-0.4-0.3-0.8-0.8-0.8h-3c-1.8,0-3.2-1.4-3.2-3.2v-0.4c0-2,1.6-3.6,3.6-3.6h4.1c0.9,0,1.7,0.8,1.7,1.7v1h-2.4v-0.3h-3.4 c-0.6,0-1.2,0.5-1.2,1.2v0.4c0,0.4,0.3,0.8,0.8,0.8h3c1.8,0,3.2,1.4,3.2,3.2C279,218,277.4,219.6,275.4,219.6z" class="business-analysis-14"/></g><g id="XMLID_186_"><rect id="XMLID_187_" width="2.4" height="14.3" x="273.1" y="206.8" class="business-analysis-14"/></g></g></g></g><g id="XMLID_57_"><g id="XMLID_119_"><g id="XMLID_121_"><path id="XMLID_122_" d="M183.1,227.6h-8.9c-0.5,0-0.9-0.5-0.8-1l1.2-6c0.1-0.3,0.3-0.5,0.7-0.5h6.8 c0.3,0,0.6,0.2,0.7,0.5l1.2,6C184,227.2,183.6,227.6,183.1,227.6z" class="business-analysis-48"/></g><path id="XMLID_120_" d="M183.8,227.3l-7.1-7.2h-1.4c-0.1,0-0.2,0-0.2,0c-0.2,0.1-0.4,0.3-0.4,0.5l-0.6,2.9l-0.6,3.2 c-0.1,0.5,0.3,1,0.8,1h8.9C183.4,227.6,183.6,227.5,183.8,227.3z" class="business-analysis-6"/></g><g id="XMLID_115_"><g id="XMLID_117_"><path id="XMLID_118_" d="M171.7,227.6h-8.9c-0.5,0-0.9-0.5-0.8-1l1.2-6c0.1-0.3,0.3-0.5,0.7-0.5h6.8 c0.3,0,0.6,0.2,0.7,0.5l1.2,6C172.6,227.2,172.2,227.6,171.7,227.6z" class="business-analysis-48"/></g><path id="XMLID_116_" d="M172.3,227.3l-7.1-7.2h-1.4c-0.1,0-0.2,0-0.2,0c-0.2,0.1-0.4,0.3-0.4,0.5l-0.6,2.9l-0.6,3.2 c-0.1,0.5,0.3,1,0.8,1h8.9C172,227.6,172.2,227.5,172.3,227.3z" class="business-analysis-6"/></g><g id="XMLID_105_"><g id="XMLID_111_"><path id="XMLID_112_" d="M183,212.6h-9c-0.5,0-0.9-0.5-0.8-1l1.2-6c0.1-0.3,0.3-0.5,0.7-0.5h6.8 c0.3,0,0.6,0.2,0.7,0.5l1.2,6C183.9,212.2,183.5,212.6,183,212.6z" class="business-analysis-48"/></g><path id="XMLID_109_" d="M183.6,212.3l-7.1-7.2h-1.4c-0.1,0-0.2,0-0.2,0c-0.2,0.1-0.4,0.3-0.4,0.5l-0.6,2.9l-0.6,3.2 c-0.1,0.5,0.3,1,0.8,1h8.9C183.3,212.6,183.5,212.5,183.6,212.3z" class="business-analysis-6"/></g><g id="XMLID_99_"><g id="XMLID_103_"><path id="XMLID_104_" d="M194.4,227.6h-8.9c-0.5,0-0.9-0.5-0.8-1l1.2-6c0.1-0.3,0.3-0.5,0.7-0.5h6.8 c0.3,0,0.6,0.2,0.7,0.5l1.2,6C195.3,227.2,194.9,227.6,194.4,227.6z" class="business-analysis-48"/></g><path id="XMLID_101_" d="M195,227.3l-7.1-7.2h-1.4c-0.1,0-0.2,0-0.2,0c-0.2,0.1-0.4,0.3-0.4,0.5l-0.6,2.9l-0.6,3.2 c-0.1,0.5,0.3,1,0.8,1h8.9C194.7,227.6,194.9,227.5,195,227.3z" class="business-analysis-6"/></g><g id="XMLID_76_"><g id="XMLID_97_"><path id="XMLID_98_" d="M177.4,220.1h-8.9c-0.5,0-0.9-0.5-0.8-1l1.2-6c0.1-0.3,0.3-0.5,0.7-0.5h6.8 c0.3,0,0.6,0.2,0.7,0.5l1.2,6C178.3,219.7,177.9,220.1,177.4,220.1z" class="business-analysis-48"/></g><path id="XMLID_88_" d="M178.1,219.8l-7.1-7.2h-1.4c-0.1,0-0.2,0-0.2,0c-0.2,0.1-0.4,0.3-0.4,0.5l-0.6,2.9l-0.6,3.2 c-0.1,0.5,0.3,1,0.8,1h8.9C177.7,220.1,177.9,220,178.1,219.8z" class="business-analysis-6"/></g><g id="XMLID_72_"><g id="XMLID_74_"><path id="XMLID_75_" d="M188.8,220.1h-8.9c-0.5,0-0.9-0.5-0.8-1l1.2-6c0.1-0.3,0.3-0.5,0.7-0.5h6.8 c0.3,0,0.6,0.2,0.7,0.5l1.2,6C189.7,219.7,189.3,220.1,188.8,220.1z" class="business-analysis-48"/></g><path id="XMLID_73_" d="M189.4,219.8l-7.1-7.2h-1.4c-0.1,0-0.2,0-0.2,0c-0.2,0.1-0.4,0.3-0.4,0.5l-0.6,2.9l-0.6,3.2 c-0.1,0.5,0.3,1,0.8,1h8.9C189.1,220.1,189.3,220,189.4,219.8z" class="business-analysis-6"/></g><g id="XMLID_71_"><path d="M178.6,203.5c-0.2,0-0.4-0.2-0.4-0.4v-1.4c0-0.2,0.2-0.4,0.4-0.4s0.4,0.2,0.4,0.4v1.4 C178.9,203.3,178.8,203.5,178.6,203.5z" class="business-analysis-16"/></g><g id="XMLID_70_"><path d="M180.5,203.8L180.5,203.8c-0.3-0.1-0.4-0.3-0.4-0.5l0.7-2.7c0.1-0.2,0.3-0.3,0.4-0.3 c0.2,0.1,0.3,0.3,0.3,0.4l-0.7,2.7C180.9,203.7,180.7,203.8,180.5,203.8z" class="business-analysis-16"/></g><g id="XMLID_69_"><path d="M182.4,204.5c-0.1,0-0.1,0-0.2,0c-0.2-0.1-0.2-0.3-0.1-0.5l0.7-1.2c0.1-0.2,0.3-0.2,0.5-0.1 c0.2,0.1,0.2,0.3,0.1,0.5l-0.7,1.2C182.6,204.5,182.5,204.5,182.4,204.5z" class="business-analysis-16"/></g><g id="XMLID_67_"><path d="M184,205.7c-0.1,0-0.2,0-0.3-0.1s-0.1-0.4,0-0.5l2-2c0.1-0.1,0.4-0.1,0.5,0s0.1,0.4,0,0.5l-2,2 C184.2,205.7,184.1,205.7,184,205.7z" class="business-analysis-16"/></g><g id="XMLID_66_"><path d="M185.2,207.3c-0.1,0-0.2-0.1-0.3-0.2c-0.1-0.2,0-0.4,0.1-0.5l1.2-0.7c0.2-0.1,0.4,0,0.5,0.1 c0.1,0.2,0,0.4-0.1,0.5l-1.2,0.7C185.3,207.3,185.3,207.3,185.2,207.3z" class="business-analysis-16"/></g><g id="XMLID_65_"><path d="M186,209.2c-0.2,0-0.3-0.1-0.3-0.3c-0.1-0.2,0.1-0.4,0.3-0.4l2.7-0.7c0.2-0.1,0.4,0.1,0.4,0.3 c0.1,0.2-0.1,0.4-0.3,0.4L186,209.2L186,209.2z" class="business-analysis-16"/></g><g id="XMLID_64_"><path d="M186.2,211.2c-0.2,0-0.4-0.2-0.4-0.4s0.2-0.4,0.4-0.4h1.4l0,0c0.2,0,0.4,0.2,0.4,0.4s-0.2,0.4-0.4,0.4 H186.2L186.2,211.2z" class="business-analysis-16"/></g><g id="XMLID_63_"><path d="M169.5,211.2c-0.2,0-0.4-0.2-0.4-0.4s0.2-0.4,0.4-0.4h1.4l0,0c0.2,0,0.4,0.2,0.4,0.4s-0.2,0.4-0.4,0.4 H169.5L169.5,211.2z" class="business-analysis-16"/></g><g id="XMLID_62_"><path d="M171.1,209.2L171.1,209.2l-2.8-0.7c-0.2-0.1-0.3-0.2-0.3-0.4c0.1-0.2,0.2-0.3,0.4-0.3l2.7,0.7 c0.2,0.1,0.3,0.2,0.3,0.4C171.5,209.1,171.3,209.2,171.1,209.2z" class="business-analysis-16"/></g><g id="XMLID_61_"><path d="M171.9,207.4c-0.1,0-0.1,0-0.2,0l-1.3-0.7c-0.2-0.1-0.2-0.3-0.1-0.5c0.1-0.2,0.3-0.2,0.5-0.1l1.3,0.7 c0.2,0.1,0.2,0.3,0.1,0.5C172.2,207.3,172,207.4,171.9,207.4z" class="business-analysis-16"/></g><g id="XMLID_60_"><path d="M173.1,205.8c-0.1,0-0.2,0-0.3-0.1l-2-2c-0.1-0.1-0.1-0.4,0-0.5s0.4-0.1,0.5,0l2,2c0.1,0.1,0.1,0.4,0,0.5 C173.3,205.7,173.2,205.8,173.1,205.8z" class="business-analysis-16"/></g><g id="XMLID_59_"><path d="M174.7,204.5c-0.1,0-0.2-0.1-0.3-0.2l-0.7-1.2c-0.1-0.2,0-0.4,0.1-0.5c0.2-0.1,0.4,0,0.5,0.1l0.7,1.2 c0.1,0.2,0,0.4-0.1,0.5C174.8,204.5,174.8,204.5,174.7,204.5z" class="business-analysis-16"/></g><g id="XMLID_58_"><path d="M176.5,203.8c-0.2,0-0.3-0.1-0.3-0.3l-0.7-2.7c-0.1-0.2,0.1-0.4,0.3-0.4s0.4,0.1,0.4,0.3l0.7,2.7 C176.9,203.5,176.8,203.7,176.5,203.8C176.6,203.8,176.6,203.8,176.5,203.8z" class="business-analysis-16"/></g></g><g id="XMLID_2_"><g id="XMLID_55_"><path id="XMLID_56_" d="M150,208.4c-2.9,0-5.5-1.6-6.6-4.1l-3.6-8.1c-0.5-1.1-0.4-2.2,0.3-3.2s1.9-1.7,3.2-1.7h5.9 v1.2h-5.9c-0.9,0-1.7,0.4-2.2,1.1c-0.4,0.6-0.5,1.4-0.2,2.1l3.6,8.1c0.9,2.1,3.1,3.4,5.5,3.4V208.4z" class="business-analysis-6"/></g><rect id="XMLID_54_" width="5.3" height="10.8" x="152.2" y="209.2" class="business-analysis-6"/><polygon id="XMLID_53_" points="157.6 212.3 152.2 213.1 152.2 209.2 157.6 209.2" class="business-analysis-49"/><g id="XMLID_50_"><polygon id="XMLID_52_" points="149.2 191.3 144.5 191.3 144.6 192.5 149.2 192.5" class="business-analysis-49"/><path id="XMLID_51_" d="M146.8,207.6c1,0.5,2.1,0.7,3.2,0.7v-1.2c-1.5,0-2.9-0.5-4-1.4 C146.2,206.4,146.4,207.1,146.8,207.6z" class="business-analysis-49"/></g><g id="XMLID_48_"><path id="XMLID_49_" d="M160,208.4c2.9,0,5.5-1.6,6.6-4.1l3.6-8.1c0.5-1.1,0.4-2.2-0.3-3.2s-1.9-1.7-3.2-1.7h-5.9 v1.2h5.9c0.9,0,1.7,0.4,2.2,1.1c0.4,0.6,0.5,1.4,0.2,2.1l-3.6,8.1c-0.9,2.1-3.1,3.4-5.5,3.4V208.4z" class="business-analysis-6"/></g><g id="XMLID_45_"><polygon id="XMLID_47_" points="160.8 191.3 165.4 191.3 165.3 192.5 160.8 192.5" class="business-analysis-49"/><path id="XMLID_46_" d="M163.2,207.6c-1,0.5-2.1,0.7-3.2,0.7v-1.2c1.5,0,2.9-0.5,4-1.4 C163.8,206.4,163.5,207.1,163.2,207.6z" class="business-analysis-49"/></g><path id="XMLID_44_" d="M155,212.2L155,212.2c-4.5,0-8.3-3.5-8.7-8l-1.3-13.9v-0.4h19.9l-1.2,14.3 C163.3,208.7,159.5,212.2,155,212.2z" class="business-analysis-6"/><path id="XMLID_43_" d="M163.9,189.9l-1.2,14.3c-0.3,4.4-3.8,7.8-8.2,8c0.2,0,0.3,0,0.5,0l0,0c4.6,0,8.3-3.5,8.7-8.1 l1.2-14.3h-1V189.9z" class="business-analysis-50"/><path id="XMLID_42_" d="M147.9,204.2l-1.3-13.9v-0.4H145v0.4l1.3,13.9c0.4,4.5,4.1,8,8.7,8l0,0c0.3,0,0.5,0,0.8,0 C151.6,211.8,148.2,208.4,147.9,204.2z" class="business-analysis-13"/><path id="XMLID_41_" d="M156.3,212.1c1.2-0.2,2.3-0.6,3.3-1.2c0-0.3,0.1-0.7,0.1-1l1-19.6h-3.5 C157.2,190.2,156.6,204.5,156.3,212.1z" class="business-analysis-51"/><path id="XMLID_40_" d="M157.5,215.7h-5.1c-0.5,0-0.9-0.4-0.9-0.9v-0.3c0-0.5,0.4-0.9,0.9-0.9h5.1 c0.5,0,0.9,0.4,0.9,0.9v0.3C158.4,215.3,158,215.7,157.5,215.7z" class="business-analysis-6"/><path id="XMLID_39_" d="M157.5,219h-5.1c-0.5,0-0.9-0.4-0.9-0.9v-0.3c0-0.5,0.4-0.9,0.9-0.9h5.1 c0.5,0,0.9,0.4,0.9,0.9v0.3C158.4,218.6,158,219,157.5,219z" class="business-analysis-6"/><path id="XMLID_38_" d="M161,220.8L161,220.8c0-1-0.8-1.8-1.8-1.8h-8.6c-1,0-1.8,0.8-1.8,1.8l0,0H161z" class="business-analysis-6"/><path id="XMLID_37_" d="M148.8,220.8H161c0-0.2,0-0.4-0.1-0.6H149C148.9,220.4,148.8,220.6,148.8,220.8z" class="business-analysis-38"/><path id="XMLID_36_" d="M151.4,214.6v0.2c0,0.5,0.4,0.9,0.9,0.9h5.1c0.5,0,0.9-0.4,0.9-0.9v-0.2H151.4z" class="business-analysis-51"/><path id="XMLID_35_" d="M151.4,217.9v0.2c0,0.5,0.4,0.9,0.9,0.9h5.1c0.5,0,0.9-0.4,0.9-0.9v-0.2H151.4z" class="business-analysis-51"/><polygon id="XMLID_34_" points="145 190.3 145.2 191.7 164.8 191 164.9 189.9 145 189.9" class="business-analysis-49"/><rect id="XMLID_33_" width="21.3" height="1.3" x="144.3" y="189.3" class="business-analysis-38"/><rect id="XMLID_32_" width="4.2" height="1.3" x="156.8" y="189.3" class="business-analysis-51"/><rect id="XMLID_31_" width=".7" height="1.3" x="162.6" y="189.3" class="business-analysis-51"/><g id="XMLID_28_"><path id="XMLID_30_" d="M163.8,227.9h-17.6c-0.2,0-0.4-0.2-0.4-0.4v-6.2c0-0.2,0.2-0.4,0.4-0.4h17.6 c0.2,0,0.4,0.2,0.4,0.4v6.2C164.2,227.7,164,227.9,163.8,227.9z" class="business-analysis-52"/><path id="XMLID_29_" d="M153.7,227.9l9.1-7h-16.5c-0.2,0-0.4,0.2-0.4,0.4v6.2c0,0.2,0.2,0.4,0.4,0.4L153.7,227.9 L153.7,227.9z" class="business-analysis-53"/></g><rect id="XMLID_27_" width="8.9" height="5.1" x="150.5" y="221.8" class="business-analysis-15"/><g id="XMLID_23_"><path id="XMLID_25_" d="M154.2,225.2h0.4v-2h-0.5v-0.5h1v2.5h0.4v0.5h-1.4v-0.5H154.2z" class="business-analysis-54"/></g></g></g></svg>