<svg xmlns="http://www.w3.org/2000/svg" xmlns:xlink="http://www.w3.org/1999/xlink" x="0" y="0" viewBox="0 0 204 124.5" xml:space="preserve" style="enable-background:new 0 0 204 124.5"><style type="text/css">.get-answered-0{fill:#00c9a7}.get-answered-1{fill:#fff;stroke:#377dff}.get-answered-2{fill:#377dff}.get-answered-3{fill:#fff}.get-answered-4{fill:none;stroke:#ffc107}.get-answered-5{fill:none;stroke:#377dff}.get-answered-6{fill:#ffc107}.get-answered-7{fill:none;stroke:#de4437}.get-answered-8{fill:#19a0ff}.get-answered-9{fill:none;stroke:#fff}</style><g id="getAnswered_304_"><g id="getAnswered_61_"><linearGradient id="getAnsweredID1" x1="52.733" x2="22.147" y1="62.372" y2="9.394" gradientTransform="matrix(1.1458 -1.312510e-03 0.3345 1.1635 -10.8117 5.519748e-02)" gradientUnits="userSpaceOnUse"><stop class="stop-color-white" offset="0" style="stop-color:#fff"/><stop class="stop-color-primary-darker" offset="1" style="stop-color:#196eff"/></linearGradient><polygon fill="url(#getAnsweredID1)" points="83.1 54.9 27.5 4.1 5 28.6 60.7 79.5" opacity=".35"/><path id="getAnswered_83_" stroke-miterlimit="10" stroke-width="1.5" d="M10.9,1.9c5.1-2,11-1.3,15.6,2.3c6,4.7,7.8,12.8,4.7,19.4l5.7,8.8c0.1,0.2-0.1,0.5-0.3,0.4 l-9.9-3.5c-5.6,4.5-13.8,4.7-19.8,0.1C0.3,24.2-1.2,14.8,3.4,7.9" class="get-answered-1 fill-white stroke-primary"/><path id="getAnswered_77_" d="M5.6,16.7c0,6.2,5,11.3,11.3,11.3c6.2,0,11.3-5,11.3-11.3S23,5.5,16.8,5.5 C10.6,5.5,5.6,10.5,5.6,16.7z" class="get-answered-2 fill-primary"/><g id="getAnswered_107_"><g><path id="getAnswered_30_" d="M18.4,19.1h-2.7v-1.3c0-0.5,0.1-0.9,0.2-1.1c0.1-0.2,0.4-0.6,0.8-1l1.2-1.2 c0.2-0.2,0.3-0.5,0.3-0.8c0-0.3-0.1-0.6-0.3-0.8c-0.2-0.2-0.4-0.3-0.7-0.3c-0.3,0-0.6,0.1-0.8,0.4c-0.2,0.3-0.3,0.6-0.4,1.1 h-2.8c0.1-1.2,0.6-2.1,1.3-2.8c0.7-0.7,1.7-1,2.8-1c1.1,0,2,0.3,2.7,0.9c0.7,0.6,1,1.4,1,2.5c0,0.5-0.1,0.8-0.2,1.1 c-0.1,0.2-0.2,0.4-0.2,0.5s-0.2,0.3-0.3,0.5c-0.2,0.2-0.3,0.3-0.3,0.4c-0.3,0.3-0.6,0.6-0.8,0.8c-0.3,0.2-0.4,0.5-0.5,0.6 c-0.1,0.2-0.1,0.4-0.1,0.7V19.1z M16,22.5c-0.3-0.3-0.5-0.7-0.5-1.1c0-0.4,0.2-0.8,0.5-1.1c0.3-0.3,0.7-0.5,1.1-0.5 c0.4,0,0.8,0.2,1.1,0.5c0.3,0.3,0.5,0.7,0.5,1.1c0,0.4-0.2,0.8-0.5,1.1c-0.3,0.3-0.7,0.5-1.1,0.5C16.7,22.9,16.3,22.8,16,22.5z" class="get-answered-3 fill-white"/></g></g></g><path id="getAnswered_2_" d="M122.7,96.8V31.4h-3.5c-0.7,0-1.4,0.7-1.4,1.6v66.7h0.2h0.2h4.2 C122.6,99.7,122.7,98.4,122.7,96.8z" class="get-answered-2 fill-primary" opacity=".35"/><linearGradient id="getAnsweredID3" x1="152.928" x2="153.133" y1="114.336" y2="52.67" gradientTransform="matrix(0.8901 -0.4146 0.5277 1.1328 -19.471 47.0093)" gradientUnits="userSpaceOnUse"><stop class="stop-color-white" offset="0" style="stop-color:#fff;stop-opacity:0"/><stop class="stop-color-primary-darker" offset="1" style="stop-color:#196eff"/></linearGradient><polygon fill="url(#getAnsweredID3)" points="152.4 124.5 201.7 101.5 169.2 31.9 120 54.8" opacity=".35"/><g id="getAnswered_139_"><polygon id="getAnswered_193_" points="169.4 99.5 119.9 99.5 119.9 48.4 119.9 48.4 169.4 48.4 169.4 99.5" class="get-answered-3 fill-white"/><path id="getAnswered_183_" d="M169.4,48.4h-49.5V33.2c0-1,0.8-1.8,1.8-1.8h46.7c0.5,0,1,0.4,1,1V48.4z" class="get-answered-2 fill-primary"/><path id="getAnswered_182_" d="M131.7,39.8c0,1.6-1.3,2.9-2.9,2.9c-1.6,0-2.9-1.3-2.9-2.9c0-1.6,1.3-2.9,2.9-2.9 C130.4,36.9,131.7,38.2,131.7,39.8z" class="get-answered-6 fill-warning"/><g id="getAnswered_178_"><path id="getAnswered_179_" d="M128.6,95.3h-0.4v-2.7h0.4V95.3z M128.6,90h-0.4v-2.7h0.4V90z M128.6,84.7h-0.4V82h0.4V84.7 z M128.6,79.3h-0.4v-2.7h0.4V79.3z M128.6,74h-0.4v-2.7h0.4V74z M128.6,68.7h-0.4V66h0.4V68.7z M128.6,63.4h-0.4v-2.7h0.4V63.4z M128.6,58h-0.4v-2.7h0.4V58z" class="get-answered-6 fill-warning"/></g><path id="getAnswered_177_" d="M130,88.5c0,0.9-0.7,1.6-1.6,1.6c-0.9,0-1.6-0.7-1.6-1.6c0-0.9,0.7-1.6,1.6-1.6 C129.3,86.8,130,87.6,130,88.5z" class="get-answered-6 fill-warning"/><path id="getAnswered_151_" d="M130,72.6c0,0.9-0.7,1.6-1.6,1.6c-0.9,0-1.6-0.7-1.6-1.6c0-0.9,0.7-1.6,1.6-1.6 C129.3,70.9,130,71.7,130,72.6z" class="get-answered-6 fill-warning"/><path id="getAnswered_150_" d="M130,56.7c0,0.9-0.7,1.6-1.6,1.6c-0.9,0-1.6-0.7-1.6-1.6c0-0.9,0.7-1.6,1.6-1.6 C129.3,55,130,55.8,130,56.7z" class="get-answered-6 fill-warning"/><line id="getAnswered_142_" x1="133.2" x2="164" y1="56.7" y2="56.7" stroke-miterlimit="10" stroke-width="1.5" class="get-answered-7 fill-none stroke-danger"/><line id="getAnswered_157_" x1="133.2" x2="164" y1="71.4" y2="71.4" stroke-miterlimit="10" stroke-width="1.5" class="get-answered-7 fill-none stroke-danger"/><line id="getAnswered_161_" x1="133.2" x2="164" y1="74.2" y2="74.2" stroke-miterlimit="10" stroke-width="1.5" class="get-answered-7 fill-none stroke-danger"/><line id="getAnswered_162_" x1="133.2" x2="164" y1="77.1" y2="77.1" stroke-miterlimit="10" stroke-width="1.5" class="get-answered-7 fill-none stroke-danger"/><line id="getAnswered_164_" x1="133.2" x2="164.1" y1="86.8" y2="86.8" stroke-miterlimit="10" stroke-width="1.5" class="get-answered-7 fill-none stroke-danger"/><line id="getAnswered_176_" x1="133.2" x2="164" y1="89.5" y2="89.5" stroke-miterlimit="10" stroke-width="1.5" class="get-answered-7 fill-none stroke-danger"/><line id="getAnswered_181_" x1="133.1" x2="154.4" y1="92.2" y2="92.2" stroke-miterlimit="10" stroke-width="1.5" class="get-answered-7 fill-none stroke-danger"/><line id="getAnswered_163_" x1="133.2" x2="144.6" y1="79.9" y2="79.9" stroke-miterlimit="10" stroke-width="1.5" class="get-answered-7 fill-none stroke-danger"/><line id="getAnswered_141_" x1="133.2" x2="164" y1="59.6" y2="59.6" stroke-miterlimit="10" stroke-width="1.5" class="get-answered-7 fill-none stroke-danger"/><line id="getAnswered_144_" x1="133.2" x2="164" y1="62.5" y2="62.5" stroke-miterlimit="10" stroke-width="1.5" class="get-answered-7 fill-none stroke-danger"/><line id="getAnswered_148_" x1="133.2" x2="144.6" y1="65.4" y2="65.4" stroke-miterlimit="10" stroke-width="1.5" class="get-answered-7 fill-none stroke-danger"/></g><path id="getAnswered_4_" d="M145.7,72.3h0.8V51.6c0-1.2-0.4-2.3-1.1-3.2c-0.2-0.4-0.5-0.7-0.9-0.9c-0.9-0.7-2-1.1-3.2-1.1 H114v78.2h5.1h1.1v-0.8h-4.7v-12.5H139v-0.8h4.5c1.2,0,2.2-1,2.2-2.2v-7.9v-2" class="get-answered-2 fill-primary" opacity=".35"/><g id="getAnswered_18_"><linearGradient id="getAnsweredID2" x1="98.847" x2="98.847" y1="46.483" y2="99.584" gradientUnits="userSpaceOnUse"><stop class="stop-color-indigo" offset="0" style="stop-color:#2d1582"/><stop class="stop-color-primary-darker" offset="1" style="stop-color:#19a0ff"/></linearGradient><path id="getAnswered_701_" fill="url(#getAnsweredID2)" d="M143.5,99.6H54.2V48.7c0-1.2,1-2.2,2.2-2.2h84.9c1.2,0,2.2,1,2.2,2.2V99.6z"/><rect id="getAnswered_697_" width="79.7" height="41.9" x="59.1" y="51.7" class="get-answered-3 fill-white"/><rect id="getAnswered_684_" width="26.9" height="15.9" x="85.4" y="107.6" class="get-answered-3 fill-white" opacity=".5"/><rect id="getAnswered_683_" width="26.9" height="8" x="85.4" y="109.7" class="get-answered-8 fill-primary-lighter" opacity=".5"/><rect id="getAnswered_682_" width="26.9" height="15.9" x="85.4" y="107.6" stroke-miterlimit="10" stroke-width="1.5" class="get-answered-5 fill-none stroke-primary"/><path id="getAnswered_681_" d="M143.5,97.6H54.2v9.8c0,1.2,1,2.2,2.2,2.2h84.8c1.2,0,2.2-1,2.2-2.2V97.6z" class="get-answered-3 fill-white"/><g><rect id="getAnswered_47_" width="36.5" height="35.4" x="62.4" y="54.8" class="get-answered-0 fill-success"/><line id="getAnswered_159_" x1="65.1" x2="79.4" y1="59.6" y2="59.6" stroke-miterlimit="10" stroke-width="1.5" class="get-answered-9 fill-none stroke-white"/><line id="getAnswered_44_" x1="65.1" x2="96.7" y1="65.9" y2="65.9" stroke-miterlimit="10" stroke-width="1.5" class="get-answered-9 fill-none stroke-white"/><line id="getAnswered_3_" x1="65.1" x2="96.7" y1="69.2" y2="69.2" stroke-miterlimit="10" stroke-width="1.5" class="get-answered-9 fill-none stroke-white"/><line id="getAnswered_42_" x1="65.1" x2="92.3" y1="72.4" y2="72.4" stroke-miterlimit="10" stroke-width="1.5" class="get-answered-9 fill-none stroke-white"/><line id="getAnswered_41_" x1="65.1" x2="92.3" y1="75.7" y2="75.7" stroke-miterlimit="10" stroke-width="1.5" class="get-answered-9 fill-none stroke-white"/><line id="getAnswered_1_" x1="65.1" x2="92.3" y1="78.9" y2="78.9" stroke-miterlimit="10" stroke-width="1.5" class="get-answered-9 fill-none stroke-white"/><line id="getAnswered_167_" x1="65.1" x2="84.3" y1="82.2" y2="82.2" stroke-miterlimit="10" stroke-width="1.5" class="get-answered-9 fill-none stroke-white"/></g></g><path id="getAnswered_301_" d="M60.8,81.6h-9v18.5v1.7v7.1c0,1.1,0.9,2,2,2h9.5v0.8h1.2V85.3C64.5,83.3,62.8,81.6,60.8,81.6z" class="get-answered-2 fill-primary" opacity=".35"/><g id="getAnswered_19_"><path id="getAnswered_35_" d="M28,124.3h33.7v-39c0-1.2-1-2.2-2.2-2.2H30.2c-1.2,0-2.2,1-2.2,2.2V124.3z" class="get-answered-3 fill-white"/><path id="getAnswered_34_" stroke-miterlimit="10" stroke-width="1.5" d="M35.2,83.1h-4.2c-1.6,0-2.9,1.3-2.9,2.9v33.8" class="get-answered-5 fill-none stroke-primary"/><line id="getAnswered_33_" x1="42.9" x2="38" y1="83.1" y2="83.1" stroke-miterlimit="10" stroke-width="1.5" class="get-answered-5 fill-none stroke-primary"/><path id="getAnswered_340_" stroke-miterlimit="10" stroke-width="1.5" d="M61.7,119.8V86c0-1.6-1.3-2.9-2.9-2.9H44.1" class="get-answered-5 fill-none stroke-primary"/><rect id="getAnswered_339_" width="28.1" height="35" x="30.8" y="89.2" class="get-answered-2 fill-primary"/><line id="getAnswered_32_" x1="41.3" x2="48.4" y1="86.7" y2="86.7" stroke-miterlimit="10" stroke-width="1.5" class="get-answered-5 fill-none stroke-primary"/><path id="getAnswered_27_" d="M63.6,124.3v-1.1c0-1.1-0.9-2-2-2l-3,0c-0.4-1.6-1-3.1-1.8-4.4l2.2-2.2c0.8-0.8,0.8-2,0-2.8 l-1.6-1.6c-0.8-0.8-2-0.8-2.8,0l-2.2,2.2c-1.3-0.8-2.8-1.5-4.4-1.8v-3c0-1.1-0.9-2-2-2h-2.3c-1.1,0-2,0.9-2,2v3 c-1.6,0.4-3,1-4.3,1.8l-2.1-2.2c-0.8-0.8-2-0.8-2.8,0l-1.6,1.6c-0.8,0.8-0.8,2,0,2.8l2.1,2.2c-0.8,1.3-1.5,2.8-1.8,4.4l-3,0 c-1.1,0-2,0.9-2,2l0,1.2h12.5c0-3.5,2.8-6.2,6.3-6.2c3.5,0,6.3,2.8,6.3,6.2H63.6z" class="get-answered-3 fill-white"/><path id="getAnswered_20_" stroke-miterlimit="10" stroke-width="1.5" d="M63.6,124.3v-1.1c0-1.1-0.9-2-2-2l-3,0c-0.4-1.6-1-3.1-1.8-4.4l2.2-2.2c0.8-0.8,0.8-2,0-2.8 l-1.6-1.6c-0.8-0.8-2-0.8-2.8,0l-2.2,2.2c-1.3-0.8-2.8-1.5-4.4-1.8v-3c0-1.1-0.9-2-2-2h-2.3c-1.1,0-2,0.9-2,2v3 c-1.6,0.4-3,1-4.3,1.8l-2.1-2.2c-0.8-0.8-2-0.8-2.8,0l-1.6,1.6c-0.8,0.8-0.8,2,0,2.8l2.1,2.2c-0.8,1.3-1.5,2.8-1.8,4.4l-3,0 c-1.1,0-2,0.9-2,2l0,1.2 M38.6,124.3c0-3.5,2.8-6.2,6.3-6.2c3.5,0,6.3,2.8,6.3,6.2" class="get-answered-4 fill-none stroke-warning"/></g><g id="getAnswered_37_"><line id="getAnswered_767_" x1="130.7" x2="130.7" y1="103.4" y2="108.6" stroke-miterlimit="10" stroke-width="1.5" class="get-answered-5 fill-none stroke-primary"/><path id="getAnswered_764_" d="M130.7,79c-6.9,0-12.5,5.6-12.5,12.5c0,6.9,5.6,12.5,12.5,12.5c6.9,0,12.5-5.6,12.5-12.5 C143.2,84.6,137.6,79,130.7,79z M130.7,101c-5.2,0-9.5-4.3-9.5-9.5c0-5.2,4.3-9.5,9.5-9.5c5.2,0,9.5,4.3,9.5,9.5 C140.2,96.8,135.9,101,130.7,101z" class="get-answered-3 fill-white"/><path id="getAnswered_114_" stroke-miterlimit="10" stroke-width="1.5" d="M137.7,81.2c-2-1.4-4.4-2.2-7-2.2c-6.9,0-12.5,5.6-12.5,12.5c0,6.9,5.6,12.5,12.5,12.5 c6.9,0,12.5-5.6,12.5-12.5" class="get-answered-5 fill-none stroke-primary"/><path id="getAnswered_113_" stroke-miterlimit="10" stroke-width="1.5" d="M142.9,88.7c-0.5-2.2-1.6-4.2-3.1-5.8" class="get-answered-5 fill-none stroke-primary"/><path id="getAnswered_762_" stroke-miterlimit="10" stroke-width="1.5" d="M129.5,83.6c4.7,0,8.6,3.8,8.6,8.6" class="get-answered-5 fill-none stroke-primary"/><path id="getAnswered_761_" d="M128.2,107l0,15.1c0,0.8,0.6,1.4,1.4,1.4l2,0c0.8,0,1.4-0.6,1.4-1.4V107L128.2,107z" class="get-answered-3 fill-white"/><path id="getAnswered_40_" stroke-miterlimit="10" stroke-width="1.5" d="M128.2,107l0,15.1c0,0.8,0.6,1.4,1.4,1.4l2,0c0.8,0,1.4-0.6,1.4-1.4V107L128.2,107z" class="get-answered-5 fill-none stroke-primary"/><line id="getAnswered_758_" x1="128.1" x2="133.3" y1="110.6" y2="110.6" stroke-miterlimit="10" stroke-width="1.5" class="get-answered-5 fill-none stroke-primary"/><line id="getAnswered_39_" x1="128.1" x2="133.3" y1="113.2" y2="113.2" stroke-miterlimit="10" stroke-width="1.5" class="get-answered-5 fill-none stroke-primary"/></g></g></svg>