<svg xmlns="http://www.w3.org/2000/svg" xmlns:xlink="http://www.w3.org/1999/xlink" x="0" y="0" viewBox="0 0 168.6 78.8" xml:space="preserve" style="enable-background:new 0 0 168.6 78.8"><style type="text/css">.post-resume-0{fill:#f6f9fc}.post-resume-1{fill:#fff}.post-resume-2{fill:none;stroke:#377dff}.post-resume-3{fill:#377dff}.post-resume-4{fill:none;stroke:#fff}.post-resume-5{fill:#ffc107}.post-resume-6{fill:#fff;stroke:#377dff}.post-resume-7,.post-resume-8{fill:#19a0ff}.post-resume-9{fill:#00c9a7}.post-resume-10{fill:none;stroke:#de4437}.post-resume-11{fill:#fff;stroke:#de4437}.post-resume-12{fill:none;stroke:#00c9a7}.post-resume-13{fill:none;stroke:#ffc107}.post-resume-14{fill:#13d7b6}</style><ellipse cx="84.3" cy="71.9" class="post-resume-0 fill-gray-200" rx="84.3" ry="6.9"/><g id="postResume_1_"><g id="postResume_58_"><path id="postResume_52_" d="M94,69H23.7c-0.5,0-1-0.5-1-1V18c0-0.5,0.4-1,1-1H94c0.5,0,1,0.5,1,1v50 C95,68.6,94.6,69,94,69z" class="post-resume-1 fill-white"/><line id="postResume_51_" x1="79.1" x2="84.1" y1="17" y2="17" stroke-miterlimit="10" stroke-width="1.5" class="post-resume-2 fill-none stroke-primary"/><path id="postResume_50_" stroke-miterlimit="10" stroke-width="1.5" d="M22.7,28.2v-9.4c0-1,0.8-1.8,1.8-1.8h51.4" class="post-resume-2 fill-none stroke-primary"/><path id="postResume_49_" stroke-miterlimit="10" stroke-width="1.5" d="M86.2,17h7c1,0,1.8,0.8,1.8,1.8v20.8" class="post-resume-2 fill-none stroke-primary"/><rect id="postResume_48_" width="64.9" height="42.2" x="26.2" y="21.1" class="post-resume-1 fill-white"/><rect id="postResume_47_" width="32.5" height="42.2" x="58.7" y="21.1" class="post-resume-3 fill-primary"/><path id="postResume_46_" d="M93.8,71.9H23.2c-1.7,0-3.1-1.2-3.4-2.9L19.2,66H52l1.3,1.8h9l1.4-1.8h34.5l-0.4,2.7 C97.3,70.5,95.7,71.9,93.8,71.9z" class="post-resume-1 fill-white"/><path id="postResume_45_" stroke-miterlimit="10" stroke-width="1.5" d="M93.8,71.9H23.2c-1.7,0-3.1-1.2-3.4-2.9L19.2,66H52l1.3,1.8h9l1.4-1.8h34.5l-0.4,2.7 C97.3,70.5,95.7,71.9,93.8,71.9z" class="post-resume-2 fill-none stroke-primary"/><line id="postResume_159_" x1="61.1" x2="73.8" y1="26.8" y2="26.8" stroke-miterlimit="10" stroke-width="1.5" class="post-resume-4 fill-none stroke-white"/><line id="postResume_44_" x1="61.1" x2="89.2" y1="34.3" y2="34.3" stroke-miterlimit="10" stroke-width="1.5" class="post-resume-4 fill-none stroke-white"/><line id="postResume_43_" x1="61.1" x2="89.2" y1="38.2" y2="38.2" stroke-miterlimit="10" stroke-width="1.5" class="post-resume-4 fill-none stroke-white"/><line id="postResume_42_" x1="61.1" x2="85.3" y1="42.1" y2="42.1" stroke-miterlimit="10" stroke-width="1.5" class="post-resume-4 fill-none stroke-white"/><line id="postResume_41_" x1="61.1" x2="85.3" y1="46" y2="46" stroke-miterlimit="10" stroke-width="1.5" class="post-resume-4 fill-none stroke-white"/><line id="postResume_40_" x1="61.1" x2="85.3" y1="49.8" y2="49.8" stroke-miterlimit="10" stroke-width="1.5" class="post-resume-4 fill-none stroke-white"/><line id="postResume_167_" x1="61.1" x2="78.1" y1="53.7" y2="53.7" stroke-miterlimit="10" stroke-width="1.5" class="post-resume-4 fill-none stroke-white"/></g><g id="postResume_614_"><line id="postResume_671_" x1="23.9" x2="19.2" y1="54.4" y2="58.4" stroke-miterlimit="10" stroke-width="1.5" class="post-resume-2 fill-none stroke-primary"/><path id="postResume_668_" d="M18.6,41.4c-0.8,10.3,6.9,19.4,17.2,20.2c10.3,0.8,19.4-6.9,20.2-17.2 C56.9,34,49.2,25,38.8,24.2C28.5,23.3,19.5,31,18.6,41.4z M23.1,41.7c0.6-7.9,7.5-13.7,15.4-13.1c7.9,0.6,13.7,7.5,13.1,15.4 c-0.6,7.9-7.5,13.7-15.4,13.1C28.3,56.5,22.5,49.6,23.1,41.7z" class="post-resume-5 fill-warning"/><rect width="8.1" height="7.4" x="12.7" y="56.9" stroke-miterlimit="10" stroke-width="1.5" class="post-resume-6 fill-white stroke-primary" transform="matrix(0.7619 -0.6477 0.6477 0.7619 -35.2587 25.2318)"/></g><g id="postResume_833_"><path id="postResume_828_" d="M33.3,41.3h-0.2c-0.3,0-0.5-0.2-0.5-1.6L32,35.2c-0.1-0.7,0.3-1.4,0.9-1.7 c0.2-0.1,0.4-0.3,0.4-0.3c-1.7-1.1-1.3-2.2-1.3-2.4c0,0,0,0,0,0c0.8,1.2,5.3,0.7,7.9,1.1c0.6,0.1,1.1,0.6,1.2,1.2l0.1,0.5l0,0 c0.5,0,0.9,0.4,0.9,0.9l-0.7,6.2c0,0.3-0.2,0.5-0.5,0.5H33.3z" class="post-resume-7 fill-primary-lighter" opacity=".5"/><path id="postResume_874_" stroke-miterlimit="10" stroke-width="1.5" d="M33.3,41.3h-0.2c-0.3,0-0.5-0.2-0.5-1.6L32,35.2c-0.1-0.7,0.3-1.4,0.9-1.7 c0.2-0.1,0.4-0.3,0.4-0.3c-1.7-1.1-1.3-2.2-1.3-2.4c0,0,0,0,0,0c0.8,1.2,5.3,0.7,7.9,1.1c0.6,0.1,1.1,0.6,1.2,1.2l0.1,0.5l0,0 c0.5,0,0.9,0.4,0.9,0.9l-0.7,6.2c0,0.3-0.2,0.5-0.5,0.5H33.3z" class="post-resume-2 fill-none stroke-primary"/><path id="postResume_868_" d="M42.6,39.4c0,0.3-0.3,0.6-0.6,0.6l0,0c-0.3,0-0.6-0.3-0.6-0.6v-0.6c0-0.3,0.3-0.6,0.6-0.6 l0,0c0.3,0,0.6,0.3,0.6,0.6V39.4z" class="post-resume-1 fill-white"/><path id="postResume_867_" stroke-miterlimit="10" stroke-width="1.5" d="M42.6,39.4c0,0.3-0.3,0.6-0.6,0.6l0,0c-0.3,0-0.6-0.3-0.6-0.6v-0.6c0-0.3,0.3-0.6,0.6-0.6 l0,0c0.3,0,0.6,0.3,0.6,0.6V39.4z" class="post-resume-2 fill-none stroke-primary"/><path id="postResume_866_" d="M32.6,39.4c0,0.3-0.3,0.6-0.6,0.6l0,0c-0.3,0-0.6-0.3-0.6-0.6v-0.6c0-0.3,0.3-0.6,0.6-0.6 l0,0c0.3,0,0.6,0.3,0.6,0.6V39.4z" class="post-resume-1 fill-white"/><path id="postResume_865_" stroke-miterlimit="10" stroke-width="1.5" d="M32.6,39.4c0,0.3-0.3,0.6-0.6,0.6l0,0c-0.3,0-0.6-0.3-0.6-0.6v-0.6c0-0.3,0.3-0.6,0.6-0.6 l0,0c0.3,0,0.6,0.3,0.6,0.6V39.4z" class="post-resume-2 fill-none stroke-primary"/><path id="postResume_864_" d="M43.4,54.2v-3.9c0-3-2.8-5.4-6.3-5.4l0,0c-3.5,0-6.3,2.4-6.3,5.4v3.9H43.4z" class="post-resume-7 fill-primary-lighter" opacity=".5"/><path id="postResume_840_" stroke-miterlimit="10" stroke-width="1.5" d="M43.4,54.2v-3.9c0-3-2.8-5.4-6.3-5.4l0,0c-3.5,0-6.3,2.4-6.3,5.4v3.9" class="post-resume-2 fill-none stroke-primary"/><line id="postResume_862_" x1="34.4" x2="34.4" y1="49.9" y2="54.2" stroke-miterlimit="10" stroke-width="1.5" class="post-resume-2 fill-none stroke-primary"/><line id="postResume_861_" x1="39.9" x2="39.9" y1="49.9" y2="54.2" stroke-miterlimit="10" stroke-width="1.5" class="post-resume-2 fill-none stroke-primary"/><path id="postResume_860_" d="M36.9,47L36.9,47c-0.7,0-1.2-0.5-1.2-1.2v-2.7c0-0.6,0.5-1,1-1H37c0.6,0,1,0.5,1,1v2.7 C38.1,46.5,37.5,47,36.9,47z" class="post-resume-1 fill-white"/><path id="postResume_835_" stroke-miterlimit="10" stroke-width="1.5" d="M36.9,47L36.9,47c-0.7,0-1.2-0.5-1.2-1.2v-2.7c0-0.6,0.5-1,1-1H37c0.6,0,1,0.5,1,1v2.7 C38.1,46.5,37.5,47,36.9,47z" class="post-resume-2 fill-none stroke-primary"/><path id="postResume_827_" d="M37,44.7L37,44.7c-2.5,0-4.5-2-4.5-4.5v-3.1c0-2.5,2-2.4,4.5-2.4l0,0c2.5,0,4.5-0.1,4.5,2.4 v3.1C41.5,42.7,39.5,44.7,37,44.7z" class="post-resume-1 fill-white"/><path id="postResume_855_" stroke-miterlimit="10" stroke-width="1.5" d="M37,44.7L37,44.7c-2.5,0-4.5-2-4.5-4.5v-3.1c0-2.5,2-2.4,4.5-2.4l0,0c2.5,0,4.5-0.1,4.5,2.4 v3.1C41.5,42.7,39.5,44.7,37,44.7z" class="post-resume-2 fill-none stroke-primary"/></g><path id="postResume_38_" d="M98.3,68.7l0.6-3.4H95V40.8H84.2v31.8h9.6C96,72.6,97.9,71,98.3,68.7z" class="post-resume-8 fill-primary-lighter" opacity=".3"/><g id="postResume_30_"><rect id="postResume_169_" width="49.5" height="30.5" x="86.7" y="41.4" class="post-resume-7 fill-primary-lighter"/><rect id="postResume_37_" width="43.5" height="25.2" x="89.7" y="44.1" class="post-resume-1 fill-white"/><rect id="postResume_170_" width="49.5" height="30.5" x="86.7" y="41.4" stroke-miterlimit="10" stroke-width="1.5" class="post-resume-2 fill-none stroke-primary"/><g id="postResume_171_"><polygon id="postResume_539_" points="126.9 62.6 125.1 62.6 125.1 68.2 126.9 67.5 128.7 68.2 128.7 62.6" class="post-resume-5 fill-warning"/><polygon id="postResume_172_" stroke-miterlimit="10" stroke-width="1.5" points="126.9 62.6 125.1 62.6 125.1 68.2 126.9 67.5 128.7 68.2 128.7 62.6" class="post-resume-10 fill-none stroke-danger"/><path id="postResume_36_" stroke-miterlimit="10" stroke-width="1.5" d="M131.5,60.9c0,0.6-0.5,1.1-0.8,1.6c-0.2,0.5-0.2,1.2-0.6,1.6c-0.4,0.4-1.1,0.4-1.6,0.6 c-0.5,0.2-1,0.8-1.6,0.8s-1.1-0.5-1.6-0.8c-0.5-0.2-1.2-0.2-1.6-0.6c-0.4-0.4-0.4-1.1-0.6-1.6c-0.2-0.5-0.8-1-0.8-1.6 s0.5-1.1,0.8-1.6c0.2-0.5,0.2-1.2,0.6-1.6c0.4-0.4,1.1-0.4,1.6-0.6c0.5-0.2,1-0.8,1.6-0.8c0.6,0,1.1,0.5,1.6,0.8 c0.5,0.2,1.2,0.2,1.6,0.6c0.4,0.4,0.4,1.1,0.6,1.6C130.9,59.8,131.5,60.3,131.5,60.9z" class="post-resume-11 fill-white stroke-danger"/><path id="postResume_35_" stroke-miterlimit="10" stroke-width="1.5" d="M131.5,60.9c0,0.6-0.5,1.1-0.8,1.6c-0.2,0.5-0.2,1.2-0.6,1.6c-0.4,0.4-1.1,0.4-1.6,0.6 c-0.5,0.2-1,0.8-1.6,0.8s-1.1-0.5-1.6-0.8c-0.5-0.2-1.2-0.2-1.6-0.6c-0.4-0.4-0.4-1.1-0.6-1.6c-0.2-0.5-0.8-1-0.8-1.6 s0.5-1.1,0.8-1.6c0.2-0.5,0.2-1.2,0.6-1.6c0.4-0.4,1.1-0.4,1.6-0.6c0.5-0.2,1-0.8,1.6-0.8c0.6,0,1.1,0.5,1.6,0.8 c0.5,0.2,1.2,0.2,1.6,0.6c0.4,0.4,0.4,1.1,0.6,1.6C130.9,59.8,131.5,60.3,131.5,60.9z" class="post-resume-10 fill-none stroke-danger"/></g><line id="postResume_34_" x1="96" x2="119.8" y1="51.5" y2="51.5" stroke-miterlimit="10" stroke-width="1.5" class="post-resume-2 fill-none stroke-primary"/><line id="postResume_33_" x1="96" x2="119.8" y1="53.9" y2="53.9" stroke-miterlimit="10" stroke-width="1.5" class="post-resume-2 fill-none stroke-primary"/><line id="postResume_32_" x1="96" x2="119.8" y1="56.3" y2="56.3" stroke-miterlimit="10" stroke-width="1.5" class="post-resume-2 fill-none stroke-primary"/><line id="postResume_31_" x1="96" x2="119.8" y1="58.7" y2="58.7" stroke-miterlimit="10" stroke-width="1.5" class="post-resume-2 fill-none stroke-primary"/><line id="postResume_173_" x1="96" x2="119.8" y1="61.2" y2="61.2" stroke-miterlimit="10" stroke-width="1.5" class="post-resume-2 fill-none stroke-primary"/></g><g><line id="postResume_29_" x1="147.5" x2="147.5" y1="56.8" y2="71.9" stroke-miterlimit="10" stroke-width="1.5" class="post-resume-12 fill-none stroke-success"/><ellipse id="postResume_28_" cx="147.6" cy="50.5" class="post-resume-1 fill-white" rx="8.1" ry="8.1" transform="matrix(0.9755 -0.2199 0.2199 0.9755 -7.4901 33.6834)"/><path id="postResume_27_" stroke-miterlimit="10" stroke-width="1.5" d="M154.4,46.2c0.8,1.2,1.2,2.7,1.2,4.3c0,4.5-3.6,8.1-8.1,8.1c-4.5,0-8.1-3.6-8.1-8.1 c0-4.5,3.6-8.1,8.1-8.1c0.9,0,1.7,0.1,2.5,0.4" class="post-resume-13 fill-none stroke-warning"/><path id="postResume_26_" stroke-miterlimit="10" stroke-width="1.5" d="M151.5,43.4c0.6,0.3,1.1,0.7,1.5,1.1" class="post-resume-13 fill-none stroke-warning"/><g id="postResume_24_"><path id="postResume_194_" stroke-miterlimit="10" stroke-width="1.5" d="M150.8,47.4h-4c-0.8,0-1.5,0.7-1.5,1.5l0,0c0,0.8,0.7,1.5,1.5,1.5h1.6 c0.8,0,1.5,0.7,1.5,1.5l0,0c0,0.8-0.7,1.5-1.5,1.5h-4.1" class="post-resume-13 fill-none stroke-warning"/><line id="postResume_25_" x1="147.6" x2="147.6" y1="44.9" y2="56.1" stroke-miterlimit="10" stroke-width="1.5" class="post-resume-13 fill-none stroke-warning"/></g><path id="postResume_23_" d="M157.1,59.7c0,0,0.3,4.1-2,6.4c-2.3,2.3-6.4,2-6.4,2s-0.3-4.1,2-6.4 C153,59.4,157.1,59.7,157.1,59.7z" class="post-resume-14 fill-success-lighter" opacity=".6"/><path id="postResume_22_" stroke-miterlimit="10" stroke-width="1.5" d="M157.1,59.7c0,0,0.3,4.1-2,6.4c-2.3,2.3-6.4,2-6.4,2s-0.3-4.1,2-6.4 C153,59.4,157.1,59.7,157.1,59.7z" class="post-resume-12 fill-none stroke-success"/><path id="postResume_21_" d="M146.7,68.1c0,0,0.3-4.1-2-6.4c-2.3-2.3-6.4-2-6.4-2s-0.3,4.1,2,6.4 C142.7,68.4,146.7,68.1,146.7,68.1z" class="post-resume-14 fill-success-lighter" opacity=".6"/><path id="postResume_20_" stroke-miterlimit="10" stroke-width="1.5" d="M146.7,68.1c0,0,0.3-4.1-2-6.4c-2.3-2.3-6.4-2-6.4-2s-0.3,4.1,2,6.4 C142.7,68.4,146.7,68.1,146.7,68.1z" class="post-resume-12 fill-none stroke-success"/></g><g id="postResume_3_"><rect id="postResume_19_" width="10.6" height="9.7" x="111.6" y="8.4" class="post-resume-1 fill-white"/><rect id="postResume_18_" width="10.6" height="9.7" x="111.6" y="8.4" stroke-miterlimit="10" stroke-width="1.5" class="post-resume-2 fill-none stroke-primary"/><polygon id="postResume_17_" points="123.8 39.6 122.5 18.7 111.3 18.7 110 39.6" class="post-resume-1 fill-white"/><polygon id="postResume_16_" points="122.5 18.7 111.9 18.7 111.3 19 110.9 25.9 122.5 19.2" class="post-resume-9 fill-success"/><polygon id="postResume_15_" points="110 39.6 123.3 31.9 122.9 25.5 110.4 32.7" class="post-resume-9 fill-success"/><polygon id="postResume_14_" stroke-miterlimit="10" stroke-width="1.5" points="122.5 18.7 111.9 18.7 111.3 19 110.9 25.9 122.5 19.2" class="post-resume-2 fill-none stroke-primary"/><polyline id="postResume_13_" stroke-miterlimit="10" stroke-width="1.5" points="110 39.6 123.3 31.9 122.9 25.5 110.4 32.7" class="post-resume-2 fill-none stroke-primary"/><line id="postResume_12_" x1="123.6" x2="123.8" y1="36.5" y2="39.6" stroke-miterlimit="10" stroke-width="1.5" class="post-resume-2 fill-none stroke-primary"/><polyline id="postResume_11_" stroke-miterlimit="10" stroke-width="1.5" points="110 40 111.3 18.7 122.5 18.7 123.5 34.1" class="post-resume-2 fill-none stroke-primary"/><path id="postResume_10_" d="M123.3,19.9h-12.9c-0.3,0-0.5-0.2-0.5-0.5v-2.5c0-0.3,0.2-0.5,0.5-0.5h12.9 c0.3,0,0.5,0.2,0.5,0.5v2.5C123.8,19.6,123.6,19.9,123.3,19.9z" class="post-resume-1 fill-white"/><path id="postResume_196_" stroke-miterlimit="10" stroke-width="1.5" d="M123.3,19.9h-12.9c-0.3,0-0.5-0.2-0.5-0.5v-2.5c0-0.3,0.2-0.5,0.5-0.5h12.9 c0.3,0,0.5,0.2,0.5,0.5v2.5C123.8,19.6,123.6,19.9,123.3,19.9z" class="post-resume-2 fill-none stroke-primary"/><path id="postResume_195_" d="M116.8,1.7l-7.9,6.5c-0.1,0.1,0,0.2,0.1,0.2h15.8c0.1,0,0.2-0.1,0.1-0.2L117,1.7 C116.9,1.7,116.9,1.7,116.8,1.7z" class="post-resume-1 fill-white"/><path id="postResume_9_" stroke-miterlimit="10" stroke-width="1.5" d="M116.8,1.7l-7.9,6.5c-0.1,0.1,0,0.2,0.1,0.2h15.8c0.1,0,0.2-0.1,0.1-0.2L117,1.7 C116.9,1.7,116.9,1.7,116.8,1.7z" class="post-resume-2 fill-none stroke-primary"/><path id="postResume_8_" stroke-miterlimit="10" stroke-width="1.5" d="M118.3,12.5c0,0.8-0.6,1.4-1.4,1.4c-0.8,0-1.4-0.6-1.4-1.4c0-0.8,0.6-1.4,1.4-1.4 C117.7,11.1,118.3,11.7,118.3,12.5z" class="post-resume-12 fill-none stroke-success"/><line id="postResume_7_" x1="100.9" x2="108.4" y1="18.7" y2="14.3" stroke-miterlimit="10" stroke-width="1.5" class="post-resume-2 fill-none stroke-primary"/><line id="postResume_6_" x1="108.4" x2="100.9" y1="10.7" y2="6.3" stroke-miterlimit="10" stroke-width="1.5" class="post-resume-2 fill-none stroke-primary"/><line id="postResume_5_" x1="133.3" x2="125.8" y1="18.7" y2="14.3" stroke-miterlimit="10" stroke-width="1.5" class="post-resume-2 fill-none stroke-primary"/><line id="postResume_4_" x1="125.8" x2="133.3" y1="10.7" y2="6.3" stroke-miterlimit="10" stroke-width="1.5" class="post-resume-2 fill-none stroke-primary"/></g></g></svg>