<svg xmlns="http://www.w3.org/2000/svg" xmlns:xlink="http://www.w3.org/1999/xlink" x="0" y="0" viewBox="0 0 1671.2 578" xml:space="preserve" style="enable-background:new 0 0 1671.2 578"><style type="text/css">.showcase-mockup-1-0{fill:#e7eaf3}.showcase-mockup-1-1{fill:#bdc5d1}.showcase-mockup-1-2{fill:none;stroke:#fff}.showcase-mockup-1-3{fill:#00dffc}.showcase-mockup-1-4{fill:#ffc107}.showcase-mockup-1-5{fill:#97a4af}.showcase-mockup-1-6{fill:none;stroke:#97a4af}.showcase-mockup-1-7{fill:#fff;stroke:#e7eaf3}.showcase-mockup-1-8{fill:#f8fafd}.showcase-mockup-1-9{fill:none;stroke:#e7eaf3}.showcase-mockup-1-10{fill:#fff}</style><path d="M8,577.9c0,0-98.1-236,391.3-335s391.3,189,752,67c129.7-43.9,230.3-55.9,305.9-53.4	c125.5,4.2,222.9,109.5,213.1,232c-2.4,30.5-9.1,61.3-22.5,89.4H8z" class="showcase-mockup-1-0 fill-gray-300"/><g><g><path d="M1223.5,323.6c12.1,12.5,24,24.6,41.8,29.1c12.9,3.3,26.7,1.7,38.7-4c15.7-7.6,28.9-23.9,47.4-24.2 c9.9-0.1,19.2,4.5,25,12.5c15.2,20.8,2,43-13.6,58.9c-18.3,18.7-41.7,34.7-41.6,63.7c0.1,17.2,10.6,35.7,4.8,52.9 c-8.5,25.3-41.4,17.2-59.7,9.4c-16.5-7.2-32.4-14.7-47.4-24.9c-7.8-5.2-15.1-11.7-19.2-20.1c-10.2-20.7,8.8-34.8,14.5-53.2 c3-9.8,2.3-20-1.7-29.5c-7.2-17.1-20.7-30.9-32.7-44.7c-11.5-13.2-16.5-38.5,4.4-46.4c9.5-3.6,19,0.9,26.2,7.3 C1214.9,314.7,1219.2,319.2,1223.5,323.6z" class="showcase-mockup-1-1 fill-gray-400"/></g><g><g><defs><path id="showcaseMockup1_1" d="M1223.5,323.6c12.1,12.5,24,24.6,41.8,29.1c12.9,3.3,26.7,1.7,38.7-4c15.7-7.6,28.9-23.9,47.4-24.2 c9.9-0.1,19.2,4.5,25,12.5c15.2,20.8,2,43-13.6,58.9c-18.3,18.7-41.7,34.7-41.6,63.7c0.1,17.2,10.6,35.7,4.8,52.9 c-8.5,25.3-41.4,17.2-59.7,9.4c-16.5-7.2-32.4-14.7-47.4-24.9c-7.8-5.2-15.1-11.7-19.2-20.1c-10.2-20.7,8.8-34.8,14.5-53.2 c3-9.8,2.3-20-1.7-29.5c-7.2-17.1-20.7-30.9-32.7-44.7c-11.5-13.2-16.5-38.5,4.4-46.4c9.5-3.6,19,0.9,26.2,7.3 C1214.9,314.7,1219.2,319.2,1223.5,323.6z"/></defs><clipPath id="showcaseMockup1_2"><use xlink:href="#showcaseMockup1_1" style="overflow:visible"/></clipPath><path stroke-miterlimit="10" stroke-width="4" d="M1202.7,426.2c0,0,3.5,30.9,60,37.8s68.5,63.7,68.5,63.7" class="showcase-mockup-1-2 fill-none stroke-white" clip-path="url(#showcaseMockup1_2)"/></g></g><g><g><defs><path id="showcaseMockup1_3" d="M1223.5,323.6c12.1,12.5,24,24.6,41.8,29.1c12.9,3.3,26.7,1.7,38.7-4c15.7-7.6,28.9-23.9,47.4-24.2 c9.9-0.1,19.2,4.5,25,12.5c15.2,20.8,2,43-13.6,58.9c-18.3,18.7-41.7,34.7-41.6,63.7c0.1,17.2,10.6,35.7,4.8,52.9 c-8.5,25.3-41.4,17.2-59.7,9.4c-16.5-7.2-32.4-14.7-47.4-24.9c-7.8-5.2-15.1-11.7-19.2-20.1c-10.2-20.7,8.8-34.8,14.5-53.2 c3-9.8,2.3-20-1.7-29.5c-7.2-17.1-20.7-30.9-32.7-44.7c-11.5-13.2-16.5-38.5,4.4-46.4c9.5-3.6,19,0.9,26.2,7.3 C1214.9,314.7,1219.2,319.2,1223.5,323.6z"/></defs><clipPath id="showcaseMockup1_4"><use xlink:href="#showcaseMockup1_3" style="overflow:visible"/></clipPath><path stroke-miterlimit="10" stroke-width="4" d="M1207.9,400c0,0,3.5,30.9,60,37.8s68.5,63.7,68.5,63.7" class="showcase-mockup-1-2 fill-none stroke-white" clip-path="url(#showcaseMockup1_4)"/></g></g><g><g><defs><path id="showcaseMockup1_5" d="M1223.5,323.6c12.1,12.5,24,24.6,41.8,29.1c12.9,3.3,26.7,1.7,38.7-4c15.7-7.6,28.9-23.9,47.4-24.2 c9.9-0.1,19.2,4.5,25,12.5c15.2,20.8,2,43-13.6,58.9c-18.3,18.7-41.7,34.7-41.6,63.7c0.1,17.2,10.6,35.7,4.8,52.9 c-8.5,25.3-41.4,17.2-59.7,9.4c-16.5-7.2-32.4-14.7-47.4-24.9c-7.8-5.2-15.1-11.7-19.2-20.1c-10.2-20.7,8.8-34.8,14.5-53.2 c3-9.8,2.3-20-1.7-29.5c-7.2-17.1-20.7-30.9-32.7-44.7c-11.5-13.2-16.5-38.5,4.4-46.4c9.5-3.6,19,0.9,26.2,7.3 C1214.9,314.7,1219.2,319.2,1223.5,323.6z"/></defs><clipPath id="showcaseMockup1_6"><use xlink:href="#showcaseMockup1_5" style="overflow:visible"/></clipPath><path stroke-miterlimit="10" stroke-width="4" d="M1171.4,340.9c0,0,4.4,37.7,74.6,46.2c70.3,8.6,85.1,77.8,85.1,77.8" class="showcase-mockup-1-2 fill-none stroke-white" clip-path="url(#showcaseMockup1_6)"/></g></g><g><g><defs><path id="showcaseMockup1_7" d="M1223.5,323.6c12.1,12.5,24,24.6,41.8,29.1c12.9,3.3,26.7,1.7,38.7-4c15.7-7.6,28.9-23.9,47.4-24.2 c9.9-0.1,19.2,4.5,25,12.5c15.2,20.8,2,43-13.6,58.9c-18.3,18.7-41.7,34.7-41.6,63.7c0.1,17.2,10.6,35.7,4.8,52.9 c-8.5,25.3-41.4,17.2-59.7,9.4c-16.5-7.2-32.4-14.7-47.4-24.9c-7.8-5.2-15.1-11.7-19.2-20.1c-10.2-20.7,8.8-34.8,14.5-53.2 c3-9.8,2.3-20-1.7-29.5c-7.2-17.1-20.7-30.9-32.7-44.7c-11.5-13.2-16.5-38.5,4.4-46.4c9.5-3.6,19,0.9,26.2,7.3 C1214.9,314.7,1219.2,319.2,1223.5,323.6z"/></defs><clipPath id="showcaseMockup1_8"><use xlink:href="#showcaseMockup1_7" style="overflow:visible"/></clipPath><path stroke-miterlimit="10" stroke-width="4" d="M1196.6,298.6c0,0,4.4,37.7,74.6,46.2c70.2,8.6,85.1,77.8,85.1,77.8" class="showcase-mockup-1-2 fill-none stroke-white" clip-path="url(#showcaseMockup1_8)"/></g></g></g><circle cx="1499.2" cy="231.1" r="50.7" class="showcase-mockup-1-3 fill-info" opacity=".3"/><circle cx="1336.5" cy="140.7" r="10.3" class="showcase-mockup-1-4 fill-warning"/><circle cx="153.5" cy="207.7" r="5.7" class="showcase-mockup-1-5 fill-gray-500" opacity=".8"/><g><line x1="1448.2" x2="1495.5" y1="232.1" y2="178.7" stroke-linecap="round" stroke-miterlimit="10" stroke-width="5" class="showcase-mockup-1-2 fill-none stroke-white"/><line x1="1448.2" x2="1495.5" y1="259.1" y2="205.7" stroke-linecap="round" stroke-miterlimit="10" stroke-width="5" class="showcase-mockup-1-2 fill-none stroke-white"/><line x1="1448.2" x2="1495.5" y1="286.1" y2="232.7" stroke-linecap="round" stroke-miterlimit="10" stroke-width="5" class="showcase-mockup-1-2 fill-none stroke-white"/></g><circle cx="56.7" cy="486" r="9.1" stroke-miterlimit="10" stroke-width="3" class="showcase-mockup-1-2 fill-none stroke-white"/><circle cx="83.7" cy="459" r="5.1" stroke-miterlimit="10" stroke-width="2.5" class="showcase-mockup-1-2 fill-none stroke-white"/><circle cx="1559.7" cy="45.2" r="10" stroke-linecap="round" stroke-miterlimit="10" stroke-width="7" class="showcase-mockup-1-6 fill-none stroke-gray-500" opacity=".5"/><g id="laptop"><path stroke-miterlimit="10" d="M1226.3,577H462.5c-14.4,0-26.2-11.8-26.2-26.2V26.7c0-14.4,11.8-26.2,26.2-26.2h763.9 c14.4,0,26.2,11.8,26.2,26.2v524.2C1252.5,565.2,1240.7,577,1226.3,577z" class="showcase-mockup-1-7 fill-white stroke-gray-300"/><circle cx="843" cy="23.8" r="3" class="showcase-mockup-1-0 fill-gray-300"/><path d="M1341.3,562.2H347.9c-1.5,0-2.8-1.3-2.8-2.8l0,0c0-1.5,1.3-2.8,2.8-2.8h993.4c1.5,0,2.8,1.3,2.8,2.8l0,0 C1344.1,560.9,1342.9,562.2,1341.3,562.2z" class="showcase-mockup-1-8 fill-gray-200"/><linearGradient id="showcaseMockup1_9" x1="345" x2="1344.1" y1="9.9" y2="9.9" gradientTransform="matrix(1 0 0 -1 0 580)" gradientUnits="userSpaceOnUse"><stop offset="0" style="stop-color:#e7eaf3"/><stop offset=".052" style="stop-color:#f8fafd"/><stop offset=".171" style="stop-color:#fdfdfd"/><stop offset=".5" style="stop-color:#fff"/><stop offset=".829" style="stop-color:#fdfdfd"/><stop offset=".948" style="stop-color:#f8fafd"/><stop offset=".996" style="stop-color:#e7eaf3"/></linearGradient><path fill="url(#showcaseMockup1_9)" d="M844.6,564L345,562.2c0,0,24.1,11.3,117.8,15.8H843h3.1h380.2c93.7-4.5,117.8-15.8,117.8-15.8L844.6,564z"/><linearGradient id="showcaseMockup1_10" x1="748.9" x2="940" y1="1134.705" y2="1134.705" gradientTransform="matrix(1 0 0 1 0 -574.5047)" gradientUnits="userSpaceOnUse"><stop offset="0" style="stop-color:#e7eaf3"/><stop offset=".052" style="stop-color:#f8fafd"/><stop offset=".171" style="stop-color:#fdfdfd"/><stop offset=".5" style="stop-color:#fff"/><stop offset=".829" style="stop-color:#fdfdfd"/><stop offset=".948" style="stop-color:#f8fafd"/><stop offset=".996" style="stop-color:#e7eaf3"/></linearGradient><path fill="url(#showcaseMockup1_10)" d="M936.4,563.7h-184c-1.9,0-3.5-1.6-3.5-3.5v-3.5H940v3.5C940,562.1,938.4,563.7,936.4,563.7z"/><g><g><path id="showcaseMockup1_11" d="M1216,507.7H469.4c-2.3,0-4.2-1.9-4.2-4.2V41.9c0-2.3,1.9-4.2,4.2-4.2H1216 c2.3,0,4.2,1.9,4.2,4.2v461.6C1220.2,505.9,1218.3,507.7,1216,507.7z" class="showcase-mockup-1-0 fill-gray-300"/></g><g><defs><path id="showcaseMockup1_11" d="M1216,507.7H469.4c-2.3,0-4.2-1.9-4.2-4.2V41.9c0-2.3,1.9-4.2,4.2-4.2H1216c2.3,0,4.2,1.9,4.2,4.2v461.6 C1220.2,505.9,1218.3,507.7,1216,507.7z"/></defs><clipPath id="showcaseMockup1_12"><use xlink:href="#showcaseMockup1_11" style="overflow:visible"/></clipPath><g clip-path="url(#showcaseMockup1_12)"><image id="SVGshowcaseMockup1Img1" width="755" height="470" transform="matrix(1 0 0 1 465.1837 37.7477)" xlink:href="../../img/755x470/img1.jpg" style="overflow:visible"/></g></g><g><path stroke-miterlimit="10" d="M1216,507.7H469.4c-2.3,0-4.2-1.9-4.2-4.2V41.9c0-2.3,1.9-4.2,4.2-4.2H1216c2.3,0,4.2,1.9,4.2,4.2v461.6 C1220.2,505.9,1218.3,507.7,1216,507.7z" class="showcase-mockup-1-9"/></g></g></g><path d="M511.8,490.7H215c-0.9,0-1.6-0.7-1.6-1.6V132.4c0-0.9,0.7-1.6,1.6-1.6h296.8c0.9,0,1.6,0.7,1.6,1.6v356.8	C513.4,490,512.7,490.7,511.8,490.7z" class="showcase-mockup-1-0 fill-gray-300" opacity=".3"/><g><g><path id="showcaseMockup1_13" d="M502.8,481.7H206c-0.9,0-1.6-0.7-1.6-1.6V123.4c0-0.9,0.7-1.6,1.6-1.6h296.8 c0.9,0,1.6,0.7,1.6,1.6v356.8C504.4,481,503.7,481.7,502.8,481.7z" class="showcase-mockup-1-10 fill-white"/></g><g><defs><path id="showcaseMockup1_13" d="M502.8,481.7H206c-0.9,0-1.6-0.7-1.6-1.6V123.4c0-0.9,0.7-1.6,1.6-1.6h296.8c0.9,0,1.6,0.7,1.6,1.6v356.8 C504.4,481,503.7,481.7,502.8,481.7z"/></defs><clipPath id="showcaseMockup1_14"><use xlink:href="#showcaseMockup1_13" style="overflow:visible"/></clipPath><g clip-path="url(#showcaseMockup1_14)"><image id="SVGshowcaseMockup1Img2" width="300" height="360" transform="matrix(1 0 0 1 204.1837 121.7477)" xlink:href="../../img/300x360/img1.jpg" style="overflow:visible"/></g></g><g><path stroke-miterlimit="10" d="M502.8,481.7H206c-0.9,0-1.6-0.7-1.6-1.6V123.4c0-0.9,0.7-1.6,1.6-1.6h296.8c0.9,0,1.6,0.7,1.6,1.6v356.8 C504.4,481,503.7,481.7,502.8,481.7z" class="showcase-mockup-1-9"/></g></g></svg>