<svg xmlns="http://www.w3.org/2000/svg" xmlns:xlink="http://www.w3.org/1999/xlink" x="0" y="0" viewBox="0 0 594.8 635.9" xml:space="preserve" style="enable-background:new 0 0 594.8 635.9"><style type="text/css">.abstract-shapes-4-0{fill:#00dffc}.abstract-shapes-4-1{fill:none;stroke:#fff}.abstract-shapes-4-2{fill:none;stroke:#377dff}</style><polygon points="105.2 5.4 18.8 155 191.5 155" class="abstract-shapes-4-0 fill-info" opacity=".5"/><linearGradient id="abstractShapes4_1" x1="115.423" x2="222.577" y1="149.5" y2="188.5" gradientUnits="userSpaceOnUse"><stop class="stop-color-primary" offset="0" style="stop-color:#377dff"/><stop class="stop-color-indigo" offset="1" style="stop-color:#2d1582"/></linearGradient><circle cx="169" cy="169" r="57" fill="url(#abstractShapes4_1)"/><g><defs><path id="abstractShapes4_2" d="M94.4,245.4c20.7,21.4,41.2,42.3,71.8,50c22.1,5.6,45.9,3,66.5-6.9c26.9-13,49.7-41.1,81.5-41.5 c17-0.2,32.9,7.7,43,21.5c26.1,35.8,3.4,73.8-23.4,101.2c-31.4,32.2-71.6,59.6-71.4,109.5c0.1,29.5,18.2,61.3,8.2,90.9 c-14.6,43.4-71.1,29.6-102.5,16.1c-28.4-12.3-55.7-25.3-81.4-42.7c-13.4-9-25.9-20.1-33-34.6c-17.5-35.6,15.1-59.7,24.9-91.3 c5.2-16.8,3.9-34.4-3-50.6c-12.4-29.4-35.6-53-56.2-76.8c-19.7-22.7-28.4-66.2,7.5-79.7c16.4-6.2,32.7,1.6,45,12.6 C79.6,230.1,87,237.8,94.4,245.4z"/></defs><use xlink:href="#abstractShapes4_2" style="overflow:visible;fill:#ffc107"/><clipPath id="abstractShapes4_3"><use xlink:href="#abstractShapes4_2" style="overflow:visible"/></clipPath><path stroke-miterlimit="10" stroke-width="6" d="M58.7,421.6c0,0,6,53,103,65S279.3,596,279.3,596" class="abstract-shapes-4-1 fill-none stroke-white" clip-path="url(#abstractShapes4_3)"/><path stroke-miterlimit="10" stroke-width="6" d="M67.7,376.6c0,0,6,53,103,65S288.3,551,288.3,551" class="abstract-shapes-4-1 fill-none stroke-white" clip-path="url(#abstractShapes4_3)"/><path stroke-miterlimit="10" stroke-width="7" d="M5,275c0,0,7.5,64.7,128.1,79.4C253.8,369.1,279.3,488,279.3,488" class="abstract-shapes-4-1 fill-none stroke-white" clip-path="url(#abstractShapes4_3)"/><path stroke-miterlimit="10" stroke-width="7" d="M48.3,202.5c0,0,7.5,64.7,128.1,79.4c120.6,14.7,146.1,133.6,146.1,133.6" class="abstract-shapes-4-1 fill-none stroke-white" clip-path="url(#abstractShapes4_3)"/></g><circle cx="45.5" cy="603.3" r="9.1" stroke-miterlimit="10" stroke-width="3" class="abstract-shapes-4-2 fill-none stroke-primary"/><circle cx="72.5" cy="576.3" r="5.1" stroke-miterlimit="10" stroke-width="2.5" class="abstract-shapes-4-2 fill-none stroke-primary"/></svg>