<svg xmlns="http://www.w3.org/2000/svg" xmlns:xlink="http://www.w3.org/1999/xlink" x="0" y="0" viewBox="0 0 594.8 635.9" xml:space="preserve" style="enable-background:new 0 0 594.8 635.9"><style type="text/css">.abstract-shapes-3-0{fill:#ffc107}.abstract-shapes-3-1{fill:none;stroke:#00dffc}.abstract-shapes-3-2{fill:#00dffc}</style><path d="M94.4,245.4c20.7,21.4,41.2,42.3,71.8,50c22.1,5.6,45.9,3,66.5-6.9c26.9-13,49.7-41.1,81.5-41.5	c17-0.2,32.9,7.7,43,21.5c26.1,35.8,3.4,73.8-23.4,101.2c-31.4,32.2-71.6,59.6-71.4,109.5c0.1,29.5,18.2,61.3,8.2,90.9	c-14.6,43.4-71.1,29.6-102.5,16.1c-28.4-12.3-55.7-25.3-81.4-42.7c-13.4-9-25.9-20.1-33-34.6c-17.5-35.6,15.1-59.7,24.9-91.3	c5.2-16.8,3.9-34.4-3-50.6c-12.4-29.4-35.6-53-56.2-76.8c-19.7-22.7-28.4-66.2,7.5-79.7c16.4-6.2,32.7,1.6,45,12.6	C79.6,230.1,87,237.8,94.4,245.4z" class="abstract-shapes-3-0 fill-warning"/><g><line x1="39.1" x2="86.4" y1="568.7" y2="515.4" stroke-linecap="round" stroke-miterlimit="10" stroke-width="5" class="abstract-shapes-3-1 fill-none stroke-info"/><line x1="39.1" x2="86.4" y1="595.7" y2="542.4" stroke-linecap="round" stroke-miterlimit="10" stroke-width="5" class="abstract-shapes-3-1 fill-none stroke-info"/><line x1="39.1" x2="86.4" y1="622.7" y2="569.4" stroke-linecap="round" stroke-miterlimit="10" stroke-width="5" class="abstract-shapes-3-1 fill-none stroke-info"/></g><radialGradient id="abstractShapes3_1" cx="1764.897" cy="-193.715" r="201.624" gradientTransform="matrix(-0.7976 0.6032 0.6032 0.7976 1761.7972 -689.0652)" gradientUnits="userSpaceOnUse"><stop class="stop-color-dark" offset=".216" style="stop-color:#1e2022"/><stop class="stop-color-white" offset="1" style="stop-color:#fff"/></radialGradient><path fill="url(#abstractShapes3_1)" d="M236.4,31c60.5-44.6,146.8-0.3,143.9,74.9c0,1-0.1,2-0.1,2.9c-5.7,95,128.3,111.4,51.9,156.6s5.1,77-71.6,107.4	c-76.8,30.4-120.3,93.2-214.1-12.1C61,264.8-3.5,302.8,12.8,221.1c3-15.2,4.9-30.7,4.9-46.2c0.1-25.7,12.8-71.2,95.6-89.1	C167.4,74.2,208.1,51.8,236.4,31z" class="abstract-shapes-3-2" opacity=".05"/><linearGradient id="abstractShapes3_2" x1="1561.19" x2="1968.604" y1="-193.715" y2="-193.715" gradientTransform="matrix(-0.7976 0.6032 0.6032 0.7976 1761.7972 -689.0652)" gradientUnits="userSpaceOnUse"><stop class="stop-color-primary" offset="0" style="stop-color:#377dff"/><stop class="stop-color-indigo" offset="1" style="stop-color:#2d1582"/></linearGradient><path fill="url(#abstractShapes3_2)" d="M236.4,31c60.5-44.6,146.8-0.3,143.9,74.9c0,1-0.1,2-0.1,2.9c-5.7,95,128.3,111.4,51.9,156.6s5.1,77-71.6,107.4	c-76.8,30.4-120.3,93.2-214.1-12.1C61,264.8-3.5,302.8,12.8,221.1c3-15.2,4.9-30.7,4.9-46.2c0.1-25.7,12.8-71.2,95.6-89.1	C167.4,74.2,208.1,51.8,236.4,31z"/><g><circle cx="78" cy="88.3" r="2.8" class="abstract-shapes-3-2 fill-info"/><circle cx="89.7" cy="104" r="3.5" class="abstract-shapes-3-2 fill-info"/><circle cx="66.4" cy="130" r="1.7" class="abstract-shapes-3-2 fill-info"/><circle cx="92.6" cy="68.7" r="1.8" class="abstract-shapes-3-2 fill-info"/><circle cx="69.3" cy="67" r="2" class="abstract-shapes-3-2 fill-info"/><circle cx="57.9" cy="48.8" r="4.3" class="abstract-shapes-3-2 fill-info"/><circle cx="105.2" cy="88.3" r="2.1" class="abstract-shapes-3-2 fill-info"/><circle cx="82.2" cy="119.9" r="1.4" class="abstract-shapes-3-2 fill-info"/><circle cx="24.3" cy="88.3" r="4.4" class="abstract-shapes-3-2 fill-info"/><circle cx="54.2" cy="76.7" r="2.3" class="abstract-shapes-3-2 fill-info"/><circle cx="43.6" cy="115.8" r="3.2" class="abstract-shapes-3-2 fill-info"/><circle cx="22.3" cy="44.6" r="5.2" class="abstract-shapes-3-2 fill-info"/><circle cx="45.8" cy="28.8" r="2.2" class="abstract-shapes-3-2 fill-info"/><circle cx="73.6" cy="42.6" r="2" class="abstract-shapes-3-2 fill-info"/><circle cx="100" cy="44.6" r="4" class="abstract-shapes-3-2 fill-info"/><circle cx="105.2" cy="67" r="2.6" class="abstract-shapes-3-2 fill-info"/><circle cx="24.3" cy="70.6" r="2" class="abstract-shapes-3-2 fill-info"/><circle cx="120" cy="97.8" r="3.6" class="abstract-shapes-3-2 fill-info"/><circle cx="62.1" cy="100.9" r="3.1" class="abstract-shapes-3-2 fill-info"/><circle cx="114.1" cy="125.6" r="4.3" class="abstract-shapes-3-2 fill-info"/></g></svg>