<svg xmlns="http://www.w3.org/2000/svg" xmlns:xlink="http://www.w3.org/1999/xlink" x="0" y="0" viewBox="0 0 1689.8 974.4" xml:space="preserve" style="enable-background:new 0 0 1689.8 974.4"><style type="text/css">.bg-elements-9-0{fill:none;stroke:#e7eaf3}.bg-elements-9-1{fill:#2679dd}</style><polygon stroke-miterlimit="10" stroke-width="3" points="230.4 18.5 15.8 440.1 313.2 447.2 452.3 265.2" class="bg-elements-9-0 fill-none stroke-gray-300" opacity=".05"/><polygon stroke-miterlimit="10" stroke-width="3" points="15.8 440.1 69.5 726.4 315.9 668.7 313.2 447.2" class="bg-elements-9-0 fill-none stroke-gray-300" opacity=".05"/><polygon stroke-miterlimit="10" stroke-width="3" points="69.5 726.4 51.1 956.7 383.3 962.6 315.9 668.7" class="bg-elements-9-0 fill-none stroke-gray-300" opacity=".05"/><polygon stroke-miterlimit="10" stroke-width="3" points="383.3 962.6 492 785.8 632.5 760.7 713.9 924.9" class="bg-elements-9-0 fill-none stroke-gray-300" opacity=".05"/><polyline stroke-miterlimit="10" stroke-width="3" points="632.5 760.7 778.4 580.9 765.9 351 452.3 265.2 649 95.1 1089.9 48.1 765.9 351 649 95.1" class="bg-elements-9-0 fill-none stroke-gray-300" opacity=".05"/><polyline stroke-miterlimit="10" stroke-width="3" points="1479 151.6 1307.4 403.9 1248.2 644.3 1388.2 760.7 1677.1 616.3 1479 151.6 1089.9 48.1 1307.4 403.9" class="bg-elements-9-0 fill-none stroke-gray-300" opacity=".05"/><polyline stroke-miterlimit="10" stroke-width="3" points="765.9 351 1076.5 671.2 1002.5 829.6 1388.2 760.7 1248.2 644.3 1076.5 671.2" class="bg-elements-9-0 fill-none stroke-gray-300" opacity=".05"/><circle cx="765.9" cy="351" r="28.8" class="bg-elements-9-1 fill-primary"/><circle cx="649" cy="95.1" r="18.5" class="bg-elements-9-1 fill-primary"/><circle cx="452.3" cy="265.2" r="18.5" class="bg-elements-9-1 fill-primary"/><circle cx="313.2" cy="447.2" r="18.5" class="bg-elements-9-1 fill-primary"/><circle cx="230.4" cy="18.5" r="18.5" class="bg-elements-9-1 fill-primary"/><circle cx="15.8" cy="440.1" r="15.8" class="bg-elements-9-1 fill-primary"/><circle cx="315.9" cy="668.7" r="10" class="bg-elements-9-1 fill-primary"/><circle cx="69.5" cy="726.4" r="8.6" class="bg-elements-9-1 fill-primary"/><circle cx="51.1" cy="956.7" r="11.7" class="bg-elements-9-1 fill-primary"/><circle cx="383.3" cy="962.6" r="11.7" class="bg-elements-9-1 fill-primary"/><circle cx="492" cy="785.8" r="18.7" class="bg-elements-9-1 fill-primary"/><circle cx="632.5" cy="760.7" r="12.4" class="bg-elements-9-1 fill-primary"/><circle cx="713.9" cy="924.9" r="12.4" class="bg-elements-9-1 fill-primary"/><circle cx="778.4" cy="580.9" r="12.4" class="bg-elements-9-1 fill-primary"/><circle cx="1076.5" cy="671.2" r="15.7" class="bg-elements-9-1 fill-primary"/><circle cx="1002.5" cy="826.5" r="10.2" class="bg-elements-9-1 fill-primary"/><circle cx="1388.2" cy="760.7" r="17.3" class="bg-elements-9-1 fill-primary"/><circle cx="1248.2" cy="644.3" r="12.8" class="bg-elements-9-1 fill-primary"/><circle cx="1307.4" cy="403.9" r="17.7" class="bg-elements-9-1 fill-primary"/><circle cx="1479" cy="151.6" r="17.7" class="bg-elements-9-1 fill-primary"/><circle cx="1089.9" cy="48.1" r="12.5" class="bg-elements-9-1 fill-primary"/><circle cx="1677.1" cy="616.3" r="12.8" class="bg-elements-9-1 fill-primary"/></svg>