<svg xmlns="http://www.w3.org/2000/svg" xmlns:xlink="http://www.w3.org/1999/xlink" x="0" y="0" viewBox="0 0 849.4 419.7" xml:space="preserve" style="enable-background:new 0 0 849.4 419.7"><g><linearGradient id="bgElements_1_" x1=".644" x2="84.356" y1="109.482" y2="109.482" gradientUnits="userSpaceOnUse"><stop class="stop-color-warning" offset="0" style="stop-color:#ffc107"/><stop class="stop-color-danger" offset="1" style="stop-color:#de4437"/></linearGradient><path fill="url(#bgElements_1_)" d="M77.6,157.5L77.6,157.5c-7.3,5.4-17.7,3.7-23.1-3.6L3.8,84.5c-5.4-7.3-3.7-17.7,3.6-23.1l0,0 c7.3-5.4,17.7-3.7,23.1,3.6l50.7,69.4C86.5,141.8,84.9,152.2,77.6,157.5z"/></g><g><linearGradient id="bgElements_2_" x1="366.173" x2="430.912" y1="39.594" y2="39.594" gradientUnits="userSpaceOnUse"><stop class="stop-color-primary" offset="0" style="stop-color:#377dff"/><stop class="stop-color-info" offset="1" style="stop-color:#00dffc"/></linearGradient><path fill="url(#bgElements_2_)" d="M425.7,76.7L425.7,76.7c-5.7,4.1-13.7,2.9-17.8-2.8l-39.2-53.7c-4.1-5.7-2.9-13.7,2.8-17.8l0,0 c5.7-4.1,13.7-2.9,17.8,2.8l39.2,53.7C432.6,64.6,431.4,72.6,425.7,76.7z"/></g><linearGradient id="bgElements_3_" x1="716" x2="739" y1="109.482" y2="109.482" gradientUnits="userSpaceOnUse"><stop class="stop-color-primary" offset="0" style="stop-color:#377dff"/><stop class="stop-color-info" offset="1" style="stop-color:#00dffc"/></linearGradient><circle cx="727.5" cy="109.5" r="11.5" fill="url(#bgElements_3_)"/><linearGradient id="bgElements_4_" x1="0" x2="29" y1="317.482" y2="317.482" gradientUnits="userSpaceOnUse"><stop class="stop-color-warning" offset="0" style="stop-color:#ffc107"/><stop class="stop-color-danger" offset="1" style="stop-color:#de4437"/></linearGradient><circle cx="14.5" cy="317.5" r="14.5" fill="url(#bgElements_4_)"/><g><linearGradient id="bgElements_5_" x1="139.173" x2="203.912" y1="371.594" y2="371.594" gradientUnits="userSpaceOnUse"><stop class="stop-color-primary" offset="0" style="stop-color:#377dff"/><stop class="stop-color-info" offset="1" style="stop-color:#00dffc"/></linearGradient><path fill="url(#bgElements_5_)" d="M198.7,408.7L198.7,408.7c-5.7,4.1-13.7,2.9-17.8-2.8l-39.2-53.7c-4.1-5.7-2.9-13.7,2.8-17.8l0,0 c5.7-4.1,13.7-2.9,17.8,2.8l39.2,53.7C205.6,396.6,204.4,404.6,198.7,408.7z"/></g><g><linearGradient id="bgElements_6_" x1="765.644" x2="849.356" y1="368.482" y2="368.482" gradientUnits="userSpaceOnUse"><stop class="stop-color-warning" offset="0" style="stop-color:#ffc107"/><stop class="stop-color-danger" offset="1" style="stop-color:#de4437"/></linearGradient><path fill="url(#bgElements_6_)" d="M842.6,416.5L842.6,416.5c-7.3,5.4-17.7,3.7-23.1-3.6l-50.7-69.4c-5.4-7.3-3.7-17.7,3.6-23.1v0 c7.3-5.4,17.7-3.7,23.1,3.6l50.7,69.4C851.5,400.8,849.9,411.2,842.6,416.5z"/></g></svg>