<svg xmlns="http://www.w3.org/2000/svg" xmlns:xlink="http://www.w3.org/1999/xlink" x="0" y="0" viewBox="0 0 1506.3 578.7" xml:space="preserve" style="enable-background:new 0 0 1506.3 578.7"><style type="text/css">.bg-elements-3-0{fill:#ffc107}.bg-elements-3-1{fill:#00dffc}.bg-elements-3-2{fill:#00c9a7}.bg-elements-3-3{fill:#de4437}.bg-elements-3-4{fill:#377dff}</style><g><path d="M45,91.6L45,91.6c-1.2-1.2-1.2-3.1,0-4.3l9.1-9.1c1.2-1.2,3.1-1.2,4.3,0h0c1.2,1.2,1.2,3.1,0,4.3l-9.1,9.1 C48.2,92.8,46.2,92.8,45,91.6z" class="bg-elements-3-0 fill-warning"/></g><g><path d="M58.4,91.6L58.4,91.6c-1.2,1.2-3.1,1.2-4.3,0L45,82.5c-1.2-1.2-1.2-3.1,0-4.3h0c1.2-1.2,3.1-1.2,4.3,0l9.1,9.1 C59.6,88.5,59.6,90.4,58.4,91.6z" class="bg-elements-3-0 fill-warning"/></g><path d="M1041.3,403.1l5.1,19.1c0.7,2.6,4,3.5,5.9,1.6l14-14c1.9-1.9,1-5.2-1.6-5.9l-19.1-5.1	C1043,398,1040.5,400.4,1041.3,403.1z" class="bg-elements-3-1 fill-info"/><path d="M380.6,577.8l-12.2-12.2c-1.2-1.2-1.2-3.1,0-4.3l12.2-12.2c1.2-1.2,3.1-1.2,4.3,0l12.2,12.2	c1.2,1.2,1.2,3.1,0,4.3l-12.2,12.2C383.8,579,381.8,579,380.6,577.8z" class="bg-elements-3-2 fill-success"/><circle cx="1494.3" cy="353.5" r="12" class="bg-elements-3-2 fill-success"/><path d="M992,21.5h-15.9c-1.5,0-2.8-1.3-2.8-2.8V2.8c0-1.5,1.3-2.8,2.8-2.8H992c1.5,0,2.8,1.3,2.8,2.8v15.9	C994.8,20.2,993.5,21.5,992,21.5z" class="bg-elements-3-3 fill-danger"/><path d="M19.3,310.2l-17,4.6c-2.3,0.6-3.1,3.6-1.4,5.3l12.4,12.4c1.7,1.7,4.7,0.9,5.3-1.4l4.6-17	C23.8,311.7,21.7,309.6,19.3,310.2z" class="bg-elements-3-4 fill-primary"/></svg>