<svg xmlns="http://www.w3.org/2000/svg" xmlns:xlink="http://www.w3.org/1999/xlink" width="180" height="161" x="0" y="0" viewBox="0 0 180 161.2" xml:space="preserve" style="enable-background:new 0 0 180 161.2"><style type="text/css">.circle-process-3-0{fill:none;stroke:#de4437}.circle-process-3-1{fill:#fff}.circle-process-3-2{fill:#de4437}</style><path stroke-miterlimit="10" stroke-width="2" d="M35.5,160.4C14.5,144.1,1,118.6,1,90C1,40.8,40.8,1,90,1s89,39.8,89,89c0,28.1-13,53.1-33.3,69.4" class="circle-process-3-0 fill-none stroke-danger" opacity=".1"/><g><path d="M5.8,64.1c-1.7,0-3-1.3-3-3s1.3-3,3-3s3,1.3,3,3S7.5,64.1,5.8,64.1z" class="circle-process-3-1 fill-white"/><path d="M5.8,59.2c1.1,0,2,0.9,2,2s-0.9,2-2,2s-2-0.9-2-2S4.7,59.2,5.8,59.2 M5.8,57.2c-2.2,0-4,1.8-4,4 c0,2.2,1.8,4,4,4c2.2,0,4-1.8,4-4C9.8,58.9,8,57.2,5.8,57.2L5.8,57.2z" class="circle-process-3-2 fill-danger"/></g><g opacity=".1"><circle cx="90.4" cy="89.6" r="28.6" class="circle-process-3-1 fill-white"/><path d="M90.4,76c7.5,0,13.6,6.1,13.6,13.6s-6.1,13.6-13.6,13.6s-13.6-6.1-13.6-13.6S82.9,76,90.4,76 M90.4,46 c-24.1,0-43.6,19.5-43.6,43.6s19.5,43.6,43.6,43.6S134,113.7,134,89.6S114.4,46,90.4,46L90.4,46z" class="circle-process-3-2 fill-danger"/></g></svg>