<svg xmlns="http://www.w3.org/2000/svg" xmlns:xlink="http://www.w3.org/1999/xlink" x="0" y="0" viewBox="0 0 362 293.9" xml:space="preserve" style="enable-background:new 0 0 362 293.9"><linearGradient id="testimonialsID1" x1="0" x2="362.021" y1="146.953" y2="146.953" gradientUnits="userSpaceOnUse"><stop class="stop-color-warning" offset="0" style="stop-color:#ffc107"/><stop class="stop-color-danger" offset="1" style="stop-color:#de4437"/></linearGradient><path fill="url(#testimonialsID1)" d="M362,114.3c-0.4,0.4-0.8,0.9-1.3,1.3L220.1,256.3c-50.2,50.2-132.3,50.2-182.4,0l0,0 c-50.2-50.2-50.2-132.3,0-182.4L111.5,0L362,0L362,114.3z" opacity=".05"/><linearGradient id="testimonialsID2" x1="0" x2="362.021" y1="158.453" y2="158.453" gradientTransform="matrix(1 0 0 -1 0 293.9069)" gradientUnits="userSpaceOnUse"><stop class="stop-color-warning" offset="0" style="stop-color:#ffc107"/><stop class="stop-color-danger" offset="1" style="stop-color:#de4437"/></linearGradient><path fill="url(#testimonialsID1)" d="M362,91.3c-0.4,0.4-0.8,0.9-1.3,1.3L220.1,233.3c-50.2,50.2-132.3,50.2-182.4,0l0,0 c-50.2-50.2-50.2-132.3,0-182.4L88.5,0L362,0V91.3z"/></svg>