<svg xmlns="http://www.w3.org/2000/svg" xmlns:xlink="http://www.w3.org/1999/xlink" x="0" y="0" viewBox="0 0 1246 1078" xml:space="preserve" style="enable-background:new 0 0 1246 1078"><g><linearGradient id="doubleEllipseTopLeftID1" x1="2073.508" x2="2273.438" y1="1.725" y2="1135.582" gradientTransform="matrix(-1 0 0 1 2600 0)" gradientUnits="userSpaceOnUse"><stop class="stop-color-primary-lighter" offset=".498" style="stop-color:#19a0ff"/><stop class="stop-color-primary" offset="1" style="stop-color:#377dff"/></linearGradient><polygon fill="url(#doubleEllipseTopLeftID1)" points="519.8 .6 0 .6 0 1078 863.4 1078"/><linearGradient id="doubleEllipseTopLeftID2" x1="1717.165" x2="1717.165" y1="0" y2="644.042" gradientTransform="matrix(-1 0 0 1 2600 0)" gradientUnits="userSpaceOnUse"><stop class="stop-color-primary-lighter" offset="0" style="stop-color:#19a0ff"/><stop class="stop-color-primary" offset="1" style="stop-color:#377dff"/></linearGradient><polygon fill="url(#doubleEllipseTopLeftID2)" points="519.7 0 1039.4 .6 1246 639.1 725.2 644"/></g><g><linearGradient id="doubleEllipseTopLeftID3" x1="126.049" x2="149.819" y1="-9.378" y2="181.458" gradientUnits="userSpaceOnUse"><stop class="stop-color-primary-lighter" offset="0" style="stop-color:#19a0ff"/><stop class="stop-color-primary" offset="1" style="stop-color:#377dff"/></linearGradient><path fill="url(#doubleEllipseTopLeftID3)" d="M50.8,0L30.1,57.4c0,0-30.7,76.1,44.1,118.2c0,0,57.4,30.1,107.5-18c0,0,6.7-6.7,12-15.4c5.3-8.7,4.7-8,8-15.4 s36.7-106.2,36.7-106.2s2.7-6.7,4.7-20.7H50.8z"/><linearGradient id="doubleEllipseTopLeftID4" x1="190.821" x2="-28.784" y1="18.391" y2="145.18" gradientUnits="userSpaceOnUse"><stop class="stop-color-primary-lighter" offset="0" style="stop-color:#19a0ff"/><stop class="stop-color-primary" offset="1" style="stop-color:#377dff"/></linearGradient><path fill="url(#doubleEllipseTopLeftID4)" d="M0,0c0,0,0,194.9,0,195c0,0.8,4.6,3.2,5.2,3.6c4.7,2.9,9.7,5.4,14.9,7.4c16.6,6.4,34.8,7.9,52.1,4 c15.6-3.5,30.6-10.6,42.9-20.8c13.1-10.9,20.8-25.4,26.7-41.1c7-18.5,13.6-37.1,19.9-55.8c5.9-17.3,12.5-34.5,17.1-52.3 c1.6-6.5,2.9-13.1,3.3-19.8c0.1-1.9,0.5-20.2-2.4-20.2C179.7,0,0,0,0,0z"/></g></svg>