<svg xmlns="http://www.w3.org/2000/svg" xmlns:xlink="http://www.w3.org/1999/xlink" id="Phone" x="0" y="0" version="1.1" viewBox="0 0 317.5 665" xml:space="preserve" style="enable-background:new 0 0 317.5 665"><style type="text/css">.iphone-3-0{fill:#fff}.iphone-3-1{fill:#f7f7f7}</style><path d="M263,666H54c-29.7,0-54-24.3-54-54V55C0,25.3,24.3,1,54,1h209c29.7,0,54,24.3,54,54v557	C317,641.7,292.7,666,263,666z" class="iphone-3-0 fill-white"/><circle cx="159.5" cy="619.5" r="25.5" class="iphone-3-1"/><path fill-rule="evenodd" d="M180,52h-42c-2.2,0-4-1.8-4-4v0c0-2.2,1.8-4,4-4h42c2.2,0,4,1.8,4,4v0C184,50.2,182.2,52,180,52z" class="iphone-3-1" clip-rule="evenodd"/><g><defs><rect id="iphoneID3_1" width="280" height="500" x="19.4" y="81.3"/></defs><clipPath id="iphoneID3_2"><use xlink:href="#iphoneID3_1" style="overflow:visible"/></clipPath><g style="clip-path:url(#iphoneID3_2)"><image id="SVGiphone3Img1" width="282" height="500" transform="matrix(1 0 0 1 18 82)" xlink:href="../../img/282x500/img7.jpg" style="overflow:visible"/></g><use xlink:href="#iphoneID3_1" style="overflow:visible;fill:none;stroke:#e7eaf3;stroke-miterlimit:10"/></g></svg>