<svg xmlns="http://www.w3.org/2000/svg" xmlns:xlink="http://www.w3.org/1999/xlink" x="0" y="0" viewBox="0 0 999.1 576.5" xml:space="preserve" style="enable-background:new 0 0 999.1 576.5"><style type="text/css">.laptop-0{fill:#fff}.laptop-1{fill:#f7f7f7}.laptop-2{fill:#efefef}.laptop-3{fill:url(#laptopID1)}</style><path d="M881.3,576.5H117.5c-14.4,0-26.2-11.8-26.2-26.2V26.2C91.3,11.8,103.1,0,117.5,0h763.9	c14.4,0,26.2,11.8,26.2,26.2v524.2C907.5,564.7,895.7,576.5,881.3,576.5z" class="laptop-0 fill-white"/><circle cx="498" cy="23.3" r="3" class="laptop-1"/><path d="M996.3,560.7H2.9c-1.5,0-2.8-1.3-2.8-2.8l0,0c0-1.5,1.3-2.8,2.8-2.8h993.4c1.5,0,2.8,1.3,2.8,2.8l0,0	C999.1,559.4,997.9,560.7,996.3,560.7z" class="laptop-0"/><path d="M499.6,562.5L0,560.7c0,0,24.1,11.3,117.8,15.8H498h3.1h380.2c93.7-4.5,117.8-15.8,117.8-15.8L499.6,562.5z" class="laptop-2"/><linearGradient id="laptopID1" x1="403.821" x2="594.97" y1="558.647" y2="558.647" gradientUnits="userSpaceOnUse"><stop offset="0" style="stop-color:#f0f1f2"/><stop offset=".052" style="stop-color:#f6f7f8"/><stop offset=".171" style="stop-color:#fdfdfd"/><stop offset=".5" style="stop-color:#fff"/><stop offset=".829" style="stop-color:#fdfdfd"/><stop offset=".948" style="stop-color:#f6f7f8"/><stop offset="1" style="stop-color:#f0f1f2"/></linearGradient><path d="M591.4,562.2H407.4c-1.9,0-3.5-1.6-3.5-3.5v-3.5H595v3.5C595,560.6,593.4,562.2,591.4,562.2z" class="laptop-3"/><g><defs><rect id="laptopID2" width="752.5" height="469.7" x="121.7" y="37.5"/></defs><clipPath id="laptopID3"><use xlink:href="#laptopID2" style="overflow:visible"/></clipPath><g style="clip-path:url(#laptopID3)"><image id="SVGlaptopImg1" width="1618" height="1010" transform="matrix(0.4651 0 0 0.4651 121.7472 37.4679)" xlink:href="../../img/1618x1010/img1.jpg" style="overflow:visible"/></g><use xlink:href="#laptopID2" style="overflow:visible;fill:none;stroke:#e7eaf3;stroke-miterlimit:10"/></g></svg>