<svg xmlns="http://www.w3.org/2000/svg" xmlns:xlink="http://www.w3.org/1999/xlink" x="0" y="0" viewBox="0 0 1653 222.1" xml:space="preserve" style="enable-background:new 0 0 1653 222.1"><style type="text/css">.process-pointer-1-0{fill:none;stroke:#fff}</style><g><g opacity=".3"><path stroke-miterlimit="10" d="M0.5,200.2c0,0,1.3,0.4,3.8,1.2" class="process-pointer-1-0 fill-none stroke-white"/><path stroke-dasharray="7.964 7.964" stroke-miterlimit="10" d="M12,203.4c31.8,8.4,125.8,28.7,233.9,11.3c74.3-12,150.4-23.1,219.4-55c51.4-23.8,93.7-64.1,147.1-84.2 c24.2-9.1,49.4-15.5,74.7-20.5c65.8-12.9,137.3-16.7,205.9-8c67.6,8.6,125.9,33.9,179.7,52.6c335.2,116.6,538.6-59.1,574.2-93.5" class="process-pointer-1-0 fill-none stroke-white"/><path stroke-miterlimit="10" d="M1649.7,3.4c1.8-1.9,2.8-2.9,2.8-2.9" class="process-pointer-1-0 fill-none stroke-white"/></g></g><g><circle cx="1286.1" cy="139.1" r="7.9" stroke-miterlimit="10" stroke-opacity=".15" stroke-width="12" class="process-pointer-1-0 fill-none stroke-white"/><circle cx="1286.1" cy="139.1" r="4.5" stroke-miterlimit="10" stroke-width="5" class="process-pointer-1-0 fill-none stroke-white"/></g><g><circle cx="597.1" cy="82.1" r="7.9" stroke-miterlimit="10" stroke-opacity=".15" stroke-width="12" class="process-pointer-1-0 fill-none stroke-white"/><circle cx="597.1" cy="82.1" r="4.5" stroke-miterlimit="10" stroke-width="5" class="process-pointer-1-0 fill-none stroke-white"/></g><g><circle cx="448.1" cy="166.1" r="7.9" stroke-miterlimit="10" stroke-opacity=".15" stroke-width="12" class="process-pointer-1-0 fill-none stroke-white"/><circle cx="448.1" cy="166.1" r="4.5" stroke-miterlimit="10" stroke-width="5" class="process-pointer-1-0 fill-none stroke-white"/></g></svg>