<svg xmlns="http://www.w3.org/2000/svg" xmlns:xlink="http://www.w3.org/1999/xlink" x="0" y="0" viewBox="0 0 192.5 192.5" xml:space="preserve" style="enable-background:new 0 0 192.5 192.5"><style type="text/css">.wave-6-top-left-0{fill:#efa02e}</style><path d="M0.5,69.5c0.2,0,0.3,0,0.5,0c37.8,0,68.5-30.7,68.5-68.5c0-0.2,0-0.3,0-0.5h-69V69.5z" class="wave-6-top-left-0 fill-warning-darker"/><path d="M0.5,100c0.2,0,0.5,0,0.7,0C55.8,100,100,55.8,100,1.2c0-0.2,0-0.5,0-0.7H0.5V100z" class="wave-6-top-left-0 fill-warning-darker" opacity=".55"/><path d="M0.5,141c0.3,0,0.7,0,1,0C78.6,141,141,78.6,141,1.5c0-0.3,0-0.7,0-1H0.5V141z" class="wave-6-top-left-0 fill-warning-darker" opacity=".45"/><path d="M0.5,192c0.5,0,0.9,0,1.4,0C106.9,192,192,106.9,192,1.9c0-0.5,0-0.9,0-1.4H0.5V192z" class="wave-6-top-left-0 fill-warning-darker" opacity=".35"/></svg>