<svg xmlns="http://www.w3.org/2000/svg" xmlns:xlink="http://www.w3.org/1999/xlink" x="0" y="0" viewBox="0 0 589.5 112.7" xml:space="preserve" style="enable-background:new 0 0 589.5 112.7"><style type="text/css">.wave-7-bottom-0{fill:#377dff}</style><linearGradient id="wave7BottomID" x1="275.629" x2="303.638" y1="4.281" y2="163.125" gradientUnits="userSpaceOnUse"><stop class="stop-color-info" offset="0" style="stop-color:#00dffc"/><stop class="stop-color-primary" offset="1" style="stop-color:#377dff"/></linearGradient><path fill="url(#wave7BottomID)" d="M0,64.7c0,0,131.5-62.5,277-23.5s205,66,312.5,71.5H0L0,64.7z"/><path d="M0,0c0,0.1,38.9,5.7,42.5,6.4c37.7,7.3,74.4,19.5,108.4,37.3c15.5,8.2,30.3,17.6,45.6,26.3	c22.2,12.7,45.4,22.1,70.1,28.9c11,3,22.2,5.5,33.4,7.7c13.6,2.6,27.3,4.7,41,6.2c0,0-341,0-341,0S0,0.2,0,0z" class="wave-7-bottom-0 fill-primary"/></svg>