<svg xmlns="http://www.w3.org/2000/svg" xmlns:xlink="http://www.w3.org/1999/xlink" x="0" y="0" preserveAspectRatio="none" viewBox="0 0 1920 347.1" xml:space="preserve" style="margin-bottom:-9px;enable-background:new 0 0 1920 347.1"><style type="text/css">.wave-4-bottom-0{fill:#fff}</style><linearGradient id="wave4Bottom" x1="960" x2="960" y1="347.082" y2="50.608" gradientUnits="userSpaceOnUse"><stop class="stop-color-primary" offset="0" stop-opacity=".3" style="stop-color:#377dff"/><stop class="stop-color-white" offset="1" stop-opacity=".3" style="stop-color:#fff"/></linearGradient><path fill="url(#wave4Bottom)" d="M0,233c0,0,311.2-97,706.6-35.5c152.8,23.8,304.3,73.9,459.2,81.8c69.2,3.5,138.2-4.1,205.7-19.6 c43.2-9.9,85.8-22.8,127.7-37.3c74.1-25.6,144.2-61.1,210-103.5c62.4-40.2,134.7-74.7,210.9-67.3c0,0,0,295.5,0,295.5H0.5L0,233z"/><path d="M0,326.1c0,0,321-226.7,960.5-76.4S1920,0,1920,0v347H0L0,326.1z" class="wave-4-bottom-0 fill-white"/></svg>