<svg xmlns="http://www.w3.org/2000/svg" xmlns:xlink="http://www.w3.org/1999/xlink" width="100%" height="140" x="0" y="0" preserveAspectRatio="none" viewBox="0 0 1920 140" xml:space="preserve" style="margin-top:-2px;enable-background:new 0 0 1920 140"><style type="text/css">.wave-top-1-sm-0{fill:#377dff}.wave-top-1-sm-1{fill:#fff}</style><path d="M1607,81.8c0,0-274.6,48.2-560.1,19.9c-494.8-49.2-725.1,2.7-938.5,6.6C-203,114-339.2,85.6-339.2,85.6V9.4l1946.2,0V81.8z" class="wave-top-1-sm-0 fill-primary" opacity=".3"/><path d="M2033.1,80.8c0,0-274.6,48.2-560.1,19.9c-494.8-49.2-725.1,2.7-938.5,6.6C223.1,113,86.9,84.6,86.9,84.6V8.5h1946.2V80.8z" class="wave-top-1-sm-0 fill-primary" opacity=".3"/><path d="M1526.9,5.6c0,0-309,96.5-698.5,96.5C406.8,102.1,201.4,7,201.4,7V1.8l1332,0L1526.9,5.6z" class="wave-top-1-sm-1 fill-white" opacity="0"/><path d="M2026.7,55.1c0,0-358.4,63.9-770,39c-523.7-31.8-712.6-8.6-938.5,6.6C-21.5,123.7-347.7,49-347.7,49l-8.5-51.3l2380.8,4.1L2026.7,55.1z" class="wave-top-1-sm-1 fill-white"/></svg>